<?xml version="1.0" encoding="UTF-8"?>
<svg version="1.1" xmlns="http://www.w3.org/2000/svg" width="512" height="512">
<path d="M0 0 C1.01790619 0.00215515 2.03581238 0.0043103 3.08456421 0.00653076 C17.69363523 0.05620146 32.02575853 0.30709809 46.375 3.3125 C47.34985352 3.51117676 48.32470703 3.70985352 49.32910156 3.91455078 C97.7109774 14.03517194 141.69928269 35.9516877 177.375 70.3125 C178.3640332 71.26068604 178.3640332 71.26068604 179.37304688 72.22802734 C188.86130305 81.37247479 197.6012044 90.66984009 205.375 101.3125 C206.23306152 102.46355017 207.09113451 103.61459177 207.94921875 104.765625 C213.98736829 112.95680614 219.34595521 121.47054105 224.375 130.3125 C224.73948242 130.94430176 225.10396484 131.57610352 225.47949219 132.22705078 C247.00981855 169.84336237 256.83759735 212.56515288 256.75 255.625 C256.74918427 257.13927582 256.74918427 257.13927582 256.74835205 258.68414307 C256.70758601 275.19373539 255.80029309 291.11032001 252.375 307.3125 C252.15537598 308.35438477 251.93575195 309.39626953 251.70947266 310.46972656 C241.61185215 356.76299311 219.25271242 399.17663721 186.375 433.3125 C185.74287598 433.97185547 185.11075195 434.63121094 184.45947266 435.31054688 C175.31502521 444.79880305 166.01765991 453.5387044 155.375 461.3125 C154.22394983 462.17056152 153.07290823 463.02863451 151.921875 463.88671875 C143.73224019 469.92427396 135.22961724 475.30707302 126.375 480.3125 C125.66778809 480.7146875 124.96057617 481.116875 124.23193359 481.53125 C98.02919713 496.28361537 69.08869203 505.81885806 39.375 510.3125 C38.25254883 510.48910156 37.13009766 510.66570312 35.97363281 510.84765625 C24.36052257 512.5045586 12.84320055 512.71123513 1.125 512.6875 C-0.39302216 512.68668427 -0.39302216 512.68668427 -1.94171143 512.68585205 C-18.47030572 512.64511956 -34.40413999 511.74174222 -50.625 508.3125 C-51.66688477 508.09287598 -52.70876953 507.87325195 -53.78222656 507.64697266 C-95.03449434 498.64890931 -133.61111405 479.92831216 -165.625 452.3125 C-166.37007813 451.67828125 -167.11515625 451.0440625 -167.8828125 450.390625 C-181.38779833 438.57948485 -194.05918743 425.82889772 -204.625 411.3125 C-205.48149066 410.16255169 -206.33826433 409.01281411 -207.1953125 407.86328125 C-213.23534209 399.67315742 -218.61867614 391.16870382 -223.625 382.3125 C-224.0271875 381.60528809 -224.429375 380.89807617 -224.84375 380.16943359 C-237.8691741 357.03404164 -246.61801461 331.86287591 -251.9375 305.875 C-252.08485596 305.15610596 -252.23221191 304.43721191 -252.3840332 303.6965332 C-255.35789088 288.05024391 -255.99800362 272.57681954 -255.9375 256.6875 C-255.93534485 255.66959381 -255.9331897 254.65168762 -255.93096924 253.60293579 C-255.88129854 238.99386477 -255.63040191 224.66174147 -252.625 210.3125 C-252.42632324 209.33764648 -252.22764648 208.36279297 -252.02294922 207.35839844 C-241.90232806 158.9765226 -219.9858123 114.98821731 -185.625 79.3125 C-184.99287598 78.65314453 -184.36075195 77.99378906 -183.70947266 77.31445312 C-174.56502521 67.82619695 -165.26765991 59.0862956 -154.625 51.3125 C-153.47394983 50.45443848 -152.32290823 49.59636549 -151.171875 48.73828125 C-142.98224019 42.70072604 -134.47961724 37.31792698 -125.625 32.3125 C-124.91778809 31.9103125 -124.21057617 31.508125 -123.48193359 31.09375 C-100.34654164 18.0683259 -75.17537591 9.31948539 -49.1875 4 C-48.46860596 3.85264404 -47.74971191 3.70528809 -47.0090332 3.5534668 C-31.36274391 0.57960912 -15.88931954 -0.06050362 0 0 Z " fill="#A65D4E" transform="translate(255.625,-0.3125)"/>
<path d="M0 0 C1.01790619 0.00215515 2.03581238 0.0043103 3.08456421 0.00653076 C17.69363523 0.05620146 32.02575853 0.30709809 46.375 3.3125 C47.34985352 3.51117676 48.32470703 3.70985352 49.32910156 3.91455078 C97.7109774 14.03517194 141.69928269 35.9516877 177.375 70.3125 C178.3640332 71.26068604 178.3640332 71.26068604 179.37304688 72.22802734 C188.86130305 81.37247479 197.6012044 90.66984009 205.375 101.3125 C206.23306152 102.46355017 207.09113451 103.61459177 207.94921875 104.765625 C213.98736829 112.95680614 219.34595521 121.47054105 224.375 130.3125 C224.73948242 130.94430176 225.10396484 131.57610352 225.47949219 132.22705078 C247.00981855 169.84336237 256.83759735 212.56515288 256.75 255.625 C256.74918427 257.13927582 256.74918427 257.13927582 256.74835205 258.68414307 C256.70758601 275.19373539 255.80029309 291.11032001 252.375 307.3125 C252.15537598 308.35438477 251.93575195 309.39626953 251.70947266 310.46972656 C240.44067248 362.13235043 214.18587335 405.27581731 177.3125 442.5625 C176.56145996 443.32667236 175.81041992 444.09084473 175.03662109 444.87817383 C174.33230957 445.58353271 173.62799805 446.2888916 172.90234375 447.015625 C172.27062256 447.65145508 171.63890137 448.28728516 170.98803711 448.94238281 C169.375 450.3125 169.375 450.3125 167.375 450.3125 C160.78782036 414.93685773 154.27211474 379.54866636 147.89758492 344.13407326 C146.6547018 337.23004605 145.4073328 330.32688673 144.1496582 323.42553711 C143.02251908 317.24048562 141.90301526 311.05411142 140.79293317 304.86597484 C140.21339705 301.63668088 139.6291721 298.4083587 139.03792763 295.18118477 C138.38919332 291.63629023 137.75411218 288.08920612 137.12231445 284.54125977 C136.83191284 282.98105354 136.83191284 282.98105354 136.53564453 281.389328 C134.94888926 272.32982813 136.47401618 265.46665517 139.55859375 256.91796875 C142.69610807 247.95098997 142.64844667 238.95608129 142.6875 229.5625 C142.69144775 228.87529877 142.69539551 228.18809753 142.69946289 227.48007202 C142.72685632 217.2618769 141.86523748 207.6806406 139.25 197.76953125 C138.375 194.3125 138.375 194.3125 138.375 190.3125 C139.4371875 189.8278125 140.499375 189.343125 141.59375 188.84375 C153.83838658 183.10575031 161.45983073 178.14473958 166.46484375 165.046875 C169.80085995 155.02450872 168.85741031 145.741642 164.37890625 136.1875 C160.00227286 128.4337412 152.9009209 121.87783454 144.43359375 118.9453125 C133.68418674 116.72129726 123.43683948 117.01696608 113.8125 122.64453125 C110.79238991 124.7111771 108.03635995 126.79899338 105.375 129.3125 C101.36226641 127.75768211 99.04921457 124.92449063 96.3125 121.75 C91.13341037 115.94200849 85.60986378 110.99291829 79.375 106.3125 C78.41335938 105.58546875 77.45171875 104.8584375 76.4609375 104.109375 C63.04676871 94.3968376 48.38230016 86.67059518 32.375 82.3125 C31.71274414 82.11930176 31.05048828 81.92610352 30.36816406 81.72705078 C13.347694 76.83036787 -5.33283564 76.45006534 -22.625 80.3125 C-24.45611328 80.67988281 -24.45611328 80.67988281 -26.32421875 81.0546875 C-51.94053449 86.53460541 -75.79500626 101.31119281 -93.625 120.3125 C-96.625 123.3125 -99.625 126.3125 -102.625 129.3125 C-105.58904628 127.92039736 -108.15282057 126.27892353 -110.8125 124.375 C-120.80857272 117.75947615 -131.81109048 116.53311046 -143.52734375 118.8984375 C-152.83462626 122.10378914 -159.73455948 128.93293508 -164.1875 137.5625 C-168.57810098 146.96560011 -169.03529417 156.19647285 -165.5625 166 C-160.39758405 178.21061361 -151.22350758 184.62492245 -139.27734375 189.6484375 C-138.73207031 189.86757812 -138.18679687 190.08671875 -137.625 190.3125 C-138.08359246 194.51626421 -138.64236464 198.57363109 -139.625 202.6875 C-144.23567861 222.73549717 -143.41051572 244.79666982 -136.28930664 264.03442383 C-134.45618294 270.32067052 -134.69072658 275.53201178 -135.84765625 281.83984375 C-135.98799286 282.65225525 -136.12832947 283.46466675 -136.2729187 284.30169678 C-136.73391087 286.95310118 -137.21043399 289.60144472 -137.6875 292.25 C-138.01515183 294.11355687 -138.34204734 295.97724687 -138.66821289 297.84106445 C-140.77982749 309.84623341 -143.00426502 321.82962485 -145.2878418 333.80322266 C-147.67517792 346.36156346 -149.83580685 358.95759738 -152.00442505 371.55523682 C-154.86229001 388.13730522 -157.88042213 404.68536428 -161.01123047 421.21801758 C-161.32814842 422.89658129 -161.64472873 424.5752088 -161.9609375 426.25390625 C-162.10989471 427.04404617 -162.25885193 427.8341861 -162.412323 428.64826965 C-163.4846352 434.40093382 -164.40475232 440.16112101 -165.21728516 445.95678711 C-165.625 448.3125 -165.625 448.3125 -166.625 450.3125 C-170.37332981 448.74648766 -172.78944081 446.42048049 -175.66015625 443.578125 C-176.13551819 443.10831711 -176.61088013 442.63850922 -177.10064697 442.15446472 C-178.63642513 440.63047977 -180.16293088 439.09769392 -181.6875 437.5625 C-182.20766693 437.04084259 -182.72783386 436.51918518 -183.26376343 435.98171997 C-191.0183241 428.18698722 -198.23149913 420.2700038 -204.625 411.3125 C-205.47361102 410.16804596 -206.32391553 409.02484599 -207.17578125 407.8828125 C-213.228145 399.69021579 -218.61418828 391.17664286 -223.625 382.3125 C-224.0271875 381.60528809 -224.429375 380.89807617 -224.84375 380.16943359 C-237.8691741 357.03404164 -246.61801461 331.86287591 -251.9375 305.875 C-252.08485596 305.15610596 -252.23221191 304.43721191 -252.3840332 303.6965332 C-255.35789088 288.05024391 -255.99800362 272.57681954 -255.9375 256.6875 C-255.93534485 255.66959381 -255.9331897 254.65168762 -255.93096924 253.60293579 C-255.88129854 238.99386477 -255.63040191 224.66174147 -252.625 210.3125 C-252.42632324 209.33764648 -252.22764648 208.36279297 -252.02294922 207.35839844 C-241.90232806 158.9765226 -219.9858123 114.98821731 -185.625 79.3125 C-184.99287598 78.65314453 -184.36075195 77.99378906 -183.70947266 77.31445312 C-174.56502521 67.82619695 -165.26765991 59.0862956 -154.625 51.3125 C-153.47394983 50.45443848 -152.32290823 49.59636549 -151.171875 48.73828125 C-142.98224019 42.70072604 -134.47961724 37.31792698 -125.625 32.3125 C-124.91778809 31.9103125 -124.21057617 31.508125 -123.48193359 31.09375 C-100.34654164 18.0683259 -75.17537591 9.31948539 -49.1875 4 C-48.46860596 3.85264404 -47.74971191 3.70528809 -47.0090332 3.5534668 C-31.36274391 0.57960912 -15.88931954 -0.06050362 0 0 Z " fill="#A2D3FE" transform="translate(255.625,-0.3125)"/>
<path d="M0 0 C16.23255269 0 16.23255269 0 22.9375 1.6875 C23.69635498 1.87046631 24.45520996 2.05343262 25.23706055 2.24194336 C27.49889403 2.80260921 29.74981134 3.39445398 32 4 C33.23492187 4.32742187 34.46984375 4.65484375 35.7421875 4.9921875 C51.80625227 9.80789182 67.17579015 18.23049781 80 29 C81.17182237 29.95839768 82.34370044 30.91672727 83.515625 31.875 C90.63692992 37.77453562 97.05553954 43.89180918 103 51 C106.78383907 49.21484793 110.07185688 46.93340029 113.48828125 44.53515625 C119.64466828 40.77238782 124.73157336 39.46573734 131.8125 39.5625 C132.60785156 39.57224854 133.40320313 39.58199707 134.22265625 39.59204102 C144.75075632 39.90921723 151.20956298 43.34702133 158.8046875 50.64453125 C165.96846809 58.33093641 169.70584962 67.77339731 169.35546875 78.3515625 C168.3567824 85.79232457 165.75791358 93.15456332 161 99 C160.56558594 99.54914063 160.13117188 100.09828125 159.68359375 100.6640625 C154.37818534 106.70079287 147.27869605 109.89404539 140 113 C139.34 113 138.68 113 138 113 C138.15146484 113.53439697 138.30292969 114.06879395 138.45898438 114.61938477 C141.8673421 127.08741951 143.51098716 139.16651584 143.5 152.0625 C143.50580078 153.33230713 143.51160156 154.60211426 143.51757812 155.91040039 C143.36605402 167.54669441 141.52694991 178.48450092 136.671875 189.109375 C134.74256267 197.40990478 137.83088068 207.23026922 139.32910156 215.45068359 C139.56777223 216.77610882 139.80609948 218.10159592 140.04411316 219.42713928 C140.68760824 223.00538945 141.33584958 226.58276483 141.98496342 230.15999937 C142.67011808 233.9406786 143.35077152 237.72216814 144.03192139 241.50357056 C145.32615015 248.68467354 146.6242812 255.8650652 147.92387462 263.04519904 C149.52674635 271.9019372 151.12475688 280.75955114 152.72265625 289.6171875 C154.49008644 299.41389923 156.25820651 309.21048397 158.03006864 319.00639522 C158.64679487 322.41653212 159.26288464 325.82678127 159.87735367 329.23732567 C160.94922862 335.18626782 162.02303475 341.13479774 163.11248612 347.08054817 C163.7013745 350.29875604 164.28512762 353.5178979 164.87011719 356.73681641 C165.08584003 357.90438162 165.30156288 359.07194683 165.52382278 360.27489281 C165.71872677 361.35219973 165.91363075 362.42950665 166.11444092 363.53945923 C166.28622234 364.47762796 166.45800377 365.4157967 166.63499069 366.38239479 C167.58850361 373.22035846 167.58850361 373.22035846 165.62890625 375.81640625 C150.32017702 388.75213775 133.38360709 399.14746692 115.75 408.5625 C114.51564209 409.22596436 114.51564209 409.22596436 113.25634766 409.90283203 C112.48597168 410.30743652 111.7155957 410.71204102 110.921875 411.12890625 C110.23706055 411.49056885 109.55224609 411.85223145 108.84667969 412.22485352 C107 413 107 413 104 413 C103.97812622 411.24079224 103.97812622 411.24079224 103.95581055 409.44604492 C103.89680942 404.99687683 103.81960784 400.5481627 103.73754883 396.09936523 C103.70476893 394.19221491 103.67659979 392.28497846 103.65356445 390.37768555 C103.23135909 356.30481404 95.610637 326.90488088 70.71923828 302.29931641 C50.88562248 283.43714301 26.54438464 276.41312588 0 274 C0 234.4 0 194.8 0 154 C-2.31 154 -4.62 154 -7 154 C-14.21762769 152.03345796 -20.47324679 148.99073736 -24.3125 142.375 C-26.4584185 137.66980984 -27.01513032 133.08440274 -26 128 C-22.94979893 123.8168671 -20.90994288 122.96397715 -16 121 C-10.72 121 -5.44 121 0 121 C0 81.07 0 41.14 0 0 Z " fill="#A55D4E" transform="translate(256,77)"/>
<path d="M0 0 C0 39.93 0 79.86 0 121 C-7.92 121.495 -7.92 121.495 -16 122 C-18.97 123.485 -18.97 123.485 -22 125 C-22.66 125 -23.32 125 -24 125 C-25.87221431 130.61664293 -25.89121234 136.72810233 -23.625 142.25 C-20.77475358 147.19042712 -16.21184295 149.95179138 -11 152 C-7.37 152.66 -3.74 153.32 0 154 C0 185.68 0 217.36 0 250 C-20.46364333 250 -40.09962571 248.72957481 -60 244 C-60.7945459 243.82098145 -61.5890918 243.64196289 -62.40771484 243.45751953 C-91.97875121 236.75937207 -116.74523473 222.53826685 -133.453125 196.7578125 C-134.87736012 194.22483738 -135.95050075 191.71292125 -137 189 C-137.25942383 188.32984863 -137.51884766 187.65969727 -137.78613281 186.96923828 C-146.57083983 163.33564067 -144.69738965 136.97665495 -138 113 C-139.07507813 112.82984375 -139.07507813 112.82984375 -140.171875 112.65625 C-149.30155756 110.53776013 -157.42147543 104.39322534 -163 97 C-168.27098426 86.8615518 -170.87372141 77.1466646 -167.875 65.875 C-164.45988596 55.8826293 -157.69912729 48.15041917 -148.76171875 42.61328125 C-139.82967806 38.33490882 -128.37006808 38.54276934 -119.0625 41.5625 C-113.70103164 43.81269203 -109.3443476 47.18126483 -105 51 C-101.54626303 49.45452526 -99.82484039 47.66588134 -97.46875 44.69921875 C-95.25651327 42.13984912 -92.72075819 40.02414006 -90.14453125 37.83984375 C-88.73933884 36.63429616 -87.36003096 35.39775016 -86.01171875 34.12890625 C-62.70782826 12.31716694 -31.73549933 0 0 0 Z " fill="#C28678" transform="translate(256,77)"/>
<path d="M0 0 C0.66 0 1.32 0 2 0 C3.4313221 1.45523167 3.4313221 1.45523167 5.10012817 3.47596741 C8.97441152 8.02798453 13.12753163 12.20621482 17.39794922 16.38452148 C19.07273325 18.03300394 20.74744304 19.68156183 22.42208862 21.33018494 C23.2994656 22.19208876 24.17684258 23.05399258 25.08080673 23.94201469 C29.27183322 28.06410822 33.44800543 32.20117878 37.62541604 36.33706295 C44.02142184 42.66940827 50.42124289 48.99756909 56.84765625 55.29907227 C61.66549786 60.02339532 66.46196992 64.76849972 71.24658585 69.52650642 C73.06953127 71.3321796 74.89962827 73.1306627 76.73696518 74.92168999 C79.30296654 77.42490247 81.84294709 79.95200423 84.37841797 82.48608398 C85.52069603 83.58286217 85.52069603 83.58286217 86.68605042 84.70179749 C90.89661951 88.97068743 92.85017872 91.9259274 93.03377533 97.99680233 C93.01705654 98.98838518 93.01705654 98.98838518 93 100 C93.04856644 100.87127029 93.09713287 101.74254059 93.14717102 102.64021301 C93.15701523 103.35295883 93.16685944 104.06570465 93.17700195 104.80004883 C93.19596779 106.04642372 93.19596779 106.04642372 93.21531677 107.31797791 C93.22289505 108.18886551 93.23047333 109.05975311 93.23828125 109.95703125 C93.2480751 110.88975357 93.25786896 111.82247589 93.26795959 112.78346252 C93.4405989 133.50093104 93.30428596 153.6400442 89 174 C88.78037598 175.04188477 88.56075195 176.08376953 88.33447266 177.15722656 C77.06567248 228.81985043 50.81087335 271.96331731 13.9375 309.25 C12.81093994 310.39625854 12.81093994 310.39625854 11.66162109 311.56567383 C10.95730957 312.27103271 10.25299805 312.9763916 9.52734375 313.703125 C8.89562256 314.33895508 8.26390137 314.97478516 7.61303711 315.62988281 C6 317 6 317 4 317 C-2.58717964 281.62435773 -9.10288526 246.23616636 -15.47741508 210.82157326 C-16.7202982 203.91754605 -17.9676672 197.01438673 -19.2253418 190.11303711 C-20.35248092 183.92798562 -21.47198474 177.74161142 -22.58206683 171.55347484 C-23.16160295 168.32418088 -23.7458279 165.0958587 -24.33707237 161.86868477 C-24.98580668 158.32379023 -25.62088782 154.77670612 -26.25268555 151.22875977 C-26.44628662 150.18862228 -26.6398877 149.1484848 -26.83935547 148.076828 C-28.42611074 139.01732813 -26.90098382 132.15415517 -23.81640625 123.60546875 C-20.67889193 114.63848997 -20.72655333 105.64358129 -20.6875 96.25 C-20.68355225 95.56279877 -20.67960449 94.87559753 -20.67553711 94.16757202 C-20.64814368 83.9493769 -21.50976252 74.3681406 -24.125 64.45703125 C-25 61 -25 61 -25 57 C-23.40671875 56.27296875 -23.40671875 56.27296875 -21.78125 55.53125 C-9.53661342 49.79325031 -1.91516927 44.83223958 3.08984375 31.734375 C6.83178087 20.49250382 4.62445083 10.67180962 0 0 Z " fill="#65B1FB" transform="translate(419,133)"/>
<path d="M0 0 C2.74576751 2.74576751 2.73430363 4.95667958 3.41738892 8.77461243 C3.60983738 9.8315658 3.60983738 9.8315658 3.80617368 10.90987176 C4.23596013 13.2814689 4.65430364 15.65494292 5.07275391 18.02856445 C5.37779279 19.72527945 5.68351905 21.421871 5.98988342 23.11834717 C6.82143602 27.7348977 7.64299523 32.35317655 8.46258974 36.97186303 C9.32091181 41.80046147 10.18753822 46.62756951 11.05307007 51.45487976 C12.50600216 59.56555163 13.95271139 67.67731425 15.39550781 75.78979492 C17.06390831 85.1704924 18.74088425 94.54962421 20.42276251 103.92791396 C22.03943741 112.94319816 23.65116 121.95936005 25.26023483 130.97600365 C25.9454277 134.81545215 26.63214971 138.65462251 27.32005692 142.49358559 C28.13015345 147.01620549 28.93584629 151.5395886 29.73814201 156.06359863 C30.03335062 157.7243147 30.33002821 159.3847704 30.62827873 161.04494286 C31.03506671 163.31074797 31.43650176 165.57743833 31.83657837 167.84443665 C32.06258539 169.11299153 32.28859241 170.38154642 32.52144814 171.68854237 C32.93421844 174.5448083 33.21019756 177.12543683 33 180 C21.56649023 195.14695739 -1.77403959 205.76556404 -18.25 214.5625 C-19.07290527 215.00480957 -19.89581055 215.44711914 -20.74365234 215.90283203 C-21.51402832 216.30743652 -22.2844043 216.71204102 -23.078125 217.12890625 C-24.10534668 217.67140015 -24.10534668 217.67140015 -25.15332031 218.22485352 C-27 219 -27 219 -30 219 C-30.01458252 217.82719482 -30.02916504 216.65438965 -30.04418945 215.44604492 C-30.10319058 210.99687683 -30.18039216 206.5481627 -30.26245117 202.09936523 C-30.29523107 200.19221491 -30.32340021 198.28497846 -30.34643555 196.37768555 C-30.76864091 162.30481404 -38.389363 132.90488088 -63.28076172 108.29931641 C-83.11437752 89.43714301 -107.45561536 82.41312588 -134 80 C-134 72.08 -134 64.16 -134 56 C-131.90785156 55.90203125 -129.81570313 55.8040625 -127.66015625 55.703125 C-96.87369051 54.17221096 -67.03201502 50.67339399 -39 37 C-37.98421875 36.50628906 -36.9684375 36.01257813 -35.921875 35.50390625 C-20.23115625 27.41748834 -8.55279181 15.24212619 0 0 Z " fill="#784132" transform="translate(390,271)"/>
<path d="M0 0 C29.19736967 0 53.41381824 10.64415314 74 31 C74.66386719 31.59167969 75.32773437 32.18335938 76.01171875 32.79296875 C93.35293563 48.51728895 102.29538481 74.36088508 104 97 C104.29777287 104.47553925 104.19096247 111.95822731 104.125 119.4375 C104.11494238 121.4407507 104.10582149 123.44400632 104.09765625 125.44726562 C104.07588101 130.29830149 104.04150712 135.14909449 104 140 C82.90315839 148.89233527 61.62562704 155.36492335 39 159 C38.31067383 159.11714355 37.62134766 159.23428711 36.91113281 159.35498047 C24.47026355 161.43463894 12.83180775 161 0 161 C0 107.87 0 54.74 0 0 Z " fill="#A65D4E" transform="translate(256,351)"/>
<path d="M0 0 C0 53.13 0 106.26 0 161 C-26.77715434 161 -26.77715434 161 -36.9375 159.375 C-38.10152344 159.19751221 -39.26554687 159.02002441 -40.46484375 158.8371582 C-61.94155828 155.39825765 -83.55316579 149.91389034 -103 140 C-103.12861294 132.94250351 -103.21509554 125.8853176 -103.2746582 118.8269043 C-103.29953356 116.43453685 -103.33344645 114.04224319 -103.37719727 111.65014648 C-103.91956443 81.19463522 -96.50973026 54.79929431 -75.23632812 32.21313477 C-55.0579093 11.52604579 -29.04618396 0 0 0 Z " fill="#C28677" transform="translate(256,351)"/>
<path d="M0 0 C13.02614015 -0.60869814 23.13970634 0.46722712 33.5 9.3125 C38.79452391 14.4692802 43.6807507 20.27550701 44.1965332 27.90844727 C44.30958262 37.64458037 43.23529018 46.91021298 41.60131836 56.50024414 C41.18421335 58.95685733 40.78916049 61.41632905 40.39648438 63.87695312 C40.13409502 65.46896191 39.87046759 67.06076725 39.60546875 68.65234375 C39.48970993 69.37332748 39.37395111 70.09431122 39.25468445 70.83714294 C37.36987175 81.7115251 32.87659778 90.11307772 23.69140625 96.640625 C21.50120553 97.90084448 19.3119881 98.9825598 17 100 C16.33097656 100.31710937 15.66195312 100.63421875 14.97265625 100.9609375 C9.46628698 103.33794443 6.5254117 103 0 103 C0 89.14 0 75.28 0 61 C-2.31 61 -4.62 61 -7 61 C-14.21762769 59.03345796 -20.47324679 55.99073736 -24.3125 49.375 C-26.4584185 44.66980984 -27.01513032 40.08440274 -26 35 C-23.18680967 31.1419104 -20.50061034 29.3971675 -16 28 C-13.18156537 27.86197676 -10.49667223 27.81023687 -7.6875 27.875 C-3.8821875 27.936875 -3.8821875 27.936875 0 28 C0 18.76 0 9.52 0 0 Z " fill="#774132" transform="translate(256,170)"/>
<path d="M0 0 C2.578125 0.020625 5.15625 0.04125 7.8125 0.0625 C7.8125 9.3025 7.8125 18.5425 7.8125 28.0625 C0.1875 28.375 0.1875 28.375 -2.17822266 28.45043945 C-6.85931807 28.69465502 -10.03179268 29.73505431 -14.1875 32.0625 C-14.8475 32.0625 -15.5075 32.0625 -16.1875 32.0625 C-18.05971431 37.67914293 -18.07871234 43.79060233 -15.8125 49.3125 C-12.96225358 54.25292712 -8.39934295 57.01429138 -3.1875 59.0625 C0.4425 59.7225 4.0725 60.3825 7.8125 61.0625 C7.8125 74.9225 7.8125 88.7825 7.8125 103.0625 C-3.45056353 103.0625 -12.96441852 100.10572363 -21.21484375 92.09375 C-27.82673757 85.11120752 -30.29656151 78.03495678 -31.79296875 68.71484375 C-31.92190018 67.94048477 -32.0508316 67.16612579 -32.18367004 66.36830139 C-32.4523976 64.73783649 -32.71688363 63.1066673 -32.97729492 61.47485352 C-33.37049022 59.02806363 -33.78493441 56.58553962 -34.20117188 54.14257812 C-38.66500839 27.14571744 -38.66500839 27.14571744 -32.78515625 17.26953125 C-24.8072222 6.24866881 -13.66299796 -0.15394544 0 0 Z " fill="#A55D4E" transform="translate(248.1875,169.9375)"/>
<path d="M0 0 C8.24084351 5.48168701 8.24084351 5.48168701 10 9 C9.31035156 9.90878906 8.62070313 10.81757813 7.91015625 11.75390625 C-5.21663347 29.22809321 -16.27761341 48.08068509 -23 69 C-32.66506677 67.75472053 -40.42296555 62.56639114 -47.0546875 55.578125 C-53.40814182 47.15788433 -55.73341512 37.33572044 -55 27 C-52.98662766 15.51695264 -46.33810368 6.74841751 -37 0 C-26.24660057 -6.66222827 -10.91060468 -5.92780884 0 0 Z " fill="#A65D4F" transform="translate(142,121)"/>
<path d="M0 0 C9.91964312 6.4572895 16.68933855 14.42912084 19.73046875 25.89453125 C21.71971132 35.93255531 19.29559642 44.86952422 14.42578125 53.76953125 C13.70390625 54.65640625 12.98203125 55.54328125 12.23828125 56.45703125 C11.80386719 57.00617188 11.36945313 57.5553125 10.921875 58.12109375 C5.65370544 64.1154521 -1.49306726 67.45277705 -8.76171875 70.45703125 C-9.75171875 70.45703125 -10.74171875 70.45703125 -11.76171875 70.45703125 C-12.10203125 69.48765625 -12.44234375 68.51828125 -12.79296875 67.51953125 C-16.4112977 57.42837148 -20.71184627 47.9092913 -25.76171875 38.45703125 C-26.30441406 37.4309375 -26.84710938 36.40484375 -27.40625 35.34765625 C-32.34981538 26.44683295 -38.54995782 18.4945807 -44.76171875 10.45703125 C-42.10807677 6.84734274 -39.70558994 4.50027309 -35.82421875 2.26953125 C-34.99019531 1.78097656 -34.15617187 1.29242188 -33.296875 0.7890625 C-23.70265059 -4.25197066 -9.91092197 -4.84419847 0 0 Z " fill="#784133" transform="translate(404.76171875,119.54296875)"/>
<path d="M0 0 C2.11356725 0.00314915 4.22571787 -0.02028668 6.33911133 -0.0456543 C22.22835563 -0.12434067 22.22835563 -0.12434067 27.7902832 5.20629883 C29.99395831 9.73095493 29.49223931 14.76114171 28.23168945 19.53442383 C25.74626139 25.46296782 21.30155678 28.28406474 15.81762695 31.31567383 C15.22208008 31.69208008 14.6265332 32.06848633 14.01293945 32.45629883 C10.78686482 33.71917502 7.60927451 33.69865199 4.19262695 33.69067383 C3.48130615 33.6890625 2.76998535 33.68745117 2.03710938 33.68579102 C-5.32936838 33.51539058 -10.80242721 31.37303216 -17.05737305 27.56567383 C-21.3593733 23.01061474 -23.40779929 18.41085407 -23.74487305 12.12817383 C-23.58494088 8.40975106 -23.27854386 7.44756523 -20.99487305 4.31567383 C-14.35423809 -0.40655548 -7.84011907 -0.02444661 0 0 Z " fill="#23272B" transform="translate(253.182373046875,197.684326171875)"/>
<path d="M0 0 C0 10.89 0 21.78 0 33 C-8.03483271 33 -13.10128107 31.37313326 -19.875 27.25 C-24.17700025 22.69494091 -26.22542625 18.09518024 -26.5625 11.8125 C-26.40256784 8.09407723 -26.09617081 7.1318914 -23.8125 4 C-15.66118045 -1.7964939 -11.34763556 0 0 0 Z " fill="#414951" transform="translate(256,198)"/>
<path d="M0 0 C3.38001045 2.2533403 6.10106599 4.15480657 7.8125 7.875 C8.61889414 12.61581718 8.94065126 17.42270511 6.890625 21.87890625 C4.20314009 25.36042079 0.89316596 27.40596025 -3.1875 28.875 C-9.23283066 29.64440572 -12.33715337 28.23293228 -17.1875 24.875 C-21.13389293 20.53396778 -21.64705785 16.14251452 -21.60546875 10.453125 C-20.91132199 6.17147208 -18.49575045 3.54588109 -15.1875 0.875 C-10.2111922 -2.08897616 -5.31278931 -1.87510211 0 0 Z " fill="#25272B" transform="translate(331.1875,153.125)"/>
<path d="M0 0 C3.32785277 2.21856851 6.04480635 4.25651599 7.8125 7.875 C8.82730442 13.76278033 8.25638036 18.8873112 4.8125 23.875 C1.16084606 27.2527799 -1.44603268 28.70755122 -6.4375 29.1875 C-12.30988983 28.69813418 -15.60816471 26.53532684 -19.625 22.3125 C-21.84626043 17.42572706 -22.21188524 13.14981952 -21.1875 7.875 C-16.58788507 -0.46365674 -8.92637536 -3.15048542 0 0 Z " fill="#434952" transform="translate(194.1875,153.125)"/>
<path d="M0 0 C5.94 2.475 5.94 2.475 12 5 C11.67 6.98 11.34 8.96 11 11 C10.54109375 10.60167969 10.0821875 10.20335937 9.609375 9.79296875 C5.68325173 6.39984291 5.68325173 6.39984291 1.5625 3.25 C1.046875 2.8375 0.53125 2.425 0 2 C0 1.34 0 0.68 0 0 Z " fill="#68AEF4" transform="translate(106,185)"/>
</svg>
