<?xml version="1.0" encoding="UTF-8"?>
<svg version="1.1" xmlns="http://www.w3.org/2000/svg" width="512" height="512">
<path d="M0 0 C1.01790619 0.00215515 2.03581238 0.0043103 3.08456421 0.00653076 C17.69363523 0.05620146 32.02575853 0.30709809 46.375 3.3125 C47.34985352 3.51117676 48.32470703 3.70985352 49.32910156 3.91455078 C97.7109774 14.03517194 141.69928269 35.9516877 177.375 70.3125 C178.3640332 71.26068604 178.3640332 71.26068604 179.37304688 72.22802734 C188.86130305 81.37247479 197.6012044 90.66984009 205.375 101.3125 C206.23306152 102.46355017 207.09113451 103.61459177 207.94921875 104.765625 C213.98736829 112.95680614 219.34595521 121.47054105 224.375 130.3125 C224.73948242 130.94430176 225.10396484 131.57610352 225.47949219 132.22705078 C247.00981855 169.84336237 256.83759735 212.56515288 256.75 255.625 C256.74918427 257.13927582 256.74918427 257.13927582 256.74835205 258.68414307 C256.70758601 275.19373539 255.80029309 291.11032001 252.375 307.3125 C252.15537598 308.35438477 251.93575195 309.39626953 251.70947266 310.46972656 C241.61185215 356.76299311 219.25271242 399.17663721 186.375 433.3125 C185.74287598 433.97185547 185.11075195 434.63121094 184.45947266 435.31054688 C175.31502521 444.79880305 166.01765991 453.5387044 155.375 461.3125 C154.22394983 462.17056152 153.07290823 463.02863451 151.921875 463.88671875 C143.73224019 469.92427396 135.22961724 475.30707302 126.375 480.3125 C125.66778809 480.7146875 124.96057617 481.116875 124.23193359 481.53125 C98.08439144 496.25254051 69.06333558 505.95171333 39.375 510.3125 C38.17037109 510.48982666 36.96574219 510.66715332 35.72460938 510.84985352 C24.06732646 512.448825 12.50313902 512.6709053 0.75 512.625 C-0.70483292 512.62226578 -0.70483292 512.62226578 -2.1890564 512.61947632 C-16.54056055 512.57408309 -30.50442918 512.0687347 -44.625 509.3125 C-45.52202637 509.15152832 -46.41905273 508.99055664 -47.34326172 508.82470703 C-90.94811969 500.93444853 -132.08490471 481.24485057 -165.625 452.3125 C-166.37007813 451.67828125 -167.11515625 451.0440625 -167.8828125 450.390625 C-181.38779833 438.57948485 -194.05918743 425.82889772 -204.625 411.3125 C-205.48149066 410.16255169 -206.33826433 409.01281411 -207.1953125 407.86328125 C-213.23534209 399.67315742 -218.61867614 391.16870382 -223.625 382.3125 C-224.0271875 381.60528809 -224.429375 380.89807617 -224.84375 380.16943359 C-239.59720851 353.96475553 -249.12670334 325.02703614 -253.625 295.3125 C-253.80232666 294.19367432 -253.97965332 293.07484863 -254.16235352 291.92211914 C-255.84376341 280.20014053 -255.98234341 268.57751024 -255.9375 256.75 C-255.93426727 255.21939438 -255.93426727 255.21939438 -255.93096924 253.65786743 C-255.88133352 239.03039476 -255.63419712 224.67986162 -252.625 210.3125 C-252.42632324 209.33764648 -252.22764648 208.36279297 -252.02294922 207.35839844 C-241.90232806 158.9765226 -219.9858123 114.98821731 -185.625 79.3125 C-184.99287598 78.65314453 -184.36075195 77.99378906 -183.70947266 77.31445312 C-174.56502521 67.82619695 -165.26765991 59.0862956 -154.625 51.3125 C-153.47394983 50.45443848 -152.32290823 49.59636549 -151.171875 48.73828125 C-142.98224019 42.70072604 -134.47961724 37.31792698 -125.625 32.3125 C-124.91778809 31.9103125 -124.21057617 31.508125 -123.48193359 31.09375 C-100.34654164 18.0683259 -75.17537591 9.31948539 -49.1875 4 C-48.46860596 3.85264404 -47.74971191 3.70528809 -47.0090332 3.5534668 C-31.36274391 0.57960912 -15.88931954 -0.06050362 0 0 Z " fill="#1DD782" transform="translate(255.625,-0.3125)"/>
<path d="M0 0 C13.72217368 10.51605833 19.60893981 26.28823413 23.33984375 42.7265625 C23.50307129 43.44207275 23.66629883 44.15758301 23.83447266 44.89477539 C26.00643123 55.08956497 26.23427864 65.31783869 26.1875 75.70703125 C26.18608505 76.9122493 26.1846701 78.11746735 26.18321228 79.35920715 C26.17766146 83.16918531 26.16511834 86.97910242 26.15234375 90.7890625 C26.14732239 93.38867102 26.1427606 95.98828047 26.13867188 98.58789062 C26.12770819 104.92580171 26.11101981 111.26367774 26.08984375 117.6015625 C26.77097733 117.25775543 27.4521109 116.91394836 28.15388489 116.5597229 C29.05032211 116.10898407 29.94675934 115.65824524 30.87036133 115.19384766 C31.7577449 114.74691559 32.64512848 114.29998352 33.55940247 113.83950806 C56.86001169 102.44035573 86.11136433 100.43835192 110.72558594 108.73193359 C117.69164987 111.29421361 124.41992552 114.35521341 131.08984375 117.6015625 C130.84754028 116.19656494 130.84754028 116.19656494 130.6003418 114.76318359 C129.90365258 109.85447835 129.92761006 104.96558194 129.921875 100.015625 C129.9185466 99.00043793 129.9152182 97.98525085 129.91178894 96.93930054 C129.90674014 94.79270884 129.90437998 92.64610935 129.90454102 90.49951172 C129.90237403 87.27167176 129.88425036 84.04418497 129.86523438 80.81640625 C129.82070368 65.15798149 130.26071504 49.88550288 134.83984375 34.7890625 C135.10152344 33.90452393 135.36320313 33.01998535 135.6328125 32.10864258 C137.75845743 25.17423451 140.30318759 18.81965052 144.08984375 12.6015625 C144.5384375 11.8590625 144.98703125 11.1165625 145.44921875 10.3515625 C149.65475473 4.11413834 155.91705958 -1.00750944 163.08984375 -3.3984375 C172.12620837 -4.23743026 179.86859708 -3.34043136 187.2421875 2.2265625 C205.25734903 18.82402418 209.00364377 46.3588053 210.08984375 69.6015625 C210.97918293 93.59161163 209.95860597 116.90539388 206.08984375 140.6015625 C205.9403125 141.55998047 205.79078125 142.51839844 205.63671875 143.50585938 C203.77714501 155.15402268 200.52416675 166.15643758 196.64355469 177.29272461 C196.29969727 178.30085205 195.95583984 179.30897949 195.6015625 180.34765625 C195.28662842 181.24154053 194.97169434 182.1354248 194.6472168 183.05639648 C193.52582452 188.17707738 195.78218477 192.78813803 197.46484375 197.6015625 C205.67657647 221.65909547 207.81397651 247.52773131 196.52734375 270.9765625 C191.64905379 280.45275419 184.80439109 287.78797342 176.40209961 294.27319336 C175.59389267 294.89810165 174.78568573 295.52300995 173.95298767 296.16685486 C173.03073143 296.87703514 173.03073143 296.87703514 172.08984375 297.6015625 C174.79351046 316.20165316 177.56435869 334.79078706 180.39464569 353.37203217 C181.40557662 360.01378714 182.41212744 366.65620792 183.41909409 373.29856491 C184.28596709 379.013928 185.15584508 384.72880815 186.03125 390.44287109 C186.89317777 396.07015351 187.74754501 401.69853669 188.5966835 407.3277626 C188.9184716 409.45169149 189.24303362 411.57520209 189.57046127 413.69826889 C190.02278103 416.63357984 190.46542515 419.57019534 190.90576172 422.50732422 C191.04176285 423.37460144 191.17776398 424.24187866 191.31788635 425.13543701 C191.4354982 425.93321564 191.55311005 426.73099426 191.67428589 427.552948 C191.77932875 428.24253538 191.8843716 428.93212276 191.99259758 429.64260674 C192.10258557 431.8582376 191.82243857 433.51028403 191.08984375 435.6015625 C189.27758789 436.84667969 189.27758789 436.84667969 186.875 437.8984375 C185.97475098 438.29587158 185.07450195 438.69330566 184.14697266 439.1027832 C182.66463135 439.72092896 182.66463135 439.72092896 181.15234375 440.3515625 C180.12544434 440.78621826 179.09854492 441.22087402 178.04052734 441.66870117 C146.13542522 454.83370823 112.86757287 461.04843234 78.46484375 460.9140625 C77.01001083 460.91132828 77.01001083 460.91132828 75.52578735 460.90853882 C61.1742832 460.86314559 47.21041457 460.3577972 33.08984375 457.6015625 C32.19281738 457.44059082 31.29579102 457.27961914 30.37158203 457.11376953 C7.69595795 453.01063644 -14.15207281 445.5600156 -34.91015625 435.6015625 C-34.41432656 425.72224255 -33.35408821 416.16875177 -31.66015625 406.4140625 C-31.20347664 403.70673762 -30.75469509 400.99814906 -30.30859375 398.2890625 C-30.19331329 397.59001297 -30.07803284 396.89096344 -29.95925903 396.17073059 C-28.58950024 387.77245435 -27.43579902 379.34465305 -26.28515625 370.9140625 C-26.07343086 369.36628877 -25.86167982 367.81851855 -25.64990234 366.27075195 C-25.54745209 365.52190231 -25.44500183 364.77305267 -25.33944702 364.00151062 C-25.23903107 363.26753555 -25.13861511 362.53356049 -25.03515625 361.77734375 C-24.93691559 361.05831375 -24.83867493 360.33928375 -24.73745728 359.59846497 C-23.54838753 350.91951478 -22.24031895 342.25978045 -20.91015625 333.6015625 C-20.65069099 331.90890788 -20.39158856 330.21619762 -20.1328125 328.5234375 C-20.00173096 327.66782227 -19.87064941 326.81220703 -19.7355957 325.93066406 C-19.48065924 324.23579386 -19.2328792 322.53982887 -18.99291992 320.84277344 C-18.43153419 316.87884725 -17.79845051 312.97850188 -16.92578125 309.0703125 C-16.11782233 305.17564963 -15.56539044 301.59898226 -15.91015625 297.6015625 C-17.99447535 294.78909699 -20.08931603 293.31107912 -23.0390625 291.44140625 C-35.1610134 283.6734622 -41.87290584 268.93574813 -45.91015625 255.6015625 C-49.4286443 235.13643264 -47.51461817 214.30123839 -40.03515625 195.0390625 C-37.79481396 189.04183853 -37.54593231 185.5068214 -39.91015625 179.6015625 C-46.13487521 163.08315245 -49.24201733 146.01224732 -51.91015625 128.6015625 C-52.09239746 127.43874756 -52.09239746 127.43874756 -52.27832031 126.25244141 C-57.56472633 90.80196043 -58.76681227 40.82702406 -37.859375 10.078125 C-28.60251287 -1.68309863 -14.00392006 -9.0658289 0 0 Z " fill="#FEFEFE" transform="translate(177.91015625,51.3984375)"/>
<path d="M0 0 C13.51463242 8.04932421 19.23056414 24.24878907 23.2109375 38.63671875 C31.07385388 71.69226274 28.73703804 108.12577874 23.30859375 141.375 C23.1590625 142.33341797 23.00953125 143.29183594 22.85546875 144.27929688 C20.99589501 155.92746018 17.74291675 166.92987508 13.86230469 178.06616211 C13.51844727 179.07428955 13.17458984 180.08241699 12.8203125 181.12109375 C12.50537842 182.01497803 12.19044434 182.9088623 11.8659668 183.82983398 C10.74457452 188.95051488 13.00093477 193.56157553 14.68359375 198.375 C22.89532647 222.43253297 25.03272651 248.30116881 13.74609375 271.75 C8.86780379 281.22619169 2.02314109 288.56141092 -6.37915039 295.04663086 C-7.18735733 295.67153915 -7.99556427 296.29644745 -8.82826233 296.94029236 C-9.75051857 297.65047264 -9.75051857 297.65047264 -10.69140625 298.375 C-7.98773954 316.97509066 -5.21689131 335.56422456 -2.38660431 354.14546967 C-1.37567338 360.78722464 -0.36912256 367.42964542 0.63784409 374.07200241 C1.50471709 379.7873655 2.37459508 385.50224565 3.25 391.21630859 C4.11192777 396.84359101 4.96629501 402.47197419 5.8154335 408.1012001 C6.1372216 410.22512899 6.46178362 412.34863959 6.78921127 414.47170639 C7.24153103 417.40701734 7.68417515 420.34363284 8.12451172 423.28076172 C8.26051285 424.14803894 8.39651398 425.01531616 8.53663635 425.90887451 C8.6542482 426.70665314 8.77186005 427.50443176 8.89303589 428.3263855 C8.99807875 429.01597288 9.1031216 429.70556026 9.21134758 430.41604424 C9.32163537 432.6377143 9.05626031 434.28153145 8.30859375 436.375 C6.27416992 437.68359375 6.27416992 437.68359375 3.6015625 438.8125 C2.62759521 439.23096191 1.65362793 439.64942383 0.65014648 440.08056641 C-0.39069092 440.50772949 -1.43152832 440.93489258 -2.50390625 441.375 C-3.55312256 441.81634277 -4.60233887 442.25768555 -5.68334961 442.71240234 C-24.3173004 450.4711304 -24.3173004 450.4711304 -32.69140625 450.375 C-32.69687469 449.54506531 -32.69687469 449.54506531 -32.70245361 448.69836426 C-32.74478318 442.8562861 -32.81446656 437.01495727 -32.89892578 431.17333984 C-32.92687616 429.00316929 -32.94821735 426.83290184 -32.96240234 424.66259766 C-33.07277213 408.71784302 -33.67961468 393.45562295 -41.37890625 379.0625 C-41.72066895 378.40572266 -42.06243164 377.74894531 -42.41455078 377.07226562 C-51.86288341 359.55410653 -66.95051746 348.78887095 -85.81640625 343 C-92.28117656 341.1460135 -97.64279226 340.9623845 -104.69140625 340.375 C-104.69140625 317.275 -104.69140625 294.175 -104.69140625 270.375 C-108.32140625 269.715 -111.95140625 269.055 -115.69140625 268.375 C-121.93711117 265.77978844 -126.59936405 262.42464779 -129.69140625 256.375 C-131.1456279 252.01233506 -131.30360545 247.93005356 -130.69140625 243.375 C-127.72613307 238.72940535 -123.83480008 237.4175841 -118.77734375 235.85546875 C-114.13522914 235.13270913 -109.38944941 235.375 -104.69140625 235.375 C-104.69140625 192.475 -104.69140625 149.575 -104.69140625 105.375 C-87.18812445 105.375 -87.18812445 105.375 -79.87890625 107.375 C-79.05358398 107.58922607 -78.22826172 107.80345215 -77.37792969 108.02416992 C-68.39914138 110.49615646 -60.0448852 114.30923669 -51.69140625 118.375 C-51.85294189 117.43833496 -52.01447754 116.50166992 -52.1809082 115.53662109 C-52.87759742 110.62791585 -52.85363994 105.73901944 -52.859375 100.7890625 C-52.8643676 99.26628189 -52.8643676 99.26628189 -52.86946106 97.71273804 C-52.87450986 95.56614634 -52.87687002 93.41954685 -52.87670898 91.27294922 C-52.87887597 88.04510926 -52.89699964 84.81762247 -52.91601562 81.58984375 C-52.96054632 65.93141899 -52.52053496 50.65894038 -47.94140625 35.5625 C-47.67972656 34.67796143 -47.41804688 33.79342285 -47.1484375 32.88208008 C-45.02279257 25.94767201 -42.47806241 19.59308802 -38.69140625 13.375 C-38.01851562 12.26125 -38.01851562 12.26125 -37.33203125 11.125 C-28.68494205 -1.69989634 -14.2533709 -6.56795331 0 0 Z " fill="#E0E4EE" transform="translate(360.69140625,50.625)"/>
<path d="M0 0 C6.74140318 5.53169618 12.81829088 11.69164651 18.9621582 17.86450195 C20.16167736 19.06594276 21.36142624 20.26715427 22.56138611 21.46815491 C25.13332574 24.04324265 27.70370678 26.61987235 30.27288246 29.19771767 C34.33323026 33.2716294 38.39742695 37.34168681 42.46220398 41.41117859 C51.08193932 50.04198976 59.69742534 58.67703703 68.3125 67.3125 C77.63105658 76.65307764 86.9503426 85.99292062 96.27449483 95.32791299 C100.31797597 99.37638495 104.35900462 103.42728454 108.39819205 107.48004019 C110.90419127 109.99347602 113.41224013 112.50485874 115.9208622 115.0156765 C117.08679095 116.18348371 118.25185178 117.35215817 119.41599655 118.52174377 C121.00005029 120.11296999 122.58712096 121.7011239 124.17500305 123.28852844 C125.06373769 124.17948369 125.95247232 125.07043894 126.86813831 125.98839283 C128.83411328 128.03729536 128.83411328 128.03729536 131 129 C132.78154498 134.55380419 133.86897464 140.28332078 135 146 C135.15678223 146.7645752 135.31356445 147.52915039 135.47509766 148.31689453 C141.34775552 178.44369299 140.32515543 213.08101082 134 243 C133.78037598 244.04188477 133.56075195 245.08376953 133.33447266 246.15722656 C123.23685215 292.45049311 100.87771242 334.86413721 68 369 C67.05181396 369.9890332 67.05181396 369.9890332 66.08447266 370.99804688 C56.94002521 380.48630305 47.64265991 389.2262044 37 397 C35.84894983 397.85806152 34.69790823 398.71613451 33.546875 399.57421875 C21.71313701 408.29634947 9.24980675 415.64449219 -4 422 C-6.30377627 410.24224812 -8.21047379 398.45319103 -9.9609375 386.6015625 C-10.2358812 384.75528244 -10.51108468 382.90904105 -10.78652954 381.06283569 C-11.50731566 376.22671335 -12.22447249 371.39005974 -12.94085693 366.55328369 C-13.37067334 363.65418324 -13.80175228 360.75527386 -14.23339844 357.85644531 C-14.44464922 356.43758215 -14.44464922 356.43758215 -14.66016769 354.99005508 C-14.94378132 353.08678968 -15.22775951 351.18357856 -15.51210403 349.28042221 C-16.21278423 344.58487386 -16.90521535 339.88840316 -17.57977295 335.18902588 C-18.7299184 327.21992823 -19.90670004 319.27390506 -21.41431999 311.36337471 C-22.01191148 308.21821006 -22.5723131 305.06691237 -23.13057327 301.91456223 C-23.39923831 300.4652292 -23.68755983 299.01937862 -23.99702072 297.57820511 C-24.91953779 293.27754595 -25.63011538 289.37447298 -25 285 C-22.1725056 281.39657937 -18.89187771 279.33052015 -15 277 C-1.83835996 265.86275063 5.13929062 248.85442565 7 232 C8.35778936 214.6675236 6.03444129 194.16537635 -2.27734375 178.609375 C-4.00754932 172.36193001 -0.4823394 165.20362865 1.46191406 159.25219727 C5.34758315 147.27415478 7.84121768 135.41009293 9.578125 122.95019531 C9.98094976 120.13321941 10.43763076 117.33010314 10.90625 114.5234375 C16.40149701 79.54300687 16.92475797 36.26374299 0.91796875 4.00390625 C0 2 0 2 0 0 Z " fill="#0CAA5F" transform="translate(374,64)"/>
<path d="M0 0 C15.17871902 11.55719936 25.7822651 28.75491691 28.73815918 47.67666626 C29.73294971 56.50351916 29.29377433 65.50944847 29.1875 74.375 C29.17242134 76.57551164 29.15873858 78.77603332 29.14648438 80.9765625 C29.11374187 86.31793056 29.06379672 91.65891722 29 97 C29.99 97.33 30.98 97.66 32 98 C11.29879441 103.47762033 -9.28746191 108.09029456 -30.79296875 108.203125 C-31.69350983 108.21013931 -32.5940509 108.21715363 -33.5218811 108.22438049 C-36.41047226 108.24177902 -39.29885837 108.2482324 -42.1875 108.25 C-43.17487152 108.25067474 -44.16224304 108.25134949 -45.17953491 108.25204468 C-59.65657777 108.23631212 -73.76060182 107.83938801 -88 105 C-89.01932617 104.80180664 -90.03865234 104.60361328 -91.08886719 104.39941406 C-110.12331209 100.63832224 -110.12331209 100.63832224 -115 98 C-115.03122847 87.69547101 -115.01947415 77.39304726 -114.79248047 67.09057617 C-114.76412728 65.65352562 -114.74298474 64.21631496 -114.72900391 62.77905273 C-114.53581696 43.82311992 -109.99100322 25.45815964 -97 11 C-96.32066406 10.23945313 -95.64132813 9.47890625 -94.94140625 8.6953125 C-69.85936684 -17.862141 -29.44910781 -20.32453613 0 0 Z " fill="#E9EDF4" transform="translate(299,404)"/>
<path d="M0 0 C13.72217368 10.51605833 19.60893981 26.28823413 23.33984375 42.7265625 C23.50307129 43.44207275 23.66629883 44.15758301 23.83447266 44.89477539 C25.87565903 54.4757434 26.24308154 64.12631183 26.22265625 73.89453125 C26.22361298 74.92540359 26.2245697 75.95627594 26.22555542 77.01838684 C26.22623073 79.17884381 26.22442215 81.33930288 26.22021484 83.49975586 C26.21484075 86.79089936 26.2201905 90.08190745 26.2265625 93.37304688 C26.22590192 95.4843753 26.22462119 97.59570364 26.22265625 99.70703125 C26.22468048 100.68117477 26.22670471 101.6553183 26.22879028 102.65898132 C26.21039945 108.05510444 26.11552314 113.29358783 25.08984375 118.6015625 C22.79897738 120.62273283 21.01090791 121.89874434 18.40234375 123.3515625 C17.02894009 124.1886044 15.66055996 125.03393503 14.296875 125.88671875 C13.59771973 126.32387207 12.89856445 126.76102539 12.17822266 127.21142578 C8.76407823 129.48406295 5.67940655 132.09865818 2.58984375 134.7890625 C1.76480347 135.5011084 1.76480347 135.5011084 0.9230957 136.22753906 C-5.81377939 142.14025992 -11.8473422 148.4080768 -17.28515625 155.5390625 C-18.12216064 156.63516846 -18.12216064 156.63516846 -18.97607422 157.75341797 C-25.90037546 167.01698328 -31.49053696 176.92310347 -35.91015625 187.6015625 C-47.94412049 175.56759826 -49.47755273 144.47528365 -51.91015625 128.6015625 C-52.09239746 127.43874756 -52.09239746 127.43874756 -52.27832031 126.25244141 C-57.56472633 90.80196043 -58.76681227 40.82702406 -37.859375 10.078125 C-28.60251287 -1.68309863 -14.00392006 -9.0658289 0 0 Z " fill="#E7ECF4" transform="translate(177.91015625,51.3984375)"/>
<path d="M0 0 C13.51463242 8.04932421 19.23056414 24.24878907 23.2109375 38.63671875 C31.07385388 71.69226274 28.73703804 108.12577874 23.30859375 141.375 C23.1590625 142.33341797 23.00953125 143.29183594 22.85546875 144.27929688 C20.81824734 157.0402254 17.12887652 169.24324266 13.11328125 181.51171875 C12.81405762 182.42655029 12.51483398 183.34138184 12.20654297 184.28393555 C11.30859375 186.375 11.30859375 186.375 9.30859375 187.375 C8.83550781 186.37082031 8.36242187 185.36664063 7.875 184.33203125 C-5.09764184 157.2998775 -25.42991928 132.75394403 -52.69140625 119.375 C-52.74268103 111.7110484 -52.7773775 104.04714204 -52.80126953 96.38305664 C-52.81124398 93.78310493 -52.82482834 91.18316419 -52.84228516 88.58325195 C-53.07827458 52.49769255 -53.07827458 52.49769255 -47.94140625 35.5625 C-47.67972656 34.67796143 -47.41804688 33.79342285 -47.1484375 32.88208008 C-45.02279257 25.94767201 -42.47806241 19.59308802 -38.69140625 13.375 C-38.2428125 12.6325 -37.79421875 11.89 -37.33203125 11.125 C-28.68494205 -1.69989634 -14.2533709 -6.56795331 0 0 Z " fill="#CBD1E0" transform="translate(360.69140625,50.625)"/>
<path d="M0 0 C4.07147389 1.26149925 7.6873533 2.79646369 11.4375 4.8125 C36.65097208 17.62231853 65.29785154 19.30354278 93 21 C93 27.6 93 34.2 93 41 C90.793125 41.2475 88.58625 41.495 86.3125 41.75 C65.19782985 44.46043372 49.39504962 53.92599114 35.625 69.8125 C24.71490942 84.14758783 22.58552076 101.37241422 22.375 118.8125 C22.32568048 121.69412253 22.268883 124.57557073 22.2109375 127.45703125 C22.1981073 128.15772736 22.1852771 128.85842346 22.17205811 129.58035278 C22.0162884 137.06839427 21.53025518 144.53045528 21 152 C14.2384014 150.66276701 8.03811674 148.69486637 1.625 146.1875 C0.70759033 145.83365234 -0.20981934 145.47980469 -1.1550293 145.11523438 C-7.54816406 142.62709544 -13.81433832 139.96883237 -20 137 C-19.50417031 127.12068005 -18.44393196 117.56718927 -16.75 107.8125 C-16.29332039 105.10517512 -15.84453884 102.39658656 -15.3984375 99.6875 C-15.22551682 98.6389257 -15.22551682 98.6389257 -15.04910278 97.56916809 C-13.67934399 89.17089185 -12.52564277 80.74309055 -11.375 72.3125 C-11.16327461 70.76472627 -10.95152357 69.21695605 -10.73974609 67.66918945 C-10.63729584 66.92033981 -10.53484558 66.17149017 -10.42929077 65.39994812 C-10.32887482 64.66597305 -10.22845886 63.93199799 -10.125 63.17578125 C-10.02675934 62.45675125 -9.92851868 61.73772125 -9.82730103 60.99690247 C-8.74207189 53.07587878 -7.55979867 45.17089406 -6.34716797 37.26855469 C-5.7023895 33.05527654 -5.07056868 28.84005039 -4.4375 24.625 C-4.31246094 23.79701904 -4.18742188 22.96903809 -4.05859375 22.1159668 C-3.48479196 18.3027029 -2.92372456 14.48878144 -2.40234375 10.66796875 C-2.14130859 8.75951172 -2.14130859 8.75951172 -1.875 6.8125 C-1.72804687 5.70519531 -1.58109375 4.59789062 -1.4296875 3.45703125 C-1 1 -1 1 0 0 Z " fill="#E8EDF4" transform="translate(163,350)"/>
<path d="M0 0 C0 39.93 0 79.86 0 121 C-25.54275244 121 -25.54275244 121 -33.4375 119.8125 C-34.36216064 119.68302979 -35.28682129 119.55355957 -36.23950195 119.42016602 C-64.00804329 115.32370443 -64.00804329 115.32370443 -72 111 C-72.03122847 100.69547101 -72.01947415 90.39304726 -71.79248047 80.09057617 C-71.76412728 78.65352562 -71.74298474 77.21631496 -71.72900391 75.77905273 C-71.53581696 56.82311992 -66.99100322 38.45815964 -54 24 C-53.32066406 23.23945313 -52.64132813 22.47890625 -51.94140625 21.6953125 C-37.94093943 6.87128881 -20.09984943 0 0 0 Z " fill="#FEFEFE" transform="translate(256,391)"/>
<path d="M0 0 C7.15640903 4.56723633 10.33424117 12.6920607 12.4375 20.5625 C12.61925781 21.22548096 12.80101562 21.88846191 12.98828125 22.5715332 C14.81284154 30.29718806 14.74042282 38.04093345 14.69824219 45.92871094 C14.68758389 48.29388443 14.69815291 50.65828797 14.7109375 53.0234375 C14.73775041 83.19328722 14.73775041 83.19328722 7.3359375 90.69140625 C5.6233151 92.21579925 3.8906122 93.71786994 2.140625 95.19921875 C-3.94605023 100.52066169 -9.37135477 106.63799919 -13.5625 113.5625 C-17.14143038 112.36952321 -17.29993522 111.81564883 -18.9375 108.5625 C-27.41478163 90.53550955 -29.79544717 70.82932245 -29.875 51.125 C-29.88055908 49.97668701 -29.88611816 48.82837402 -29.8918457 47.64526367 C-29.76421924 32.49262091 -28.16494133 14.33171717 -17.5625 2.5625 C-12.03432085 -2.12498831 -6.64266453 -2.68037341 0 0 Z " fill="#CDD2E1" transform="translate(171.5625,97.4375)"/>
<path d="M0 0 C6.06591589 2.47470952 9.17470635 6.61682018 11.99609375 12.40234375 C13.60186547 16.67559809 14.87976009 20.97760306 15.99609375 25.40234375 C16.1763208 26.04469971 16.35654785 26.68705566 16.54223633 27.34887695 C18.28281922 34.08853103 18.262212 40.66130941 18.18359375 47.58984375 C18.17497314 48.79294189 18.16635254 49.99604004 18.1574707 51.2355957 C17.98605107 68.21994508 16.6509881 84.40292841 11.05859375 100.52734375 C10.81794189 101.22577393 10.57729004 101.9242041 10.3293457 102.64379883 C8.72755677 107.03449739 6.73057945 110.61068107 3.99609375 114.40234375 C-0.24277845 110.22524018 -4.2801391 105.89565626 -8.25952148 101.47143555 C-10.70982383 98.77449117 -13.10605079 96.31644322 -15.90234375 93.96484375 C-21.39076258 89.32946362 -23.75106436 85.43575296 -24.75390625 78.3359375 C-24.87335098 77.55232849 -24.99279572 76.76871948 -25.11585999 75.96136475 C-26.28937358 67.56616126 -26.49271644 59.18954205 -26.44995117 50.72363281 C-26.44136251 48.13918176 -26.47049155 45.55689579 -26.50195312 42.97265625 C-26.55905533 29.3195363 -25.27786824 13.79849505 -15.15234375 3.5234375 C-10.19196482 -0.6038276 -6.4046341 -1.91015403 0 0 Z " fill="#AFB4C8" transform="translate(352.00390625,96.59765625)"/>
<path d="M0 0 C0.92039062 -0.01160156 1.84078125 -0.02320313 2.7890625 -0.03515625 C11.06065474 -0.00020586 18.37183521 1.23634991 25 6.375 C27.04448395 6.93588436 27.04448395 6.93588436 29.1875 7.1875 C37.22281603 8.7892681 43.37910958 13.77372798 48 20.375 C48.391875 20.9009375 48.78375 21.426875 49.1875 21.96875 C53.77392057 29.23058257 53.08029241 39.23010739 51.375 47.3515625 C48.5672467 55.44892248 42.74080326 61.0232041 35.5 65.375 C28.00716425 68.77452733 18.66936417 68.91776731 10.890625 66.34765625 C8.44730779 65.15852701 6.23684974 63.91391794 4 62.375 C3.30648438 61.96572266 2.61296875 61.55644531 1.8984375 61.13476562 C0 59.375 0 59.375 -0.45410156 56.83129883 C-0.42268066 55.34666138 -0.42268066 55.34666138 -0.390625 53.83203125 C-0.37128906 52.22231445 -0.37128906 52.22231445 -0.3515625 50.58007812 C-0.31804687 49.46052734 -0.28453125 48.34097656 -0.25 47.1875 C-0.23195312 46.05634766 -0.21390625 44.92519531 -0.1953125 43.75976562 C-0.14812652 40.96399624 -0.08230595 38.16992028 0 35.375 C-0.730979 35.2625293 -1.46195801 35.15005859 -2.21508789 35.03417969 C-10.06748952 33.73488485 -16.9254428 31.84838952 -22.4765625 25.75390625 C-26.22780133 20.34294664 -26.85983546 14.77258524 -26 8.375 C-20.65070544 -0.00556148 -8.99905318 -0.11343344 0 0 Z " fill="#CCD1E0" transform="translate(256,285.625)"/>
<path d="M0 0 C6.0017498 4.93964239 11.49128976 10.33805317 16.97021484 15.83984375 C18.49336388 17.36834058 20.02177002 18.89143238 21.55078125 20.4140625 C22.54459146 21.40853386 23.53809123 22.40331556 24.53125 23.3984375 C25.41361328 24.28192871 26.29597656 25.16541992 27.20507812 26.07568359 C29.22649761 28.14609416 31.11729283 30.29355672 32.99243164 32.49682617 C37.93300366 38.18623331 43.32381041 43.43448318 48.66666985 48.74183464 C50.62293863 50.68522069 52.57596146 52.63181831 54.5282135 54.57923889 C58.66182233 58.70149493 62.79938595 62.8197672 66.9375 66.9375 C71.75874924 71.73515649 76.57836859 76.53442744 81.39383125 81.33789253 C83.32188629 83.25944684 85.25291589 85.17797802 87.18406677 87.09642029 C88.35454664 88.26327113 89.52488829 89.43026062 90.69506836 90.59741211 C91.23576462 91.13294205 91.77646088 91.66847198 92.33354187 92.2202301 C93.57481352 93.46132182 94.79052224 94.72790428 96 96 C96 96.33 96 96.66 96 97 C94.41632253 96.85795259 92.83306682 96.71119847 91.25 96.5625 C89.92742187 96.44068359 89.92742187 96.44068359 88.578125 96.31640625 C86 96 86 96 84.21313477 95.49291992 C61.87621758 90.51793528 38.51672639 97.0626114 18.25927734 106.09985352 C17.45871918 106.45668716 16.65816101 106.81352081 15.83334351 107.1811676 C15.22834015 107.45138229 14.62333679 107.72159698 14 108 C14.00444122 107.33617813 14.00888245 106.67235626 14.01345825 105.98841858 C14.05816904 98.9949868 14.08806161 92.0015965 14.10986328 85.00805664 C14.11983773 82.40810493 14.13342209 79.80816419 14.15087891 77.20825195 C14.39246938 50.39534898 14.39246938 50.39534898 9.25 24.1875 C8.9926709 23.30731201 8.7353418 22.42712402 8.47021484 21.52026367 C6.59106429 15.33591204 4.25591088 9.73559411 1.1015625 4.08203125 C0 2 0 2 0 0 Z " fill="#0DAA60" transform="translate(189,62)"/>
<path d="M0 0 C-0.03480469 0.79664063 -0.06960937 1.59328125 -0.10546875 2.4140625 C-0.25921948 8.43230549 -0.34928746 12.77511157 3 18 C3.33 18.99 3.66 19.98 4 21 C5.79178964 22.13890963 5.79178964 22.13890963 8 23 C8.76957031 23.33 9.53914063 23.66 10.33203125 24 C11.15058594 24.33 11.96914062 24.66 12.8125 25 C13.62332031 25.33 14.43414062 25.66 15.26953125 26 C18.4711356 27.17254752 21.71394604 28.09461736 25 29 C25.26246434 32.87370451 25.42153564 36.74512381 25.5625 40.625 C25.63791016 41.71941406 25.71332031 42.81382812 25.79101562 43.94140625 C26.0074515 51.87738818 26.0074515 51.87738818 23.16748047 55.04199219 C14.63709078 60.92933896 6.16585672 61.90337759 -4 61 C-12.46914331 58.89844438 -19.29103306 52.99263042 -23.9375 45.75 C-28.28072563 38.38860063 -28.27925227 28.47150068 -26.3515625 20.2265625 C-22.75306519 11.46099212 -16.74336682 5.80790872 -8.234375 1.91015625 C-5.31613365 0.72143207 -3.17941891 0 0 0 Z " fill="#E8ECF4" transform="translate(231,292)"/>
<path d="M0 0 C0.92039062 -0.01160156 1.84078125 -0.02320313 2.7890625 -0.03515625 C10.47770386 -0.00266903 17.57440117 1.18261675 24.125 5.375 C27.01039765 9.99163623 27.01966106 14.0886721 26 19.375 C22.92181986 26.29827887 18.33496491 30.67197807 11.265625 33.44921875 C2.67490021 35.88462757 -6.8875263 35.38021154 -14.98046875 31.58203125 C-20.04457946 28.55531904 -24.13441273 23.97176182 -26 18.375 C-26.58044806 13.48265202 -26.82553821 9.66834319 -24.125 5.4375 C-16.73964314 0.56316447 -8.65231547 -0.1090628 0 0 Z " fill="#444C55" transform="translate(256,285.625)"/>
<path d="M0 0 C5.34555962 2.77091644 8.12227339 6.62853892 9.99609375 12.25 C10.5834789 18.24132854 9.30006769 22.34215522 5.99609375 27.25 C1.11409462 31.88789917 -3.02797095 33.73080021 -9.69140625 33.56640625 C-14.64654822 32.8884223 -17.93626081 30.40421129 -21.31640625 26.75 C-24.83173649 21.54210336 -26.00356235 17.52619139 -25.00390625 11.25 C-22.70144056 5.62724044 -19.36407841 2.16313705 -14.00390625 -0.75 C-9.29386599 -2.32001342 -4.64342191 -1.7378889 0 0 Z " fill="#373D44" transform="translate(338.00390625,240.75)"/>
<path d="M0 0 C4.65332141 2.49900594 7.4651554 5.4477331 10.375 9.8125 C11.04256183 15.12194528 11.31420708 20.86079289 8.875 25.75 C5.32030709 30.10449882 1.73051855 33.15523348 -3.8984375 34.2578125 C-10.67406 34.60468737 -14.79213713 32.1859797 -19.9375 27.875 C-23.44517913 23.58783662 -24.07658854 19.50614769 -23.94140625 14.08984375 C-23.2557918 9.15511259 -20.76346643 5.86558145 -17.125 2.5 C-11.22572341 -1.4820117 -7.03228207 -2.30367861 0 0 Z " fill="#585D68" transform="translate(187.625,240.1875)"/>
<path d="M0 0 C17.42857143 0 17.42857143 0 23 3 C26.57480616 6.8259635 26.62260015 10.04678987 26.48046875 15.109375 C25.44387784 21.34577558 21.79069807 25.54505782 17 29.4375 C10.72543299 32.70550365 7.43407306 33 0 33 C0 22.11 0 11.22 0 0 Z " fill="#24282C" transform="translate(256,287)"/>
</svg>
