<?xml version="1.0" encoding="UTF-8"?>
<svg version="1.1" xmlns="http://www.w3.org/2000/svg" width="512" height="512">
<path d="M0 0 C1.01790619 0.00215515 2.03581238 0.0043103 3.08456421 0.00653076 C17.69363523 0.05620146 32.02575853 0.30709809 46.375 3.3125 C47.34985352 3.51117676 48.32470703 3.70985352 49.32910156 3.91455078 C97.7109774 14.03517194 141.69928269 35.9516877 177.375 70.3125 C178.3640332 71.26068604 178.3640332 71.26068604 179.37304688 72.22802734 C188.86130305 81.37247479 197.6012044 90.66984009 205.375 101.3125 C206.23306152 102.46355017 207.09113451 103.61459177 207.94921875 104.765625 C213.98736829 112.95680614 219.34595521 121.47054105 224.375 130.3125 C224.73948242 130.94430176 225.10396484 131.57610352 225.47949219 132.22705078 C247.00981855 169.84336237 256.83759735 212.56515288 256.75 255.625 C256.74918427 257.13927582 256.74918427 257.13927582 256.74835205 258.68414307 C256.70758601 275.19373539 255.80029309 291.11032001 252.375 307.3125 C252.15537598 308.35438477 251.93575195 309.39626953 251.70947266 310.46972656 C241.61185215 356.76299311 219.25271242 399.17663721 186.375 433.3125 C185.74287598 433.97185547 185.11075195 434.63121094 184.45947266 435.31054688 C175.31502521 444.79880305 166.01765991 453.5387044 155.375 461.3125 C154.22394983 462.17056152 153.07290823 463.02863451 151.921875 463.88671875 C143.73224019 469.92427396 135.22961724 475.30707302 126.375 480.3125 C125.66778809 480.7146875 124.96057617 481.116875 124.23193359 481.53125 C98.08439144 496.25254051 69.06333558 505.95171333 39.375 510.3125 C38.17037109 510.48982666 36.96574219 510.66715332 35.72460938 510.84985352 C24.06732646 512.448825 12.50313902 512.6709053 0.75 512.625 C-0.70483292 512.62226578 -0.70483292 512.62226578 -2.1890564 512.61947632 C-16.54056055 512.57408309 -30.50442918 512.0687347 -44.625 509.3125 C-45.52202637 509.15152832 -46.41905273 508.99055664 -47.34326172 508.82470703 C-90.94811969 500.93444853 -132.08490471 481.24485057 -165.625 452.3125 C-166.37007813 451.67828125 -167.11515625 451.0440625 -167.8828125 450.390625 C-181.38779833 438.57948485 -194.05918743 425.82889772 -204.625 411.3125 C-205.48149066 410.16255169 -206.33826433 409.01281411 -207.1953125 407.86328125 C-213.23534209 399.67315742 -218.61867614 391.16870382 -223.625 382.3125 C-224.0271875 381.60528809 -224.429375 380.89807617 -224.84375 380.16943359 C-237.8691741 357.03404164 -246.61801461 331.86287591 -251.9375 305.875 C-252.08485596 305.15610596 -252.23221191 304.43721191 -252.3840332 303.6965332 C-255.35789088 288.05024391 -255.99800362 272.57681954 -255.9375 256.6875 C-255.93534485 255.66959381 -255.9331897 254.65168762 -255.93096924 253.60293579 C-255.88129854 238.99386477 -255.63040191 224.66174147 -252.625 210.3125 C-252.42632324 209.33764648 -252.22764648 208.36279297 -252.02294922 207.35839844 C-241.90232806 158.9765226 -219.9858123 114.98821731 -185.625 79.3125 C-184.99287598 78.65314453 -184.36075195 77.99378906 -183.70947266 77.31445312 C-174.56502521 67.82619695 -165.26765991 59.0862956 -154.625 51.3125 C-153.47394983 50.45443848 -152.32290823 49.59636549 -151.171875 48.73828125 C-142.98224019 42.70072604 -134.47961724 37.31792698 -125.625 32.3125 C-124.91778809 31.9103125 -124.21057617 31.508125 -123.48193359 31.09375 C-100.34654164 18.0683259 -75.17537591 9.31948539 -49.1875 4 C-48.46860596 3.85264404 -47.74971191 3.70528809 -47.0090332 3.5534668 C-31.36274391 0.57960912 -15.88931954 -0.06050362 0 0 Z " fill="#4A7AFE" transform="translate(255.625,-0.3125)"/>
<path d="M0 0 C8.12147551 1.6367657 15.97089323 3.85468588 23.875 6.3125 C32.71004026 9.05725444 41.57869578 11.52044138 50.54833984 13.78466797 C55.28779381 14.99215659 59.97893348 16.27277181 64.64453125 17.7421875 C65.5466333 18.02570068 66.44873535 18.30921387 67.37817383 18.60131836 C69.07101373 19.14121748 70.76004519 19.69327787 72.4440918 20.26000977 C80.38987173 22.79643396 85.93838783 21.31157789 93.375 17.75 C99.06605763 15.15019097 104.74638074 12.9551185 110.75 11.1875 C111.39759277 10.99317383 112.04518555 10.79884766 112.71240234 10.59863281 C123.45382431 7.55259788 134.05176122 6.63658449 145.1875 6.6875 C147.10115356 6.69487183 147.10115356 6.69487183 149.0534668 6.70239258 C168.18018841 6.93921464 186.04526964 11.15527873 203.1328125 19.765625 C208.88627921 22.24259432 212.93066205 22.08985679 218.9375 20.5 C219.6193335 20.32130371 220.30116699 20.14260742 221.00366211 19.95849609 C228.05848068 18.06857567 235.02570911 15.87777403 242 13.71337891 C249.88419926 11.28578015 257.82527269 9.17427838 265.81933594 7.14257812 C273.00589906 5.30166053 280.06271281 3.18710928 287.11328125 0.8828125 C290 0 290 0 292 0 C290.61343711 8.3618448 288.71490143 16.53839638 286.625 24.75 C286.31191895 25.99064209 285.99883789 27.23128418 285.67626953 28.50952148 C283.82245775 35.83299099 281.93580207 43.14569237 279.9609375 50.4375 C279.22548394 53.16405955 278.5022028 55.8925935 277.7890625 58.625 C277.57733398 59.43525635 277.36560547 60.2455127 277.14746094 61.08032227 C276.71949096 62.72103522 276.29303168 64.36214305 275.86816406 66.00366211 C274.90442467 69.69661825 273.90952712 73.3647444 272.7578125 77.00390625 C272.38398438 78.19886719 272.01015625 79.39382812 271.625 80.625 C271.28726562 81.64851563 270.94953125 82.67203125 270.6015625 83.7265625 C269.22370028 91.22428028 271.47758824 98.48193582 273.5 105.6875 C273.9504892 107.31569667 274.39846756 108.94459043 274.84375 110.57421875 C275.14055664 111.63515747 275.14055664 111.63515747 275.44335938 112.7175293 C279.75083165 130.38005487 279.26108342 154.93439208 273 172 C272.75330566 172.67611328 272.50661133 173.35222656 272.25244141 174.04882812 C267.25279829 187.39348635 259.09467806 201.93688129 247 210 C249.77995093 222.17813119 252.87532289 234.24666925 256.1484375 246.30078125 C256.64356845 248.13209725 257.13845566 249.96347916 257.63311768 251.79492188 C258.67492343 255.65035777 259.7183567 259.50534801 260.76300049 263.36001587 C262.38745031 269.35555337 264.00536243 275.35284441 265.62255859 281.3503418 C270.12036622 298.02352659 274.6233631 314.69481897 279.22878647 331.33864784 C280.3974079 335.56741754 281.55717864 339.79862777 282.71856689 344.02938843 C283.6070891 347.2476265 284.51103387 350.46126985 285.41552734 353.67504883 C285.93667549 355.57090573 286.45707715 357.46696806 286.9765625 359.36328125 C287.21691223 360.19746582 287.45726196 361.03165039 287.70489502 361.89111328 C289.18142176 367.37247996 289.18142176 367.37247996 288.30200195 370.41430664 C286.18333458 372.99460752 283.42221503 374.49340152 280.5625 376.125 C279.56766602 376.70314453 279.56766602 376.70314453 278.55273438 377.29296875 C276.37722667 378.54474099 274.1902489 379.77422494 272 381 C270.91307861 381.61633301 270.91307861 381.61633301 269.80419922 382.24511719 C243.67786891 396.95882118 214.66527141 406.64260113 185 411 C183.79537109 411.17732666 182.59074219 411.35465332 181.34960938 411.53735352 C169.69232646 413.136325 158.12813902 413.3584053 146.375 413.3125 C144.92016708 413.30976578 144.92016708 413.30976578 143.4359436 413.30697632 C129.08443945 413.26158309 115.12057082 412.7562347 101 410 C100.10297363 409.83902832 99.20594727 409.67805664 98.28173828 409.51220703 C66.0012038 403.67107434 28.4361029 391.62319595 3 370 C5.10183007 360.72376673 7.34800479 351.51456173 9.93457031 342.36108398 C11.82922829 335.65237562 13.63762098 328.92219866 15.4375 322.1875 C17.59014689 314.14321428 19.80467911 306.1224933 22.125 298.125 C24.32551044 290.53591196 26.30174789 282.91236367 28.17626953 275.23681641 C29.65287717 269.24394451 31.33883575 263.33941384 33.12524414 257.43261719 C35.00028542 251.16342877 36.57149006 244.83297501 38.11181641 238.47436523 C39.68341504 232.05877255 41.50006673 225.74182974 43.56445312 219.46679688 C44.77247659 215.61262678 45.5452157 212.80604359 44 209 C41.72465532 206.39050237 41.72465532 206.39050237 38.875 203.875 C24.54389351 190.17070595 15.6577341 168.96284591 14.88964844 149.15405273 C14.59290827 132.58815549 14.69323779 117.0847777 19.6875 101.1875 C21.71981415 94.61966434 22.69477028 89.71389763 21 83 C20.84176758 82.35401855 20.68353516 81.70803711 20.52050781 81.04248047 C19.31974842 76.18015945 18.01901739 71.34848584 16.68945312 66.52001953 C15.59547461 62.52141959 14.54947804 58.51046085 13.5 54.5 C13.08220719 52.91401614 12.66423817 51.32807869 12.24609375 49.7421875 C11.41971558 46.60311165 10.59990015 43.46242715 9.78515625 40.3203125 C9.37798217 38.75510995 8.97042986 37.19000574 8.5625 35.625 C8.36245361 34.85655762 8.16240723 34.08811523 7.95629883 33.29638672 C6.81329925 28.95019943 5.61213683 24.62614164 4.3515625 20.3125 C3.93668579 18.8901001 3.93668579 18.8901001 3.51342773 17.43896484 C2.97488236 15.6041218 2.43040146 13.77100732 1.87915039 11.93994141 C-0.37721468 4.2634031 -0.37721468 4.2634031 0 0 Z " fill="#F7F8FB" transform="translate(110,99)"/>
<path d="M0 0 C-1.38656289 8.3618448 -3.28509857 16.53839638 -5.375 24.75 C-5.84462158 26.61096313 -5.84462158 26.61096313 -6.32373047 28.50952148 C-8.17754225 35.83299099 -10.06419793 43.14569237 -12.0390625 50.4375 C-12.77451606 53.16405955 -13.4977972 55.8925935 -14.2109375 58.625 C-14.42266602 59.43525635 -14.63439453 60.2455127 -14.85253906 61.08032227 C-15.28050904 62.72103522 -15.70696832 64.36214305 -16.13183594 66.00366211 C-17.09557533 69.69661825 -18.09047288 73.3647444 -19.2421875 77.00390625 C-19.61601562 78.19886719 -19.98984375 79.39382812 -20.375 80.625 C-20.71273437 81.64851563 -21.05046875 82.67203125 -21.3984375 83.7265625 C-22.77629972 91.22428028 -20.52241176 98.48193582 -18.5 105.6875 C-18.0495108 107.31569667 -17.60153244 108.94459043 -17.15625 110.57421875 C-16.85944336 111.63515747 -16.85944336 111.63515747 -16.55664062 112.7175293 C-12.24916835 130.38005487 -12.73891658 154.93439208 -19 172 C-19.24669434 172.67611328 -19.49338867 173.35222656 -19.74755859 174.04882812 C-24.74720171 187.39348635 -32.90532194 201.93688129 -45 210 C-42.22004907 222.17813119 -39.12467711 234.24666925 -35.8515625 246.30078125 C-35.35643155 248.13209725 -34.86154434 249.96347916 -34.36688232 251.79492188 C-33.32507657 255.65035777 -32.2816433 259.50534801 -31.23699951 263.36001587 C-29.61254969 269.35555337 -27.99463757 275.35284441 -26.37744141 281.3503418 C-21.87963378 298.02352659 -17.3766369 314.69481897 -12.77121353 331.33864784 C-11.6025921 335.56741754 -10.44282136 339.79862777 -9.28143311 344.02938843 C-8.3929109 347.2476265 -7.48896613 350.46126985 -6.58447266 353.67504883 C-6.06332451 355.57090573 -5.54292285 357.46696806 -5.0234375 359.36328125 C-4.78308777 360.19746582 -4.54273804 361.03165039 -4.29510498 361.89111328 C-2.81857824 367.37247996 -2.81857824 367.37247996 -3.69799805 370.41430664 C-5.81666542 372.99460752 -8.57778497 374.49340152 -11.4375 376.125 C-12.10072266 376.51042969 -12.76394531 376.89585937 -13.44726562 377.29296875 C-15.62277333 378.54474099 -17.8097511 379.77422494 -20 381 C-21.08692139 381.61633301 -21.08692139 381.61633301 -22.19580078 382.24511719 C-34.97824426 389.44387367 -48.21581552 395.00971657 -62 400 C-63.22154785 400.45463623 -63.22154785 400.45463623 -64.46777344 400.91845703 C-65.23895508 401.19415527 -66.01013672 401.46985352 -66.8046875 401.75390625 C-67.47226074 401.99568604 -68.13983398 402.23746582 -68.82763672 402.48657227 C-71.58280609 403.13774345 -74.17754875 403.0316212 -77 403 C-77.00586624 401.97873016 -77.01173248 400.95746033 -77.01777649 399.90524292 C-77.07527726 390.22623124 -77.14817872 380.54743836 -77.23571491 370.86865044 C-77.28022279 365.89405854 -77.31952073 360.91954487 -77.34643555 355.94482422 C-77.37266557 351.13357464 -77.4132033 346.32262931 -77.46318626 341.51156998 C-77.47972297 339.68664493 -77.4913186 337.86166743 -77.49761391 336.03667831 C-77.58518472 312.9591792 -82.16388478 294.00101152 -98.2734375 276.53515625 C-111.61461236 263.57072553 -127.87900964 258.81209904 -146 257 C-146 235.22 -146 213.44 -146 191 C-149.3 191 -152.6 191 -156 191 C-155.98316162 189.83017578 -155.96632324 188.66035156 -155.94897461 187.45507812 C-155.89807768 183.08606105 -155.90678232 178.71878892 -155.93286133 174.34960938 C-155.93593053 172.46415025 -155.9231531 170.57859248 -155.89379883 168.69335938 C-155.33586332 157.86266655 -155.33586332 157.86266655 -159.02636719 148.09619141 C-161.39130541 145.97937886 -161.39130541 145.97937886 -163.93432617 144.48095703 C-166.48831067 142.64991224 -166.8302931 141.41709954 -167.375 138.375 C-167.39268177 134.95652382 -166.88061496 133.77769683 -165.1875 130.625 C-161.61550621 127.03305094 -156.88017529 125.83660148 -152 125 C-150.02 125 -148.04 125 -146 125 C-146 86.06 -146 47.12 -146 7 C-125.43012628 7 -107.22071549 10.51735375 -88.8671875 19.765625 C-83.11372079 22.24259432 -79.06933795 22.08985679 -73.0625 20.5 C-72.3806665 20.32130371 -71.69883301 20.14260742 -70.99633789 19.95849609 C-63.94151932 18.06857567 -56.97429089 15.87777403 -50 13.71337891 C-42.11580074 11.28578015 -34.17472731 9.17427838 -26.18066406 7.14257812 C-18.99410094 5.30166053 -11.93728719 3.18710928 -4.88671875 0.8828125 C-2 0 -2 0 0 0 Z " fill="#E8ECF4" transform="translate(402,99)"/>
<path d="M0 0 C3.40593401 1.47678958 5.6584237 3.39048315 8.29518127 5.98738098 C9.14617401 6.82117279 9.99716675 7.6549646 10.87394714 8.51402283 C11.7992775 9.43083328 12.72460785 10.34764374 13.67797852 11.29223633 C14.6684113 12.26685657 15.65920422 13.24111094 16.65032959 14.21502686 C19.90073177 17.41309571 23.14033872 20.621985 26.37890625 23.83203125 C27.49694798 24.93934799 28.61500466 26.04664964 29.7330761 27.15393639 C34.38625006 31.76386277 39.03653 36.37667637 43.67938328 40.99699879 C50.31786558 47.60304763 56.97266878 54.19159803 63.65177017 60.75658399 C68.35484403 65.38204153 73.0383896 70.02671391 77.70808738 74.68586177 C80.4933595 77.46385439 83.28623314 80.2329881 86.10028267 82.98185158 C88.75164646 85.57266806 91.37778678 88.18670282 93.98730469 90.81964111 C95.39537775 92.22835986 96.82805405 93.61235512 98.26158142 94.99516296 C104.61744455 101.47569673 106.78623755 107.05828458 108 116 C108.12869067 116.74270142 108.25738134 117.48540283 108.38997173 118.25061035 C110.44109462 130.49071263 110.40016841 142.94057399 110.375 155.3125 C110.37445618 156.32201721 110.37391235 157.33153442 110.37335205 158.37164307 C110.33258601 174.88123539 109.42529309 190.79782001 106 207 C105.78037598 208.04188477 105.56075195 209.08376953 105.33447266 210.15722656 C95.23685215 256.45049311 72.87771242 298.86413721 40 333 C39.05181396 333.9890332 39.05181396 333.9890332 38.08447266 334.99804688 C28.94361483 344.48257847 19.63853587 353.22617831 9 361 C8.44957031 361.40637695 7.89914062 361.81275391 7.33203125 362.23144531 C4.23984118 364.51386352 1.13043591 366.770363 -2 369 C-4.6629749 366.3370251 -4.96263422 364.06335577 -5.92919922 360.41992188 C-6.11232918 359.73724684 -6.29545914 359.0545718 -6.48413849 358.35120964 C-7.09740337 356.05871492 -7.70092777 353.76376474 -8.3046875 351.46875 C-8.74030073 349.83378439 -9.17656434 348.19899195 -9.61343384 346.56436157 C-10.79580156 342.13378321 -11.97000278 337.70107936 -13.14242554 333.26786041 C-15.11231602 325.82509225 -17.0945717 318.38559807 -19.07497406 310.94562149 C-19.58445054 309.03102001 -20.09360823 307.11633368 -20.60245514 305.20156479 C-24.09198049 292.07185177 -27.63841268 278.9592361 -31.25009537 265.86260223 C-31.96831215 263.25649951 -32.68459753 260.64987454 -33.40011597 258.04302979 C-33.63128931 257.20086536 -33.86246265 256.35870094 -34.10064125 255.49101639 C-34.5596404 253.81868927 -35.01857349 252.14634402 -35.47743797 250.47397995 C-36.59676765 246.39826354 -37.72162575 242.32421545 -38.85784912 238.25317383 C-39.92141867 234.44241732 -40.97196421 230.62831165 -42.01270676 226.81126022 C-42.39572652 225.41644184 -42.78379976 224.02299991 -43.17726517 222.63109207 C-43.71138299 220.73965308 -44.2263448 218.84283552 -44.74023438 216.94580078 C-45.03361694 215.88740997 -45.32699951 214.82901917 -45.62927246 213.73855591 C-46.05024501 210.62884128 -45.80119406 209.52749739 -44 207 C-42.515 205.824375 -42.515 205.824375 -41 204.625 C-30.69820144 196.04016786 -24.43425541 183.40078117 -20 171 C-19.56558594 169.81277344 -19.13117188 168.62554687 -18.68359375 167.40234375 C-11.88161907 144.48419213 -14.36753599 116.31004329 -22.4206543 94.11694336 C-24.86966304 85.16820554 -20.06560514 74.14929025 -17.68945312 65.52001953 C-16.59547534 61.52142225 -15.54929213 57.51050759 -14.5 53.5 C-14.08358194 51.91660127 -13.66691478 50.33326802 -13.25 48.75 C-13.04375 47.96625 -12.8375 47.1825 -12.625 46.375 C-12 44 -11.375 41.625 -10.75 39.25 C-10.5435083 38.46520264 -10.3370166 37.68040527 -10.12426758 36.87182617 C-9.71029902 35.29900468 -9.2960765 33.72625 -8.8815918 32.15356445 C-7.79648109 28.03493038 -6.71667361 23.91499926 -5.64453125 19.79296875 C-5.31001953 18.51099609 -5.31001953 18.51099609 -4.96875 17.203125 C-4.54392954 15.57464657 -4.12065087 13.94576483 -3.69921875 12.31640625 C-2.61111048 8.15257861 -1.41627738 4.06775557 0 0 Z " fill="#0053BF" transform="translate(402,100)"/>
<path d="M0 0 C0.99 0.495 0.99 0.495 2 1 C2.84919489 3.54863312 3.57583224 6.05517639 4.25219727 8.65087891 C4.46933034 9.458086 4.68646341 10.2652931 4.91017628 11.09696102 C5.63653752 13.80485364 6.35136701 16.51566016 7.06640625 19.2265625 C7.57760709 21.14048993 8.08955412 23.0542182 8.60220337 24.96775818 C9.97984582 30.11788117 11.34774126 35.27054487 12.71343613 40.4238472 C14.12315233 45.73877948 15.53979637 51.05186327 16.95629883 56.36499023 C17.52470476 58.49705485 18.09310991 60.62911967 18.66151428 62.76118469 C18.94285784 63.81640131 19.22420139 64.87161793 19.51407051 65.95881081 C20.36919336 69.16768331 21.22311116 72.37687476 22.07688904 75.58610535 C25.29023936 87.65544246 28.5456325 99.71190094 31.87079811 111.75091553 C32.49638902 114.01721052 33.1201064 116.2840118 33.74308777 118.55102539 C33.94109639 119.27143635 34.13910501 119.99184731 34.3431139 120.7340889 C34.73100717 122.14540997 35.11885547 123.55674341 35.50665569 124.96809006 C36.61452275 128.99532721 37.73434651 133.01900894 38.86239243 137.04063702 C39.70446019 140.05661096 40.52849731 143.07751413 41.35546875 146.09765625 C41.65828766 147.159879 41.96110657 148.22210175 42.27310181 149.31651306 C42.53384491 150.28077713 42.79458801 151.2450412 43.06323242 152.23852539 C43.2942717 153.06832413 43.52531097 153.89812286 43.76335144 154.75306702 C44.05575292 157.52936336 43.54966527 158.70467436 42 161 C39.87124582 162.52180758 37.82437858 163.83449461 35.5625 165.125 C34.89927734 165.51042969 34.23605469 165.89585937 33.55273438 166.29296875 C31.37722667 167.54474099 29.1902489 168.77422494 27 170 C26.27538574 170.41088867 25.55077148 170.82177734 24.80419922 171.24511719 C12.02175574 178.44387367 -1.21581552 184.00971657 -15 189 C-15.81436523 189.30309082 -16.62873047 189.60618164 -17.46777344 189.91845703 C-18.23895508 190.19415527 -19.01013672 190.46985352 -19.8046875 190.75390625 C-20.47226074 190.99568604 -21.13983398 191.23746582 -21.82763672 191.48657227 C-24.58280609 192.13774345 -27.17754875 192.0316212 -30 192 C-30.00586624 190.97873016 -30.01173248 189.95746033 -30.01777649 188.90524292 C-30.07527726 179.22623124 -30.14817872 169.54743836 -30.23571491 159.86865044 C-30.28022279 154.89405854 -30.31952073 149.91954487 -30.34643555 144.94482422 C-30.37266557 140.13357464 -30.4132033 135.32262931 -30.46318626 130.51156998 C-30.47972297 128.68664493 -30.4913186 126.86166743 -30.49761391 125.03667831 C-30.58518472 101.9591792 -35.16388478 83.00101152 -51.2734375 65.53515625 C-64.24122186 52.93357178 -81.18010624 47.09660885 -99 46 C-99 40.06 -99 34.12 -99 28 C-96.091875 27.9175 -93.18375 27.835 -90.1875 27.75 C-58.16434603 26.39391223 -25.92887886 19.74400867 0 0 Z " fill="#CCD1E1" transform="translate(355,310)"/>
<path d="M0 0 C18.32650275 0 34.46738182 5.87870993 47.85083008 18.58911133 C63.99307814 34.81952323 69.27379029 53.81006799 69.22659302 76.0533905 C69.21638401 77.85200117 69.2059521 79.65061058 69.1953125 81.44921875 C69.19157561 83.31679634 69.18873184 85.18437591 69.18673706 87.05195618 C69.17915377 91.93286693 69.1595517 96.81365592 69.1373291 101.69451904 C69.11675553 106.6889074 69.10771088 111.68331572 69.09765625 116.67773438 C69.0763001 126.45187599 69.0422293 136.22592781 69 146 C69.66 146.33 70.32 146.66 71 147 C47.00284382 153.39755586 25.19657343 156 0 156 C0 104.52 0 53.04 0 0 Z " fill="#E8ECF4" transform="translate(256,356)"/>
<path d="M0 0 C0 51.48 0 102.96 0 156 C-25.57230593 156 -25.57230593 156 -33.4375 154.8125 C-34.29363892 154.68919312 -35.14977783 154.56588623 -36.03186035 154.43884277 C-43.16439914 153.36243102 -50.18404512 151.95819422 -57.22265625 150.38671875 C-58.26748169 150.15641968 -59.31230713 149.92612061 -60.38879395 149.68884277 C-62.92656911 149.12900739 -65.46360044 148.56602887 -68 148 C-68.09321082 136.67224391 -68.16402193 125.344581 -68.20724869 114.01651764 C-68.22800889 108.75485054 -68.25611189 103.49344832 -68.30175781 98.23193359 C-68.34563228 93.1420079 -68.36922376 88.05233489 -68.37950897 82.9622345 C-68.38682645 81.03282196 -68.40111259 79.10342121 -68.42292023 77.17411804 C-68.66783559 54.5815251 -64.0667469 35.94166876 -48 19 C-34.9625057 6.470747 -17.92204332 0 0 0 Z " fill="#FEFEFE" transform="translate(256,356)"/>
<path d="M0 0 C8.12149677 1.63676998 15.97083627 3.85483025 23.875 6.3125 C32.61382852 9.02580561 41.38518721 11.45896261 50.25170898 13.71655273 C61.24679896 16.53592767 72.12246953 19.7608682 83 23 C80.12899254 25.1847906 77.22265093 27.08738326 74.125 28.9375 C51.31277899 43.41565626 36.40602699 63.92992834 25 88 C24.33598834 89.33465754 23.66993441 90.66830555 23 92 C22.66790527 90.66376587 22.66790527 90.66376587 22.32910156 89.30053711 C21.48765875 85.91747293 20.64506716 82.5346988 19.80175781 79.15209961 C19.44063768 77.70266565 19.07994376 76.25312542 18.71972656 74.8034668 C16.51973486 65.95126555 14.25558816 57.12085803 11.88867188 48.31176758 C11.15644186 45.58300381 10.43538375 42.85209541 9.7265625 40.1171875 C8.00577298 33.48822832 6.26904891 26.87117169 4.34765625 20.296875 C4.07163574 19.35086426 3.79561523 18.40485352 3.51123047 17.43017578 C2.97339928 15.59861669 2.42971039 13.76876467 1.87939453 11.94091797 C-0.37719444 4.26317441 -0.37719444 4.26317441 0 0 Z " fill="#E7EBF4" transform="translate(110,99)"/>
<path d="M0 0 C-1.38656289 8.3618448 -3.28509857 16.53839638 -5.375 24.75 C-5.84462158 26.61096313 -5.84462158 26.61096313 -6.32373047 28.50952148 C-8.17886136 35.83820214 -10.06735257 43.15595545 -12.04296875 50.453125 C-12.97957348 53.9242968 -13.8927025 57.40087812 -14.80151367 60.87939453 C-17.43342471 70.94834863 -20.18681938 80.98028858 -23 91 C-24.81281796 88.28077306 -26.23950974 85.54122319 -27.66333008 82.60668945 C-39.37322127 58.51976429 -57.50871103 36.02414704 -82 24 C-79.29701521 21.29701521 -77.04266378 21.15974172 -73.3125 20.3125 C-66.42796187 18.68785361 -59.68944531 16.73054987 -52.9375 14.625 C-44.07634087 11.87191123 -35.17287663 9.42795916 -26.18066406 7.14257812 C-18.99410094 5.30166053 -11.93728719 3.18710928 -4.88671875 0.8828125 C-2 0 -2 0 0 0 Z " fill="#CBD0E0" transform="translate(402,99)"/>
<path d="M0 0 C2.04259026 2.96505038 2.77987632 5.05460257 2.56640625 8.68359375 C0.9942059 14.0056384 -3.59139336 17.83176224 -8.0625 20.8125 C-8.40011035 23.85690276 -8.55167443 26.7073124 -8.57421875 29.7578125 C-8.59216995 30.6428244 -8.61012115 31.5278363 -8.62861633 32.43966675 C-8.68288985 35.27222904 -8.71666919 38.10462126 -8.75 40.9375 C-8.78315808 42.85549251 -8.81764631 44.77346253 -8.85351562 46.69140625 C-8.94113619 51.39846428 -9.00105753 56.10473546 -9.0625 60.8125 C-15.6625 60.8125 -22.2625 60.8125 -29.0625 60.8125 C-29.03027344 58.0178125 -28.99804688 55.223125 -28.96484375 52.34375 C-28.96426057 49.61635686 -28.97908223 46.88944794 -28.99536133 44.16210938 C-28.99843053 42.27665025 -28.9856531 40.39109248 -28.95629883 38.50585938 C-28.39836332 27.67516655 -28.39836332 27.67516655 -32.08886719 17.90869141 C-34.45380541 15.79187886 -34.45380541 15.79187886 -36.99682617 14.29345703 C-39.55081067 12.46241224 -39.8927931 11.22959954 -40.4375 8.1875 C-40.45518177 4.76902382 -39.94311496 3.59019683 -38.25 0.4375 C-28.80543549 -8.87768691 -10.06123644 -7.18659746 0 0 Z " fill="#636978" transform="translate(275.0625,229.1875)"/>
<path d="M0 0 C13.74285714 0 13.74285714 0 19 4 C21.07747264 7.11620897 21.59230705 9.07493836 21.5234375 12.80078125 C20.24234852 18.18326705 15.42458072 22.05027952 11 25 C10.66236412 27.97294974 10.51086962 30.74742502 10.48828125 33.7265625 C10.47033005 34.58937836 10.45237885 35.45219421 10.43388367 36.34115601 C10.3796148 39.10238731 10.34583243 41.86344418 10.3125 44.625 C10.2793415 46.49481603 10.24485322 48.364609 10.20898438 50.234375 C10.12387904 54.82279109 10.05714746 59.41115396 10 64 C6.7 64 3.4 64 0 64 C0 42.88 0 21.76 0 0 Z " fill="#414952" transform="translate(256,225)"/>
<path d="M0 0 C4.06001298 2.34545539 7.23769062 4.51204765 8.88671875 9.046875 C9.61658882 14.66687456 9.3014198 19.35166106 5.88671875 24.046875 C2.25557988 27.13824998 -0.94738385 28.86278594 -5.67578125 29.609375 C-10.56075555 28.81001557 -14.12801881 27.30073177 -17.44140625 23.5390625 C-20.45468472 18.97670426 -21.0605784 14.39861559 -20.11328125 9.046875 C-16.46929183 1.32161743 -8.46421793 -3.8175031 0 0 Z " fill="#666C7B" transform="translate(195.11328125,199.953125)"/>
<path d="M0 0 C4.06001298 2.34545539 7.23769062 4.51204765 8.88671875 9.046875 C9.68995185 14.435654 9.25106467 18.94196744 6.21484375 23.5390625 C2.87777542 27.32761655 -0.67403688 28.84126866 -5.61328125 29.546875 C-10.78249995 28.80841519 -14.40819528 26.92246956 -17.98828125 22.984375 C-20.57861237 18.52324917 -20.71467335 14.06420341 -20.11328125 9.046875 C-16.46929183 1.32161743 -8.46421793 -3.8175031 0 0 Z " fill="#444C55" transform="translate(328.11328125,199.953125)"/>
<path d="M0 0 C-0.67574359 6.97705255 -2.26526236 13.5915212 -4 20.375 C-4.27328125 21.46683594 -4.5465625 22.55867188 -4.828125 23.68359375 C-6.85925752 31.71851504 -6.85925752 31.71851504 -8 34 C-11.81665295 32.48870789 -13.58911684 30.28483282 -16.0625 27.0625 C-20.95283138 20.90068247 -26.34468711 15.46504068 -32 10 C-31 8 -31 8 -28.36376953 7.03857422 C-27.21505371 6.7138916 -26.06633789 6.38920898 -24.8828125 6.0546875 C-23.63628906 5.70019531 -22.38976562 5.34570312 -21.10546875 4.98046875 C-20.45239746 4.79919434 -19.79932617 4.61791992 -19.12646484 4.43115234 C-17.13762677 3.87850863 -15.15267818 3.31336481 -13.16796875 2.74609375 C-3.42084478 0 -3.42084478 0 0 0 Z " fill="#9297AB" transform="translate(373,127)"/>
<path d="M0 0 C11.10487036 2.67533216 22.0653814 5.69796171 33 9 C30.65393279 11.35835028 28.30647975 13.70887267 25.89453125 16 C20.77290144 20.91983952 16.40559445 26.14299947 12.18676758 31.83398438 C11.14377627 33.23718294 10.07442805 34.6207243 9 36 C8.67 36 8.34 36 8 36 C7.75765625 34.94683594 7.5153125 33.89367187 7.265625 32.80859375 C5.26364671 24.17531413 3.13262325 15.6064481 0.734375 7.07421875 C0 4 0 4 0 0 Z " fill="#BEC3D2" transform="translate(139,127)"/>
</svg>
