<?xml version="1.0" encoding="UTF-8"?>
<svg version="1.1" xmlns="http://www.w3.org/2000/svg" width="512" height="512">
<path d="M0 0 C1.01790619 0.00215515 2.03581238 0.0043103 3.08456421 0.00653076 C17.69363523 0.05620146 32.02575853 0.30709809 46.375 3.3125 C47.34985352 3.51117676 48.32470703 3.70985352 49.32910156 3.91455078 C97.7109774 14.03517194 141.69928269 35.9516877 177.375 70.3125 C178.3640332 71.26068604 178.3640332 71.26068604 179.37304688 72.22802734 C188.86130305 81.37247479 197.6012044 90.66984009 205.375 101.3125 C206.23306152 102.46355017 207.09113451 103.61459177 207.94921875 104.765625 C213.98736829 112.95680614 219.34595521 121.47054105 224.375 130.3125 C224.73948242 130.94430176 225.10396484 131.57610352 225.47949219 132.22705078 C247.00981855 169.84336237 256.83759735 212.56515288 256.75 255.625 C256.74918427 257.13927582 256.74918427 257.13927582 256.74835205 258.68414307 C256.70758601 275.19373539 255.80029309 291.11032001 252.375 307.3125 C252.15537598 308.35438477 251.93575195 309.39626953 251.70947266 310.46972656 C241.61185215 356.76299311 219.25271242 399.17663721 186.375 433.3125 C185.74287598 433.97185547 185.11075195 434.63121094 184.45947266 435.31054688 C175.31502521 444.79880305 166.01765991 453.5387044 155.375 461.3125 C154.22394983 462.17056152 153.07290823 463.02863451 151.921875 463.88671875 C143.73224019 469.92427396 135.22961724 475.30707302 126.375 480.3125 C125.66778809 480.7146875 124.96057617 481.116875 124.23193359 481.53125 C98.02919713 496.28361537 69.08869203 505.81885806 39.375 510.3125 C38.25254883 510.48910156 37.13009766 510.66570312 35.97363281 510.84765625 C24.36052257 512.5045586 12.84320055 512.71123513 1.125 512.6875 C-0.39302216 512.68668427 -0.39302216 512.68668427 -1.94171143 512.68585205 C-18.47030572 512.64511956 -34.40413999 511.74174222 -50.625 508.3125 C-51.66688477 508.09287598 -52.70876953 507.87325195 -53.78222656 507.64697266 C-100.07549311 497.54935215 -142.48913721 475.19021242 -176.625 442.3125 C-177.28435547 441.68037598 -177.94371094 441.04825195 -178.62304688 440.39697266 C-188.11130305 431.25252521 -196.8512044 421.95515991 -204.625 411.3125 C-205.48306152 410.16144983 -206.34113451 409.01040823 -207.19921875 407.859375 C-213.23677396 399.66974019 -218.61957302 391.16711724 -223.625 382.3125 C-224.0271875 381.60528809 -224.429375 380.89807617 -224.84375 380.16943359 C-237.8691741 357.03404164 -246.61801461 331.86287591 -251.9375 305.875 C-252.08485596 305.15610596 -252.23221191 304.43721191 -252.3840332 303.6965332 C-255.35789088 288.05024391 -255.99800362 272.57681954 -255.9375 256.6875 C-255.93534485 255.66959381 -255.9331897 254.65168762 -255.93096924 253.60293579 C-255.88129854 238.99386477 -255.63040191 224.66174147 -252.625 210.3125 C-252.42632324 209.33764648 -252.22764648 208.36279297 -252.02294922 207.35839844 C-241.90232806 158.9765226 -219.9858123 114.98821731 -185.625 79.3125 C-184.99287598 78.65314453 -184.36075195 77.99378906 -183.70947266 77.31445312 C-174.56502521 67.82619695 -165.26765991 59.0862956 -154.625 51.3125 C-153.47394983 50.45443848 -152.32290823 49.59636549 -151.171875 48.73828125 C-142.98224019 42.70072604 -134.47961724 37.31792698 -125.625 32.3125 C-124.91778809 31.9103125 -124.21057617 31.508125 -123.48193359 31.09375 C-100.34654164 18.0683259 -75.17537591 9.31948539 -49.1875 4 C-48.46860596 3.85264404 -47.74971191 3.70528809 -47.0090332 3.5534668 C-31.36274391 0.57960912 -15.88931954 -0.06050362 0 0 Z " fill="#85E7CF" transform="translate(255.625,-0.3125)"/>
<path d="M0 0 C1.01790619 0.00215515 2.03581238 0.0043103 3.08456421 0.00653076 C17.69363523 0.05620146 32.02575853 0.30709809 46.375 3.3125 C47.34985352 3.51117676 48.32470703 3.70985352 49.32910156 3.91455078 C97.7109774 14.03517194 141.69928269 35.9516877 177.375 70.3125 C178.3640332 71.26068604 178.3640332 71.26068604 179.37304688 72.22802734 C188.86130305 81.37247479 197.6012044 90.66984009 205.375 101.3125 C206.23306152 102.46355017 207.09113451 103.61459177 207.94921875 104.765625 C213.98736829 112.95680614 219.34595521 121.47054105 224.375 130.3125 C224.73948242 130.94430176 225.10396484 131.57610352 225.47949219 132.22705078 C247.00981855 169.84336237 256.83759735 212.56515288 256.75 255.625 C256.74918427 257.13927582 256.74918427 257.13927582 256.74835205 258.68414307 C256.70758601 275.19373539 255.80029309 291.11032001 252.375 307.3125 C252.15537598 308.35438477 251.93575195 309.39626953 251.70947266 310.46972656 C240.49079467 361.90256166 214.40738519 405.20353906 177.5625 442.25 C176.48621338 443.33341675 176.48621338 443.33341675 175.38818359 444.4387207 C164.48008612 455.3125 164.48008612 455.3125 161.375 455.3125 C161.36620064 454.4173896 161.36620064 454.4173896 161.35722351 453.50419617 C161.29239022 447.19139581 161.20776327 440.87906388 161.11254883 434.56665039 C161.07966118 432.22296394 161.05152188 429.87920515 161.02856445 427.53540039 C160.8488108 409.65564883 160.07852985 392.14709007 154.5625 375 C154.30243164 374.17008545 154.04236328 373.3401709 153.77441406 372.48510742 C147.37322776 352.52676447 137.31036529 335.82610326 123.76269531 319.95117188 C121.9199896 317.77519708 120.14256431 315.549707 118.375 313.3125 C126.48876559 302.21876959 138.17600758 296.34766921 151.375 293.3125 C152.035 293.3125 152.695 293.3125 153.375 293.3125 C153.02566406 292.50425781 152.67632812 291.69601562 152.31640625 290.86328125 C151.86136719 289.79464844 151.40632813 288.72601563 150.9375 287.625 C150.25880859 286.04138672 150.25880859 286.04138672 149.56640625 284.42578125 C145.69983396 274.32198416 145.45257267 259.96556961 149.1875 249.8125 C156.84770886 234.51372129 171.60254605 224.73552258 187.375 219.3125 C188.695 219.3125 190.015 219.3125 191.375 219.3125 C191.375 218.6525 191.375 217.9925 191.375 217.3125 C190.11324951 217.05742676 188.85149902 216.80235352 187.55151367 216.53955078 C182.0694244 215.31783452 176.84383578 213.54173907 171.55078125 211.6796875 C170.5280864 211.32415802 169.50539154 210.96862854 168.45170593 210.60232544 C166.29014611 209.84986143 164.1294179 209.09500468 161.96948242 208.33789062 C158.74375225 207.20721737 155.51571447 206.08337162 152.28710938 204.9609375 C138.60673959 200.19506584 124.97531641 195.30203198 111.375 190.3125 C111.375 189.9825 111.375 189.6525 111.375 189.3125 C112.53515625 189.27511719 113.6953125 189.23773438 114.890625 189.19921875 C131.93882742 188.53507435 147.55761096 185.75217274 160.41015625 173.50390625 C169.08626788 163.82736822 172.10889549 151.76427561 174.99609375 139.42578125 C175.22582886 138.45209595 175.45556396 137.47841064 175.69226074 136.47521973 C176.25518202 134.08811143 176.81603657 131.70053758 177.375 129.3125 C176.10316864 129.33026489 174.83133728 129.34802979 173.52096558 129.36633301 C161.48772717 129.52907652 149.45471439 129.6487022 137.42062187 129.72699738 C131.23486042 129.76860469 125.04999308 129.82496866 118.86474609 129.91601562 C112.8864791 130.00345701 106.90906765 130.05088264 100.93021011 130.07151794 C98.65853547 130.08620778 96.38690339 130.11489287 94.11559677 130.15834045 C80.13409169 130.4149575 70.82937968 129.70147923 59.375 121.3125 C49.99783088 116.37065059 39.7877188 113.91359063 29.375 112.3125 C28.37726563 112.14766113 27.37953125 111.98282227 26.3515625 111.81298828 C17.39143524 110.41138287 8.55969122 109.9008784 -0.5 109.6875 C-1.88153091 109.64916926 -3.26304181 109.61010983 -4.64453125 109.5703125 C-7.97123042 109.47725798 -11.29794084 109.39142541 -14.625 109.3125 C-15.06924316 108.34054688 -15.51348633 107.36859375 -15.97119141 106.3671875 C-23.40235679 90.35107653 -33.89522511 81.32591026 -50.3125 74.9375 C-57.06287442 72.7069415 -63.83410035 71.56577866 -70.8984375 70.890625 C-83.4393756 69.68803293 -95.85854474 68.09458921 -105.625 59.3125 C-108.91973927 55.31571713 -111.60305867 51.44543259 -112.625 46.3125 C-117.96056137 56.25049216 -122.17039772 66.41048742 -118.90234375 77.83984375 C-115.6275966 85.8079532 -109.37106457 91.78675733 -101.4699707 95.25976562 C-99.13816027 96.11108146 -96.79392067 96.9070083 -94.4375 97.6875 C-82.5538969 101.87820859 -72.01779652 106.6297155 -64.625 117.3125 C-63.125 120.875 -63.125 120.875 -62.625 123.3125 C-69.61273629 128.28175323 -74.76769771 130.19034742 -83.30712891 129.99365234 C-84.83087631 129.99496658 -84.83087631 129.99496658 -86.38540649 129.99630737 C-89.7082695 129.99216196 -93.02905677 129.94565281 -96.3515625 129.8984375 C-98.66896462 129.88723457 -100.98638103 129.87869957 -103.30380249 129.87271118 C-109.3769719 129.84989964 -115.44926818 129.79104157 -121.52209473 129.7244873 C-127.72945345 129.66289951 -133.93695448 129.63566093 -140.14453125 129.60546875 C-152.30506925 129.5412917 -164.46496176 129.43900471 -176.625 129.3125 C-175.72319249 133.29518198 -174.80085147 137.27284478 -173.875 141.25 C-173.62234375 142.36697266 -173.3696875 143.48394531 -173.109375 144.63476562 C-169.91319571 158.25847986 -164.54204842 171.13008565 -152.625 179.3125 C-144.30207002 184.02537088 -137.11508459 187.29560053 -127.44921875 187.62890625 C-126.29228516 187.67080078 -125.13535156 187.71269531 -123.94335938 187.75585938 C-122.74517578 187.79517578 -121.54699219 187.83449219 -120.3125 187.875 C-119.09498047 187.91818359 -117.87746094 187.96136719 -116.62304688 188.00585938 C-113.6238053 188.11171496 -110.62448409 188.21379726 -107.625 188.3125 C-110.39058945 190.1562263 -112.53866074 191.09007011 -115.64941406 192.15673828 C-116.67609192 192.51115997 -117.70276978 192.86558167 -118.76055908 193.23074341 C-119.87598083 193.61092621 -120.99140259 193.99110901 -122.140625 194.3828125 C-123.30261414 194.78273407 -124.46460327 195.18265564 -125.6618042 195.59469604 C-128.76891512 196.66327299 -131.87725777 197.72816065 -134.98626709 198.79119873 C-139.27087697 200.25733975 -143.55290675 201.73100881 -147.83557129 203.20281982 C-150.24205632 204.02935628 -152.64887492 204.85492218 -155.05603027 205.67950439 C-160.87141757 207.6725364 -166.68197874 209.67771048 -172.48242188 211.71386719 C-173.54998718 212.08816864 -174.61755249 212.46247009 -175.71746826 212.84811401 C-177.72399662 213.55286271 -179.72962025 214.26019427 -181.73419189 214.9704895 C-182.61693787 215.2804184 -183.49968384 215.59034729 -184.40917969 215.90966797 C-185.17929382 216.18197235 -185.94940796 216.45427673 -186.74285889 216.73483276 C-188.625 217.3125 -188.625 217.3125 -190.625 217.3125 C-190.625 217.9725 -190.625 218.6325 -190.625 219.3125 C-189.3875 219.51875 -188.15 219.725 -186.875 219.9375 C-172.28941711 223.21696282 -159.67689986 233.03807024 -151.30859375 245.23046875 C-147.24207311 252.02801063 -146.23680233 258.12063461 -146.25 265.875 C-146.25016113 266.75671875 -146.25032227 267.6384375 -146.25048828 268.546875 C-146.40634877 277.53756451 -148.43348729 285.30708834 -152.625 293.3125 C-151.80708984 293.45945312 -151.80708984 293.45945312 -150.97265625 293.609375 C-137.72491233 296.23627807 -125.89708525 302.52044177 -117.625 313.3125 C-118.48480469 314.30378906 -119.34460938 315.29507812 -120.23046875 316.31640625 C-133.76234446 332.12541378 -144.79898295 348.55849601 -151.625 368.3125 C-151.85171387 368.96798828 -152.07842773 369.62347656 -152.31201172 370.29882812 C-159.07660512 390.36567337 -160.1012467 410.52835876 -160.3125 431.5625 C-160.34577268 433.88022635 -160.38027098 436.19793545 -160.41601562 438.515625 C-160.49975545 444.11446389 -160.56856254 449.71332266 -160.625 455.3125 C-166.92761168 452.33055656 -171.63523934 447.0912055 -176.625 442.3125 C-177.29885742 441.66732422 -177.97271484 441.02214844 -178.66699219 440.35742188 C-188.13966129 431.22661703 -196.86345684 421.93838579 -204.625 411.3125 C-205.48306152 410.16144983 -206.34113451 409.01040823 -207.19921875 407.859375 C-213.23677396 399.66974019 -218.61957302 391.16711724 -223.625 382.3125 C-224.0271875 381.60528809 -224.429375 380.89807617 -224.84375 380.16943359 C-237.8691741 357.03404164 -246.61801461 331.86287591 -251.9375 305.875 C-252.08485596 305.15610596 -252.23221191 304.43721191 -252.3840332 303.6965332 C-255.35789088 288.05024391 -255.99800362 272.57681954 -255.9375 256.6875 C-255.93534485 255.66959381 -255.9331897 254.65168762 -255.93096924 253.60293579 C-255.88129854 238.99386477 -255.63040191 224.66174147 -252.625 210.3125 C-252.42632324 209.33764648 -252.22764648 208.36279297 -252.02294922 207.35839844 C-241.90232806 158.9765226 -219.9858123 114.98821731 -185.625 79.3125 C-184.99287598 78.65314453 -184.36075195 77.99378906 -183.70947266 77.31445312 C-174.56502521 67.82619695 -165.26765991 59.0862956 -154.625 51.3125 C-153.47394983 50.45443848 -152.32290823 49.59636549 -151.171875 48.73828125 C-142.98224019 42.70072604 -134.47961724 37.31792698 -125.625 32.3125 C-124.91778809 31.9103125 -124.21057617 31.508125 -123.48193359 31.09375 C-100.34654164 18.0683259 -75.17537591 9.31948539 -49.1875 4 C-48.46860596 3.85264404 -47.74971191 3.70528809 -47.0090332 3.5534668 C-31.36274391 0.57960912 -15.88931954 -0.06050362 0 0 Z " fill="#843BCB" transform="translate(255.625,-0.3125)"/>
<path d="M0 0 C9.58298436 0 18.08641495 0.06617607 27.375 1.625 C28.44717773 1.80248779 29.51935547 1.97997559 30.62402344 2.1628418 C46.04579463 4.88602989 59.9473559 10.29823727 73 19 C75.04095123 19.30952967 75.04095123 19.30952967 77.30900574 19.2784729 C78.62779976 19.29521812 78.62779976 19.29521812 79.97323608 19.31230164 C80.93492706 19.31446182 81.89661804 19.31662201 82.88745117 19.31884766 C83.90226059 19.32889328 84.91707001 19.3389389 85.96263123 19.34928894 C89.32273788 19.38022252 92.68276449 19.39718444 96.04296875 19.4140625 C98.37039382 19.43276595 100.69781204 19.45233873 103.02522278 19.4727478 C109.15558854 19.52416188 115.2859763 19.56373798 121.41644287 19.60089111 C127.6702625 19.64087264 133.92398986 19.69199164 140.17773438 19.7421875 C152.45175818 19.83905662 164.72583398 19.92342622 177 20 C176.85711948 21.57265586 176.71005275 23.14493168 176.5612793 24.71704102 C176.47984177 25.59264175 176.39840424 26.46824249 176.3144989 27.37037659 C174.4205126 43.20658687 167.97062624 58.25572232 156 69 C144.91209186 76.85023897 133.98960965 79.82539223 120.625 80.5625 C119.88894531 80.60568359 119.15289062 80.64886719 118.39453125 80.69335938 C116.59651932 80.79843799 114.79828042 80.89962093 113 81 C113.77070831 81.26451462 114.54141663 81.52902924 115.33547974 81.80155945 C122.66005713 84.31559903 129.98434437 86.83048142 137.308321 89.34627056 C141.07209153 90.63909534 144.83596675 91.93161347 148.60009766 93.22338867 C152.24434932 94.47403709 155.8883045 95.72554597 159.53207016 96.97760963 C160.91035683 97.45105381 162.28874351 97.92420695 163.66724014 98.39703941 C172.80279738 101.53087036 181.91215254 104.73058945 191 108 C191 108.66 191 109.32 191 110 C190.15179688 110.25652344 189.30359375 110.51304687 188.4296875 110.77734375 C172.74627156 115.89599709 159.80198116 124.03610308 151.26171875 138.47265625 C148.21718207 144.57115542 147.61421334 149.85192749 147.625 156.5625 C147.62443604 157.44421875 147.62387207 158.3259375 147.62329102 159.234375 C147.74942142 166.78841475 149.28657005 172.93854374 152 180 C152.35618849 181.32741051 152.69951371 182.65888223 153 184 C152.07960938 184.25652344 151.15921875 184.51304687 150.2109375 184.77734375 C143.07364814 186.88889475 136.6584778 189.40442745 130.375 193.4375 C129.8082959 193.79642334 129.2415918 194.15534668 128.65771484 194.52514648 C124.64302863 197.21739722 121.92567527 200.22054961 119 204 C119.85980469 204.99128906 120.71960938 205.98257813 121.60546875 207.00390625 C138.35466259 226.57163931 150.08378685 246.80569912 156.8125 271.75 C157.10495605 272.82858276 157.10495605 272.82858276 157.40332031 273.92895508 C161.07543393 288.38911677 161.57610724 302.93027661 161.75512695 317.77856445 C161.79352891 320.14396174 161.85524415 322.50908995 161.93969727 324.87329102 C162.67156863 345.61060121 162.67156863 345.61060121 158.77709961 350.41577148 C155.96059312 352.75941072 153.27901202 354.38337719 150 356 C148.60005544 356.95883433 147.2115987 357.93484634 145.83984375 358.93359375 C144.54463069 359.77684416 143.24376881 360.61147946 141.9375 361.4375 C141.23214111 361.88851074 140.52678223 362.33952148 139.80004883 362.80419922 C134.35541009 366.24172193 128.80482723 369.47872501 123.1875 372.625 C122.04945923 373.26393188 122.04945923 373.26393188 120.88842773 373.91577148 C120.17630127 374.30708252 119.4641748 374.69839355 118.73046875 375.1015625 C118.10551514 375.44525879 117.48056152 375.78895508 116.83666992 376.14306641 C114.91252303 377.04081406 113.07138345 377.55292235 111 378 C110.86948242 377.31599121 110.73896484 376.63198242 110.60449219 375.92724609 C103.99170698 341.49096444 94.08748063 316.05875213 67.48828125 292.28125 C52.70903409 278.73167333 42.81601493 260.65435664 36 242 C35.41734375 242.39832031 34.8346875 242.79664063 34.234375 243.20703125 C22.8645221 250.55453053 13.90876527 251 0 251 C0 168.17 0 85.34 0 0 Z " fill="#0ED1B2" transform="translate(256,109)"/>
<path d="M0 0 C6.59129968 5.4580606 12.67646298 11.41388472 18.79101562 17.3918457 C19.97273288 18.54433308 21.15451255 19.69675646 22.33634949 20.84912109 C33.11278058 31.36623833 43.83475629 41.93886075 54.54155731 52.52680683 C61.72255252 59.62621357 68.91951733 66.70771233 76.15966797 73.74682617 C82.49858294 79.90976136 88.80418818 86.10464989 95.07308531 92.33882207 C98.38153482 95.62686809 101.70314022 98.8980867 105.06513977 102.13143349 C120.92146795 117.40519239 131.83003038 129.33176384 135 152 C135.27104985 153.40368838 135.55356976 154.80525662 135.8522644 156.20332336 C136.47179008 159.13093643 136.95254287 162.03853285 137.375 165 C137.52582031 165.95648438 137.67664063 166.91296875 137.83203125 167.8984375 C138.24974598 170.5969486 138.64611731 173.29235333 139 176 C139.08547592 176.65340866 139.17095184 177.30681732 139.25901794 177.98002625 C139.9504915 183.64880361 140.18861303 189.24921265 140.23828125 194.95703125 C140.2480751 195.88975357 140.25786896 196.82247589 140.26795959 197.78346252 C140.4405989 218.50093104 140.30428596 238.6400442 136 259 C135.78037598 260.04188477 135.56075195 261.08376953 135.33447266 262.15722656 C124.11579467 313.59006166 98.03238519 356.89103906 61.1875 393.9375 C60.11121338 395.02091675 60.11121338 395.02091675 59.01318359 396.1262207 C48.10508612 407 48.10508612 407 45 407 C44.99413376 406.40325974 44.98826752 405.80651947 44.98222351 405.19169617 C44.91739022 398.87889581 44.83276327 392.56656388 44.73754883 386.25415039 C44.70466118 383.91046394 44.67652188 381.56670515 44.65356445 379.22290039 C44.4738108 361.34314883 43.70352985 343.83459007 38.1875 326.6875 C37.92743164 325.85758545 37.66736328 325.0276709 37.39941406 324.17260742 C30.99822776 304.21426447 20.93536529 287.51360326 7.38769531 271.63867188 C5.5449896 269.46269708 3.76756431 267.237207 2 265 C10.11376559 253.90626959 21.80100758 248.03516921 35 245 C35.66 245 36.32 245 37 245 C36.65066406 244.19175781 36.30132812 243.38351562 35.94140625 242.55078125 C35.48636719 241.48214844 35.03132813 240.41351563 34.5625 239.3125 C34.11003906 238.25675781 33.65757812 237.20101562 33.19140625 236.11328125 C29.32483396 226.00948416 29.07757267 211.65306961 32.8125 201.5 C40.47270886 186.20122129 55.22754605 176.42302258 71 171 C72.32 171 73.64 171 75 171 C75 170.34 75 169.68 75 169 C73.10737427 168.61739014 73.10737427 168.61739014 71.17651367 168.22705078 C65.6944244 167.00533452 60.46883578 165.22923907 55.17578125 163.3671875 C53.64173897 162.83389328 53.64173897 162.83389328 52.07670593 162.28982544 C49.91514611 161.53736143 47.7544179 160.78250468 45.59448242 160.02539062 C42.36875225 158.89471737 39.14071447 157.77087162 35.91210938 156.6484375 C22.23173959 151.88256584 8.60031641 146.98953198 -5 142 C-5 141.67 -5 141.34 -5 141 C-3.83984375 140.96261719 -2.6796875 140.92523438 -1.484375 140.88671875 C15.56382742 140.22257435 31.18261096 137.43967274 44.03515625 125.19140625 C52.71126788 115.51486822 55.73389549 103.45177561 58.62109375 91.11328125 C58.85082886 90.13959595 59.08056396 89.16591064 59.31726074 88.16271973 C59.88018202 85.77561143 60.44103657 83.38803758 61 81 C59.07892929 81.0199855 59.07892929 81.0199855 57.11904907 81.04037476 C45.0256072 81.16221912 32.93229053 81.25205108 20.83837318 81.31087303 C14.62131715 81.34213126 8.40475825 81.38450493 2.18798828 81.45263672 C-3.81615686 81.51802344 -9.81982504 81.55374745 -15.82429886 81.56926346 C-18.11038339 81.58031499 -20.39644301 81.60189626 -22.68232346 81.63438034 C-25.894738 81.6781988 -29.10520385 81.68392328 -32.31787109 81.68115234 C-33.25439514 81.702724 -34.19091919 81.72429565 -35.15582275 81.746521 C-42.4374285 81.67894975 -47.12001176 79.18149017 -53 75 C-51.43896513 67.38995499 -46.16289801 62.21813626 -39.9921875 57.890625 C-32.7353435 53.54662093 -25.26539305 50.45270681 -17.35351562 47.50561523 C-7.72575493 43.86394601 -1.2190442 39.92094502 3.25 30.3125 C5.24567418 21.49827236 3.80046691 14.20134884 0.875 5.75 C0 3 0 3 0 0 Z " fill="#593099" transform="translate(372,48)"/>
<path d="M0 0 C0.89460938 0.48210937 1.78921875 0.96421875 2.7109375 1.4609375 C3.9319463 2.09961903 5.15332064 2.73760207 6.375 3.375 C6.95894531 3.69210937 7.54289062 4.00921875 8.14453125 4.3359375 C22.49177393 11.74096598 43.84089746 11.44288657 59.125 7.3125 C64.44024884 5.56235709 69.16644171 2.77705268 74 0 C74.20044922 0.53778076 74.40089844 1.07556152 74.60742188 1.62963867 C80.4593119 17.17662428 87.15657352 30.25075917 98 43 C98.58652344 43.70898438 99.17304688 44.41796875 99.77734375 45.1484375 C103.21096529 49.21272423 106.86768966 52.71639576 110.90234375 56.17578125 C129.79102816 72.60225354 140.86775873 94.93091143 145.75 119.25 C145.97042969 120.28640625 146.19085938 121.3228125 146.41796875 122.390625 C147.50699149 127.69369228 148.27527069 132.58634312 148 138 C112.42960548 153.61431185 76.67833663 162.45384906 37.75 162.375 C36.73798523 162.37445618 35.72597046 162.37391235 34.68328857 162.37335205 C18.15469428 162.33261956 2.22086001 161.42924222 -14 158 C-15.04188477 157.78037598 -16.08376953 157.56075195 -17.15722656 157.33447266 C-36.91234665 153.02542902 -55.64997576 146.43178488 -74 138 C-73.31023728 104.20162695 -57.73311815 76.09455891 -34 53 C-32.71416016 51.71029297 -32.71416016 51.71029297 -31.40234375 50.39453125 C-29.98315534 48.97995809 -28.54775406 47.58084523 -27.078125 46.21875 C-13.99118103 33.91478558 -5.45449318 16.93763673 0 0 Z " fill="#FDB237" transform="translate(219,350)"/>
<path d="M0 0 C3.88774716 0.68436893 7.49018654 1.76788229 11.22045898 3.05371094 C12.45622177 3.47795349 13.69198456 3.90219604 14.9651947 4.33929443 C16.30885874 4.80423166 17.65249093 5.26926092 18.99609375 5.734375 C20.3902158 6.21447089 21.78442821 6.69430447 23.1787262 7.17388916 C26.10379215 8.18071736 29.02813205 9.18961653 31.9519043 10.20019531 C35.65884453 11.48146232 39.36694273 12.75933307 43.07553005 14.03582382 C46.65361218 15.26753094 50.23113848 16.50084862 53.80859375 17.734375 C54.47237974 17.96314079 55.13616573 18.19190659 55.82006645 18.42760468 C64.90164683 21.55917256 73.959742 24.75123997 83 28 C83 28.66 83 29.32 83 30 C82.15179688 30.25652344 81.30359375 30.51304687 80.4296875 30.77734375 C64.74627156 35.89599709 51.80198116 44.03610308 43.26171875 58.47265625 C40.21718207 64.57115542 39.61421334 69.85192749 39.625 76.5625 C39.62443604 77.44421875 39.62387207 78.3259375 39.62329102 79.234375 C39.74942142 86.78841475 41.28657005 92.93854374 44 100 C44.35618849 101.32741051 44.69951371 102.65888223 45 104 C44.07960938 104.25652344 43.15921875 104.51304687 42.2109375 104.77734375 C35.07364814 106.88889475 28.6584778 109.40442745 22.375 113.4375 C21.8082959 113.79642334 21.2415918 114.15534668 20.65771484 114.52514648 C16.64302863 117.21739722 13.92567527 120.22054961 11 124 C11.85980469 124.99128906 12.71960938 125.98257813 13.60546875 127.00390625 C30.35466259 146.57163931 42.08378685 166.80569912 48.8125 191.75 C49.0074707 192.46905518 49.20244141 193.18811035 49.40332031 193.92895508 C53.07543393 208.38911677 53.57610724 222.93027661 53.75512695 237.77856445 C53.79352891 240.14396174 53.85524415 242.50908995 53.93969727 244.87329102 C54.67156863 265.61060121 54.67156863 265.61060121 50.77709961 270.41577148 C47.96059312 272.75941072 45.27901202 274.38337719 42 276 C40.60005544 276.95883433 39.2115987 277.93484634 37.83984375 278.93359375 C36.54463069 279.77684416 35.24376881 280.61147946 33.9375 281.4375 C33.23214111 281.88851074 32.52678223 282.33952148 31.80004883 282.80419922 C26.35541009 286.24172193 20.80482723 289.47872501 15.1875 292.625 C14.04945923 293.26393188 14.04945923 293.26393188 12.88842773 293.91577148 C12.17630127 294.30708252 11.4641748 294.69839355 10.73046875 295.1015625 C10.10551514 295.44525879 9.48056152 295.78895508 8.83666992 296.14306641 C6.91252303 297.04081406 5.07138345 297.55292235 3 298 C2.86948242 297.31599121 2.73896484 296.63198242 2.60449219 295.92724609 C-4.00829302 261.49096444 -13.91251937 236.05875213 -40.51171875 212.28125 C-55.64702508 198.40523917 -66.35215853 179.61881775 -72 160 C-70.87271484 158.96166016 -70.87271484 158.96166016 -69.72265625 157.90234375 C-60.47371107 148.04299472 -57.49616795 133.7256602 -54.63671875 120.93359375 C-48.35684251 92.84320842 -39.61130974 70.08420514 -18.69702148 49.67504883 C-11.87371676 42.99205346 -5.57039888 35.97902292 -2 27 C-1.6390625 26.15695313 -1.278125 25.31390625 -0.90625 24.4453125 C0.35757032 19.64061628 0.21207428 15.06814011 0.125 10.125 C0.11597656 9.15046875 0.10695313 8.1759375 0.09765625 7.171875 C0.07421623 4.78099272 0.04140442 2.39062739 0 0 Z " fill="#0AB59E" transform="translate(364,189)"/>
<path d="M0 0 C0.89460938 0.48210937 1.78921875 0.96421875 2.7109375 1.4609375 C14.5134454 7.68589584 23.15774556 8.9352112 37 10 C37 60.16 37 110.32 37 162 C10.22284566 162 10.22284566 162 0.0625 160.375 C-1.10152344 160.19751221 -2.26554687 160.02002441 -3.46484375 159.8371582 C-28.09226505 155.89375929 -51.37738235 148.39502962 -74 138 C-73.31023728 104.20162695 -57.73311815 76.09455891 -34 53 C-32.71416016 51.71029297 -32.71416016 51.71029297 -31.40234375 50.39453125 C-29.98315534 48.97995809 -28.54775406 47.58084523 -27.078125 46.21875 C-13.99118103 33.91478558 -5.45449318 16.93763673 0 0 Z " fill="#FED15B" transform="translate(219,350)"/>
<path d="M0 0 C2 1 2 1 2.57495117 2.69555664 C2.80661987 3.79178345 2.80661987 3.79178345 3.04296875 4.91015625 C3.22601563 5.72790527 3.4090625 6.5456543 3.59765625 7.38818359 C3.79230469 8.27070801 3.98695313 9.15323242 4.1875 10.0625 C5.79945728 16.90963256 7.67712223 23.42458158 10.5 29.875 C10.77223389 30.50929932 11.04446777 31.14359863 11.32495117 31.79711914 C12.78429317 34.99224236 14.41538657 37.59893512 16.734375 40.203125 C19 43 19 43 18.75 46.875 C13.8661508 63.08173981 5.51865437 76.51251604 -6.01171875 88.859375 C-7.61859216 90.58936838 -9.10445125 92.33446146 -10.5625 94.1875 C-13.16122453 97.18602831 -15.9655732 99.65386308 -18.96484375 102.23828125 C-42.0914582 122.25767303 -50.64654259 151.78600946 -55 181 C-60.20198701 179.48207004 -64.6743946 177.19414836 -69.375 174.5625 C-70.15939453 174.12437988 -70.94378906 173.68625977 -71.75195312 173.23486328 C-79.07937858 169.07155336 -86.29595011 164.59790524 -92.96801758 159.43359375 C-95.02498466 157.89319444 -95.02498466 157.89319444 -97.6628418 156.75390625 C-101.13233661 154.81086618 -102.82738387 153.36999704 -105 150 C-106.56991371 143.05132235 -106.13763872 135.77930508 -105.91918945 128.70556641 C-105.81408267 125.30126098 -105.77593724 121.90183854 -105.75195312 118.49609375 C-105.54202278 101.81199591 -104.4547872 84.86483325 -99.3125 68.875 C-99.05831299 68.06208496 -98.80412598 67.24916992 -98.54223633 66.41162109 C-91.68356922 45.21359757 -80.02343882 22.89550896 -63 8 C-62.34 8 -61.68 8 -61 8 C-60.032593 9.68231469 -59.07652554 11.37115197 -58.125 13.0625 C-57.59132812 14.00222656 -57.05765625 14.94195312 -56.5078125 15.91015625 C-52.96972928 23.16047705 -52.61108631 30.01385328 -52.375 37.9375 C-52.31699219 39.53561523 -52.31699219 39.53561523 -52.2578125 41.16601562 C-52.16413854 43.77717734 -52.07841665 46.38834304 -52 49 C-51.46890625 48.46310547 -50.9378125 47.92621094 -50.390625 47.37304688 C-49.68421875 46.66212891 -48.9778125 45.95121094 -48.25 45.21875 C-47.55390625 44.51685547 -46.8578125 43.81496094 -46.140625 43.09179688 C-44.15139436 41.14794102 -42.11117549 39.30957899 -40 37.5 C-37.21103607 35.10323412 -34.58009215 32.62040609 -32 30 C-28.79970478 26.74970017 -25.45775424 23.75275755 -22 20.78125 C-19.21526124 18.30109205 -16.63085954 15.64079434 -14.015625 12.984375 C-11.36912197 10.37890303 -8.58007018 7.96405644 -5.765625 5.54296875 C-3.75058361 3.78203656 -1.85305602 1.93026669 0 0 Z " fill="#0FD1B2" transform="translate(200,306)"/>
<path d="M0 0 C-0.04640625 1.30453125 -0.0928125 2.6090625 -0.140625 3.953125 C-0.51333428 18.75237593 0.76281667 29.6504892 11 41 C11.87527344 41.98226562 12.75054687 42.96453125 13.65234375 43.9765625 C17.49523224 48.24392517 21.36765867 52.4479145 25.5625 56.375 C39.02893733 69.74455648 46.05730192 87.0433815 51 105 C51.56267578 106.62808594 51.56267578 106.62808594 52.13671875 108.2890625 C53.0595114 111.52092453 53.50866158 113.67057875 53 117 C49.90223017 121.42875079 46.17277311 124.59916292 42 128 C40.60104446 129.22561201 39.20475423 130.45428082 37.8125 131.6875 C37.17957031 132.22761719 36.54664063 132.76773438 35.89453125 133.32421875 C33.13339675 135.76654184 30.58531189 138.40554261 28 141.03125 C25.43694772 143.55425459 22.72654176 145.87562817 20 148.21875 C17.91662922 150.0742521 15.95718793 152.01223101 14 154 C9.33343178 158.73099815 4.53924183 163.30717211 -1 167 C-1.0093457 166.33057373 -1.01869141 165.66114746 -1.02832031 164.97143555 C-1.08270392 161.87610201 -1.16621253 158.78217188 -1.25 155.6875 C-1.26417969 154.63498047 -1.27835937 153.58246094 -1.29296875 152.49804688 C-1.70644945 139.05992411 -6.79581312 126.5445011 -16.6875 117.1875 C-24.94830769 110.53428687 -34.96214102 107.02559579 -45 104 C-44.80664062 103.35933594 -44.61328125 102.71867187 -44.4140625 102.05859375 C-44.15367188 101.19363281 -43.89328125 100.32867187 -43.625 99.4375 C-43.36976562 98.59058594 -43.11453125 97.74367188 -42.8515625 96.87109375 C-42.57054687 95.92363281 -42.28953125 94.97617187 -42 94 C-41.64421875 92.93523437 -41.2884375 91.87046875 -40.921875 90.7734375 C-38.56293189 81.11776357 -38.14578171 68.12195961 -42.67578125 59.09375 C-52.5440277 43.49085886 -65.8157993 35.59600772 -83 30 C-83 29.34 -83 28.68 -83 28 C-81.30768497 27.40768974 -79.6153691 26.81538191 -77.92304993 26.2230835 C-76.37940671 25.68279746 -74.83577729 25.14247201 -73.29216003 24.60211182 C-68.89927205 23.06440306 -64.50612996 21.52742645 -60.11254883 19.99169922 C-51.52743514 16.99005069 -42.94407483 13.98381905 -34.36947632 10.95223999 C-30.6935823 9.65288355 -27.0165141 8.35686878 -23.33935547 7.06109619 C-21.57297486 6.43756969 -19.80718448 5.81236857 -18.04199219 5.18548584 C-15.57503032 4.30955337 -13.10612284 3.43933149 -10.63671875 2.5703125 C-9.90414352 2.30849182 -9.1715683 2.04667114 -8.41679382 1.7769165 C-5.47626047 0.74738326 -3.14057276 0 0 0 Z " fill="#FDD05B" transform="translate(148,189)"/>
<path d="M0 0 C3.88774716 0.68436893 7.49018654 1.76788229 11.22045898 3.05371094 C12.45622177 3.47795349 13.69198456 3.90219604 14.9651947 4.33929443 C16.30885874 4.80423166 17.65249093 5.26926092 18.99609375 5.734375 C20.3902158 6.21447089 21.78442821 6.69430447 23.1787262 7.17388916 C26.10379215 8.18071736 29.02813205 9.18961653 31.9519043 10.20019531 C35.65884453 11.48146232 39.36694273 12.75933307 43.07553005 14.03582382 C46.65361218 15.26753094 50.23113848 16.50084862 53.80859375 17.734375 C54.47237974 17.96314079 55.13616573 18.19190659 55.82006645 18.42760468 C64.90164683 21.55917256 73.959742 24.75123997 83 28 C83 28.66 83 29.32 83 30 C82.15179688 30.25652344 81.30359375 30.51304687 80.4296875 30.77734375 C64.74627156 35.89599709 51.80198116 44.03610308 43.26171875 58.47265625 C40.21718207 64.57115542 39.61421334 69.85192749 39.625 76.5625 C39.62443604 77.44421875 39.62387207 78.3259375 39.62329102 79.234375 C39.74942142 86.78841475 41.28657005 92.93854374 44 100 C44.35618849 101.32741051 44.69951371 102.65888223 45 104 C44.07960938 104.25652344 43.15921875 104.51304687 42.2109375 104.77734375 C29.62875566 108.49739512 16.27290778 114.48780373 9 126 C5.0512534 133.50081545 2.0000415 140.14174254 1.68359375 148.640625 C1.62075195 150.24550781 1.62075195 150.24550781 1.55664062 151.8828125 C1.51732422 152.99398437 1.47800781 154.10515625 1.4375 155.25 C1.37272461 156.93996094 1.37272461 156.93996094 1.30664062 158.6640625 C1.20067985 161.44258954 1.09860858 164.22120391 1 167 C-7.41448401 159.85360114 -15.62598765 152.49292521 -23.359375 144.609375 C-25.81293063 142.20255376 -28.4282586 139.9925772 -31.03125 137.75 C-33.53635375 135.52324111 -35.86343174 133.14819508 -38.2109375 130.7578125 C-40.70598323 128.30634835 -43.34430165 126.03907951 -46.0078125 123.7734375 C-46.66523438 123.18820312 -47.32265625 122.60296875 -48 122 C-48.92167969 121.25492187 -49.84335937 120.50984375 -50.79296875 119.7421875 C-53 117 -53 117 -53.04296875 113.609375 C-52.76066406 112.33578125 -52.47835938 111.0621875 -52.1875 109.75 C-52.03442383 109.05543701 -51.88134766 108.36087402 -51.72363281 107.64526367 C-46.37518373 84.72443893 -35.46714389 66.04013117 -18.69702148 49.67504883 C-11.87371676 42.99205346 -5.57039888 35.97902292 -2 27 C-1.45859375 25.73542969 -1.45859375 25.73542969 -0.90625 24.4453125 C0.35757032 19.64061628 0.21207428 15.06814011 0.125 10.125 C0.11597656 9.15046875 0.10695313 8.1759375 0.09765625 7.171875 C0.07421623 4.78099272 0.04140442 2.39062739 0 0 Z " fill="#FCB137" transform="translate(364,189)"/>
<path d="M0 0 C33.99 0 67.98 0 103 0 C101.12934715 18.70652855 96.45113404 36.02933382 82 49 C69.97809737 57.51150706 58.61694804 60.19013911 44.125 60.0625 C42.66320312 60.05573242 42.66320312 60.05573242 41.171875 60.04882812 C38.78118566 60.03710906 36.3906256 60.02070219 34 60 C33.731875 58.741875 33.46375 57.48375 33.1875 56.1875 C28.31093944 34.45843355 19.06673612 18.37596881 3 3 C2.01 2.01 1.02 1.02 0 0 Z " fill="#0AB59F" transform="translate(330,129)"/>
<path d="M0 0 C33.99 0 67.98 0 103 0 C101.35 1.65 99.7 3.3 98 5 C97.443125 5.598125 96.88625 6.19625 96.3125 6.8125 C95 8 95 8 93 8 C92.72414063 8.60070312 92.44828125 9.20140625 92.1640625 9.8203125 C91 12 91 12 88.375 14.875 C77.38402334 27.40148075 72.6991399 43.14092151 69 59 C64.87513789 59.08813808 60.75052261 59.14077078 56.625 59.1875 C54.89056641 59.22520508 54.89056641 59.22520508 53.12109375 59.26367188 C39.34596934 59.38041022 27.30044974 55.28381542 17.125 45.625 C16.0541827 44.44242264 15.01179661 43.23345308 14 42 C13.47921875 41.37996094 12.9584375 40.75992188 12.421875 40.12109375 C4.85803268 30.05507127 0 12.45704059 0 0 Z " fill="#0ED1B3" transform="translate(79,129)"/>
<path d="M0 0 C3 1 3 1 4.3515625 3.546875 C4.77179688 4.60390625 5.19203125 5.6609375 5.625 6.75 C6.05039062 7.79671875 6.47578125 8.8434375 6.9140625 9.921875 C9.98932229 18.63879842 10.33140823 27.38955532 6.36328125 35.83203125 C2.77825341 41.53315002 -0.38758022 44.65349288 -6.5 47.5625 C-7.11020996 47.85640625 -7.72041992 48.1503125 -8.34912109 48.453125 C-12.36753091 50.35194542 -16.45195276 51.96653083 -20.625 53.5 C-32.91622052 58.10171305 -42.72331428 64.18506217 -49 76 C-50.19625 75.608125 -51.3925 75.21625 -52.625 74.8125 C-53.46289062 74.53921875 -54.30078125 74.2659375 -55.1640625 73.984375 C-57.0748633 73.32112183 -58.96660975 72.60057448 -60.8359375 71.828125 C-72.47625298 67.17199881 -84.64500615 65.71572883 -97 64 C-95.57857743 53.6354604 -89.52141126 46.0324031 -82 39 C-69.44736179 29.52221553 -55.79472646 25.15304793 -40.3125 23.625 C-27.97612996 22.22787578 -13.98943144 20.54547875 -5 11 C-2.53458421 7.66443746 -0.66220535 4.13878346 0 0 Z " fill="#E8E8E9" transform="translate(368,46)"/>
<path d="M0 0 C2 1 2 1 3.3125 4.6875 C6.32550724 12.89282553 10.94849327 16.06678579 18.7109375 19.68359375 C26.90049592 22.96136238 35.22711611 24.07919422 43.9375 24.9375 C61.55602502 26.71358335 77.88078739 32.54129546 90 46 C92.58359827 49.53924149 94.87620815 53.16872777 97 57 C97.391875 57.68449219 97.78375 58.36898437 98.1875 59.07421875 C99 61 99 61 99 65 C98.17145508 65.09704224 98.17145508 65.09704224 97.32617188 65.19604492 C82.41390845 66.99521506 68.1903818 69.45406673 54.69921875 76.3984375 C53 77 53 77 50 76 C48.7109375 74.1796875 48.7109375 74.1796875 47.375 71.875 C40.28563752 60.90129395 28.95769724 56.62112499 17 52.6875 C8.08795372 49.57318053 -0.64736871 44.70526257 -5 36 C-9.14272087 27.09315012 -7.06858748 17.98932154 -4.16796875 9.04296875 C-2.96588714 5.91112403 -1.55080118 2.97273923 0 0 Z " fill="#FDFDFE" transform="translate(142,45)"/>
<path d="M0 0 C5.08037772 2.87823681 8.67280871 6.66487999 10.7421875 12.1640625 C11.75361993 18.36881144 10.98841901 23.71877093 7.7421875 29.1640625 C3.43955669 33.66415704 -0.70548019 36.90882927 -7.0078125 37.5390625 C-12.95673736 37.37258139 -17.52694116 34.94048308 -21.6328125 30.7265625 C-25.64318755 24.40250954 -26.057423 18.52047906 -25.2578125 11.1640625 C-22.93807825 6.25693235 -19.54004319 3.3529577 -15.2578125 0.1640625 C-10.25459352 -1.50367716 -5.01168871 -1.85553873 0 0 Z " fill="#4B3D39" transform="translate(301.2578125,167.8359375)"/>
<path d="M0 0 C4.71829884 2.76257274 8.2528418 6.09552736 10.7265625 11.04296875 C11.42444789 18.47945242 11.28473063 24.89612313 6.7265625 31.04296875 C2.46602988 35.30350137 -1.78621367 36.77163524 -7.7109375 37.41796875 C-14.74896101 36.67712417 -18.71350433 32.9958313 -23.109375 27.82421875 C-26.10611105 23.23860922 -25.95473822 17.31116615 -25.2734375 12.04296875 C-23.23741921 6.55333065 -19.60362535 2.71377897 -14.51171875 -0.10546875 C-9.60252338 -1.97319055 -4.85897484 -2.04544473 0 0 Z " fill="#6D594F" transform="translate(225.2734375,167.95703125)"/>
<path d="M0 0 C3.51767289 0.85095324 5.04917655 2.83775764 7.19921875 5.6328125 C10.4033718 11.26296714 9.96387462 18.3003539 9.29296875 24.5546875 C7.78696753 28.5004107 5.97726711 31.55205017 2.3046875 33.73828125 C-0.57208241 34.9057471 -2.6283551 34.93166825 -5.70703125 34.5546875 C-10.01578834 31.94939252 -11.79456397 29.14676996 -13.70703125 24.5546875 C-14.140625 20.8984375 -14.140625 20.8984375 -14.14453125 17.0546875 C-14.16386719 15.78625 -14.18320313 14.5178125 -14.203125 13.2109375 C-13.07391092 4.88854085 -8.2217644 -0.24142212 0 0 Z " fill="#0FD2B3" transform="translate(233.70703125,278.4453125)"/>
<path d="M0 0 C4.07411215 1.07844145 6.08150192 4.16219454 8.2578125 7.59765625 C10.76601243 12.6140561 9.90216565 20.55854178 8.76171875 25.9375 C7.20802999 29.94900149 4.94186829 32.45576335 1.2578125 34.59765625 C-2.64338667 35.26169015 -4.39252913 34.77591346 -7.9296875 32.97265625 C-12.0292814 29.51077696 -13.52212574 26.96943305 -14.0234375 21.56640625 C-14.24048395 13.68038525 -13.49652333 8.72916 -9.1171875 2.16015625 C-6.00347141 0.11165882 -3.69046268 -0.14006707 0 0 Z " fill="#0AB69F" transform="translate(282.7421875,278.40234375)"/>
<path d="M0 0 C15.82888108 3.75758472 33.44194621 10.18836206 43 24 C44.5 27.5625 44.5 27.5625 45 30 C43.76055724 30.86941494 42.50792941 31.72005457 41.25 32.5625 C40.20585937 33.27599609 40.20585937 33.27599609 39.140625 34.00390625 C36.48916121 35.23770783 35.70584561 34.98381417 33 34 C31.26617432 32.63366699 31.26617432 32.63366699 29.51660156 30.87304688 C28.85621887 30.21566528 28.19583618 29.55828369 27.51544189 28.88098145 C26.81425232 28.16744507 26.11306274 27.45390869 25.390625 26.71875 C24.66381531 25.99006714 23.93700562 25.26138428 23.18817139 24.51062012 C21.65496931 22.97069908 20.12536766 21.42718615 18.59912109 19.88037109 C16.25222383 17.50225341 13.89476134 15.13503412 11.53515625 12.76953125 C10.04885231 11.27406025 8.56315396 9.77798708 7.078125 8.28125 C6.3688385 7.56771362 5.659552 6.85417725 4.92877197 6.11901855 C4.28099792 5.46163696 3.63322388 4.80425537 2.96582031 4.12695312 C2.39164368 3.54594849 1.81746704 2.96494385 1.22589111 2.36633301 C0 1 0 1 0 0 Z " fill="#5B329B" transform="translate(148,93)"/>
<path d="M0 0 C15.72873417 2.6214557 28.29181065 11.6060984 38 24 C42.39150658 30.39830781 44.31085336 36.22866591 44 44 C38.45569952 39.37936741 33.31781443 34.463966 28.22265625 29.35546875 C27.41130722 28.54507645 26.59995819 27.73468414 25.76402283 26.8997345 C24.06272598 25.19911444 22.3626764 23.49724579 20.66381836 21.79418945 C18.04980335 19.17477713 15.43044145 16.56079589 12.81054688 13.94726562 C11.15592889 12.29198759 9.50162073 10.63639978 7.84765625 8.98046875 C7.0602858 8.19512253 6.27291534 7.40977631 5.46168518 6.60063171 C4.7435112 5.87930557 4.02533722 5.15797943 3.28540039 4.41479492 C2.6492128 3.77781174 2.01302521 3.14082855 1.3575592 2.48454285 C0 1 0 1 0 0 Z " fill="#5C3299" transform="translate(65,219)"/>
<path d="M0 0 C6.42874086 0.46754479 11.29018551 2.04110607 17 5 C18.26070312 5.65162109 18.26070312 5.65162109 19.546875 6.31640625 C25.58080864 9.67163904 29.80672011 13.5292971 34 19 C33.07347299 20.17539996 32.13336613 21.34010577 31.1875 22.5 C30.66542969 23.1496875 30.14335937 23.799375 29.60546875 24.46875 C28 26 28 26 25 26 C22.96865895 24.24339336 21.10996881 22.48158472 19.23828125 20.56640625 C18.41229683 19.73761208 18.41229683 19.73761208 17.56962585 18.89207458 C16.40707399 17.72279842 15.24812661 16.54992913 14.0925293 15.3737793 C12.31615854 13.56622277 10.52930811 11.76958521 8.74023438 9.97460938 C7.61395648 8.83916311 6.48828427 7.70311567 5.36328125 6.56640625 C4.55713127 5.75388145 4.55713127 5.75388145 3.73469543 4.92494202 C0 1.11714422 0 1.11714422 0 0 Z " fill="#5C3399" transform="translate(104,294)"/>
<path d="M0 0 C0.88042969 0.42152344 1.76085937 0.84304687 2.66796875 1.27734375 C3.82941406 1.82519531 4.99085937 2.37304688 6.1875 2.9375 C7.33605469 3.48277344 8.48460938 4.02804688 9.66796875 4.58984375 C14.53659943 6.65030761 18.91573856 7.13502547 24.17578125 7.31640625 C25.33271484 7.35830078 26.48964844 7.40019531 27.68164062 7.44335938 C28.87982422 7.48267578 30.07800781 7.52199219 31.3125 7.5625 C32.53001953 7.60568359 33.74753906 7.64886719 35.00195312 7.69335938 C38.0011947 7.79921496 41.00051591 7.90129726 44 8 C39.53211622 10.97858919 34.60393433 12.46160128 29.5625 14.25 C27.98758789 14.83394531 27.98758789 14.83394531 26.38085938 15.4296875 C24.86395508 15.96722656 24.86395508 15.96722656 23.31640625 16.515625 C21.93110718 17.01497559 21.93110718 17.01497559 20.51782227 17.52441406 C18 18 18 18 15.88354492 17.29199219 C13.90155052 15.93246991 12.24987216 14.50870458 10.546875 12.8125 C9.928125 12.19632813 9.309375 11.58015625 8.671875 10.9453125 C7.72054687 9.98238281 7.72054687 9.98238281 6.75 9 C6.1003125 8.35804688 5.450625 7.71609375 4.78125 7.0546875 C4.16765625 6.43851563 3.5540625 5.82234375 2.921875 5.1875 C2.08027832 4.34251953 2.08027832 4.34251953 1.22167969 3.48046875 C0 2 0 2 0 0 Z " fill="#573B9A" transform="translate(104,180)"/>
<path d="M0 0 C5.06623768 4.23816537 9.80038069 8.67408963 14.4375 13.375 C15.07365234 14.01566406 15.70980469 14.65632813 16.36523438 15.31640625 C17.91250332 16.87530879 19.45736492 18.43651416 21 20 C17.29589844 21.11669922 17.29589844 21.11669922 14.6328125 20.06640625 C8.41857057 16.33979699 2.47946421 12.25259442 0.41796875 4.93359375 C0.125 3 0.125 3 0 0 Z " fill="#60379E" transform="translate(144,45)"/>
<path d="M0 0 C4.88049925 3.9419417 9.0580583 8.11950075 13 13 C10.36 13 7.72 13 5 13 C4.16209211 11.21046815 3.32980604 9.41830305 2.5 7.625 C1.80390625 6.12839844 1.80390625 6.12839844 1.09375 4.6015625 C0 2 0 2 0 0 Z " fill="#5E369D" transform="translate(236,96)"/>
</svg>
