<?xml version="1.0" encoding="UTF-8"?>
<svg version="1.1" xmlns="http://www.w3.org/2000/svg" width="512" height="512">
<path d="M0 0 C1.01790619 0.00215515 2.03581238 0.0043103 3.08456421 0.00653076 C17.69363523 0.05620146 32.02575853 0.30709809 46.375 3.3125 C47.34985352 3.51117676 48.32470703 3.70985352 49.32910156 3.91455078 C97.7109774 14.03517194 141.69928269 35.9516877 177.375 70.3125 C178.3640332 71.26068604 178.3640332 71.26068604 179.37304688 72.22802734 C188.86130305 81.37247479 197.6012044 90.66984009 205.375 101.3125 C206.23306152 102.46355017 207.09113451 103.61459177 207.94921875 104.765625 C213.98736829 112.95680614 219.34595521 121.47054105 224.375 130.3125 C224.73948242 130.94430176 225.10396484 131.57610352 225.47949219 132.22705078 C246.45955914 168.88198681 256.78445627 210.9870529 256.69067383 253.03979492 C256.6875221 255.97938487 256.71104926 258.9179558 256.73632812 261.85742188 C256.78098737 275.23056192 255.57551542 288.12666711 253.375 301.3125 C253.09281616 303.01805054 253.09281616 303.01805054 252.80493164 304.75805664 C245.03294532 348.02552759 225.04595309 389.07543216 196.375 422.3125 C195.74078125 423.05757813 195.1065625 423.80265625 194.453125 424.5703125 C182.64198485 438.07529833 169.89139772 450.74668743 155.375 461.3125 C154.22505169 462.16899066 153.07531411 463.02576433 151.92578125 463.8828125 C143.73410474 469.9234414 135.21854922 475.28255071 126.375 480.3125 C125.74319824 480.67698242 125.11139648 481.04146484 124.46044922 481.41699219 C98.37535999 496.34723018 69.03914886 505.82635054 39.375 510.3125 C38.25254883 510.48910156 37.13009766 510.66570312 35.97363281 510.84765625 C24.36052257 512.5045586 12.84320055 512.71123513 1.125 512.6875 C-0.39302216 512.68668427 -0.39302216 512.68668427 -1.94171143 512.68585205 C-18.47030572 512.64511956 -34.40413999 511.74174222 -50.625 508.3125 C-51.66688477 508.09287598 -52.70876953 507.87325195 -53.78222656 507.64697266 C-95.03449434 498.64890931 -133.61111405 479.92831216 -165.625 452.3125 C-166.37007813 451.67828125 -167.11515625 451.0440625 -167.8828125 450.390625 C-181.38779833 438.57948485 -194.05918743 425.82889772 -204.625 411.3125 C-205.48149066 410.16255169 -206.33826433 409.01281411 -207.1953125 407.86328125 C-213.2359414 399.67160474 -218.59505071 391.15604922 -223.625 382.3125 C-223.98948242 381.68069824 -224.35396484 381.04889648 -224.72949219 380.39794922 C-246.33534998 342.64967428 -256.10198095 299.88310003 -255.9375 256.6875 C-255.93534485 255.66959381 -255.9331897 254.65168762 -255.93096924 253.60293579 C-255.88129854 238.99386477 -255.63040191 224.66174147 -252.625 210.3125 C-252.42632324 209.33764648 -252.22764648 208.36279297 -252.02294922 207.35839844 C-241.90232806 158.9765226 -219.9858123 114.98821731 -185.625 79.3125 C-184.99287598 78.65314453 -184.36075195 77.99378906 -183.70947266 77.31445312 C-174.56502521 67.82619695 -165.26765991 59.0862956 -154.625 51.3125 C-153.47394983 50.45443848 -152.32290823 49.59636549 -151.171875 48.73828125 C-142.98224019 42.70072604 -134.47961724 37.31792698 -125.625 32.3125 C-124.91778809 31.9103125 -124.21057617 31.508125 -123.48193359 31.09375 C-100.34654164 18.0683259 -75.17537591 9.31948539 -49.1875 4 C-48.46860596 3.85264404 -47.74971191 3.70528809 -47.0090332 3.5534668 C-31.36274391 0.57960912 -15.88931954 -0.06050362 0 0 Z " fill="#B75C34" transform="translate(255.625,-0.3125)"/>
<path d="M0 0 C1.29666092 -0.00761353 2.59332184 -0.01522705 3.92927551 -0.02307129 C6.65809838 -0.03640936 9.3866325 -0.03813488 12.11547852 -0.03222656 C14.87633894 -0.02752073 17.63605004 -0.04133912 20.39672852 -0.07324219 C48.20914509 -0.39113789 70.62598469 4.03976843 91.3984375 23.65625 C99.37249763 32.14526901 105.3929215 42.44854628 109.08203125 53.46875 C109.35080078 54.24178467 109.61957031 55.01481934 109.89648438 55.8112793 C112.97968774 66.12436275 112.41204508 76.57054649 112.26953125 87.21875 C112.25445444 89.18748974 112.24077135 91.15624067 112.22851562 93.125 C112.1957538 97.90653058 112.14413763 102.68751423 112.08203125 107.46875 C113.16629395 107.44369385 114.25055664 107.4186377 115.36767578 107.39282227 C123.75518607 107.56427722 132.14906506 113.1372768 138.14453125 118.78125 C145.80152731 127.12139813 149.74273992 137.43493229 149.42700195 148.71069336 C148.26022947 161.42132945 141.44422055 173.74986716 136.15515137 185.17962646 C134.00931965 189.82089404 131.89229922 194.47527946 129.7734375 199.12890625 C129.36020233 200.03535889 128.94696716 200.94181152 128.52120972 201.87573242 C108.98109059 244.81784876 95.61618386 288.71863115 95.82128906 336.27148438 C95.83197033 339.20203576 95.82134372 342.13196748 95.80859375 345.0625 C95.79456437 362.36878431 96.6250289 379.75374218 100.26953125 396.71875 C100.48383789 397.74556885 100.69814453 398.7723877 100.91894531 399.83032227 C104.81103288 417.98468122 109.85329272 435.67145298 116.23730469 453.10717773 C116.60758789 454.13012939 116.97787109 455.15308105 117.359375 456.20703125 C117.69187256 457.10462158 118.02437012 458.00221191 118.36694336 458.92700195 C119.10843071 461.5625857 119.21707695 463.74548144 119.08203125 466.46875 C96.37184399 475.7143421 73.42771266 482.28682997 49.08203125 485.46875 C48.42862259 485.55422592 47.77521393 485.63970184 47.102005 485.72776794 C41.43322764 486.4192415 35.8328186 486.65736303 30.125 486.70703125 C29.19227768 486.7168251 28.25955536 486.72661896 27.29856873 486.73670959 C6.58110021 486.9093489 -13.55801295 486.77303596 -33.91796875 482.46875 C-34.95985352 482.24912598 -36.00173828 482.02950195 -37.07519531 481.80322266 C-53.90906166 478.13137129 -70.53676913 473.31000193 -85.91796875 465.46875 C-85.55558105 464.35765869 -85.19319336 463.24656738 -84.81982422 462.10180664 C-71.95389352 422.55494358 -61.6678538 384.3827712 -61.73046875 342.46875 C-61.73187363 341.24637131 -61.73187363 341.24637131 -61.73330688 339.9992981 C-61.76542063 327.06505232 -62.07321967 314.2914537 -63.91796875 301.46875 C-64.14395752 299.89649658 -64.14395752 299.89649658 -64.37451172 298.29248047 C-70.17521535 259.60440622 -84.11220623 224.86211067 -100.296875 189.5703125 C-103.34112735 182.92632578 -106.38342814 176.28157338 -109.3828125 169.6171875 C-109.71124649 168.89681305 -110.03968048 168.1764386 -110.37806702 167.43423462 C-115.20480379 156.65149341 -117.15424675 145.22516365 -113.41796875 133.71875 C-108.75164644 122.75452416 -101.48966493 114.57222158 -90.71484375 109.4140625 C-86.84573402 107.86346509 -83.0158854 107.10543197 -78.91796875 106.46875 C-78.90862305 105.30529053 -78.89927734 104.14183105 -78.88964844 102.94311523 C-78.84924447 98.55359035 -78.78335653 94.16472995 -78.71044922 89.77563477 C-78.6825278 87.88965505 -78.66117273 86.00356458 -78.64697266 84.11743164 C-78.52792825 69.18529514 -77.29727483 55.60500197 -70.16796875 42.15625 C-69.82580322 41.49310791 -69.4836377 40.82996582 -69.13110352 40.14672852 C-66.04517205 34.35346855 -62.34401915 29.32020811 -57.91796875 24.46875 C-57.40105469 23.8603125 -56.88414062 23.251875 -56.3515625 22.625 C-42.0973992 6.90612318 -20.58749117 0.00340158 0 0 Z " fill="#FEF8F0" transform="translate(238.91796875,25.53125)"/>
<path d="M0 0 C-0.75410156 0.5878125 -1.50820312 1.175625 -2.28515625 1.78125 C-17.86458678 14.51379179 -23.67950257 36.28255941 -25.75634766 55.64160156 C-26.06183953 59.85236926 -26.17589276 64.05316841 -26.26171875 68.2734375 C-26.27899017 69.10666534 -26.2962616 69.93989319 -26.3140564 70.79837036 C-26.39387276 75.0277287 -26.44148201 79.2547604 -26.44628906 83.48486328 C-26.52111807 94.35080057 -27.46372209 103.2811905 -34 112.375 C-38.57950688 118.78630963 -40.15273017 126.44631249 -42 134 C-40.68 134 -39.36 134 -38 134 C-37.96261719 133.11957031 -37.92523438 132.23914063 -37.88671875 131.33203125 C-37.82097656 130.17058594 -37.75523437 129.00914062 -37.6875 127.8125 C-37.62949219 126.66394531 -37.57148438 125.51539063 -37.51171875 124.33203125 C-36.78922589 119.62755485 -35.0119512 117.0119512 -31.6875 113.6875 C-28.35843997 111.59715998 -26.88970013 111.58957601 -23 112 C-20.58905799 113.18992566 -18.43737743 114.37710334 -16.1875 115.8125 C-6.87106702 121.68705808 1.03055987 123.48455147 12.0625 123.3125 C13.09955078 123.31572266 14.13660156 123.31894531 15.20507812 123.32226562 C23.74401067 123.26270427 30.51708973 122.04462845 38.1875 118.0625 C39.17105469 117.55847656 40.15460938 117.05445313 41.16796875 116.53515625 C44.00795893 115.03938426 44.00795893 115.03938426 46.6484375 113.30859375 C50.14822237 111.36103905 52.20413577 111.93449425 56 113 C60.25159804 115.24612727 60.25159804 115.24612727 62 118 C63.48920839 123.6219398 64 129.19721166 64 135 C64.58007812 134.96519531 65.16015625 134.93039063 65.7578125 134.89453125 C70.97766318 134.71364534 74.54766899 134.96431976 79 138 C82.72214726 141.6918859 84.79204156 144.8788239 85.3125 150.1875 C84.83101101 156.06166571 82.7285202 160.17804628 78.6875 164.4375 C75.45020784 166.3196466 72.68784645 166.55469146 69 167 C69.17015625 167.87914062 69.3403125 168.75828125 69.515625 169.6640625 C71.60146662 180.79733366 73.12060192 191.99242905 74.55371094 203.22509766 C75.49540576 210.53230567 76.60667313 217.76562236 78 225 C81.14896083 241.91108594 82.90243095 259.05006258 73.6484375 274.21484375 C64.22905631 287.9229376 50.96608508 293.54204701 35.10742188 296.54833984 C27.33617517 297.85485438 19.75004788 298.38420184 11.875 298.375 C10.13416138 298.37693359 10.13416138 298.37693359 8.3581543 298.37890625 C-1.84424206 298.25513002 -11.16995266 296.55654965 -21 294 C-20.92998779 295.30678711 -20.85997559 296.61357422 -20.7878418 297.95996094 C-20.06836805 312.06187572 -19.79780413 326.1308088 -19.8125 340.25 C-19.81310425 341.3360553 -19.8137085 342.4221106 -19.81433105 343.54107666 C-19.8780823 386.06393223 -24.59092926 427.65116067 -30.73046875 469.6875 C-30.84386093 470.47120972 -30.95725311 471.25491943 -31.07408142 472.06237793 C-31.57132476 475.42640827 -32.13895577 478.71117298 -33 482 C-40.56605122 481.52575378 -47.53676186 480.02453017 -54.8125 477.9375 C-55.88822266 477.63239502 -56.96394531 477.32729004 -58.07226562 477.01293945 C-65.49175276 474.85546513 -72.77247663 472.41868139 -80 469.6875 C-80.89565674 469.35032959 -81.79131348 469.01315918 -82.71411133 468.66577148 C-88.86989526 466.26020949 -88.86989526 466.26020949 -90 464 C-89.15813069 461.08276723 -88.24170977 458.24792196 -87.24609375 455.3828125 C-86.63440667 453.57382649 -86.02351769 451.76457047 -85.41333008 449.95507812 C-84.92843613 448.52723999 -84.92843613 448.52723999 -84.43374634 447.07055664 C-78.38700179 429.19241959 -73.22377539 411.61997365 -70 393 C-69.83467773 392.08379883 -69.66935547 391.16759766 -69.49902344 390.22363281 C-66.6242035 374.18485302 -65.78819061 358.27253836 -65.8125 342 C-65.81390488 340.77762131 -65.81390488 340.77762131 -65.81533813 339.5305481 C-65.84745188 326.59630232 -66.15525092 313.8227037 -68 301 C-68.22598877 299.42774658 -68.22598877 299.42774658 -68.45654297 297.82373047 C-74.2572466 259.13565622 -88.19423748 224.39336067 -104.37890625 189.1015625 C-107.4231586 182.45757578 -110.46545939 175.81282338 -113.46484375 169.1484375 C-113.79327774 168.42806305 -114.12171173 167.7076886 -114.46009827 166.96548462 C-119.28683504 156.18274341 -121.236278 144.75641365 -117.5 133.25 C-112.83367769 122.28577416 -105.57169618 114.10347158 -94.796875 108.9453125 C-90.92776527 107.39471509 -87.09791665 106.63668197 -83 106 C-82.9906543 104.83654053 -82.98130859 103.67308105 -82.97167969 102.47436523 C-82.93127572 98.08484035 -82.86538778 93.69597995 -82.79248047 89.30688477 C-82.76455905 87.42090505 -82.74320398 85.53481458 -82.72900391 83.64868164 C-82.6099595 68.71654514 -81.37930608 55.13625197 -74.25 41.6875 C-73.90783447 41.02435791 -73.56566895 40.36121582 -73.21313477 39.67797852 C-70.1272033 33.88471855 -66.4260504 28.85145811 -62 24 C-61.48308594 23.3915625 -60.96617187 22.783125 -60.43359375 22.15625 C-44.75076881 4.86190671 -22.36084635 -0.67082539 0 0 Z " fill="#F6E9DB" transform="translate(243,26)"/>
<path d="M0 0 C2.41094201 1.18992566 4.56262257 2.37710334 6.8125 3.8125 C16.12893298 9.68705808 24.03055987 11.48455147 35.0625 11.3125 C36.09955078 11.31572266 37.13660156 11.31894531 38.20507812 11.32226562 C46.74401067 11.26270427 53.51708973 10.04462845 61.1875 6.0625 C62.66283203 5.30646484 62.66283203 5.30646484 64.16796875 4.53515625 C67.00795893 3.03938426 67.00795893 3.03938426 69.6484375 1.30859375 C73.14822237 -0.63896095 75.20413577 -0.06550575 79 1 C83.25159804 3.24612727 83.25159804 3.24612727 85 6 C86.48920839 11.6219398 87 17.19721166 87 23 C87.87011719 22.94779297 87.87011719 22.94779297 88.7578125 22.89453125 C93.97766318 22.71364534 97.54766899 22.96431976 102 26 C105.72214726 29.6918859 107.79204156 32.8788239 108.3125 38.1875 C107.83101101 44.06166571 105.7285202 48.17804628 101.6875 52.4375 C98.45020784 54.3196466 95.68784645 54.55469146 92 55 C92.17015625 55.87914062 92.3403125 56.75828125 92.515625 57.6640625 C94.60146662 68.79733366 96.12060192 79.99242905 97.55371094 91.22509766 C98.49540576 98.53230567 99.60667313 105.76562236 101 113 C104.14896083 129.91108594 105.90243095 147.05006258 96.6484375 162.21484375 C87.22894455 175.92310025 73.96762379 181.53988656 58.10961914 184.54833984 C50.31757724 185.85904097 42.70883799 186.38648391 34.8125 186.375 C33.64138672 186.37338867 32.47027344 186.37177734 31.26367188 186.37011719 C21.38197382 186.23174086 12.43917278 184.84548868 3 182 C1.92492187 181.68804687 0.84984375 181.37609375 -0.2578125 181.0546875 C-11.6435754 177.36284612 -20.77101222 169.16488666 -27 159 C-32.99507247 145.3023977 -32.52065028 133.41671988 -30.1875 118.8125 C-29.91292969 117.02670532 -29.91292969 117.02670532 -29.6328125 115.20483398 C-28.46262496 107.67277461 -27.160504 100.17349715 -25.7890625 92.67578125 C-24.44513207 84.99292049 -23.43197247 77.25363371 -22.35742188 69.52954102 C-22.19564453 68.36994873 -22.03386719 67.21035645 -21.8671875 66.015625 C-21.72394043 64.97696289 -21.58069336 63.93830078 -21.43310547 62.86816406 C-21.0338054 60.22387028 -20.54922615 57.61679491 -20 55 C-21.03125 54.938125 -22.0625 54.87625 -23.125 54.8125 C-27.80309919 53.83160824 -29.71171732 52.43775007 -33 49 C-35.65362802 44.22346957 -36.68014715 40.44117721 -36 35 C-33.83358003 29.46747589 -30.36006612 25.68003306 -25 23 C-23.29297265 22.93003986 -21.58331997 22.91559846 -19.875 22.9375 C-18.96492188 22.94652344 -18.05484375 22.95554688 -17.1171875 22.96484375 C-16.41851562 22.97644531 -15.71984375 22.98804688 -15 23 C-14.96261719 22.04738281 -14.92523438 21.09476563 -14.88671875 20.11328125 C-14.82097656 18.85902344 -14.75523437 17.60476562 -14.6875 16.3125 C-14.62949219 15.07113281 -14.57148438 13.82976562 -14.51171875 12.55078125 C-13.81186041 7.69451228 -12.11157666 5.11157666 -8.6875 1.6875 C-5.35843997 -0.40284002 -3.88970013 -0.41042399 0 0 Z " fill="#F4CE33" transform="translate(220,138)"/>
<path d="M0 0 C2.53961343 1.2292065 4.81228179 2.45457294 7.1875 3.9375 C11.9062927 6.84577608 11.9062927 6.84577608 17 9 C17.16016527 21.78905553 16.66606132 34.48323669 15.94140625 47.25 C15.83136508 49.24436628 15.72166625 51.23875147 15.61228943 53.2331543 C15.38399325 57.37809694 15.15259189 61.52284982 14.91870117 65.66748047 C14.62012625 70.96033451 14.32794794 76.25351767 14.03788853 81.54684448 C13.81253767 85.6511749 13.58458903 89.7553577 13.35578728 93.85949707 C13.24713506 95.8113666 13.1390983 97.7632705 13.03170967 99.71520996 C12.88115793 102.44179832 12.7272906 105.1681801 12.57250977 107.89453125 C12.52935135 108.68638321 12.48619293 109.47823517 12.44172668 110.29408264 C12.17538263 114.91339855 11.76034392 119.4932571 11.21435833 124.08812618 C9.19147358 142.13034736 11.28341281 161.26164498 19.8125 177.4375 C22.57917851 180.67846625 25.20230256 182.10115128 29 184 C29 184.33 29 184.66 29 185 C13.33039385 185.86919233 -2.22757298 182.57932026 -15 173 C-17.5 170.6875 -17.5 170.6875 -20 168 C-20.49628906 167.48566406 -20.99257812 166.97132813 -21.50390625 166.44140625 C-29.67012582 157.57931834 -32.21858234 147.11413149 -32.13818359 135.34643555 C-31.90789416 129.76944394 -31.0671822 124.3188201 -30.1875 118.8125 C-29.91292969 117.02670532 -29.91292969 117.02670532 -29.6328125 115.20483398 C-28.46262496 107.67277461 -27.160504 100.17349715 -25.7890625 92.67578125 C-24.44513207 84.99292049 -23.43197247 77.25363371 -22.35742188 69.52954102 C-22.19564453 68.36994873 -22.03386719 67.21035645 -21.8671875 66.015625 C-21.72394043 64.97696289 -21.58069336 63.93830078 -21.43310547 62.86816406 C-21.0338054 60.22387028 -20.54922615 57.61679491 -20 55 C-21.03125 54.938125 -22.0625 54.87625 -23.125 54.8125 C-27.80309919 53.83160824 -29.71171732 52.43775007 -33 49 C-35.65362802 44.22346957 -36.68014715 40.44117721 -36 35 C-33.83358003 29.46747589 -30.36006612 25.68003306 -25 23 C-23.29297265 22.93003986 -21.58331997 22.91559846 -19.875 22.9375 C-18.96492188 22.94652344 -18.05484375 22.95554688 -17.1171875 22.96484375 C-16.41851562 22.97644531 -15.71984375 22.98804688 -15 23 C-14.96261719 22.04738281 -14.92523438 21.09476563 -14.88671875 20.11328125 C-14.82097656 18.85902344 -14.75523437 17.60476562 -14.6875 16.3125 C-14.62949219 15.07113281 -14.57148438 13.82976562 -14.51171875 12.55078125 C-13.81186041 7.69451228 -12.11157666 5.11157666 -8.6875 1.6875 C-5.34892623 -0.40881376 -3.9032621 -0.41820665 0 0 Z " fill="#F1B633" transform="translate(220,138)"/>
<path d="M0 0 C5.06950642 2.81639245 7.84408211 6.66063611 10 12 C10.45534876 14.78276506 10.52442127 17.49622711 10.5 20.3125 C10.49500488 21.06362061 10.49000977 21.81474121 10.48486328 22.58862305 C10.29369601 28.67763022 9.14495293 33.34372742 5 38 C1.91205049 40.69374319 0.02296211 41.82950631 -4 42.5 C-9.13977909 41.64337015 -12.04285867 39.19642666 -15.25 35.1875 C-18.92521001 28.49336749 -20.33370807 21.33483228 -18.46484375 13.859375 C-15.2131708 4.54857376 -10.541562 -1.99624264 0 0 Z " fill="#3C4D4C" transform="translate(337,102)"/>
<path d="M0 0 C4.30750866 2.24452559 6.57877209 5.25266015 8.9375 9.4375 C11.11296256 16.61101895 11.46102685 25.03363846 8.86328125 32.0859375 C6.69511399 35.9670138 4.6365507 38.52597289 1.0625 41.1875 C-2.77291894 42.20506013 -5.17228063 42.04392347 -9 41 C-14.35781135 37.8849934 -16.8628899 32.80782263 -18.59375 27.01171875 C-20.01068098 19.99518554 -18.9644688 13.46907386 -16 7 C-11.69844781 0.68209522 -7.49330405 -1.39410308 0 0 Z " fill="#3B4C4A" transform="translate(183,102)"/>
<path d="M0 0 C5.75889634 -0.34553378 10.06169381 -0.36702695 15 3 C18.72214726 6.6918859 20.79204156 9.8788239 21.3125 15.1875 C20.83101101 21.06166571 18.7285202 25.17804628 14.6875 29.4375 C11.45020784 31.3196466 8.68784645 31.55469146 5 32 C3.04656814 21.36030781 1.3284443 10.73695571 0 0 Z " fill="#F2B734" transform="translate(307,161)"/>
<path d="M0 0 C2.74234935 2.14940895 3.80725154 3.92203637 4.421875 7.359375 C4.84438325 15.48092243 2.63729584 23.44861934 -2.4921875 29.8671875 C-4.73046466 31.91990801 -6.73936894 32.93938813 -9.6875 33.625 C-12 33 -12 33 -13.609375 30.83984375 C-16.12529942 25.70198686 -15.77712655 20.57666011 -15 15 C-12.56328561 8.11569042 -8.91271241 -1.78254248 0 0 Z " fill="#546864" transform="translate(299,201)"/>
<path d="M0 0 C3.03897915 0.07235665 5.23999285 0.37303967 7.62890625 2.34375 C14.24659899 9.64145628 15.32960597 16.3645727 15.3984375 26.046875 C14.95870163 29.30609377 14.30840226 30.69159774 12 33 C9.1875 33.6875 9.1875 33.6875 6 33 C-0.02939289 28.34024698 -3.31695386 20.73253399 -4.3828125 13.34765625 C-4.64216254 7.59873046 -3.70274027 4.39700406 0 0 Z " fill="#546764" transform="translate(213,203)"/>
<path d="M0 0 C3.84478875 1.45836815 5.1822915 3.36458299 7 7 C9.18788281 13.77935518 9.40756071 22.63088239 6.66015625 29.20703125 C5.21434454 31.58496627 3.72510537 33.81794707 2 36 C-3.03975355 31.50508467 -5.56589429 27.64935022 -6.35546875 21.01171875 C-6.69665589 13.16441463 -5.29152314 7.58502567 -1 1 C-0.67 0.67 -0.34 0.34 0 0 Z " fill="#526666" transform="translate(185,105)"/>
<path d="M0 0 C3.80896529 1.22431027 5.27218277 3.54664392 7.14892578 6.96948242 C8.59247465 10.41354321 8.63564404 13.68164168 8.5625 17.375 C8.55734375 18.1187085 8.5521875 18.86241699 8.546875 19.62866211 C8.34574038 25.68453432 6.8244816 30.20573914 3 35 C2.01 35 1.02 35 0 35 C-5.01841967 28.91706706 -6.27546477 22.7553421 -5.875 15 C-5.30927315 9.55660387 -4.02632838 4.02632838 0 0 Z " fill="#526767" transform="translate(339,105)"/>
</svg>
