<?xml version="1.0" encoding="UTF-8"?>
<svg version="1.1" xmlns="http://www.w3.org/2000/svg" width="512" height="512">
<path d="M0 0 C1.01790619 0.00215515 2.03581238 0.0043103 3.08456421 0.00653076 C17.69363523 0.05620146 32.02575853 0.30709809 46.375 3.3125 C47.34985352 3.51117676 48.32470703 3.70985352 49.32910156 3.91455078 C97.7109774 14.03517194 141.69928269 35.9516877 177.375 70.3125 C178.3640332 71.26068604 178.3640332 71.26068604 179.37304688 72.22802734 C188.86130305 81.37247479 197.6012044 90.66984009 205.375 101.3125 C206.23306152 102.46355017 207.09113451 103.61459177 207.94921875 104.765625 C213.98736829 112.95680614 219.34595521 121.47054105 224.375 130.3125 C224.73948242 130.94430176 225.10396484 131.57610352 225.47949219 132.22705078 C247.08534998 169.97532572 256.85198095 212.74189997 256.6875 255.9375 C256.68534485 256.95540619 256.6831897 257.97331238 256.68096924 259.02206421 C256.63129854 273.63113523 256.38040191 287.96325853 253.375 302.3125 C253.07698486 303.77478027 253.07698486 303.77478027 252.77294922 305.26660156 C242.65232806 353.6484774 220.7358123 397.63678269 186.375 433.3125 C185.74287598 433.97185547 185.11075195 434.63121094 184.45947266 435.31054688 C175.31502521 444.79880305 166.01765991 453.5387044 155.375 461.3125 C154.22394983 462.17056152 153.07290823 463.02863451 151.921875 463.88671875 C143.73224019 469.92427396 135.22961724 475.30707302 126.375 480.3125 C125.66778809 480.7146875 124.96057617 481.116875 124.23193359 481.53125 C101.09654164 494.5566741 75.92537591 503.30551461 49.9375 508.625 C49.21860596 508.77235596 48.49971191 508.91971191 47.7590332 509.0715332 C33.08339502 511.86090125 18.55831162 512.66142619 3.64770508 512.62817383 C0.70811513 512.6250221 -2.2304558 512.64854926 -5.16992188 512.67382812 C-18.54306192 512.71848737 -31.43916711 511.51301542 -44.625 509.3125 C-46.33055054 509.03031616 -46.33055054 509.03031616 -48.07055664 508.74243164 C-91.33802759 500.97044532 -132.38793216 480.98345309 -165.625 452.3125 C-166.37007813 451.67828125 -167.11515625 451.0440625 -167.8828125 450.390625 C-181.38779833 438.57948485 -194.05918743 425.82889772 -204.625 411.3125 C-205.48149066 410.16255169 -206.33826433 409.01281411 -207.1953125 407.86328125 C-213.23534209 399.67315742 -218.61867614 391.16870382 -223.625 382.3125 C-224.0271875 381.60528809 -224.429375 380.89807617 -224.84375 380.16943359 C-237.8691741 357.03404164 -246.61801461 331.86287591 -251.9375 305.875 C-252.08485596 305.15610596 -252.23221191 304.43721191 -252.3840332 303.6965332 C-255.35789088 288.05024391 -255.99800362 272.57681954 -255.9375 256.6875 C-255.93534485 255.66959381 -255.9331897 254.65168762 -255.93096924 253.60293579 C-255.88129854 238.99386477 -255.63040191 224.66174147 -252.625 210.3125 C-252.42632324 209.33764648 -252.22764648 208.36279297 -252.02294922 207.35839844 C-241.90232806 158.9765226 -219.9858123 114.98821731 -185.625 79.3125 C-184.99287598 78.65314453 -184.36075195 77.99378906 -183.70947266 77.31445312 C-174.56502521 67.82619695 -165.26765991 59.0862956 -154.625 51.3125 C-153.47394983 50.45443848 -152.32290823 49.59636549 -151.171875 48.73828125 C-142.98224019 42.70072604 -134.47961724 37.31792698 -125.625 32.3125 C-124.91778809 31.9103125 -124.21057617 31.508125 -123.48193359 31.09375 C-100.34654164 18.0683259 -75.17537591 9.31948539 -49.1875 4 C-48.46860596 3.85264404 -47.74971191 3.70528809 -47.0090332 3.5534668 C-31.36274391 0.57960912 -15.88931954 -0.06050362 0 0 Z " fill="#966856" transform="translate(255.625,-0.3125)"/>
<path d="M0 0 C6.47876382 4.2024414 10.61052678 9.65539798 13 17 C14.25011442 24.11348291 12.63691572 30.79952764 9 37 C8.16146484 37.73653809 7.32292969 38.47307617 6.45898438 39.23193359 C3.46325851 42.60420721 3.35387861 44.16686152 3.29296875 48.61328125 C3.26485107 49.73774658 3.2367334 50.86221191 3.20776367 52.02075195 C3.19773315 54.14516724 3.19773315 54.14516724 3.1875 56.3125 C3.125625 60.829375 3.06375 65.34625 3 70 C20.16 70 37.32 70 55 70 C54.95875 65.524375 54.9175 61.04875 54.875 56.4375 C54.87862549 54.34039673 54.87862549 54.34039673 54.88232422 52.20092773 C54.80954589 44.38431991 54.80954589 44.38431991 51.0625 37.80078125 C50.53527344 37.31907471 50.00804687 36.83736816 49.46484375 36.34106445 C45.50324323 32.71421918 44.77294825 27.79450549 44.5 22.6875 C44.73199401 15.64068203 47.15954818 10.15539731 51.8671875 4.92578125 C57.00761288 0.15538649 62.21951852 -3.06497047 69.375 -3.375 C77.28508145 -3.039258 83.4556723 -0.55728863 89.203125 4.92578125 C94.42654861 10.95542894 96.87774325 17.25929441 96.4921875 25.25390625 C95.52095572 30.67276291 93.27629646 36.15655453 88.93164062 39.67504883 C86.21437539 42.94558937 86.5425972 45.18362379 86.609375 49.390625 C86.61786469 50.44754547 86.61786469 50.44754547 86.62652588 51.52581787 C86.64884922 53.76791428 86.69903246 56.00838988 86.75 58.25 C86.77007048 59.77341435 86.7883203 61.29685386 86.8046875 62.8203125 C86.84869882 66.5473983 86.91769628 70.27354087 87 74 C87.95261719 74.47050781 88.90523437 74.94101563 89.88671875 75.42578125 C91.15369961 76.05457916 92.42062369 76.68349148 93.6875 77.3125 C94.31333984 77.62123047 94.93917969 77.92996094 95.58398438 78.24804688 C99.15420407 80.0238106 102.61309592 81.89532729 106 84 C106.37769531 83.5153125 106.75539063 83.030625 107.14453125 82.53125 C118.69908199 68.46013435 135.06981337 60.14512719 153 58 C158.80827666 57.59407191 164.62040186 57.71017468 170.4375 57.8125 C171.95897085 57.82760266 173.48045651 57.84128101 175.00195312 57.85351562 C178.66828562 57.88601383 182.33404167 57.93747381 186 58 C186.0754071 62.30091146 186.12917959 66.60145026 186.16479492 70.90283203 C186.17967624 72.3592806 186.19998796 73.81568608 186.22631836 75.27197266 C186.59522046 96.23429196 181.73400895 113.73347876 168 130 C167.45859375 130.65484375 166.9171875 131.3096875 166.359375 131.984375 C157.66400754 141.55806241 145.31954618 147.65540288 133 151 C132.01 151 131.02 151 130 151 C129.87995605 151.69304198 129.75991211 152.38608397 129.63623047 153.10012722 C126.40369577 171.67932022 122.81722111 190.1603437 119 208.62890625 C118.57903635 210.67250418 118.15852706 212.71619525 117.73805237 214.75989383 C116.4250904 221.1411641 115.10835715 227.52164754 113.7890625 233.90161133 C112.44249074 240.4138224 111.10249129 246.92736174 109.76564026 253.44157463 C108.60153922 259.1128136 107.43332331 264.78319477 106.26194763 270.45293564 C105.56932462 273.80558383 104.87810528 277.15850301 104.19091797 280.51226997 C99.31346631 304.27935908 99.31346631 304.27935908 96.375 315.75756836 C96.10212158 316.84928644 96.10212158 316.84928644 95.82373047 317.96305943 C93.51242703 326.65120814 89.36305288 335.32048484 83.33984375 342.03125 C80.79702238 345.25753422 80.20420625 347.18305402 79.5625 351.1875 C76.86364536 364.29409242 69.55632218 373.90597123 58.4375 381.25 C44.08161232 389.21807409 29.08340207 391.22175151 13.15625 387.02734375 C0.93772781 383.05027526 -10.6146601 375.60889764 -17.015625 364.12890625 C-19.58895158 358.56357694 -21.68298957 352.90706631 -22.8125 346.875 C-23.59080813 343.44905438 -25.09064081 341.39299664 -27.3125 338.6875 C-41.42157746 321.37181403 -43.32660535 294.95013549 -47.30615234 273.65332031 C-48.26799359 268.5889317 -49.30933939 263.54341466 -50.375 258.5 C-51.89726512 251.28022155 -53.40230807 244.05737246 -54.87890625 236.828125 C-55.12880058 235.60489281 -55.12880058 235.60489281 -55.38374329 234.35694885 C-55.72768127 232.67312016 -56.07159885 230.9892873 -56.41549683 229.30545044 C-58.98815984 216.71105799 -61.59396854 204.12628973 -64.3125 191.5625 C-66.36614893 182.06564241 -68.29466397 172.56569281 -70 163 C-70.39553242 160.83327838 -70.79133618 158.66660626 -71.1875 156.5 C-71.45880801 155.00008578 -71.72985067 153.50012334 -72 152 C-72.94359375 151.72027344 -73.8871875 151.44054687 -74.859375 151.15234375 C-94.64540575 145.0727068 -109.54789048 133.89950583 -120 116 C-121.99073547 112.07840081 -123.65799245 108.1876513 -125 104 C-125.26111572 103.20190918 -125.52223145 102.40381836 -125.79125977 101.58154297 C-128.4590337 92.4409442 -128.34523926 83.67070464 -128.1875 74.25 C-128.17241303 72.66667952 -128.15873178 71.08334499 -128.14648438 69.5 C-128.11382574 65.66631223 -128.06227063 61.83331641 -128 58 C-123.35930901 57.95001327 -118.71877981 57.9140072 -114.07788086 57.89013672 C-112.50395981 57.88017011 -110.93005682 57.8665919 -109.35620117 57.84912109 C-89.45723567 57.63399714 -73.93893029 61.17434992 -58 74 C-57.38253906 74.47695312 -56.76507813 74.95390625 -56.12890625 75.4453125 C-52.94045598 77.97380923 -50.42319055 80.73801273 -48 84 C-44.00646451 82.08162729 -40.29997517 79.7650542 -36.53515625 77.4375 C-34.07501377 76.04253477 -31.63150642 75.02286059 -29 74 C-28.85079877 69.57101901 -28.74239248 65.14339827 -28.67041016 60.71264648 C-28.64038168 59.20815528 -28.59954394 57.70383703 -28.54736328 56.19995117 C-27.85291161 46.29288476 -27.85291161 46.29288476 -31.90625 37.67578125 C-32.93389646 36.77970467 -33.96482363 35.8873671 -35 35 C-38.37580672 29.14860168 -38.94472141 23.60396604 -38 17 C-35.19991498 8.09417403 -29.54763233 2.56321095 -21.5625 -1.9375 C-14.08110204 -4.16879413 -7.00673987 -3.48470189 0 0 Z " fill="#FEA200" transform="translate(227,69)"/>
<path d="M0 0 C5.64616543 4.71137314 10.90554631 9.72197327 16.13232422 14.8918457 C17.01931503 15.76584015 17.90630585 16.63983459 18.82017517 17.54031372 C26.93874058 25.54771582 35.0325692 33.58029694 43.1178875 41.62125874 C49.08453869 47.55460954 55.06404426 53.47434969 61.06110561 59.37696582 C65.29091077 63.54240371 69.50526015 67.72309109 73.70860493 71.91522664 C76.21433562 74.41341278 78.72635993 76.90438503 81.2553978 79.37899208 C84.07376455 82.13738987 86.85989935 84.92701382 89.64404297 87.7199707 C90.48036758 88.52910416 91.3166922 89.33823761 92.17835999 90.17189026 C96.54920156 94.61457849 98.9236585 97.67097033 99.06057167 104.01884365 C99.03058869 104.99951604 99.03058869 104.99951604 99 106 C99.04634583 106.88237335 99.09269165 107.7647467 99.14044189 108.67385864 C99.1472699 109.40168549 99.1540979 110.12951233 99.16113281 110.87939453 C99.17058929 111.7262532 99.18004578 112.57311188 99.18978882 113.44563293 C99.19418976 114.33240219 99.1985907 115.21917145 99.203125 116.1328125 C99.21018463 117.07916061 99.21724426 118.02550873 99.22451782 119.00053406 C99.45241099 158.51652112 99.45241099 158.51652112 96 175 C95.70198486 176.46228027 95.70198486 176.46228027 95.39794922 177.95410156 C85.27732806 226.3359774 63.3608123 270.32428269 29 306 C28.36787598 306.65935547 27.73575195 307.31871094 27.08447266 307.99804688 C17.94002521 317.48630305 8.64265991 326.2262044 -2 334 C-3.15105017 334.85806152 -4.30209177 335.71613451 -5.453125 336.57421875 C-13.64275981 342.61177396 -22.14538276 347.99457302 -31 353 C-31.70721191 353.4021875 -32.41442383 353.804375 -33.14306641 354.21875 C-56.41963192 367.32365603 -81.69826176 375.98447439 -107.8125 381.4375 C-108.96625122 381.68367065 -108.96625122 381.68367065 -110.14331055 381.93481445 C-111.59858276 382.2168415 -113.06185657 382.46132244 -114.53083801 382.65994263 C-116.99366681 382.96659678 -116.99366681 382.96659678 -119.36450195 383.51515198 C-124.33069052 384.15949509 -127.1102963 383.6265811 -131.25553894 380.70726013 C-135.04071781 377.37894889 -138.50165445 373.73595925 -141.98046875 370.09375 C-143.28511725 368.76856414 -144.59223151 367.44580173 -145.90168762 366.12536621 C-149.32792076 362.65729813 -152.71982586 359.15748485 -156.10546875 355.64984131 C-159.57154237 352.0708805 -163.06929226 348.52317516 -166.56445312 344.97265625 C-173.40754501 338.01188405 -180.21475437 331.01713935 -187 324 C-186.01 323.67 -185.02 323.34 -184 323 C-182.15940454 323.95438283 -180.31967075 324.91046501 -178.484375 325.875 C-164.9456748 332.00573217 -150.39699751 331.38250976 -136.703125 326.48046875 C-123.55407478 321.22362272 -115.2814024 313.26805295 -109.37890625 300.45703125 C-108.18552866 297.46513558 -107.50158392 294.97693237 -107.0625 291.8125 C-106.27012903 286.4661728 -103.46156619 283.23379506 -100.18716431 279.05474854 C-94.10024553 270.55332678 -91.03580974 260.81577279 -88.8515625 250.703125 C-88.57156403 249.45726624 -88.29156555 248.21140747 -88.00308228 246.92779541 C-83.08460254 224.86436918 -78.6702752 202.68376579 -74.14886475 180.53662109 C-73.11691658 175.48716418 -72.08074883 170.43857731 -71.04445457 165.39001083 C-70.02892675 160.44130144 -69.01517213 155.49223015 -68.00200272 150.54303741 C-67.5263962 148.21994679 -67.05047608 145.89692035 -66.57419968 143.57396698 C-63.81360891 130.1003133 -61.12260475 116.6175488 -58.59717369 103.09753036 C-58.40209032 102.06521412 -58.20700695 101.03289787 -58.00601196 99.96929932 C-57.83534021 99.05589909 -57.66466846 98.14249886 -57.48882484 97.20141983 C-57 95 -57 95 -56 93 C-53.73444056 92.20091893 -51.4885075 91.49238778 -49.1875 90.8125 C-31.56969086 85.20445378 -17.7810927 74.00513202 -8.91796875 57.81591797 C-2.01907685 44.16858874 -0.69445536 30.35945314 -0.375 15.375 C-0.33672957 13.87888578 -0.29767292 12.38279145 -0.2578125 10.88671875 C-0.16281817 7.25799678 -0.07843648 3.6291221 0 0 Z " fill="#704639" transform="translate(413,127)"/>
<path d="M0 0 C6.47876382 4.2024414 10.61052678 9.65539798 13 17 C14.25011442 24.11348291 12.63691572 30.79952764 9 37 C8.16146484 37.73653809 7.32292969 38.47307617 6.45898438 39.23193359 C3.46325851 42.60420721 3.35387861 44.16686152 3.29296875 48.61328125 C3.26396484 49.86044922 3.23496094 51.10761719 3.20507812 52.39257812 C3.19637695 54.33293945 3.19637695 54.33293945 3.1875 56.3125 C3.16236328 57.62541016 3.13722656 58.93832031 3.11132812 60.29101562 C3.05249165 63.52702167 3.02337559 66.76354354 3 70 C11.58 70 20.16 70 29 70 C29 168.34 29 266.68 29 368 C8.14621453 366.39586266 -10.38042511 359.57950169 -24.36132812 343.42724609 C-39.39989309 324.58312061 -42.50596579 299.4232925 -46.796875 276.38671875 C-47.89276472 270.51172794 -49.07975943 264.66014158 -50.3125 258.8125 C-51.8562397 251.48192038 -53.38359236 244.14839904 -54.8828125 236.80859375 C-55.13233673 235.58721207 -55.13233673 235.58721207 -55.38690186 234.34115601 C-55.7301212 232.66091283 -56.07332165 230.98066579 -56.41650391 229.30041504 C-58.98892635 216.70772007 -61.59433035 204.12461758 -64.3125 191.5625 C-66.36614893 182.06564241 -68.29466397 172.56569281 -70 163 C-70.39553242 160.83327838 -70.79133618 158.66660626 -71.1875 156.5 C-71.45880801 155.00008578 -71.72985067 153.50012334 -72 152 C-72.94359375 151.72027344 -73.8871875 151.44054687 -74.859375 151.15234375 C-94.64540575 145.0727068 -109.54789048 133.89950583 -120 116 C-121.99073547 112.07840081 -123.65799245 108.1876513 -125 104 C-125.26111572 103.20190918 -125.52223145 102.40381836 -125.79125977 101.58154297 C-128.4590337 92.4409442 -128.34523926 83.67070464 -128.1875 74.25 C-128.17241303 72.66667952 -128.15873178 71.08334499 -128.14648438 69.5 C-128.11382574 65.66631223 -128.06227063 61.83331641 -128 58 C-123.35930901 57.95001327 -118.71877981 57.9140072 -114.07788086 57.89013672 C-112.50395981 57.88017011 -110.93005682 57.8665919 -109.35620117 57.84912109 C-89.45723567 57.63399714 -73.93893029 61.17434992 -58 74 C-57.38253906 74.47695312 -56.76507813 74.95390625 -56.12890625 75.4453125 C-52.94045598 77.97380923 -50.42319055 80.73801273 -48 84 C-44.00646451 82.08162729 -40.29997517 79.7650542 -36.53515625 77.4375 C-34.07501377 76.04253477 -31.63150642 75.02286059 -29 74 C-28.85079877 69.57101901 -28.74239248 65.14339827 -28.67041016 60.71264648 C-28.64038168 59.20815528 -28.59954394 57.70383703 -28.54736328 56.19995117 C-27.85291161 46.29288476 -27.85291161 46.29288476 -31.90625 37.67578125 C-32.93389646 36.77970467 -33.96482363 35.8873671 -35 35 C-38.37580672 29.14860168 -38.94472141 23.60396604 -38 17 C-35.19991498 8.09417403 -29.54763233 2.56321095 -21.5625 -1.9375 C-14.08110204 -4.16879413 -7.00673987 -3.48470189 0 0 Z " fill="#FCB911" transform="translate(227,69)"/>
<path d="M0 0 C4.64069099 -0.04998673 9.28122019 -0.0859928 13.92211914 -0.10986328 C15.49604019 -0.11982989 17.06994318 -0.1334081 18.64379883 -0.15087891 C38.54276433 -0.36600286 54.06106971 3.17434992 70 16 C70.61746094 16.47695312 71.23492187 16.95390625 71.87109375 17.4453125 C75.05954402 19.97380923 77.57680945 22.73801273 80 26 C78.66713024 29.01033512 77.25580686 30.87638334 74.8125 33.0625 C62.21143417 45.34919412 56.22437689 62.72212689 55.8203125 80.02734375 C55.785393 84.35525793 55.86482108 88.67427468 56 93 C40.70942829 91.17879047 25.68637378 81.96902334 16 70 C10.52536653 62.54971755 5.86685038 54.82755484 3 46 C2.73324463 45.18257324 2.46648926 44.36514648 2.19165039 43.52294922 C-0.43531366 34.38561158 -0.3450438 25.6590311 -0.1875 16.25 C-0.17241303 14.66667952 -0.15873178 13.08334499 -0.14648438 11.5 C-0.11382574 7.66631223 -0.06227063 3.83331641 0 0 Z " fill="#FEA200" transform="translate(99,127)"/>
<path d="M0 0 C1.52147085 0.01510266 3.04295651 0.02878101 4.56445312 0.04101562 C8.23078562 0.07351383 11.89654167 0.12497381 15.5625 0.1875 C15.6379071 4.48841146 15.69167959 8.78895026 15.72729492 13.09033203 C15.74217624 14.5467806 15.76248796 16.00318608 15.78881836 17.45947266 C16.15772046 38.42179196 11.29650895 55.92097876 -2.4375 72.1875 C-3.24960937 73.16976562 -3.24960937 73.16976562 -4.078125 74.171875 C-12.77349246 83.74556241 -25.11795382 89.84290288 -37.4375 93.1875 C-38.4275 93.1875 -39.4175 93.1875 -40.4375 93.1875 C-40.4060791 92.3056604 -40.4060791 92.3056604 -40.37402344 91.40600586 C-39.71624029 70.05927752 -42.76978208 51.75190558 -57.4375 35.1875 C-59.71191452 32.78870344 -62.03537435 30.45820236 -64.4375 28.1875 C-58.80197998 16.46561836 -46.44114437 8.86115741 -34.74243164 3.96166992 C-23.27300612 0.10937161 -11.95577456 -0.21030735 0 0 Z " fill="#FD8105" transform="translate(397.4375,126.8125)"/>
<path d="M0 0 C-0.66921798 7.16556754 -1.93401751 14.08871686 -3.40844727 21.12915039 C-3.65243256 22.31064667 -3.89641785 23.49214294 -4.14779663 24.70944214 C-4.8120921 27.92224482 -5.48001888 31.13426565 -6.14962125 34.34596562 C-6.85060302 37.71256621 -7.54686063 41.08014361 -8.24363708 44.44761658 C-9.56130788 50.81225626 -10.88317575 57.17601649 -12.20658392 63.53946537 C-13.71408911 70.78915936 -15.21686689 78.03983071 -16.71926415 85.29058468 C-19.80761365 100.19481034 -22.90184643 115.09780898 -26 130 C-31.26747975 128.83605579 -34.17532342 125.68143027 -38 122 C-38.62648438 121.39929688 -39.25296875 120.79859375 -39.8984375 120.1796875 C-49.36220448 110.30265558 -51.52609415 98.06960691 -51.35546875 84.9140625 C-51.05062709 76.35534343 -49.87393571 67.91038879 -48.6875 59.4375 C-48.5274649 58.2782048 -48.5274649 58.2782048 -48.36419678 57.0954895 C-45.92911472 39.66947687 -43.2513178 21.86388151 -28.71484375 10.16015625 C-19.57912625 3.4813396 -11.39175985 -0.22336784 0 0 Z " fill="#FD8205" transform="translate(352,244)"/>
<path d="M0 0 C11.36947246 -0.94745604 20.56630217 3.88684192 29.45703125 10.69921875 C49.04979548 28.42600543 49.89306631 60.63757545 51.5 85.41796875 C52.01034711 98.65661577 49.03232829 109.93471927 40 120 C36.58727681 123.66867743 32.98393789 126.96874291 29 130 C28.01 130 27.02 130 26 130 C25.72119995 128.59814453 25.72119995 128.59814453 25.43676758 127.16796875 C20.79279958 103.81373459 20.79279958 103.81373459 15.98339844 80.49316406 C14.67970484 74.28021655 13.3957202 68.06350904 12.125 61.84375 C11.95802109 61.02673111 11.79104218 60.20971222 11.6190033 59.36793518 C10.92739141 55.98353318 10.23582786 52.59912151 9.54495239 49.21456909 C7.78633975 40.60456237 6.01571394 31.99818463 4.15234375 23.41015625 C4.01006851 22.75350983 3.86779327 22.0968634 3.72120667 21.4203186 C3.06285136 18.38714825 2.39865512 15.35540803 1.72680664 12.32519531 C1.49727295 11.27557617 1.26773926 10.22595703 1.03125 9.14453125 C0.83080078 8.24065674 0.63035156 7.33678223 0.42382812 6.40551758 C0 4 0 4 0 0 Z " fill="#FEA200" transform="translate(160,244)"/>
<path d="M0 0 C6.47876382 4.2024414 10.61052678 9.65539798 13 17 C14.25011442 24.11348291 12.63691572 30.79952764 9 37 C8.16146484 37.73653809 7.32292969 38.47307617 6.45898438 39.23193359 C3.46325851 42.60420721 3.35387861 44.16686152 3.29296875 48.61328125 C3.26396484 49.86044922 3.23496094 51.10761719 3.20507812 52.39257812 C3.19927734 53.68615234 3.19347656 54.97972656 3.1875 56.3125 C3.16236328 57.62541016 3.13722656 58.93832031 3.11132812 60.29101562 C3.05248032 63.52764489 3.01618063 66.76292218 3 70 C2.34515625 70.0501123 1.6903125 70.10022461 1.015625 70.15185547 C-1.9901765 70.38588768 -4.99504335 70.63036805 -8 70.875 C-9.02996094 70.95363281 -10.05992187 71.03226562 -11.12109375 71.11328125 C-16.95682886 71.59649499 -22.36767083 72.38882892 -28 74 C-27.99887207 73.06728271 -27.99774414 72.13456543 -27.99658203 71.17358398 C-28.00655561 67.68565053 -28.0432657 64.20006301 -28.09765625 60.71264648 C-28.11573371 59.20850471 -28.12339978 57.70419799 -28.12011719 56.19995117 C-27.76555358 46.2760431 -27.76555358 46.2760431 -31.9375 37.67578125 C-32.95544954 36.78056432 -33.97601499 35.888307 -35 35 C-38.37580672 29.14860168 -38.94472141 23.60396604 -38 17 C-35.19991498 8.09417403 -29.54763233 2.56321095 -21.5625 -1.9375 C-14.08110204 -4.16879413 -7.00673987 -3.48470189 0 0 Z " fill="#FEA200" transform="translate(227,69)"/>
<path d="M0 0 C6.46963885 4.1965225 10.65603367 9.64553685 13 17 C14.38963901 24.97333857 12.50251286 31.35286917 8 38 C7.32195312 38.55276611 6.64390625 39.10553223 5.9453125 39.67504883 C3.23188059 42.91802223 3.4571201 45.20143348 3.390625 49.390625 C3.37408875 50.09523865 3.35755249 50.79985229 3.34051514 51.52581787 C3.29208861 53.76730102 3.27067813 56.00810613 3.25 58.25 C3.22183552 59.77347151 3.19190741 61.29691152 3.16015625 62.8203125 C3.08633407 66.54672756 3.03672531 70.2730138 3 74 C1.87899902 73.68712036 1.87899902 73.68712036 0.73535156 73.36791992 C-5.99532619 71.57374509 -12.29572963 70.50721957 -19.25 70.3125 C-20.10207031 70.27833984 -20.95414062 70.24417969 -21.83203125 70.20898438 C-23.88761175 70.12814694 -25.94377646 70.06237498 -28 70 C-27.99887207 69.18845459 -27.99774414 68.37690918 -27.99658203 67.54077148 C-28.00873941 63.8388503 -28.06644987 60.13896625 -28.125 56.4375 C-28.12242187 55.16068359 -28.11984375 53.88386719 -28.1171875 52.56835938 C-28.14406087 44.55800906 -28.14406087 44.55800906 -31.9375 37.80078125 C-32.72833984 37.07822144 -32.72833984 37.07822144 -33.53515625 36.34106445 C-37.49675677 32.71421918 -38.22705175 27.79450549 -38.5 22.6875 C-38.26800599 15.64068203 -35.84045182 10.15539731 -31.1328125 4.92578125 C-21.92143689 -3.62251868 -11.34921089 -5.64436776 0 0 Z " fill="#FD8105" transform="translate(310,69)"/>
<path d="M0 0 C6.04265914 5.00255879 11.56098043 10.43177324 17.08984375 15.9921875 C18.04368954 16.94790248 18.99775941 17.90339388 19.95204163 18.8586731 C22.44153194 21.35194916 24.92800224 23.84821525 27.41381836 26.34515381 C29.95957994 28.90121509 32.50823777 31.45438505 35.05664062 34.0078125 C40.04057069 39.00241019 45.02131048 44.00017799 50 49 C47.43528434 51.56471566 44.94106411 52.30021802 41.5625 53.625 C34.60009448 56.47660443 28.86804645 60.27023681 23 65 C22.39414062 65.47695312 21.78828125 65.95390625 21.1640625 66.4453125 C17.89059632 69.08734866 14.95874846 72.01651284 12 75 C10.69675781 74.18595703 10.69675781 74.18595703 9.3671875 73.35546875 C8.2032097 72.63267608 7.03914241 71.91002752 5.875 71.1875 C5.30523437 70.83107422 4.73546875 70.47464844 4.1484375 70.10742188 C0.5184312 67.85929297 -3.17208145 65.88577828 -7 64 C-7.14920123 59.57101901 -7.25760752 55.14339827 -7.32958984 50.71264648 C-7.35961832 49.20815528 -7.40045606 47.70383703 -7.45263672 46.19995117 C-7.9299388 32.08210427 -7.9299388 32.08210427 -4.09375 27.67578125 C-3.06610354 26.77970467 -2.03517637 25.8873671 -1 25 C2.68021699 18.62095722 2.9862661 11.88075276 1.54296875 4.73828125 C1.09221137 3.13955183 0.55647092 1.56507447 0 0 Z " fill="#704639" transform="translate(320,79)"/>
<path d="M0 0 C8.23071053 6.9454529 16.02596812 14.32131021 23.76342773 21.80908203 C25.54379141 23.51743794 27.33913864 25.21031661 29.14916992 26.88720703 C31.78350303 29.33205596 34.36099437 31.82639702 36.93359375 34.3359375 C37.74283798 35.06573822 38.55208221 35.79553894 39.385849 36.54745483 C47.25340963 44.43653572 45 47.05939187 45 60 C27.84 60 10.68 60 -7 60 C-7.12375 55.524375 -7.2475 51.04875 -7.375 46.4375 C-7.42962402 45.03943115 -7.48424805 43.6413623 -7.54052734 42.20092773 C-7.67816475 31.91882181 -7.67816475 31.91882181 -4.09375 27.8359375 C-3.29614258 27.1231665 -3.29614258 27.1231665 -2.48242188 26.39599609 C0.83657264 23.27050027 1.8096816 18.92130956 2.24609375 14.515625 C2.38044019 9.29982221 1.71062839 4.91805663 0 0 Z " fill="#714738" transform="translate(237,79)"/>
<path d="M0 0 C0.44988281 0.35191406 0.89976562 0.70382812 1.36328125 1.06640625 C18.78651473 14.43934898 35.59217271 22.34148855 58 21 C73.58354786 18.92453877 85.98235443 12.76666242 98 3 C99.32851932 1.99361329 100.65990259 0.9909171 102 0 C101.81678866 10.62625776 96.96165915 20.35115059 89.6875 28 C78.32406939 38.29572572 63.75214572 44.01499039 48.37109375 43.3515625 C31.73519789 41.61664868 18.02833499 35.09377955 7.34375 21.96484375 C3.06546207 15.61262966 -0.37577448 7.72425329 0 0 Z " fill="#FC8105" transform="translate(205,415)"/>
<path d="M0 0 C0.44988281 0.35191406 0.89976562 0.70382812 1.36328125 1.06640625 C17.24362314 13.25512557 31.19957884 19.23219919 51 22 C51 28.6 51 35.2 51 42 C36.64805588 42.76543702 24.95749318 38.49850755 13.9375 29.2734375 C6.68721546 22.42941891 0.27433644 12.36644144 -0.10546875 2.16796875 C-0.07066406 1.45253906 -0.03585938 0.73710937 0 0 Z " fill="#FDA200" transform="translate(205,415)"/>
<path d="M0 0 C4.40830916 2.16407904 7.12843553 4.42506462 9 9 C9.52937142 13.76434281 9.51887884 15.96224232 7.375 20.25 C4.3809015 23.7168509 1.69192851 26.47238201 -2.953125 27.3828125 C-8.04087867 27.67409611 -11.07347114 26.37864111 -15 23 C-18.41871325 19.12545831 -18.45480923 15.33528742 -18.28515625 10.37109375 C-17.76954397 6.08374235 -16.10395527 3.97014251 -12.9375 1.1875 C-8.59279562 -0.56886986 -4.6205761 -0.66642925 0 0 Z " fill="#444B50" transform="translate(202,224)"/>
<path d="M0 0 C3.22887109 1.27809481 4.54896002 2.48674761 6.8125 5.0625 C8.57021759 9.41053825 8.65950013 13.37608898 8 18 C6.18766463 21.83378636 4.69973473 23.53351018 1.1875 25.875 C-2.55329157 27.19527938 -5.05782897 27.49277138 -9 27 C-13.77585774 24.565249 -16.60117067 21.79765866 -19 17 C-19.87302198 12.54580621 -19.37579076 9.71131823 -17.25 5.6875 C-12.06733189 -0.50290913 -7.82734424 -0.84902842 0 0 Z " fill="#27292A" transform="translate(320,224)"/>
<path d="M0 0 C3.27247743 0.70358265 5.10709574 2.05080158 7.34375 4.50390625 C9.09495224 8.00631073 8.88878846 11.6822248 8.34375 15.50390625 C7.06837069 18.5150457 6.02695616 19.31353387 3.34375 21.50390625 C0.26354229 22.5570655 -2.41994679 22.85146698 -5.65625 22.50390625 C-8.89913049 20.91194674 -10.85670028 19.55785816 -13.03125 16.69140625 C-14.18107748 12.66701008 -14.57127893 9.35557896 -12.6640625 5.49609375 C-9.14368857 0.58348154 -5.95180514 -0.42128741 0 0 Z " fill="#282A29" transform="translate(288.65625,369.49609375)"/>
<path d="M0 0 C3.07469523 1.70251719 5.40613254 3.81226508 7 7 C7.40710593 11.23390162 7.25575965 13.51588352 5.25 17.3125 C2.06757519 21.11372964 0.50776762 21.80454864 -4.375 22.4375 C-9.1853299 21.85694294 -10.61392593 20.38607407 -14 17 C-15.72869779 13.54260443 -15.48966895 9.78024432 -15 6 C-11.14949989 -0.16080017 -6.9481676 -1.07253594 0 0 Z " fill="#454B50" transform="translate(230,370)"/>
<path d="M0 0 C3.46696985 1.35068664 6.82620207 2.84373835 10.1875 4.4375 C13.96325004 6.2025864 17.50889526 7.4291589 21.5625 8.375 C24.03515625 9.09375 24.03515625 9.09375 26 10 C27.4530752 12.78506079 27.70504089 13.98429734 28 17 C28.37244115 19.3129135 28.74761502 21.62538802 29.125 23.9375 C29.42108213 25.95769112 29.71422932 27.97832448 30 30 C23.85397771 24.95241573 18.25128263 19.40441039 12.64526367 13.77563477 C11.04525338 12.17019485 9.4398769 10.57025692 7.83398438 8.97070312 C6.81738694 7.95344609 5.8010991 6.93587953 4.78515625 5.91796875 C3.86613525 4.99781982 2.94711426 4.0776709 2.00024414 3.12963867 C0 1 0 1 0 0 Z " fill="#734838" transform="translate(129,210)"/>
</svg>
