<?xml version="1.0" encoding="UTF-8"?>
<svg version="1.1" xmlns="http://www.w3.org/2000/svg" width="512" height="512">
<path d="M0 0 C1.01790619 0.00215515 2.03581238 0.0043103 3.08456421 0.00653076 C17.69363523 0.05620146 32.02575853 0.30709809 46.375 3.3125 C47.34985352 3.51117676 48.32470703 3.70985352 49.32910156 3.91455078 C97.7109774 14.03517194 141.69928269 35.9516877 177.375 70.3125 C178.3640332 71.26068604 178.3640332 71.26068604 179.37304688 72.22802734 C188.86130305 81.37247479 197.6012044 90.66984009 205.375 101.3125 C206.23306152 102.46355017 207.09113451 103.61459177 207.94921875 104.765625 C213.98736829 112.95680614 219.34595521 121.47054105 224.375 130.3125 C224.73948242 130.94430176 225.10396484 131.57610352 225.47949219 132.22705078 C247.00981855 169.84336237 256.83759735 212.56515288 256.75 255.625 C256.74918427 257.13927582 256.74918427 257.13927582 256.74835205 258.68414307 C256.70758601 275.19373539 255.80029309 291.11032001 252.375 307.3125 C252.15537598 308.35438477 251.93575195 309.39626953 251.70947266 310.46972656 C241.61185215 356.76299311 219.25271242 399.17663721 186.375 433.3125 C185.74287598 433.97185547 185.11075195 434.63121094 184.45947266 435.31054688 C175.31502521 444.79880305 166.01765991 453.5387044 155.375 461.3125 C154.22394983 462.17056152 153.07290823 463.02863451 151.921875 463.88671875 C143.73224019 469.92427396 135.22961724 475.30707302 126.375 480.3125 C125.66778809 480.7146875 124.96057617 481.116875 124.23193359 481.53125 C98.0845517 496.25245028 69.06326215 505.95209116 39.375 510.3125 C38.169646 510.48982666 36.96429199 510.66715332 35.72241211 510.84985352 C24.08638483 512.44514801 12.54425476 512.67203114 0.8125 512.625 C-0.15644196 512.62284485 -1.12538391 512.6206897 -2.12368774 512.61846924 C-62.01783082 512.40492088 -120.08752998 491.59402366 -165.625 452.3125 C-166.37007813 451.67828125 -167.11515625 451.0440625 -167.8828125 450.390625 C-181.38779833 438.57948485 -194.05918743 425.82889772 -204.625 411.3125 C-205.48149066 410.16255169 -206.33826433 409.01281411 -207.1953125 407.86328125 C-213.23534209 399.67315742 -218.61867614 391.16870382 -223.625 382.3125 C-224.0271875 381.60528809 -224.429375 380.89807617 -224.84375 380.16943359 C-237.8691741 357.03404164 -246.61801461 331.86287591 -251.9375 305.875 C-252.08485596 305.15610596 -252.23221191 304.43721191 -252.3840332 303.6965332 C-255.35789088 288.05024391 -255.99800362 272.57681954 -255.9375 256.6875 C-255.93534485 255.66959381 -255.9331897 254.65168762 -255.93096924 253.60293579 C-255.88129854 238.99386477 -255.63040191 224.66174147 -252.625 210.3125 C-252.42632324 209.33764648 -252.22764648 208.36279297 -252.02294922 207.35839844 C-241.90232806 158.9765226 -219.9858123 114.98821731 -185.625 79.3125 C-184.99287598 78.65314453 -184.36075195 77.99378906 -183.70947266 77.31445312 C-174.56502521 67.82619695 -165.26765991 59.0862956 -154.625 51.3125 C-153.47394983 50.45443848 -152.32290823 49.59636549 -151.171875 48.73828125 C-142.98224019 42.70072604 -134.47961724 37.31792698 -125.625 32.3125 C-124.91778809 31.9103125 -124.21057617 31.508125 -123.48193359 31.09375 C-100.34654164 18.0683259 -75.17537591 9.31948539 -49.1875 4 C-48.46860596 3.85264404 -47.74971191 3.70528809 -47.0090332 3.5534668 C-31.36274391 0.57960912 -15.88931954 -0.06050362 0 0 Z " fill="#617F7E" transform="translate(255.625,-0.3125)"/>
<path d="M0 0 C2.13866764 0.01005974 4.27733991 0.01918024 6.41601562 0.02734375 C11.58996086 0.04909732 16.76367737 0.08345859 21.9375 0.125 C21.9375 0.785 21.9375 1.445 21.9375 2.125 C22.88753906 2.0734375 23.83757812 2.021875 24.81640625 1.96875 C29.7140006 1.96875 34.19072755 3.30699178 38.875 4.625 C40.18694336 4.98271484 40.18694336 4.98271484 41.52539062 5.34765625 C43.66505439 5.93226384 45.80215572 6.52484344 47.9375 7.125 C47.9375 7.785 47.9375 8.445 47.9375 9.125 C47.07511719 9.44210937 46.21273438 9.75921875 45.32421875 10.0859375 C6.43695119 24.95097536 -25.3924289 52.43076645 -43.58032227 90.28393555 C-45.09425516 93.67323463 -46.55645142 97.08013694 -48 100.5 C-48.54774951 101.78166522 -49.09610781 103.06307039 -49.64501953 104.34423828 C-51.46381669 108.59903544 -53.26441472 112.86141637 -55.0625 117.125 C-55.56121613 118.30666748 -55.56121613 118.30666748 -56.07000732 119.51220703 C-59.19355768 126.91426797 -62.31530778 134.3170797 -65.41772461 141.72802734 C-69.54034846 151.56857527 -73.75542823 161.36374689 -78.0625 171.125 C-79.48949219 171.19352173 -79.48949219 171.19352173 -80.9453125 171.26342773 C-98.14950529 172.15282662 -113.12086565 176.62706481 -125.2265625 189.41015625 C-135.65543972 201.73341754 -139.04364678 215.0929345 -138.26220703 230.89501953 C-137.05281443 244.39941072 -129.7776703 256.05450921 -120.0625 265.125 C-109.44758422 273.07127824 -98.95568945 276.78339488 -85.8125 277.5 C-79.27605773 277.9944232 -76.03637816 279.89140103 -71.6875 284.8125 C-69.18181789 289.92023661 -69.2488786 294.43523817 -70.89648438 299.88208008 C-72.03253103 302.84906871 -73.24253013 305.76994091 -74.5 308.6875 C-77.28461966 315.23327517 -79.59559486 320.98559593 -80.0625 328.125 C-79.51126465 327.98924561 -78.9600293 327.85349121 -78.39208984 327.71362305 C-67.86573483 325.14984476 -57.36650651 322.83455766 -46.625 321.375 C-45.7882373 321.25987061 -44.95147461 321.14474121 -44.08935547 321.02612305 C-29.93359966 319.21384659 -15.75061489 318.88478113 -1.5 318.875 C-0.60676025 318.87432526 0.28647949 318.87365051 1.20678711 318.87295532 C61.79714566 318.9450482 61.79714566 318.9450482 81.9375 330.125 C83.37240476 334.08113336 83.04769193 338.22213382 83 342.375 C82.99548828 343.12007813 82.99097656 343.86515625 82.98632812 344.6328125 C82.97459246 346.4635764 82.9566585 348.29429873 82.9375 350.125 C76.82427166 349.66751945 70.97668713 348.78716101 65.00463867 347.41088867 C42.73243801 342.29932893 20.58649148 340.85704727 -2.1875 340.8125 C-3.08562408 340.80882416 -3.98374817 340.80514832 -4.90908813 340.80136108 C-28.76873359 340.75029433 -51.78637232 344.039151 -74.97973633 349.49926758 C-75.87329834 349.70962646 -76.76686035 349.91998535 -77.6875 350.13671875 C-78.88246094 350.42228638 -78.88246094 350.42228638 -80.1015625 350.71362305 C-82.0625 351.125 -82.0625 351.125 -84.0625 351.125 C-79.50810162 363.52891448 -73.68491339 372.87168242 -61.89453125 379.30859375 C-56.67915315 381.69351539 -51.73093767 382.43459094 -46.0625 382.9375 C-39.7009966 383.55059503 -35.71669821 385.0570399 -30.7265625 389.0625 C-8.58647962 406.20320933 18.85664256 410.87008489 46.15063477 410.59155273 C49.26567254 410.56235309 52.37902127 410.57105654 55.49414062 410.58398438 C70.84361325 410.56916601 84.89761529 408.95620627 99.5 403.9375 C100.3856665 403.63561768 101.27133301 403.33373535 102.18383789 403.02270508 C132.66782465 392.26575959 157.92028903 369.20635057 171.9375 340.125 C175.95511456 330.9314127 179.45298995 321.53045485 182.9375 312.125 C183.32164062 311.09665039 183.70578125 310.06830078 184.1015625 309.00878906 C186.0754713 303.72432278 188.02282172 298.43120738 189.9375 293.125 C190.9275 293.125 191.9175 293.125 192.9375 293.125 C194.22094727 294.58349609 194.22094727 294.58349609 195.50390625 296.6484375 C195.98424316 297.41269043 196.46458008 298.17694336 196.95947266 298.96435547 C197.46784668 299.80111816 197.9762207 300.63788086 198.5 301.5 C199.03157715 302.36125488 199.5631543 303.22250977 200.11083984 304.10986328 C230.21022631 353.2808825 230.21022631 353.2808825 229.85546875 367.38671875 C228.65615515 372.27073201 226.53780558 376.21050867 224.0625 380.5625 C223.57072266 381.43922363 223.07894531 382.31594727 222.57226562 383.21923828 C212.2116738 401.4030668 199.44556311 418.06174847 184.9375 433.125 C184.30537598 433.78435547 183.67325195 434.44371094 183.02197266 435.12304688 C173.87752521 444.61130305 164.58015991 453.3512044 153.9375 461.125 C152.78644983 461.98306152 151.63540823 462.84113451 150.484375 463.69921875 C142.29474019 469.73677396 133.79211724 475.11957302 124.9375 480.125 C124.23028809 480.5271875 123.52307617 480.929375 122.79443359 481.34375 C96.6470517 496.06495028 67.62576215 505.76459116 37.9375 510.125 C36.732146 510.30232666 35.52679199 510.47965332 34.28491211 510.66235352 C22.64888483 512.25764801 11.10675476 512.48453114 -0.625 512.4375 C-1.59394196 512.43534485 -2.56288391 512.4331897 -3.56118774 512.43096924 C-63.45533082 512.21742088 -121.52502998 491.40652366 -167.0625 452.125 C-167.80757813 451.49078125 -168.55265625 450.8565625 -169.3203125 450.203125 C-182.82529833 438.39198485 -195.49668743 425.64139772 -206.0625 411.125 C-206.91899066 409.97505169 -207.77576433 408.82531411 -208.6328125 407.67578125 C-214.67284209 399.48565742 -220.05617614 390.98120382 -225.0625 382.125 C-225.4646875 381.41778809 -225.866875 380.71057617 -226.28125 379.98193359 C-239.3066741 356.84654164 -248.05551461 331.67537591 -253.375 305.6875 C-253.52235596 304.96860596 -253.66971191 304.24971191 -253.8215332 303.5090332 C-256.79539088 287.86274391 -257.43550362 272.38931954 -257.375 256.5 C-257.37284485 255.48209381 -257.3706897 254.46418762 -257.36846924 253.41543579 C-257.31879854 238.80636477 -257.06790191 224.47424147 -254.0625 210.125 C-253.86382324 209.15014648 -253.66514648 208.17529297 -253.46044922 207.17089844 C-243.33982806 158.7890226 -221.4233123 114.80071731 -187.0625 79.125 C-186.43037598 78.46564453 -185.79825195 77.80628906 -185.14697266 77.12695312 C-176.00252521 67.63869695 -166.70515991 58.8987956 -156.0625 51.125 C-154.91144983 50.26693848 -153.76040823 49.40886549 -152.609375 48.55078125 C-144.41974019 42.51322604 -135.91711724 37.13042698 -127.0625 32.125 C-126.35528809 31.7228125 -125.64807617 31.320625 -124.91943359 30.90625 C-101.78404164 17.8808259 -76.61287591 9.13198539 -50.625 3.8125 C-49.90610596 3.66514404 -49.18721191 3.51778809 -48.4465332 3.3659668 C-45.99110494 2.89926865 -43.53340353 2.50198694 -41.0625 2.125 C-39.8964624 1.94549805 -38.7304248 1.76599609 -37.52905273 1.58105469 C-25.03012562 -0.18706689 -12.59980243 -0.10428508 0 0 Z " fill="#516666" transform="translate(257.0625,-0.125)"/>
<path d="M0 0 C3.56533059 2.7560265 4.6143192 6.73745746 6.07421875 10.82421875 C6.36174515 11.60328079 6.64927155 12.38234283 6.94551086 13.18501282 C8.16965726 16.50197003 9.37513012 19.82559843 10.57983398 23.1496582 C23.70915191 59.24173036 44.53759719 90.19145697 80.09082031 107.12548828 C98.40721554 115.51542789 117.26625527 119.13343454 137.35058594 119.17700195 C138.68875805 119.18327896 140.02692846 119.18992682 141.36509705 119.19691467 C145.73817767 119.21782581 150.11125808 119.22831096 154.484375 119.23828125 C156.00076565 119.24233487 157.51715614 119.24645196 159.03354645 119.25063133 C166.16800942 119.26966155 173.30246225 119.28389215 180.43694568 119.2922433 C188.61698159 119.30198118 196.79674442 119.32821898 204.97668433 119.36874419 C211.3337956 119.39913477 217.69082966 119.41373399 224.04801202 119.41702431 C227.82802777 119.41935049 231.60775123 119.42798551 235.38768768 119.45348549 C255.63647011 119.58308063 274.51540815 118.46037573 293.8125 111.75 C294.68011963 111.45262939 295.54773926 111.15525879 296.44165039 110.84887695 C326.83206269 100.06029462 352.01921886 77.00576999 366 48 C370.01761456 38.8064127 373.51548995 29.40545485 377 20 C377.57621094 18.45747559 377.57621094 18.45747559 378.1640625 16.88378906 C380.1379713 11.59932278 382.08532172 6.30620738 384 1 C384.99 1 385.98 1 387 1 C388.28344727 2.45849609 388.28344727 2.45849609 389.56640625 4.5234375 C390.28691162 5.66981689 390.28691162 5.66981689 391.02197266 6.83935547 C391.53034668 7.67611816 392.0387207 8.51288086 392.5625 9.375 C393.09407715 10.23625488 393.6256543 11.09750977 394.17333984 11.98486328 C424.27272631 61.1558825 424.27272631 61.1558825 423.91796875 75.26171875 C422.71865515 80.14573201 420.60030558 84.08550867 418.125 88.4375 C417.63322266 89.31422363 417.14144531 90.19094727 416.63476562 91.09423828 C406.2741738 109.2780668 393.50806311 125.93674847 379 141 C378.36787598 141.65935547 377.73575195 142.31871094 377.08447266 142.99804688 C367.94002521 152.48630305 358.64265991 161.2262044 348 169 C346.84894983 169.85806152 345.69790823 170.71613451 344.546875 171.57421875 C336.35724019 177.61177396 327.85461724 182.99457302 319 188 C317.93918213 188.60328125 317.93918213 188.60328125 316.85693359 189.21875 C290.7095517 203.93995028 261.68826215 213.63959116 232 218 C230.794646 218.17732666 229.58929199 218.35465332 228.34741211 218.53735352 C216.71138483 220.13264801 205.16925476 220.35953114 193.4375 220.3125 C192.46855804 220.31034485 191.49961609 220.3081897 190.50131226 220.30596924 C130.60716918 220.09242088 72.53747002 199.28152366 27 160 C26.25492187 159.36578125 25.50984375 158.7315625 24.7421875 158.078125 C11.23720167 146.26698485 -1.43418743 133.51639772 -12 119 C-12.85649066 117.85005169 -13.71326433 116.70031411 -14.5703125 115.55078125 C-20.6107887 107.35783265 -25.93580153 98.82362662 -31 90 C-31.35288086 89.39671875 -31.70576172 88.7934375 -32.06933594 88.171875 C-33.08183762 86.43561862 -34.0725914 84.68673607 -35.0625 82.9375 C-35.63097656 81.93589844 -36.19945313 80.93429687 -36.78515625 79.90234375 C-39.0057643 74.59716117 -38.19255062 71.13216636 -36.09375 65.9453125 C-35.24184508 63.99960787 -34.37654339 62.05973001 -33.5 60.125 C-33.04439697 59.10140381 -32.58879395 58.07780762 -32.11938477 57.02319336 C-11.85271493 11.85271493 -11.85271493 11.85271493 0 0 Z " fill="#506565" transform="translate(63,292)"/>
<path d="M0 0 C14.85 0 29.7 0 45 0 C44.34 1.32 43.68 2.64 43 4 C43.31902577 7.34977063 43.59179639 8.59179639 46 11 C56.44056412 14.36661547 68.76530488 12.45272155 78.7890625 8.77734375 C81.74033393 7.14373244 83.37222591 5.69362551 85.71875 3.3515625 C89.7314552 -0.29090862 92.70284582 -0.79119728 98.03515625 -0.71289062 C98.97230469 -0.66326172 99.90945313 -0.61363281 100.875 -0.5625 C101.80441406 -0.54767578 102.73382813 -0.53285156 103.69140625 -0.51757812 C121.15259491 -0.04269224 135.96829367 5.41733853 148.25 18.125 C158.30267162 30.05996199 162.05400501 43.65557728 161.1953125 58.98681641 C159.85691669 72.78233119 151.91277969 84.74081018 142 94 C138.48532918 96.65248606 134.85407792 98.87771039 131 101 C130.31808594 101.41121094 129.63617188 101.82242188 128.93359375 102.24609375 C123.10827719 105.35824917 116.95794366 105.76648948 110.47045898 106.22973633 C104.19900983 106.72963935 99.96578579 108.29062105 95.125 112.5 C91.81365995 116.8855585 92.32346169 121.76057787 93 127 C94.49034177 131.9988401 96.45894298 136.76869342 98.5 141.5625 C99.53726146 144.06135715 100.56500571 146.56401917 101.59375 149.06640625 C102.28500977 150.7052478 102.28500977 150.7052478 102.99023438 152.37719727 C104 155 104 155 104 157 C97.49097616 156.37372635 91.10448144 155.36562159 84.66479492 154.23510742 C63.6852565 150.57209783 43.36388083 148.834477 22.0625 148.8125 C21.18218109 148.81132172 20.30186218 148.81014343 19.39486694 148.80892944 C3.72911138 148.81130451 -11.6004038 149.59759563 -27.125 151.875 C-28.28386719 152.03613281 -29.44273437 152.19726562 -30.63671875 152.36328125 C-37.64329059 153.37316702 -44.47917473 154.71608809 -51.35107422 156.41845703 C-54 157 -54 157 -57 157 C-57.72392073 148.54420369 -54.52372784 142.20856586 -51.19921875 134.57617188 C-48.73522205 128.6743131 -46.89940067 123.44636748 -48 117 C-50.26278601 112.47442798 -52.49897537 110.20758701 -57 108 C-59.76750961 107.50885672 -62.40203959 107.13211942 -65.1875 106.875 C-72.79441341 106.1027933 -72.79441341 106.1027933 -75 105 C-77.33954549 96.61296742 -77.31923334 87.82509917 -77.25 79.1875 C-77.23876099 77.33547974 -77.23876099 77.33547974 -77.22729492 75.44604492 C-76.90952866 48.51402255 -67.93048905 24.86097811 -56 1 C-50.23875244 0.42811146 -45.55922431 -0.02392971 -40.875 3.75 C-40.24722656 4.29527344 -39.61945313 4.84054688 -38.97265625 5.40234375 C-31.67590415 11.3119905 -23.09186552 12.19103271 -14.0625 12.25 C-13.27681641 12.270625 -12.49113281 12.29125 -11.68164062 12.3125 C-6.67940053 12.3459878 -3.38501316 11.67464687 1 9 C1.07427838 5.65747276 1.06546953 3.1964086 0 0 Z " fill="#7F9B9F" transform="translate(234,171)"/>
<path d="M0 0 C3.56533059 2.7560265 4.6143192 6.73745746 6.07421875 10.82421875 C6.36174515 11.60328079 6.64927155 12.38234283 6.94551086 13.18501282 C8.16965726 16.50197003 9.37513012 19.82559843 10.57983398 23.1496582 C23.70915191 59.24173036 44.53759719 90.19145697 80.09082031 107.12548828 C98.40721554 115.51542789 117.26625527 119.13343454 137.35058594 119.17700195 C138.68875805 119.18327896 140.02692846 119.18992682 141.36509705 119.19691467 C145.73817767 119.21782581 150.11125808 119.22831096 154.484375 119.23828125 C156.00076565 119.24233487 157.51715614 119.24645196 159.03354645 119.25063133 C166.16800942 119.26966155 173.30246225 119.28389215 180.43694568 119.2922433 C188.61698159 119.30198118 196.79674442 119.32821898 204.97668433 119.36874419 C211.3337956 119.39913477 217.69082966 119.41373399 224.04801202 119.41702431 C227.82802777 119.41935049 231.60775123 119.42798551 235.38768768 119.45348549 C255.63647011 119.58308063 274.51540815 118.46037573 293.8125 111.75 C294.68011963 111.45262939 295.54773926 111.15525879 296.44165039 110.84887695 C326.83206269 100.06029462 352.01921886 77.00576999 366 48 C370.01761456 38.8064127 373.51548995 29.40545485 377 20 C377.57621094 18.45747559 377.57621094 18.45747559 378.1640625 16.88378906 C380.1379713 11.59932278 382.08532172 6.30620738 384 1 C387 1 387 1 388.6875 2.4375 C391.87422386 8.65919897 389.96528739 14.92332553 388 21.25 C385.057279 30.30791209 381.62660884 39.19661524 378.15185547 48.06103516 C377.35032414 50.10614626 376.55276664 52.15281741 375.75830078 54.20068359 C374.47246129 57.51222086 373.17534199 60.81913339 371.875 64.125 C371.28199097 65.65241821 371.28199097 65.65241821 370.67700195 67.21069336 C357.05389233 101.52812899 330.78686091 125.65462253 297.26953125 140.18359375 C282.24278116 146.02606693 266.80978521 148.15118905 250.78540039 148.14526367 C249.47529999 148.14862228 248.16519958 148.1519809 246.81539917 148.15544128 C243.23839453 148.16423319 239.66141386 148.16661751 236.08439946 148.16725707 C233.84093115 148.16797089 231.59746882 148.17011158 229.354002 148.17275429 C221.50186659 148.18199541 213.64974809 148.18609117 205.79760742 148.18530273 C198.52119067 148.18470392 191.24484852 148.19522019 183.96845061 148.2110464 C177.68951578 148.22420785 171.41060506 148.22948298 165.13165659 148.22884732 C161.39598777 148.22859463 157.66038517 148.23131677 153.9247303 148.24202538 C116.0385944 148.34306357 116.0385944 148.34306357 99.4375 143.375 C98.56472412 143.12065186 97.69194824 142.86630371 96.79272461 142.60424805 C88.33986274 140.01647986 80.72986469 136.23022933 73 132 C71.00409453 130.99185251 69.00548087 129.98896232 67 129 C66.88406494 129.74161377 66.76812988 130.48322754 66.64868164 131.24731445 C66.12260449 134.60279804 65.59259938 137.95764959 65.0625 141.3125 C64.88009766 142.47974609 64.69769531 143.64699219 64.50976562 144.84960938 C64.33251953 145.96787109 64.15527344 147.08613281 63.97265625 148.23828125 C63.72914429 149.7857605 63.72914429 149.7857605 63.48071289 151.36450195 C63 154 63 154 62 157 C61.80765358 158.82065531 61.65821805 160.6460094 61.53515625 162.47265625 C61.41817383 164.06883789 61.41817383 164.06883789 61.29882812 165.69726562 C61.14102197 167.94437316 60.987389 170.19177759 60.83789062 172.43945312 C60.75861328 173.50228516 60.67933594 174.56511719 60.59765625 175.66015625 C60.53070557 176.63605713 60.46375488 177.61195801 60.39477539 178.61743164 C60 181 60 181 58 183 C43.07715588 172.98037609 28.96819654 162.49022587 16 150 C15.34064453 149.36787598 14.68128906 148.73575195 14.00195312 148.08447266 C4.51369695 138.94002521 -4.2262044 129.64265991 -12 119 C-12.85806152 117.84894983 -13.71613451 116.69790823 -14.57421875 115.546875 C-20.61220911 107.35443034 -25.93671692 98.82203168 -31 90 C-31.35288086 89.39671875 -31.70576172 88.7934375 -32.06933594 88.171875 C-33.08183762 86.43561862 -34.0725914 84.68673607 -35.0625 82.9375 C-35.63097656 81.93589844 -36.19945313 80.93429687 -36.78515625 79.90234375 C-39.0057643 74.59716117 -38.19255062 71.13216636 -36.09375 65.9453125 C-35.24184508 63.99960787 -34.37654339 62.05973001 -33.5 60.125 C-33.04439697 59.10140381 -32.58879395 58.07780762 -32.11938477 57.02319336 C-11.85271493 11.85271493 -11.85271493 11.85271493 0 0 Z " fill="#384948" transform="translate(63,292)"/>
<path d="M0 0 C0 0.33 0 0.66 0 1 C-0.8206897 1.18006592 -0.8206897 1.18006592 -1.65795898 1.36376953 C-39.70389031 9.80959286 -75.32592763 27.27334137 -99.375 59 C-99.93662842 59.74056641 -100.49825684 60.48113281 -101.0769043 61.24414062 C-116.41515016 81.77989699 -125.40152751 105.43902005 -135 129 C-136.03898437 129.01417969 -137.07796875 129.02835938 -138.1484375 129.04296875 C-147.57254793 129.30770366 -155.55006241 130.01487585 -162.83203125 136.67578125 C-168.02257586 142.37148836 -170.38145903 148.42805218 -171.5625 156 C-171.68761963 156.75418213 -171.81273926 157.50836426 -171.94165039 158.28540039 C-172.84145777 163.77996888 -173.64568897 169.28757599 -174.39453125 174.8046875 C-174.87919229 178.2776502 -175.44195686 181.73534154 -176.01171875 185.1953125 C-176.19420166 186.32267822 -176.37668457 187.45004395 -176.56469727 188.61157227 C-176.92819459 190.85036736 -177.29932282 193.08794193 -177.67944336 195.32397461 C-179.5226163 206.79735543 -180.61340889 217.44949655 -175 228 C-174.67 228.33 -174.34 228.66 -174 229 C-173.94867756 231.17778232 -173.96485352 233.35719291 -174.0078125 235.53515625 C-174.02792499 236.90843315 -174.04701002 238.2817254 -174.06518555 239.6550293 C-174.08082047 240.73583267 -174.08082047 240.73583267 -174.09677124 241.83847046 C-174.48407642 261.36786899 -174.48407642 261.36786899 -169.7109375 280.1640625 C-168.14995076 284.44350235 -167.06631253 287.77650223 -168.90380859 292.15234375 C-171.68105436 297.24127921 -175.02959284 301.93654572 -178.3828125 306.65722656 C-180.72497056 310.05024419 -182.76051672 313.5794389 -184.75 317.1875 C-185.29188965 318.16517334 -185.29188965 318.16517334 -185.84472656 319.16259766 C-193.10161411 332.38355461 -199.27048539 345.95494659 -205.07373047 359.87207031 C-205.98031692 361.95478184 -206.96514637 363.97839883 -208 366 C-216.50581103 346.62322202 -223.39579629 327.34329539 -227.8125 306.625 C-228.00755127 305.71169922 -228.20260254 304.79839844 -228.40356445 303.85742188 C-231.64791121 287.70295066 -232.37508268 271.81031746 -232.3125 255.375 C-232.31034485 254.35709381 -232.3081897 253.33918762 -232.30596924 252.29043579 C-232.25629854 237.68136477 -232.00540191 223.34924147 -229 209 C-228.80132324 208.02514648 -228.60264648 207.05029297 -228.39794922 206.04589844 C-218.27732806 157.6640226 -196.3608123 113.67571731 -162 78 C-161.36787598 77.34064453 -160.73575195 76.68128906 -160.08447266 76.00195312 C-150.94002521 66.51369695 -141.64265991 57.7737956 -131 50 C-129.84894983 49.14193848 -128.69790823 48.28386549 -127.546875 47.42578125 C-119.35724019 41.38822604 -110.85461724 36.00542698 -102 31 C-101.29278809 30.5978125 -100.58557617 30.195625 -99.85693359 29.78125 C-70.71428573 13.37368929 -33.93830734 -0.6060412 0 0 Z " fill="#7EBA1B" transform="translate(232,1)"/>
<path d="M0 0 C50.85787507 -1.30271196 105.22521038 26.72077702 143 59 C143.74894531 59.63679688 144.49789062 60.27359375 145.26953125 60.9296875 C158.76520621 72.74702468 171.43558025 85.48551588 182 100 C182.85649066 101.14994831 183.71326433 102.29968589 184.5703125 103.44921875 C190.6109414 111.64089526 195.97005071 120.15645078 201 129 C201.36448242 129.63180176 201.72896484 130.26360352 202.10449219 130.91455078 C223.63481855 168.53086237 233.46259735 211.25265288 233.375 254.3125 C233.37445618 255.32201721 233.37391235 256.33153442 233.37335205 257.37164307 C233.33258601 273.88123539 232.42529309 289.79782001 229 306 C228.78037598 307.04188477 228.56075195 308.08376953 228.33447266 309.15722656 C224.02542902 328.91234665 217.43178488 347.64997576 209 366 C207.38033587 363.57050381 206.43906799 361.77778827 205.44140625 359.10546875 C196.68205882 336.15844591 185.55038702 314.03808616 171.11254883 294.10351562 C169.14492378 290.38329237 169.90723002 286.91348249 171 283 C171.47566406 281.63101563 171.47566406 281.63101563 171.9609375 280.234375 C176.26632141 266.83265365 176.30613431 252.9869391 175.80126953 239.05249023 C175.62549556 231.73999525 176.13330991 227.24393409 180 221 C183.20898173 211.3730548 180.45446107 199.96629016 178.75 190.25 C178.40130611 188.21017163 178.05540086 186.16988207 177.70959473 184.12956238 C177.47648355 182.75629665 177.24203121 181.3832579 177.00622559 180.01045227 C176.25415723 175.60787814 175.57906397 171.20003214 174.953125 166.77734375 C174.79102539 165.66133789 174.62892578 164.54533203 174.46191406 163.39550781 C174.16454382 161.33026206 173.87907842 159.26324904 173.60839844 157.19433594 C172.27864433 148.22543761 169.31073086 139.80690027 161.85546875 134.1796875 C156.05553759 130.49215232 150.95549706 129.8009793 144.21875 129.42578125 C143.52362305 129.3834436 142.82849609 129.34110596 142.11230469 129.29748535 C140.40844278 129.19428753 138.70424926 129.09659011 137 129 C136.53215088 127.9076001 136.06430176 126.8152002 135.58227539 125.68969727 C133.80580227 121.54708368 132.01978833 117.40863618 130.23120117 113.27124023 C129.46566606 111.4969323 128.70255267 109.72157707 127.94213867 107.94506836 C123.98548876 98.70591164 119.93190545 89.56420382 115.23828125 80.671875 C114.88500259 80.00172867 114.53172394 79.33158234 114.16773987 78.64112854 C107.75149803 66.74423908 99.34559916 56.68322918 90 47 C89.21109375 46.14792969 88.4221875 45.29585937 87.609375 44.41796875 C65.15599002 20.81217494 32.05537157 5.28220613 0 1 C0 0.67 0 0.34 0 0 Z " fill="#7EBA1B" transform="translate(279,1)"/>
<path d="M0 0 C1.42404648 -0.00101212 1.42404648 -0.00101212 2.87686157 -0.00204468 C30.37616046 0.02885958 58.45565108 1.92269118 84.5625 11.25 C84.15619504 20.59501416 78.52584483 28.13310038 71.9140625 34.42578125 C63.52771694 40.93146792 55.27110233 43.38127835 44.88183594 43.47460938 C43.56887291 43.49169449 43.56887291 43.49169449 42.22938538 43.50912476 C33.0936299 43.61957525 23.95708284 43.66716239 14.82080078 43.70996094 C10.48869281 43.73224737 6.15744475 43.77403895 1.82568359 43.83300781 C-3.41155265 43.90415463 -8.64797885 43.94080073 -13.88567352 43.95307922 C-15.87757991 43.96346699 -17.86946241 43.9858607 -19.86109161 44.02067566 C-37.40366112 44.31151328 -37.40366112 44.31151328 -42.55810547 39.85375977 C-43.55774999 38.6854564 -44.52429657 37.48704544 -45.4375 36.25 C-46.30117187 35.46496094 -47.16484375 34.67992187 -48.0546875 33.87109375 C-52.88527475 29.19929743 -57.08362261 24.31866535 -61 18.875 C-61.42974121 18.28001709 -61.85948242 17.68503418 -62.30224609 17.07202148 C-64.34152315 14.152317 -65.70841907 11.72311056 -66.4375 8.25 C-59.39419999 5.66868586 -52.53146804 4.24787266 -45.125 3.125 C-44.07376953 2.95613281 -43.02253906 2.78726562 -41.93945312 2.61328125 C-27.94596095 0.42867952 -14.13485298 0.00905009 0 0 Z " fill="#7F9B9F" transform="translate(254.4375,339.75)"/>
<path d="M0 0 C1.06669922 0.00322266 2.13339844 0.00644531 3.23242188 0.00976562 C4.88661133 0.02233398 4.88661133 0.02233398 6.57421875 0.03515625 C7.69634766 0.03966797 8.81847656 0.04417969 9.97460938 0.04882812 C12.73703385 0.06058312 15.49934873 0.07701548 18.26171875 0.09765625 C18.26171875 0.42765625 18.26171875 0.75765625 18.26171875 1.09765625 C14.63171875 1.09765625 11.00171875 1.09765625 7.26171875 1.09765625 C6.86726563 2.35578125 6.4728125 3.61390625 6.06640625 4.91015625 C4.21048697 10.48008986 1.80289083 15.75322786 -0.61328125 21.09765625 C-12.7184923 48.50104707 -14.68633017 75.36951741 -11.73828125 105.09765625 C-24.76970102 103.40125841 -35.17109487 95.14158841 -43.11328125 85.03515625 C-51.8134675 72.58531227 -54.23530469 59.06443329 -52.73828125 44.09765625 C-49.95213392 30.10395583 -41.05432344 17.14553728 -29.55078125 8.78515625 C-20.82802125 3.36996838 -10.27545882 -0.05494898 0 0 Z " fill="#6E8B8D" transform="translate(170.73828125,170.90234375)"/>
<path d="M0 0 C7.16475161 5.07326593 12.5230042 14.36525535 14 23 C14.90516678 35.47943053 13.07762174 45.59978181 5.78515625 55.98828125 C1.95588478 60.30354341 -3.88878218 64.73118373 -9.7578125 65.23828125 C-19.16966461 65.44573507 -24.70938057 64.19565208 -31.6875 57.875 C-40.45847453 48.56211171 -41.56238151 37.77982866 -41.34375 25.6015625 C-40.92871323 17.17977469 -37.46663795 9.58489644 -31.67578125 3.46484375 C-21.88149445 -5.09659576 -11.47324878 -6.29057012 0 0 Z " fill="#F3E7DA" transform="translate(333,192)"/>
<path d="M0 0 C7.16620885 5.07429779 12.52009284 14.36449777 14 23 C14.92591942 35.62893368 13.56319871 47.09571802 5.03125 57.01953125 C-0.58467948 62.49506249 -5.68759677 65.34020891 -13.625 65.625 C-22.06460299 65.17924632 -27.62236367 62.23519561 -33.39453125 56.1328125 C-41.18270659 45.78647738 -42.26381432 33.49378512 -41 21 C-38.74546436 12.03044655 -34.26440558 5.28714597 -27 -0.3125 C-17.59643122 -5.60200744 -9.29811368 -5.09798377 0 0 Z " fill="#FBF6EE" transform="translate(207,192)"/>
<path d="M0 0 C10.94243848 -0.42787473 18.7692488 -0.12975304 27.75 6.625 C34.73474911 13.2261498 36.7957849 21.98321253 38 31.1875 C38.31631471 33.3843157 38.63409503 35.58092073 38.953125 37.77734375 C39.11748047 38.93862793 39.28183594 40.09991211 39.45117188 41.29638672 C40.03410459 45.23014527 40.68620105 49.14734366 41.359375 53.06640625 C41.59262355 54.44048127 41.82569682 55.81458605 42.05859375 57.1887207 C42.50612865 59.82817739 42.96320352 62.46536792 43.42578125 65.10229492 C46.987073 86.46584577 46.987073 86.46584577 42.0234375 95.98828125 C40.54342403 98.89746804 39.80539436 101.84553874 39 105 C38.67 105 38.34 105 38 105 C37.85304688 103.82566406 37.70609375 102.65132813 37.5546875 101.44140625 C37.32905539 99.81497482 37.10243775 98.18867991 36.875 96.5625 C36.73578125 95.4168457 36.73578125 95.4168457 36.59375 94.24804688 C34.15485574 77.37902823 25.87871202 61.31220669 19.1875 45.8125 C17.47000609 41.82014536 15.75570598 37.82642864 14.04296875 33.83203125 C13.62594696 32.86049103 13.20892517 31.88895081 12.77926636 30.88796997 C8.39491985 20.64301194 4.18108548 10.32929445 0 0 Z " fill="#6E8C8C" transform="translate(416,130)"/>
<path d="M0 0 C-2.2260898 7.01907143 -4.90836304 13.73630024 -7.8125 20.5 C-8.28389404 21.60786865 -8.75528809 22.7157373 -9.2409668 23.85717773 C-11.41340773 28.96088502 -13.59574408 34.06028973 -15.78515625 39.15673828 C-24.37181865 59.1474209 -32.75771575 78.81500423 -38 100 C-42.17361512 96.14203644 -43.81529783 91.74468362 -44.19189453 86.1484375 C-44.20031786 78.38934959 -43.48257157 71.0183702 -42.1875 63.375 C-42.00590332 62.25270996 -41.82430664 61.13041992 -41.63720703 59.97412109 C-41.2707548 57.71191508 -40.90039151 55.4503387 -40.52587891 53.18945312 C-39.91206938 49.46670122 -39.32689335 45.74000081 -38.74780273 42.01171875 C-38.38658893 39.69919343 -38.0144592 37.38863863 -37.640625 35.078125 C-37.23418631 32.54786793 -36.87464144 30.02739051 -36.546875 27.484375 C-35.20868439 17.62141461 -31.88773206 10.71601205 -24.01171875 4.44140625 C-16.41352421 -1.00273702 -8.97521998 -0.31188023 0 0 Z " fill="#6E8C8C" transform="translate(96,130)"/>
<path d="M0 0 C5.82751207 2.97765419 8.8957706 7.52756342 11.34375 13.47265625 C13.16665518 23.58149408 12.42456922 31.37704052 6.8984375 40.06640625 C3.55570395 44.58241714 -0.43557249 46.7206841 -5.94921875 47.6015625 C-11.04725187 47.90724727 -15.02138309 46.58541383 -18.96875 43.28515625 C-25.57351893 36.28561953 -27.58992016 29.0277527 -27.41015625 19.48828125 C-26.52707444 13.08007699 -23.74788611 7.02911342 -19.1171875 2.45703125 C-12.92844104 -2.12527464 -7.12916126 -2.58856451 0 0 Z " fill="#526666" transform="translate(197.96875,199.71484375)"/>
<path d="M0 0 C5.50171565 2.44520696 8.84123557 6.98919127 12 12 C14.25586106 18.76758317 14.12447521 28.97702658 11.75 35.6875 C8.69571804 41.46881943 5.34202785 45.74960302 -1 48 C-5.92880856 48.7732996 -9.72942033 48.61085561 -14.25 46.4375 C-20.6802532 40.73795739 -24.49993911 36.0795659 -25.37109375 27.23046875 C-25.61304536 19.2096746 -25.42655251 12.38500854 -20 6 C-13.80651419 -0.2540578 -8.58027394 -0.77695394 0 0 Z " fill="#526666" transform="translate(328,199)"/>
<path d="M0 0 C0.7425 -0.020625 1.485 -0.04125 2.25 -0.0625 C7.12962011 -0.09698495 10.37487622 0.60490786 14.625 3.25 C16.625 5.25 16.625 5.25 16.75 7.9375 C14.67782693 14.03889848 10.2013468 16.92005703 4.61328125 19.8046875 C-5.04933216 23.77746932 -17.13326226 25.61207016 -27.28515625 22.30078125 C-29.59405752 21.13985706 -30.96787557 20.43886023 -32.375 18.25 C-32.51337321 15.13660284 -32.10976367 13.18558333 -30.16015625 10.703125 C-22.02479688 2.98547356 -10.89927907 0.07490913 0 0 Z " fill="#516666" transform="translate(308.375,160.75)"/>
<path d="M0 0 C0.73710205 0.00354492 1.4742041 0.00708984 2.23364258 0.01074219 C12.89349653 0.32550839 24.24941929 3.68691929 31.9375 11.375 C33.48758131 14.30293137 33.5481736 16.23904867 33.0625 19.5 C28.6260421 23.9364579 23.42638151 23.72955591 17.5 23.75 C6.1718268 23.73429136 -2.71159713 21.42365922 -11.9375 14.5 C-14.52696215 11.63796288 -14.92990135 10.93312297 -15 6.9375 C-13.9375 3.5 -13.9375 3.5 -11.3671875 1.81640625 C-7.49224608 0.32909958 -4.09618003 -0.03574574 0 0 Z " fill="#516666" transform="translate(202.9375,160.5)"/>
<path d="M0 0 C0.68289194 1.66008458 1.3469656 3.32794489 2 5 C7.84608286 14.63551052 17.70167187 28.85083593 28 34 C30.74528831 34.12258264 33.46686032 34.18571787 36.21337891 34.20532227 C37.0622316 34.21522186 37.91108429 34.22512146 38.78565979 34.23532104 C41.59926538 34.26697917 44.41288788 34.29171049 47.2265625 34.31640625 C49.17427008 34.33697206 51.12197316 34.35796843 53.06967163 34.37937927 C58.2021521 34.43463852 63.33467311 34.48403079 68.46722412 34.53222656 C73.70214455 34.58241348 78.93700594 34.63811419 84.171875 34.69335938 C94.44786626 34.80098806 104.72390873 34.90242256 115 35 C115 35.33 115 35.66 115 36 C102.56008383 36.09296577 90.12025126 36.16389959 77.68005753 36.20724869 C71.90262774 36.22806141 66.12543686 36.25626329 60.34814453 36.30175781 C54.76546655 36.34544121 49.18301738 36.36918453 43.60018158 36.37950897 C41.47767286 36.3868601 39.35517566 36.40121447 37.2327652 36.42292023 C20.96664025 36.58255182 7.32583565 35.57758669 -5.15625 24 C-10.49858003 18.41846116 -16 11.02211531 -16 3 C-14.41701974 2.5196682 -12.83360022 2.04078388 -11.25 1.5625 C-10.36828125 1.29566406 -9.4865625 1.02882813 -8.578125 0.75390625 C-7.30195313 0.38072266 -7.30195313 0.38072266 -6 0 C-4.90945312 -0.32677734 -4.90945312 -0.32677734 -3.796875 -0.66015625 C-2 -1 -2 -1 0 0 Z " fill="#6E8C8E" transform="translate(189,348)"/>
<path d="M0 0 C-0.763125 0.5775 -1.52625 1.155 -2.3125 1.75 C-4.67398081 3.7270537 -6.21461673 5.53447072 -8 8 C-10.25558738 9.12779369 -11.74650832 9.16348264 -14.25 9.3125 C-18.89434855 9.84752895 -21.52057197 10.67521322 -25 14 C-30.22946258 21.72998721 -32.28148202 28.73488501 -31 38 C-29.74412725 44.19373608 -27.52025127 48.58487085 -23 53 C-18.39366476 55.96852716 -14.34728839 56.53902686 -9 57 C-8.67 57.99 -8.34 58.98 -8 60 C-6.11683841 61.10836423 -6.11683841 61.10836423 -4 62 C-3.01 62.66 -2.02 63.32 -1 64 C-1 64.66 -1 65.32 -1 66 C-5.86771407 68.43385704 -13.2507167 67.74572063 -18.390625 66.3515625 C-27.78818421 62.02276554 -32.50411776 54.43310373 -36 45 C-38.86537824 34.87437286 -38.10166211 22.88398367 -33.48828125 13.48828125 C-29.37264458 6.60728241 -24.57841674 1.99061598 -17.125 -1.25 C-10.96259208 -2.7289779 -5.92570586 -2.37028234 0 0 Z " fill="#F3E7DA" transform="translate(203,190)"/>
<path d="M0 0 C2.87801034 0.22927546 5.75048838 0.48260357 8.625 0.75 C9.43324219 0.811875 10.24148437 0.87375 11.07421875 0.9375 C17.75038822 1.58883361 21.84008847 3.55588958 26.375 8.6875 C28.88068211 13.79523661 28.8136214 18.31023817 27.16601562 23.75708008 C26.02996897 26.72406871 24.81996987 29.64494091 23.5625 32.5625 C20.77788034 39.10827517 18.46690514 44.86059593 18 52 C17.01 52 16.02 52 15 52 C15.20447754 51.12778809 15.40895508 50.25557617 15.61962891 49.35693359 C16.04673484 45.58754556 15.51344018 43.7672446 14.0859375 40.2890625 C13.44192993 38.6795874 13.44192993 38.6795874 12.78491211 37.03759766 C12.31964111 35.91144043 11.85437012 34.7852832 11.375 33.625 C10.44282401 31.29317843 9.51442592 28.95984298 8.58984375 26.625 C7.91671143 24.92730469 7.91671143 24.92730469 7.22998047 23.1953125 C4.31801677 15.63044929 1.94139844 7.8693892 0 0 Z " fill="#617F7F" transform="translate(159,276)"/>
<path d="M0 0 C3.0735547 1.70540923 5.40579136 3.81158271 7 7 C7.59933547 12.99335472 6.42315229 17.15448527 3 22 C-1.8582373 27.07329006 -5.69423936 30.09126174 -12.875 30.375 C-16.89466799 30.35152749 -17.74040163 30.20132118 -21.0625 27.625 C-24.12556171 23.47504543 -24.41933825 21.19979431 -24 16 C-21.95555811 9.35881935 -17.58541295 4.95681205 -12 1 C-7.93127256 -0.35624248 -4.24978036 -0.66606438 0 0 Z " fill="#394A49" transform="translate(293,263)"/>
<path d="M0 0 C5.72753462 2.4405061 10.17291616 6.33169035 13.1875 11.78515625 C14.68499635 15.86727371 14.81133055 19.74599657 14 24 C12.20353146 26.93423195 11.0558929 28.47205355 8 30 C2.43322317 30.8313334 -1.97413673 30.49556384 -6.8125 27.5 C-11.79073267 23.72219223 -15.36189225 19.73179085 -16.4375 13.44140625 C-16.6430378 9.11868935 -16.4153574 6.67841709 -14.125 2.9375 C-9.90363413 -0.91139241 -5.49248984 -0.80818065 0 0 Z " fill="#394A49" transform="translate(229,263)"/>
<path d="M0 0 C-1.0572129 2.76501836 -2.19330281 5.3711414 -3.5625 8 C-7.65865114 16.54848933 -7.42641975 29.24023872 -5.17578125 38.328125 C-4.23794417 40.65702897 -3.2259644 42.81205624 -2 45 C-1.33056469 46.33194542 -0.66308004 47.66487938 0 49 C-5.64928418 49.46116606 -9.61233919 48.59264887 -14 45 C-20.61058455 38.01036817 -22.62103303 30.73531964 -22.44140625 21.203125 C-21.55832444 14.79492074 -18.77913611 8.74395717 -14.1484375 4.171875 C-9.44380405 0.68844428 -5.72668611 -0.12725969 0 0 Z " fill="#3B4C4B" transform="translate(193,198)"/>
<path d="M0 0 C7.0522036 2.3055281 10.36524005 7.87085254 13.625 14.25 C18.22552274 23.83237223 19.09482128 34.75839774 15.625 44.9375 C12.22975768 52.943124 8.10137092 59.92268624 0.25 64.0625 C-4.26462774 63.41755318 -6.78565899 60.36562283 -9.75 57.0625 C-9.75 56.7325 -9.75 56.4025 -9.75 56.0625 C-9.15832031 55.95292969 -8.56664062 55.84335938 -7.95703125 55.73046875 C-0.20293908 54.25961971 -0.20293908 54.25961971 5.625 49.23046875 C11.04491982 40.93121653 10.93113761 32.72314183 10.25 23.0625 C8.95525539 18.03889092 6.27047622 14.26819835 2.109375 11.09375 C-1.58861494 9.04276398 -5.66301431 8.05597676 -9.75 7.0625 C-4.43715764 0.10084449 -4.43715764 0.10084449 0 0 Z " fill="#F8F3EC" transform="translate(329.75,190.9375)"/>
<path d="M0 0 C0.99 0.33 1.98 0.66 3 1 C2.66226562 1.54527344 2.32453125 2.09054688 1.9765625 2.65234375 C-3.5268014 11.95716422 -5.8128288 21.67172509 -3.171875 32.34765625 C-1.66690335 37.32866318 0.02462212 42.18612869 2 47 C-1.86765375 46.88279837 -3.89264485 45.49001862 -6.625 42.9375 C-13.18922082 35.81553492 -13.76501036 28.17862596 -13.4140625 18.859375 C-12.67690017 11.9884657 -9.96199135 7.49157108 -4.8125 3 C-2 1 -2 1 0 0 Z " fill="#3B4C4B" transform="translate(316,199)"/>
</svg>
