<?xml version="1.0" encoding="UTF-8"?>
<svg version="1.1" xmlns="http://www.w3.org/2000/svg" width="512" height="512">
<path d="M0 0 C1.45108658 0.00273422 1.45108658 0.00273422 2.93148804 0.00552368 C17.26440977 0.05095174 31.21023917 0.55983928 45.3125 3.3125 C46.65803955 3.55395752 46.65803955 3.55395752 48.03076172 3.80029297 C107.84088904 14.62287989 165.35495829 48.68064457 202.3125 97.3125 C202.72918945 97.85277832 203.14587891 98.39305664 203.57519531 98.94970703 C211.2584873 108.9447116 218.00092968 119.40459036 224.3125 130.3125 C224.70679199 130.98974121 225.10108398 131.66698242 225.50732422 132.36474609 C238.68961173 155.2833756 247.29510918 180.85822563 252.625 206.6875 C252.77243652 207.39817627 252.91987305 208.10885254 253.07177734 208.84106445 C256.05713787 224.48358366 256.6873098 240.11919606 256.625 256 C256.62226578 257.45108658 256.62226578 257.45108658 256.61947632 258.93148804 C256.57404826 273.26440977 256.06516072 287.21023917 253.3125 301.3125 C253.15152832 302.20952637 252.99055664 303.10655273 252.82470703 304.03076172 C244.93444853 347.63561969 225.24485057 388.77240471 196.3125 422.3125 C195.67828125 423.05757813 195.0440625 423.80265625 194.390625 424.5703125 C182.57948485 438.07529833 169.82889772 450.74668743 155.3125 461.3125 C154.16255169 462.16899066 153.01281411 463.02576433 151.86328125 463.8828125 C143.67160474 469.9234414 135.15604922 475.28255071 126.3125 480.3125 C125.68069824 480.67698242 125.04889648 481.04146484 124.39794922 481.41699219 C101.37828699 494.59268166 75.85904551 503.27606895 49.9375 508.625 C49.22682373 508.77243652 48.51614746 508.91987305 47.78393555 509.07177734 C32.14141634 512.05713787 16.50580394 512.6873098 0.625 512.625 C-0.34239105 512.62317719 -1.3097821 512.62135437 -2.30648804 512.61947632 C-16.63940977 512.57404826 -30.58523917 512.06516072 -44.6875 509.3125 C-45.58452637 509.15152832 -46.48155273 508.99055664 -47.40576172 508.82470703 C-91.00688156 500.93512494 -132.15276903 481.2475709 -165.6875 452.3125 C-166.82251953 451.34376953 -166.82251953 451.34376953 -167.98046875 450.35546875 C-180.1286432 439.71309817 -191.95381337 428.22416267 -201.6875 415.3125 C-202.10128906 414.77512207 -202.51507813 414.23774414 -202.94140625 413.68408203 C-210.62826589 403.6861221 -217.37363145 393.22438153 -223.6875 382.3125 C-224.08179199 381.63525879 -224.47608398 380.95801758 -224.88232422 380.26025391 C-238.06461173 357.3416244 -246.67010918 331.76677437 -252 305.9375 C-252.14743652 305.22682373 -252.29487305 304.51614746 -252.44677734 303.78393555 C-255.43213787 288.14141634 -256.0623098 272.50580394 -256 256.625 C-255.99817719 255.65760895 -255.99635437 254.6902179 -255.99447632 253.69351196 C-255.94904826 239.36059023 -255.44016072 225.41476083 -252.6875 211.3125 C-252.44604248 209.96696045 -252.44604248 209.96696045 -252.19970703 208.59423828 C-241.37712011 148.78411096 -207.31935543 91.27004171 -158.6875 54.3125 C-158.14722168 53.89581055 -157.60694336 53.47912109 -157.05029297 53.04980469 C-147.0552884 45.3665127 -136.59540964 38.62407032 -125.6875 32.3125 C-125.01025879 31.91820801 -124.33301758 31.52391602 -123.63525391 31.11767578 C-100.7166244 17.93538827 -75.14177437 9.32989082 -49.3125 4 C-48.60182373 3.85256348 -47.89114746 3.70512695 -47.15893555 3.55322266 C-31.51641634 0.56786213 -15.88080394 -0.0623098 0 0 Z " fill="#FECD00" transform="translate(255.6875,-0.3125)"/>
<path d="M0 0 C2.48261051 -1.10338245 4.36344076 -2.2907526 6.5 -4 C12.84392102 -9.07513682 19.0909958 -8.69237074 27 -8 C34.36604034 -6.14380483 39.19557151 -0.37490844 43.171875 5.828125 C45.30139448 11.41309119 44.90730122 18.83670654 43.27734375 24.51953125 C41.26037174 28.79028576 38.51032169 31.87971406 35 35 C36.37664023 39.6664574 38.32408817 43.51477118 40.8125 47.6875 C54.04629352 70.3820988 60.45746697 95.51446635 60.3125 121.75 C60.31034485 122.45476471 60.3081897 123.15952942 60.30596924 123.88565063 C60.2537132 134.54875256 59.71157314 144.64002219 57 155 C56.80664062 155.7930957 56.61328125 156.58619141 56.4140625 157.40332031 C51.73378399 176.43500841 44.38199149 194.00684272 33 210 C32.27683594 211.03898438 31.55367188 212.07796875 30.80859375 213.1484375 C10.43374147 241.07336195 -18.24032177 259.80888374 -51 270 C-52.44052734 270.45052734 -52.44052734 270.45052734 -53.91015625 270.91015625 C-66.55879985 274.61719613 -79.5154885 275.47211359 -92.625 275.5 C-93.75536682 275.50401825 -93.75536682 275.50401825 -94.90856934 275.50811768 C-115.3218967 275.49254974 -135.50353006 271.91602722 -154 263 C-154.97235596 262.54753906 -154.97235596 262.54753906 -155.96435547 262.0859375 C-193.16462968 244.7580938 -222.36343458 214.01902207 -236.98095703 175.61108398 C-242.61652537 159.94014124 -245.55917256 143.63644424 -246 127 C-246.03996094 125.96359375 -246.07992187 124.9271875 -246.12109375 123.859375 C-246.82449538 90.92362796 -236.16680823 60.15539602 -218 33 C-218.66 33 -219.32 33 -220 33 C-221.25390625 31.35546875 -221.25390625 31.35546875 -222.5625 29.1875 C-222.99691406 28.47980469 -223.43132812 27.77210938 -223.87890625 27.04296875 C-227.09964571 21.17381636 -226.62717851 14.4952625 -226 8 C-223.66186751 1.3211193 -218.045244 -3.42655502 -212.20703125 -7.140625 C-206.60355054 -9.32251129 -199.04806487 -8.96159189 -193.375 -7.171875 C-190.53992299 -5.77518265 -188.23621252 -4.23621252 -186 -2 C-182.23767963 -2.32705696 -179.85955261 -3.52392954 -176.8359375 -5.7109375 C-171.95669029 -9.09229417 -166.88606975 -11.88614898 -161.625 -14.625 C-160.75617188 -15.0890625 -159.88734375 -15.553125 -158.9921875 -16.03125 C-109.55095166 -41.92207468 -43.62522468 -34.22030611 0 0 Z " fill="#F1F5FB" transform="translate(347,134)"/>
<path d="M0 0 C0.33 0 0.66 0 1 0 C1.11782333 0.83142517 1.23564667 1.66285034 1.35704041 2.51947021 C2.88020084 13.26350125 4.40741969 24.00695228 5.9375 34.75 C6.06103474 35.6174585 6.18456947 36.48491699 6.31184769 37.37866211 C10.09603519 63.94293381 13.96639701 90.49177254 18.00561523 117.01855469 C19.81208193 128.90003353 21.57180339 140.78777936 23.25390625 152.6875 C23.42905258 153.89954102 23.60419891 155.11158203 23.78465271 156.36035156 C25.98939613 172.16626958 25.98939613 172.16626958 23.9609375 175.92578125 C23.43757813 176.38339844 22.91421875 176.84101563 22.375 177.3125 C21.73433594 177.8796875 21.09367187 178.446875 20.43359375 179.03125 C19.63050781 179.6809375 18.82742188 180.330625 18 181 C16.98035156 181.8353125 15.96070313 182.670625 14.91015625 183.53125 C2.26515593 193.73340421 -10.8757199 202.96652713 -25 211 C-25.63180176 211.36448242 -26.26360352 211.72896484 -26.91455078 212.10449219 C-49.93421301 225.28018166 -75.45345449 233.96356895 -101.375 239.3125 C-102.4410144 239.53365479 -102.4410144 239.53365479 -103.52856445 239.75927734 C-119.17108366 242.74463787 -134.80669606 243.3748098 -150.6875 243.3125 C-151.65489105 243.31067719 -152.6222821 243.30885437 -153.61898804 243.30697632 C-167.95190977 243.26154826 -181.89773917 242.75266072 -196 240 C-196.89702637 239.83902832 -197.79405273 239.67805664 -198.71826172 239.51220703 C-240.94787611 231.87079758 -281.82454283 213.12360615 -314.48046875 185.1328125 C-317.01599079 182.93420704 -317.01599079 182.93420704 -319.92578125 180.8671875 C-320.85777344 180.14789063 -321.78976562 179.42859375 -322.75 178.6875 C-323.59046875 178.07261719 -324.4309375 177.45773437 -325.296875 176.82421875 C-328.17647177 172.04910758 -326.75717155 167.35206676 -326 162 C-325.8185815 160.54259076 -325.64019964 159.0848013 -325.46435547 157.62670898 C-324.96741581 153.55055677 -324.43870074 149.47927659 -323.89819336 145.40869141 C-323.5622753 142.87330404 -323.23302578 140.33710959 -322.90429688 137.80078125 C-321.13287709 124.28385821 -321.13287709 124.28385821 -319.99609375 119.0078125 C-318.29901189 111.10291634 -317.51066153 103.01495878 -316.5 95 C-314.11731003 76.10429529 -314.11731003 76.10429529 -312.48242188 68.52734375 C-311.3455398 62.57137047 -310.73372525 56.51740692 -310 50.5 C-309.04067282 42.63239289 -308.05998918 34.81890922 -306.40625 27.06054688 C-305.70046673 23.48073268 -305.55026659 19.88469195 -305.34375 16.25 C-305 14 -305 14 -303 12 C-302.70609375 13.81757813 -302.70609375 13.81757813 -302.40625 15.671875 C-295.91339525 53.06514119 -274.37338006 88.19887682 -243.20800781 110.1862793 C-226.96033306 121.40844846 -210.17790382 129.99613484 -191 135 C-190.35981934 135.18191895 -189.71963867 135.36383789 -189.06005859 135.55126953 C-177.21083108 138.84256705 -165.53211588 139.39920112 -153.3125 139.4375 C-152.21708893 139.44662415 -152.21708893 139.44662415 -151.09954834 139.45593262 C-118.19812737 139.63511112 -87.31010724 128.43006606 -61 109 C-60.17371094 108.39929688 -59.34742188 107.79859375 -58.49609375 107.1796875 C-44.56997721 96.58023801 -33.34103827 83.72639772 -24 69 C-23.58524414 68.34950684 -23.17048828 67.69901367 -22.74316406 67.02880859 C-9.89366609 46.50400222 -4.14223081 23.5981634 0 0 Z " fill="#343940" transform="translate(407,269)"/>
<path d="M0 0 C0 59.4 0 118.8 0 180 C-5.28 180.33 -10.56 180.66 -16 181 C-21.36874865 182.8611662 -25.05944335 184.96460227 -28.15625 189.80859375 C-30.36030876 195.53302414 -29.74533504 201.80322305 -27.8125 207.5 C-21.33531916 216.43404254 -9.96871696 218.67709435 0 222 C0 249.39 0 276.78 0 305 C-23.24988518 305 -23.24988518 305 -34.3125 302.375 C-35.51036133 302.10284668 -36.70822266 301.83069336 -37.94238281 301.55029297 C-46.72597255 299.47914209 -54.85174624 296.92777933 -63 293 C-63.97235596 292.54753906 -63.97235596 292.54753906 -64.96435547 292.0859375 C-102.16462968 274.7580938 -131.36343458 244.01902207 -145.98095703 205.61108398 C-151.61652537 189.94014124 -154.55917256 173.63644424 -155 157 C-155.03996094 155.96359375 -155.07992187 154.9271875 -155.12109375 153.859375 C-155.82449538 120.92362796 -145.16680823 90.15539602 -127 63 C-127.66 63 -128.32 63 -129 63 C-130.25390625 61.35546875 -130.25390625 61.35546875 -131.5625 59.1875 C-131.99691406 58.47980469 -132.43132812 57.77210938 -132.87890625 57.04296875 C-136.09964571 51.17381636 -135.62717851 44.4952625 -135 38 C-132.66186751 31.3211193 -127.045244 26.57344498 -121.20703125 22.859375 C-115.60355054 20.67748871 -108.04806487 21.03840811 -102.375 22.828125 C-99.53992299 24.22481735 -97.23621252 25.76378748 -95 28 C-91.23767963 27.67294304 -88.85955261 26.47607046 -85.8359375 24.2890625 C-80.95669029 20.90770583 -75.88606975 18.11385102 -70.625 15.375 C-69.75617188 14.9109375 -68.88734375 14.446875 -67.9921875 13.96875 C-57.15529218 8.29380778 -45.84635701 4.85423953 -34 2 C-33.05898437 1.77054687 -32.11796875 1.54109375 -31.1484375 1.3046875 C-20.64836872 -0.84374156 -11.07772312 0 0 0 Z " fill="#FEFEFE" transform="translate(256,104)"/>
<path d="M0 0 C4.86565162 3.42988557 8.301275 7.37659375 12 12 C13.15464833 13.03738515 14.32807558 14.05400103 15.51271057 15.05700684 C20.48184088 19.36172662 25.13381874 23.95609161 29.79663086 28.58789062 C30.75168241 29.53337883 31.70689755 30.47870183 32.66226196 31.4238739 C35.76693601 34.49749893 38.86636157 37.57638468 41.96484375 40.65625 C42.49397346 41.18208239 43.02310317 41.70791477 43.56826711 42.24968147 C48.56410669 47.21479689 53.55792357 52.18193845 58.54692745 57.15392303 C64.90662392 63.4916575 71.27621526 69.81907767 77.65949911 76.13305712 C82.1618436 80.58817609 86.65265208 85.05471763 91.13507754 89.52987623 C93.80760082 92.19744898 96.48492564 94.85974395 99.17478752 97.50984192 C101.70049701 99.99868853 104.21160786 102.50138509 106.71229935 105.01535988 C108.06772897 106.37070991 109.43801143 107.71115532 110.80870056 109.05107117 C116.74135053 115.05506979 116.74135053 115.05506979 118.04560852 119.81994629 C118.03055771 120.86936401 118.0155069 121.91878174 118 123 C118.04634583 123.77794922 118.09269165 124.55589844 118.14044189 125.35742188 C118.1472699 126.05416016 118.1540979 126.75089844 118.16113281 127.46875 C118.17532509 128.67920235 118.17532509 128.67920235 118.18980408 129.91410828 C118.19639793 131.19412468 118.19639793 131.19412468 118.203125 132.5 C118.21013931 133.40478592 118.21715363 134.30957184 118.22438049 135.24177551 C118.24186359 138.16123437 118.24823678 141.08049064 118.25 144 C118.25067474 144.9948642 118.25134949 145.98972839 118.25204468 147.01473999 C118.23633186 161.56172083 117.79410281 175.68542564 115 190 C114.83902832 190.89702637 114.67805664 191.79405273 114.51220703 192.71826172 C104.98667672 245.3603135 78.1383676 294.5019191 39 331 C38.67 331 38.34 331 38 331 C37.8548999 329.97763748 37.7097998 328.95527496 37.56030273 327.90193176 C35.71055921 314.87159552 33.85664219 301.84185502 32 288.8125 C31.85185474 287.77276787 31.70370949 286.73303574 31.55107498 285.66179657 C27.93682207 260.30220696 24.29710361 234.94855549 20.4375 209.625 C20.11886941 207.52452423 19.80042425 205.42402032 19.48217773 203.32348633 C17.90638193 192.91490382 17.90638193 192.91490382 16.30175781 182.51074219 C14.0390751 167.96834033 12.68383674 153.77684854 12.35498047 139.05615234 C12.12066559 129.75141872 11.13801411 121.04838114 9 112 C8.71125 110.73671875 8.4225 109.4734375 8.125 108.171875 C4.09659107 91.85681883 -2.76642457 76.31604396 -11.8203125 62.15234375 C-12.20960938 61.44207031 -12.59890625 60.73179687 -13 60 C-12.1875 57.6875 -12.1875 57.6875 -11 56 C-10.34 56 -9.68 56 -9 56 C-8.31225595 54.67741528 -7.65288627 53.34013497 -7 52 C-6.46375 51.05125 -5.9275 50.1025 -5.375 49.125 C-2.76980318 42.90744263 -2.61517381 34.79939492 -4.9140625 28.4921875 C-8.42204213 22.53993818 -13.39240446 18.15854405 -20 16 C-27.5557516 15.14241768 -34.17344906 14.97950895 -40.44921875 19.61328125 C-42.02590826 21.02316733 -43.52695272 22.48244978 -45 24 C-49.55564061 22.41467191 -53.31475769 20.00996919 -57.3125 17.375 C-57.95767578 16.95476562 -58.60285156 16.53453125 -59.26757812 16.1015625 C-60.84760724 15.07161759 -62.42416047 14.03634372 -64 13 C-62.23349983 9.20202463 -60.08096054 6.87089505 -57 4 C-56.195625 3.195625 -55.39125 2.39125 -54.5625 1.5625 C-38.37487587 -11.20864065 -17.04038472 -10.22423083 0 0 Z " fill="#FEA300" transform="translate(394,111)"/>
<path d="M0 0 C0.33 0 0.66 0 1 0 C1.29390625 1.81757813 1.29390625 1.81757813 1.59375 3.671875 C8.08660475 41.06514119 29.62661994 76.19887682 60.79199219 98.1862793 C89.54696244 118.04716065 120.09975248 127.41933036 155 128 C154.34 128.33 153.68 128.66 153 129 C153 162.66 153 196.32 153 231 C127.43912127 231 127.43912127 231 119.5625 229.8125 C118.62116211 229.6779541 117.67982422 229.5434082 116.70996094 229.40478516 C70.20868316 222.44735386 25.4046059 203.89144791 -10.48046875 173.1328125 C-13.01599079 170.93420704 -13.01599079 170.93420704 -15.92578125 168.8671875 C-16.85777344 168.14789063 -17.78976563 167.42859375 -18.75 166.6875 C-19.59046875 166.07261719 -20.4309375 165.45773437 -21.296875 164.82421875 C-24.17647177 160.04910758 -22.75717155 155.35206676 -22 150 C-21.8185815 148.54259076 -21.64019964 147.0848013 -21.46435547 145.62670898 C-20.96741581 141.55055677 -20.43870074 137.47927659 -19.89819336 133.40869141 C-19.5622753 130.87330404 -19.23302578 128.33710959 -18.90429688 125.80078125 C-17.13287709 112.28385821 -17.13287709 112.28385821 -15.99609375 107.0078125 C-14.29901189 99.10291634 -13.51066153 91.01495878 -12.5 83 C-10.11731003 64.10429529 -10.11731003 64.10429529 -8.48242188 56.52734375 C-7.3455398 50.57137047 -6.73372525 44.51740692 -6 38.5 C-5.04076661 30.63316211 -4.06267819 22.81848401 -2.41064453 15.06054688 C-1.87698265 12.38271912 -1.62346872 9.72226557 -1.4375 7 C-1.1039604 2.20792079 -1.1039604 2.20792079 0 0 Z " fill="#555A65" transform="translate(103,281)"/>
<path d="M0 0 C8.74671338 6.08120036 15.35819838 14.05272313 18.140625 24.48828125 C18.55594842 27.62677018 18.61827935 30.70032963 18.578125 33.86328125 C18.57055176 34.69964111 18.56297852 35.53600098 18.55517578 36.39770508 C18.25427753 47.68138934 13.87630533 55.57645718 6.10546875 63.5859375 C-5.37852641 74.42180595 -17.61908243 77.10722475 -32.9609375 76.80078125 C-38.84169061 76.53276364 -43.65034335 75.24248189 -48.859375 72.48828125 C-50.14521484 71.83472656 -50.14521484 71.83472656 -51.45703125 71.16796875 C-62.93299729 64.83282007 -69.16376664 56.41703551 -73.70703125 44.2109375 C-76.86079946 32.99521875 -74.25516244 22.43666291 -68.8046875 12.55078125 C-66.2226591 8.48590119 -63.6857801 5.40506942 -59.859375 2.48828125 C-59.06917969 1.885 -58.27898437 1.28171875 -57.46484375 0.66015625 C-39.67264985 -11.73967435 -18.06802259 -11.74421469 0 0 Z " fill="#7E8596" transform="translate(195.859375,207.51171875)"/>
<path d="M0 0 C14.36534476 0.28222681 26.69547056 5.80104811 37.07421875 15.55078125 C43.87862348 23.5335379 47.78721289 33.37504443 47.5859375 43.921875 C46.50054469 55.90139569 41.55557836 66.07934338 32.8515625 74.36328125 C19.93257322 84.20535037 6.15961545 86.56565872 -9.625 85.25 C-13.65762542 84.43514113 -16.9974514 83.1680142 -20.625 81.25 C-21.91083984 80.59644531 -21.91083984 80.59644531 -23.22265625 79.9296875 C-33.11593238 74.46824095 -39.25486723 67.63329996 -43.625 57.25 C-44.17414063 56.14978516 -44.17414063 56.14978516 -44.734375 55.02734375 C-46.02024767 51.01745133 -46.00814571 47.18811858 -46 43 C-45.99838867 42.14897705 -45.99677734 41.2979541 -45.99511719 40.42114258 C-45.87445819 34.26221043 -45.0886205 29.46328446 -41.625 24.25 C-40.6659375 22.6721875 -40.6659375 22.6721875 -39.6875 21.0625 C-39.006875 20.134375 -38.32625 19.20625 -37.625 18.25 C-36.944375 17.280625 -36.26375 16.31125 -35.5625 15.3125 C-28.93726012 7.56950492 -17.53797758 1.94797337 -7.5 0.5 C-4.99964884 0.33868702 -2.49961207 0.17238704 0 0 Z " fill="#707789" transform="translate(343.625,198.75)"/>
<path d="M0 0 C6.22476623 4.16573176 10.36012359 9.50974149 14 16 C14.73283203 17.23943359 14.73283203 17.23943359 15.48046875 18.50390625 C18.88199487 25.20214956 19.46015426 31.36439991 19.5 38.75 C19.50942627 40.0807959 19.50942627 40.0807959 19.51904297 41.43847656 C19.28884281 53.37759545 13.55282864 64.71444726 5 73 C2.73008213 74.80769669 0.42620746 76.39870308 -2 78 C-4.74253268 74.51741882 -7.05468901 70.80682065 -9.3125 67 C-9.69728516 66.38382812 -10.08207031 65.76765625 -10.47851562 65.1328125 C-11.55078125 63.3125 -11.55078125 63.3125 -13 60 C-12.23046875 57.5625 -12.23046875 57.5625 -11 56 C-10.34 56 -9.68 56 -9 56 C-8.31225595 54.67741528 -7.65288627 53.34013497 -7 52 C-6.46375 51.05125 -5.9275 50.1025 -5.375 49.125 C-2.76980318 42.90744263 -2.61517381 34.79939492 -4.9140625 28.4921875 C-8.42204213 22.53993818 -13.39240446 18.15854405 -20 16 C-27.5557516 15.14241768 -34.17344906 14.97950895 -40.44921875 19.61328125 C-42.02590826 21.02316733 -43.52695272 22.48244978 -45 24 C-49.55564061 22.41467191 -53.31475769 20.00996919 -57.3125 17.375 C-57.95767578 16.95476562 -58.60285156 16.53453125 -59.26757812 16.1015625 C-60.84760724 15.07161759 -62.42416047 14.03634372 -64 13 C-62.23349983 9.20202463 -60.08096054 6.87089505 -57 4 C-56.195625 3.195625 -55.39125 2.39125 -54.5625 1.5625 C-38.34584765 -11.23154231 -17.07294827 -10.18772646 0 0 Z " fill="#353A40" transform="translate(394,111)"/>
<path d="M0 0 C4.48096513 3.13472452 7.74244792 5.96982329 10 11 C9.02417969 11.62648438 8.04835938 12.25296875 7.04296875 12.8984375 C5.75780386 13.72394488 4.47264808 14.54946645 3.1875 15.375 C2.54490234 15.7875 1.90230469 16.2 1.24023438 16.625 C-1.51957989 18.39814492 -4.27052708 20.18035138 -7 22 C-10.96662438 21.7264397 -13.80479954 19.17545563 -17 17 C-22.98775783 15.00408072 -30.55047896 14.76116272 -36.5234375 16.90625 C-42.00023802 20.17973996 -46.62188921 25.02343209 -49 31 C-49.88798561 39.38423618 -49.4673131 45.82522441 -45 53 C-44.67 53.99 -44.34 54.98 -44 56 C-43.34 56 -42.68 56 -42 56 C-43.63952583 60.6393176 -46.06871052 64.63855858 -48.625 68.8125 C-49.04523438 69.50537109 -49.46546875 70.19824219 -49.8984375 70.91210938 C-50.9289467 72.61010748 -51.96401681 74.30533614 -53 76 C-59.32904983 71.90378755 -63.35630821 67.58943698 -67 61 C-67.48855469 60.17242187 -67.97710937 59.34484375 -68.48046875 58.4921875 C-73.46840673 48.68397331 -74.10159432 36.23543421 -71.38769531 25.60058594 C-68.84273023 17.9656907 -65.12772563 10.36367006 -59 5 C-58.45214844 4.49597656 -57.90429688 3.99195312 -57.33984375 3.47265625 C-40.45881348 -10.61278939 -18.42433601 -11.05030188 0 0 Z " fill="#565B66" transform="translate(171,111)"/>
<path d="M0 0 C2.1599961 0.021444 4.31666769 0.0001354 6.4765625 -0.02539062 C14.58465367 -0.04235842 21.61055761 0.02938642 27.70288086 6.03955078 C32.42528596 11.46508235 32.51856833 15.30027499 32.43359375 22.32226562 C31.94361299 28.13812418 29.02196538 30.96875831 24.7890625 34.58398438 C18.25603892 39.22071834 8.5518803 43.64209093 0.3515625 43.00585938 C-10.27458371 40.652927 -20.55518808 36.80685744 -26.8359375 27.52148438 C-28.68326539 21.97950071 -29.15033131 15.53343476 -26.77734375 10.09570312 C-20.01272358 0.36124971 -11.01732113 -0.1302047 0 0 Z " fill="#575C67" transform="translate(253.8359375,283.478515625)"/>
<path d="M0 0 C5.34358758 3.21764413 10.32765387 8.63879978 12.5625 14.5 C13.40578989 22.46222551 13.48880106 29.9051131 8.5625 36.5 C6 39.5 6 39.5 3.5625 41.5 C2.5725 41.5 1.5825 41.5 0.5625 41.5 C-1.34765625 39.26171875 -1.34765625 39.26171875 -3.5 36.1875 C-9.69946024 27.58063189 -16.61508546 19.7813754 -24.7421875 12.9375 C-26.75420106 11.23146085 -28.61121467 9.40238055 -30.4375 7.5 C-29.19232035 6.36966702 -27.94113348 5.24594964 -26.6875 4.125 C-25.99140625 3.49851563 -25.2953125 2.87203125 -24.578125 2.2265625 C-17.94682745 -3.12203881 -7.75701497 -3.44417561 0 0 Z " fill="#9095A9" transform="translate(378.4375,127.5)"/>
<path d="M0 0 C19 0 19 0 25 4 C30.02599134 9.70517936 30.36045697 13.28701029 30.26953125 20.80078125 C29.84201918 25.87516364 27.96957962 28.16944953 24.33984375 31.54296875 C17.00410739 37.64352979 9.45941275 40 0 40 C0 26.8 0 13.6 0 0 Z " fill="#343A41" transform="translate(256,285)"/>
<path d="M0 0 C3.88712989 1.88782217 7.22801935 4.39629427 10.48046875 7.2421875 C9.66473389 7.73960449 9.66473389 7.73960449 8.83251953 8.24707031 C2.61107889 12.19588113 -2.4851731 16.75318231 -7.64453125 21.9921875 C-8.40378906 22.73984375 -9.16304687 23.4875 -9.9453125 24.2578125 C-15.16459947 29.50404931 -19.46822401 35.05408745 -23.51953125 41.2421875 C-26.99858171 40.08250401 -27.33091997 39.40470823 -29.14453125 36.3671875 C-29.56992188 35.66851562 -29.9953125 34.96984375 -30.43359375 34.25 C-33.6089134 28.37908526 -33.14517599 21.72156583 -32.51953125 15.2421875 C-30.18139876 8.5633068 -24.56477525 3.81563248 -18.7265625 0.1015625 C-13.15893421 -2.06636356 -5.66181126 -1.70293238 0 0 Z " fill="#AEB3C7" transform="translate(153.51953125,126.7578125)"/>
<path d="M0 0 C4.18145284 1.72712182 6.42475328 4.32107611 9 8 C10.56840852 12.70522555 10.54895539 16.52648816 8.8125 21.1875 C6.20995401 25.22593343 3.55880664 27.48039779 -1 29 C-5.95055461 29.47601487 -9.29121946 28.97565305 -13.421875 26.32421875 C-16.77384502 23.51155083 -18.57401187 20.27047282 -19.37890625 15.98046875 C-19.68449301 10.82492438 -18.25544108 7.87133533 -15 4 C-10.66681869 -0.84296734 -6.12220299 -0.82841691 0 0 Z " fill="#555A66" transform="translate(177,217)"/>
<path d="M0 0 C4.72403852 1.9512333 7.72471109 5.44942218 10 10 C10.42864436 15.4652156 9.80836789 19.26087918 7 24 C3.43390518 27.1886028 0.16305195 28.81636022 -4.5625 29.5625 C-9.67407191 28.72606096 -13.3231906 26.84449034 -16.875 22.9375 C-19.19996567 18.93339246 -19.30855944 15.55125167 -19 11 C-15.56778775 1.46607707 -9.60633048 -1.46428153 0 0 Z " fill="#343A41" transform="translate(344,217)"/>
</svg>
