<?xml version="1.0" encoding="UTF-8"?>
<svg version="1.1" xmlns="http://www.w3.org/2000/svg" width="512" height="512">
<path d="M0 0 C1.01790619 0.00215515 2.03581238 0.0043103 3.08456421 0.00653076 C17.69363523 0.05620146 32.02575853 0.30709809 46.375 3.3125 C47.34985352 3.51117676 48.32470703 3.70985352 49.32910156 3.91455078 C97.7109774 14.03517194 141.69928269 35.9516877 177.375 70.3125 C178.3640332 71.26068604 178.3640332 71.26068604 179.37304688 72.22802734 C188.86130305 81.37247479 197.6012044 90.66984009 205.375 101.3125 C206.23306152 102.46355017 207.09113451 103.61459177 207.94921875 104.765625 C213.98736829 112.95680614 219.34595521 121.47054105 224.375 130.3125 C224.73948242 130.94430176 225.10396484 131.57610352 225.47949219 132.22705078 C247.00981855 169.84336237 256.83759735 212.56515288 256.75 255.625 C256.74918427 257.13927582 256.74918427 257.13927582 256.74835205 258.68414307 C256.70758601 275.19373539 255.80029309 291.11032001 252.375 307.3125 C252.15537598 308.35438477 251.93575195 309.39626953 251.70947266 310.46972656 C242.71140931 351.72199434 223.99081216 390.29861405 196.375 422.3125 C195.74078125 423.05757813 195.1065625 423.80265625 194.453125 424.5703125 C189.26626743 430.50102173 183.72967669 436.09074254 178.1875 441.6875 C177.0284314 442.86614624 177.0284314 442.86614624 175.84594727 444.06860352 C171.899216 448.02129339 168.09108384 451.28406709 163.375 454.3125 C162.58867187 455.10140625 161.80234375 455.8903125 160.9921875 456.703125 C157.75646339 459.92919024 154.24085994 462.45585048 150.5 465.0625 C149.37343994 465.85019775 149.37343994 465.85019775 148.22412109 466.65380859 C141.13392917 471.56033492 133.88739269 476.08425355 126.375 480.3125 C125.67213867 480.71178711 124.96927734 481.11107422 124.24511719 481.52246094 C98.0372129 496.27952704 69.09528828 505.81645292 39.375 510.3125 C38.25037354 510.48982666 37.12574707 510.66715332 35.96704102 510.84985352 C24.41309556 512.50125708 12.97034453 512.66920897 1.3125 512.625 C0.31643738 512.62317719 -0.67962524 512.62135437 -1.70587158 512.61947632 C-16.21830287 512.57473255 -30.34809519 512.11719043 -44.625 509.3125 C-45.52057617 509.15152832 -46.41615234 508.99055664 -47.33886719 508.82470703 C-96.02845832 500.01590196 -141.05379928 476.5726479 -176.625 442.3125 C-177.28435547 441.68037598 -177.94371094 441.04825195 -178.62304688 440.39697266 C-188.11130305 431.25252521 -196.8512044 421.95515991 -204.625 411.3125 C-205.48306152 410.16144983 -206.34113451 409.01040823 -207.19921875 407.859375 C-213.23736829 399.66819386 -218.59595521 391.15445895 -223.625 382.3125 C-223.98948242 381.68069824 -224.35396484 381.04889648 -224.72949219 380.39794922 C-239.66085402 354.31089649 -249.13420268 324.97749753 -253.625 295.3125 C-253.80232666 294.19367432 -253.97965332 293.07484863 -254.16235352 291.92211914 C-255.84376341 280.20014053 -255.98234341 268.57751024 -255.9375 256.75 C-255.93426727 255.21939438 -255.93426727 255.21939438 -255.93096924 253.65786743 C-255.88133352 239.03039476 -255.63419712 224.67986162 -252.625 210.3125 C-252.42632324 209.33764648 -252.22764648 208.36279297 -252.02294922 207.35839844 C-241.90232806 158.9765226 -219.9858123 114.98821731 -185.625 79.3125 C-184.99287598 78.65314453 -184.36075195 77.99378906 -183.70947266 77.31445312 C-174.56502521 67.82619695 -165.26765991 59.0862956 -154.625 51.3125 C-153.47394983 50.45443848 -152.32290823 49.59636549 -151.171875 48.73828125 C-142.98224019 42.70072604 -134.47961724 37.31792698 -125.625 32.3125 C-124.91778809 31.9103125 -124.21057617 31.508125 -123.48193359 31.09375 C-100.34654164 18.0683259 -75.17537591 9.31948539 -49.1875 4 C-48.46860596 3.85264404 -47.74971191 3.70528809 -47.0090332 3.5534668 C-31.36274391 0.57960912 -15.88931954 -0.06050362 0 0 Z " fill="#FDF6ED" transform="translate(255.625,-0.3125)"/>
<path d="M0 0 C1.01790619 0.00215515 2.03581238 0.0043103 3.08456421 0.00653076 C17.69363523 0.05620146 32.02575853 0.30709809 46.375 3.3125 C47.34985352 3.51117676 48.32470703 3.70985352 49.32910156 3.91455078 C97.7109774 14.03517194 141.69928269 35.9516877 177.375 70.3125 C178.3640332 71.26068604 178.3640332 71.26068604 179.37304688 72.22802734 C188.86130305 81.37247479 197.6012044 90.66984009 205.375 101.3125 C206.23306152 102.46355017 207.09113451 103.61459177 207.94921875 104.765625 C213.98736829 112.95680614 219.34595521 121.47054105 224.375 130.3125 C224.73948242 130.94430176 225.10396484 131.57610352 225.47949219 132.22705078 C247.00981855 169.84336237 256.83759735 212.56515288 256.75 255.625 C256.74918427 257.13927582 256.74918427 257.13927582 256.74835205 258.68414307 C256.70758601 275.19373539 255.80029309 291.11032001 252.375 307.3125 C252.15537598 308.35438477 251.93575195 309.39626953 251.70947266 310.46972656 C242.71140931 351.72199434 223.99081216 390.29861405 196.375 422.3125 C195.74078125 423.05757813 195.1065625 423.80265625 194.453125 424.5703125 C189.23547187 430.53623372 183.65330196 436.13586368 178.0625 441.75 C177.27302979 442.54414307 176.48355957 443.33828613 175.67016602 444.15649414 C174.91662842 444.90793701 174.16309082 445.65937988 173.38671875 446.43359375 C172.71084717 447.1083374 172.03497559 447.78308105 171.33862305 448.47827148 C166.23462289 453.24593941 166.23462289 453.24593941 163.00390625 453.49609375 C158.7972077 451.6021418 156.83889321 448.12974301 154.3125 444.375 C153.78172852 443.59302246 153.25095703 442.81104492 152.70410156 442.00537109 C144.83756444 430.19576287 142.88879882 420.46230594 144.375 406.3125 C145.64777525 400.47580877 148.60801403 395.92424727 151.6875 390.875 C158.68797486 379.19248711 162.9201843 365.66292075 165.375 352.3125 C165.54555908 351.39090088 165.71611816 350.46930176 165.8918457 349.51977539 C168.35213954 333.18785013 167.05566375 316.08394573 162.375 300.3125 C161.83676008 298.43893977 161.29903131 296.56523265 160.76171875 294.69140625 C159.58271354 290.61268554 158.3799127 286.54169359 157.16796875 282.47265625 C155.41618499 276.53496223 153.84301446 270.56047575 152.3125 264.5625 C150.2772618 256.60271167 148.04038863 248.73659718 145.62915039 240.88330078 C143.37235204 233.46399315 141.41726567 225.97777896 139.48657227 218.46801758 C137.87070753 212.18729571 136.16847014 205.94678246 134.359375 199.71875 C133.23265488 195.81994071 132.14478001 191.9113297 131.0625 188 C128.7141605 179.52106416 126.34600861 171.0477576 123.96606445 162.57763672 C122.62273343 157.79231742 121.28601258 153.00599805 119.9921875 148.20703125 C115.24650667 130.6296891 110.81797279 114.38677179 94.44140625 104.09765625 C92.45255969 103.03720487 90.46804829 102.14817178 88.375 101.3125 C87.62605469 101.0134375 86.87710937 100.714375 86.10546875 100.40625 C74.70120809 96.42673416 62.97223066 97.56717179 52.0078125 102.34375 C39.85242597 108.56865383 32.2835598 117.9667503 28.06677246 130.81629944 C26.9641662 134.7949579 26.60315549 138.75437163 26.27734375 142.859375 C26.19754776 143.75126526 26.11775177 144.64315552 26.03553772 145.56207275 C25.78431708 148.39476643 25.54798294 151.22845919 25.3125 154.0625 C25.15140888 155.91545339 24.98930618 157.76831912 24.82617188 159.62109375 C24.50201544 163.3114901 24.18295306 167.00227823 23.86669922 170.69335938 C23.09867593 179.57220069 22.23464934 188.44214602 21.375 197.3125 C20.61058594 196.53261719 19.84617187 195.75273437 19.05859375 194.94921875 C13.51920178 189.50658472 7.86334327 186.34379392 0.0625 185.9375 C-6.28431138 186.06636927 -11.43893977 188.85512651 -16.625 192.3125 C-16.67875793 191.61029831 -16.73251587 190.90809662 -16.78790283 190.18461609 C-17.30089453 183.52033429 -17.82900177 176.85743593 -18.37350845 170.19565105 C-18.65283253 166.77188246 -18.92658521 163.34786943 -19.18701172 159.92260742 C-19.4876624 155.97169017 -19.81361599 152.02304488 -20.140625 148.07421875 C-20.27371063 146.25636116 -20.27371063 146.25636116 -20.40948486 144.40177917 C-21.60966428 130.44754378 -26.33759755 117.42553769 -37.125 108 C-48.44915524 99.70360228 -59.81702298 96.84043422 -73.625 98.3125 C-84.74427192 100.27998511 -95.56097588 106.4708046 -102.31640625 115.59765625 C-109.46248665 126.89885107 -112.39638234 140.19402442 -115.9296875 152.953125 C-116.44685688 154.80811432 -116.96441453 156.66299543 -117.48233032 158.51777649 C-118.87190292 163.49838334 -120.2561683 168.48045004 -121.63919067 173.46287918 C-123.08308328 178.66207887 -124.53097969 183.86016334 -125.97851562 189.05834961 C-127.75859568 195.45163768 -129.53814391 201.84507196 -131.31549072 208.23912048 C-134.98450128 221.43639891 -138.67254891 234.62817768 -142.37814713 247.81522751 C-143.90585391 253.25424272 -145.43007262 258.69423642 -146.95418358 264.13426018 C-148.15146565 268.40673122 -149.35084289 272.67859011 -150.55511475 276.94909668 C-151.67940495 280.93635702 -152.79771026 284.92524897 -153.91160202 288.91542625 C-154.31571698 290.35898841 -154.72197047 291.80195411 -155.13066483 293.24422646 C-162.26844083 318.44667639 -164.03363546 345.18649819 -155.625 370.3125 C-155.39506348 371.00714355 -155.16512695 371.70178711 -154.92822266 372.41748047 C-152.24775569 380.2502109 -148.56927623 387.3516914 -144.39331055 394.46655273 C-138.29178564 404.93206246 -136.62051203 415.53684197 -139.6875 427.5 C-143.54122372 438.4724078 -151.84819588 447.97223678 -158.625 457.3125 C-176.43820128 445.91518088 -192.22065394 428.29458228 -204.625 411.3125 C-205.48306152 410.16144983 -206.34113451 409.01040823 -207.19921875 407.859375 C-213.23736829 399.66819386 -218.59595521 391.15445895 -223.625 382.3125 C-223.98948242 381.68069824 -224.35396484 381.04889648 -224.72949219 380.39794922 C-239.66085402 354.31089649 -249.13420268 324.97749753 -253.625 295.3125 C-253.80232666 294.19367432 -253.97965332 293.07484863 -254.16235352 291.92211914 C-255.84376341 280.20014053 -255.98234341 268.57751024 -255.9375 256.75 C-255.93426727 255.21939438 -255.93426727 255.21939438 -255.93096924 253.65786743 C-255.88133352 239.03039476 -255.63419712 224.67986162 -252.625 210.3125 C-252.42632324 209.33764648 -252.22764648 208.36279297 -252.02294922 207.35839844 C-241.90232806 158.9765226 -219.9858123 114.98821731 -185.625 79.3125 C-184.99287598 78.65314453 -184.36075195 77.99378906 -183.70947266 77.31445312 C-174.56502521 67.82619695 -165.26765991 59.0862956 -154.625 51.3125 C-153.47394983 50.45443848 -152.32290823 49.59636549 -151.171875 48.73828125 C-142.98224019 42.70072604 -134.47961724 37.31792698 -125.625 32.3125 C-124.91778809 31.9103125 -124.21057617 31.508125 -123.48193359 31.09375 C-100.34654164 18.0683259 -75.17537591 9.31948539 -49.1875 4 C-48.46860596 3.85264404 -47.74971191 3.70528809 -47.0090332 3.5534668 C-31.36274391 0.57960912 -15.88931954 -0.06050362 0 0 Z " fill="#8ED0E2" transform="translate(255.625,-0.3125)"/>
<path d="M0 0 C22.44676602 18.73536789 39.50413989 41.85562307 50.5625 68.96875 C50.86381836 69.70198486 51.16513672 70.43521973 51.47558594 71.19067383 C57.59033158 86.88283324 60.4895178 102.99741737 62.88037109 119.59741211 C63.37101537 123.00358772 63.87732375 126.40713004 64.38671875 129.81054688 C66.1985582 142.03209618 67.80685117 154.26571527 69.24235535 166.53697205 C70.0697682 173.58442591 71.03281386 180.59187705 72.1875 187.59375 C73.74232488 197.34400178 75.07944908 207.11129986 76.3125 216.90625 C77.45802484 226.0046948 78.68261793 235.0711423 80.17822266 244.11865234 C81.17416414 250.23850387 81.94529432 256.37595037 82.6875 262.53125 C83.71425451 271.03932678 84.9125677 279.50402857 86.25 287.96875 C87.73012876 297.35338129 89.07067975 306.74050696 90.15161133 316.18017578 C90.72991008 321.16722526 91.42744484 326.07786018 92.3828125 331.0078125 C95.00431276 345.05413351 95.00431276 345.05413351 92.97265625 350.2109375 C90.92659071 352.81207429 88.77099151 354.83121027 86.25 356.96875 C84.94120653 358.45382994 83.65022031 359.95474342 82.375 361.46875 C77.71044787 366.59237932 72.82615075 371.49717719 67.9375 376.40625 C67.14811035 377.2003125 66.3587207 377.994375 65.54541016 378.8125 C64.79179199 379.56402344 64.03817383 380.31554687 63.26171875 381.08984375 C62.58584717 381.7645874 61.90997559 382.43933105 61.21362305 383.13452148 C56.10962289 387.90218941 56.10962289 387.90218941 52.87890625 388.15234375 C48.6722077 386.2583918 46.71389321 382.78599301 44.1875 379.03125 C43.65672852 378.24927246 43.12595703 377.46729492 42.57910156 376.66162109 C34.71256444 364.85201287 32.76379882 355.11855594 34.25 340.96875 C35.52277525 335.13205877 38.48301403 330.58049727 41.5625 325.53125 C48.56297486 313.84873711 52.7951843 300.31917075 55.25 286.96875 C55.42055908 286.04715088 55.59111816 285.12555176 55.7668457 284.17602539 C58.22713954 267.84410013 56.93066375 250.74019573 52.25 234.96875 C51.71176008 233.09518977 51.17403131 231.22148265 50.63671875 229.34765625 C49.45771354 225.26893554 48.2549127 221.19794359 47.04296875 217.12890625 C45.29118499 211.19121223 43.71801446 205.21672575 42.1875 199.21875 C40.1522618 191.25896167 37.91538863 183.39284718 35.50415039 175.53955078 C33.24735204 168.12024315 31.29226567 160.63402896 29.36157227 153.12426758 C27.74570753 146.84354571 26.04347014 140.60303246 24.234375 134.375 C23.10765488 130.47619071 22.01978001 126.5675797 20.9375 122.65625 C18.5891605 114.17731416 16.22100861 105.7040076 13.84106445 97.23388672 C12.49773343 92.44856742 11.16101258 87.66224805 9.8671875 82.86328125 C5.12150667 65.2859391 0.69297279 49.04302179 -15.68359375 38.75390625 C-17.67244031 37.69345487 -19.65695171 36.80442178 -21.75 35.96875 C-22.49894531 35.6696875 -23.24789063 35.370625 -24.01953125 35.0625 C-35.42379191 31.08298416 -47.15276934 32.22342179 -58.1171875 37 C-70.27257403 43.22490383 -77.8414402 52.6230003 -82.05822754 65.47254944 C-83.1608338 69.4512079 -83.52184451 73.41062163 -83.84765625 77.515625 C-83.92745224 78.40751526 -84.00724823 79.29940552 -84.08946228 80.21832275 C-84.34068292 83.05101643 -84.57701706 85.88470919 -84.8125 88.71875 C-84.97359112 90.57170339 -85.13569382 92.42456912 -85.29882812 94.27734375 C-85.62298456 97.9677401 -85.94204694 101.65852823 -86.25830078 105.34960938 C-87.02632407 114.22845069 -87.89035066 123.09839602 -88.75 131.96875 C-89.51441406 131.18886719 -90.27882813 130.40898437 -91.06640625 129.60546875 C-96.60579822 124.16283472 -102.26165673 121.00004392 -110.0625 120.59375 C-116.40931138 120.72261927 -121.56393977 123.51137651 -126.75 126.96875 C-126.80375793 126.26654831 -126.85751587 125.56434662 -126.91290283 124.84086609 C-127.42589453 118.17658429 -127.95400177 111.51368593 -128.49850845 104.85190105 C-128.77783253 101.42813246 -129.05158521 98.00411943 -129.31201172 94.57885742 C-129.6126624 90.62794017 -129.93861599 86.67929488 -130.265625 82.73046875 C-130.39871063 80.91261116 -130.39871063 80.91261116 -130.53448486 79.05802917 C-131.73466428 65.10379378 -136.46259755 52.08178769 -147.25 42.65625 C-158.57415524 34.35985228 -169.94202298 31.49668422 -183.75 32.96875 C-194.86927192 34.93623511 -205.68597588 41.1270546 -212.44140625 50.25390625 C-219.58748665 61.55510107 -222.52138234 74.85027442 -226.0546875 87.609375 C-226.57185688 89.46436432 -227.08941453 91.31924543 -227.60733032 93.17402649 C-228.99690292 98.15463334 -230.3811683 103.13670004 -231.76419067 108.11912918 C-233.20808328 113.31832887 -234.65597969 118.51641334 -236.10351562 123.71459961 C-237.88359568 130.10788768 -239.66314391 136.50132196 -241.44049072 142.89537048 C-245.10950128 156.09264891 -248.79754891 169.28442768 -252.50314713 182.47147751 C-254.03085391 187.91049272 -255.55507262 193.35048642 -257.07918358 198.79051018 C-258.27646565 203.06298122 -259.47584289 207.33484011 -260.68011475 211.60534668 C-261.80440495 215.59260702 -262.92271026 219.58149897 -264.03660202 223.57167625 C-264.44071698 225.01523841 -264.84697047 226.45820411 -265.25566483 227.90047646 C-272.39344083 253.10292639 -274.15863546 279.84274819 -265.75 304.96875 C-265.52006348 305.66339355 -265.29012695 306.35803711 -265.05322266 307.07373047 C-262.37275569 314.9064609 -258.69427623 322.0079414 -254.51831055 329.12280273 C-248.41678564 339.58831246 -246.74551203 350.19309197 -249.8125 362.15625 C-253.66622372 373.1286578 -261.97319588 382.62848678 -268.75 391.96875 C-281.91283792 383.54684638 -293.03294468 371.24041294 -303.75 359.96875 C-304.3275 359.3617627 -304.905 358.75477539 -305.5 358.12939453 C-307.00486067 356.50604452 -308.44806877 354.84814534 -309.875 353.15625 C-311.05449219 351.78533203 -311.05449219 351.78533203 -312.2578125 350.38671875 C-316.11883464 341.54275443 -311.97428808 328.91656675 -310.59765625 319.51953125 C-310.37975335 318.01231186 -310.16223486 316.50503685 -309.94506836 314.99771118 C-309.48062776 311.77750077 -309.01429113 308.55757347 -308.54641724 305.33786011 C-307.28158585 296.63029513 -306.03113149 287.9206589 -304.78125 279.2109375 C-304.65319536 278.31919012 -304.52514072 277.42744274 -304.39320564 276.50867271 C-301.99348407 259.78714499 -299.68445272 243.05416756 -297.41171265 226.31497192 C-295.76638068 214.20137392 -294.10192153 202.09037183 -292.43804932 189.97930908 C-291.96165978 186.5114364 -291.48616096 183.04344286 -291.01116943 179.57537842 C-289.57969788 169.12904138 -288.13738948 158.68431703 -286.67366505 148.24244595 C-286.02832856 143.63723869 -285.38734741 139.03154249 -284.75857544 134.42404175 C-277.36872362 80.34610001 -260.88926776 31.59975339 -216.14648438 -3.04296875 C-209.91438439 -7.75586776 -203.47613866 -12.05711548 -196.75 -16.03125 C-196.11787598 -16.40491699 -195.48575195 -16.77858398 -194.83447266 -17.16357422 C-133.25846025 -52.93165673 -54.62162985 -44.59827922 0 0 Z " fill="#6E8C8E" transform="translate(365.75,65.03125)"/>
<path d="M0 0 C0.75606537 -0.00167175 1.51213074 -0.00334351 2.29110718 -0.00506592 C29.86680629 -0.00872254 29.86680629 -0.00872254 41.6875 5.25 C38.81451697 7.16532202 36.26227109 8.09040629 32.98999023 9.1003418 C6.6834707 17.23692514 -15.25217147 31.58228932 -35.3125 50.25 C-36.31216797 51.16845703 -36.31216797 51.16845703 -37.33203125 52.10546875 C-40.53302672 55.16303876 -43.26845956 58.08402447 -45.5859375 61.86328125 C-51.78261003 71.58029006 -51.78261003 71.58029006 -56.50195312 72.82958984 C-61.42455622 73.2693236 -66.28191548 72.78774644 -71.19091797 72.35546875 C-80.37646562 71.89883393 -89.61926469 77.88851991 -96.5 83.4375 C-108.42837362 94.4172952 -111.45986144 111.87812567 -115.6171875 126.890625 C-116.13435688 128.74561432 -116.65191453 130.60049543 -117.16983032 132.45527649 C-118.55940292 137.43588334 -119.9436683 142.41795004 -121.32669067 147.40037918 C-122.77058328 152.59957887 -124.21847969 157.79766334 -125.66601562 162.99584961 C-127.44609568 169.38913768 -129.22564391 175.78257196 -131.00299072 182.17662048 C-134.67200128 195.37389891 -138.36004891 208.56567768 -142.06564713 221.75272751 C-143.59335391 227.19174272 -145.11757262 232.63173642 -146.64168358 238.07176018 C-147.83896565 242.34423122 -149.03834289 246.61609011 -150.24261475 250.88659668 C-151.36690495 254.87385702 -152.48521026 258.86274897 -153.59910202 262.85292625 C-154.00321698 264.29648841 -154.40947047 265.73945411 -154.81816483 267.18172646 C-161.95594083 292.38417639 -163.72113546 319.12399819 -155.3125 344.25 C-155.08256348 344.94464355 -154.85262695 345.63928711 -154.61572266 346.35498047 C-151.93525569 354.1877109 -148.25677623 361.2891914 -144.08081055 368.40405273 C-137.97928564 378.86956246 -136.30801203 389.47434197 -139.375 401.4375 C-143.22872372 412.4099078 -151.53569588 421.90973678 -158.3125 431.25 C-171.47533792 422.82809638 -182.59544468 410.52166294 -193.3125 399.25 C-193.89 398.6430127 -194.4675 398.03602539 -195.0625 397.41064453 C-196.56736067 395.78729452 -198.01056877 394.12939534 -199.4375 392.4375 C-200.61699219 391.06658203 -200.61699219 391.06658203 -201.8203125 389.66796875 C-205.68133464 380.82400443 -201.53678808 368.19781675 -200.16015625 358.80078125 C-199.94225335 357.29356186 -199.72473486 355.78628685 -199.50756836 354.27896118 C-199.04312776 351.05875077 -198.57679113 347.83882347 -198.10891724 344.61911011 C-196.84408585 335.91154513 -195.59363149 327.2019089 -194.34375 318.4921875 C-194.21569536 317.60044012 -194.08764072 316.70869274 -193.95570564 315.78992271 C-191.55598407 299.06839499 -189.24695272 282.33541756 -186.97421265 265.59622192 C-185.32888068 253.48262392 -183.66442153 241.37162183 -182.00054932 229.26055908 C-181.52415978 225.7926864 -181.04866096 222.32469286 -180.57366943 218.85662842 C-179.14219788 208.41029138 -177.69988948 197.96556703 -176.23616505 187.52369595 C-175.59082856 182.91848869 -174.94984741 178.31279249 -174.32107544 173.70529175 C-166.93122362 119.62735001 -150.45176776 70.88100339 -105.70898438 36.23828125 C-99.47688439 31.52538224 -93.03863866 27.22413452 -86.3125 23.25 C-85.68037598 22.87633301 -85.04825195 22.50266602 -84.39697266 22.11767578 C-58.54369687 7.10010538 -29.76407599 0.03456313 0 0 Z " fill="#617F7F" transform="translate(255.3125,25.75)"/>
<path d="M0 0 C8.43902404 6.33760699 10.92032824 17.54501879 14.015625 27.15234375 C14.31984375 28.03019531 14.6240625 28.90804687 14.9375 29.8125 C15.29134766 30.93591797 15.29134766 30.93591797 15.65234375 32.08203125 C19.39167369 37.40380226 28.93885925 38.45484964 34.94726562 39.9296875 C39.7602165 41.23489452 42.34909929 42.50857755 45 47 C45.49959513 50.99676103 45.33517367 53.28394716 43.625 56.9375 C43.08875 57.618125 42.5525 58.29875 42 59 C41.34 59 40.68 59 40 59 C39.76152344 59.69867188 39.52304687 60.39734375 39.27734375 61.1171875 C32.11383848 77.28436454 15.22761341 92.03317467 -0.87890625 98.71875 C-9.61719625 101.80593658 -20.78570114 101.33731183 -29.375 98.0625 C-45.81187112 89.96875794 -57.53855749 76.34354918 -67.81811523 61.62402344 C-68.89922676 60.13847213 -70.08622636 58.73149593 -71.28125 57.3359375 C-73.14433078 54.80384134 -73.56795952 53.60101018 -73.5625 50.5 C-73.58441406 49.7678125 -73.60632813 49.035625 -73.62890625 48.28125 C-72.62469868 44.63865855 -70.99090942 43.30300025 -68 41 C-63.64107934 39.34856629 -59.10286952 38.3905161 -54.57226562 37.328125 C-49.16277229 35.96043933 -49.16277229 35.96043933 -44.56640625 32.93359375 C-42.35661501 28.79505704 -40.92324805 24.5239602 -39.5 20.0625 C-36.52833715 10.78792668 -33.13653703 3.74553711 -25 -2 C-16.65860974 -5.98936056 -7.81021824 -4.51487699 0 0 Z " fill="#FCE32F" transform="translate(270,189)"/>
<path d="M0 0 C0 0.33 0 0.66 0 1 C-1.03125 1.12375 -2.0625 1.2475 -3.125 1.375 C-6.88595943 2.44847222 -8.22484101 4.28052124 -10.25 7.5625 C-12.77500049 12.27092266 -14.7049805 16.81992201 -16 22 C-16.2784375 23.093125 -16.556875 24.18625 -16.84375 25.3125 C-20.95630153 43.89514024 -21.52213831 64.62427517 -12.125 81.6875 C-9.56547747 85.51720952 -7.3611568 88.20422955 -3 90 C9.96262835 91.42304303 23.72543403 79.60145934 34.046875 73.12109375 C34.88025391 72.5988623 35.71363281 72.07663086 36.57226562 71.53857422 C38.17400815 70.5234715 39.76678747 69.49406687 41.34960938 68.44970703 C42.06439453 67.98290527 42.77917969 67.51610352 43.515625 67.03515625 C44.14243164 66.61758057 44.76923828 66.20000488 45.41503906 65.76977539 C45.93807617 65.51574951 46.46111328 65.26172363 47 65 C47.66 65.33 48.32 65.66 49 66 C38.1991124 82.15353985 24.65500165 98.68653356 5 104 C-8.79124038 106.0269136 -19.76825083 102.92992546 -31.0625 94.875 C-41.83260701 86.34866528 -50.01109825 76.80306346 -57.81811523 65.62402344 C-58.89922676 64.13847213 -60.08622636 62.73149593 -61.28125 61.3359375 C-63.14433078 58.80384134 -63.56795952 57.60101018 -63.5625 54.5 C-63.58441406 53.7678125 -63.60632813 53.035625 -63.62890625 52.28125 C-62.62469868 48.63865855 -60.99090942 47.30300025 -58 45 C-53.64107934 43.34856629 -49.10286952 42.3905161 -44.57226562 41.328125 C-39.16277229 39.96043933 -39.16277229 39.96043933 -34.56640625 36.93359375 C-32.35661501 32.79505704 -30.92324805 28.5239602 -29.5 24.0625 C-26.52833715 14.78792668 -23.13653703 7.74553711 -15 2 C-10.06329588 -0.36103241 -5.35764455 -0.21430578 0 0 Z " fill="#F4CF34" transform="translate(260,185)"/>
<path d="M0 0 C6.25502962 4.21505236 10.6698817 9.93696907 12.60546875 17.3046875 C14.30116812 28.88916832 13.78835943 38.16961636 7 48 C2.93117468 53.31128714 -1.41726112 56.55023013 -8 58 C-15.07634724 58.75818006 -20.97172206 56.78378023 -26.625 52.5625 C-32.59857883 47.12325506 -36.51265184 38.37680837 -37.23828125 30.37109375 C-37.49981424 20.0336581 -35.44832837 12.46070235 -28.6875 4.5 C-20.57714165 -3.82170319 -10.45979809 -5.92064043 0 0 Z " fill="#3A4B4A" transform="translate(324,158)"/>
<path d="M0 0 C6.18249171 4.52094706 10.089539 10.61905597 12 18 C13.32681185 28.15564849 13.43413299 38.53867443 7 47 C4.5 49.875 4.5 49.875 2 52 C1.195625 52.721875 0.39125 53.44375 -0.4375 54.1875 C-5.38411668 57.68632644 -10.00472723 58.52590112 -16 58 C-25.11265545 54.80257703 -30.34164817 50.32048987 -35 42 C-38.84476522 33.14378217 -38.96835216 24.53774701 -35.97265625 15.453125 C-32.84478119 7.56434775 -27.97506838 1.95814877 -20.6875 -2.375 C-13.61294824 -4.02024459 -6.35682376 -3.69490381 0 0 Z " fill="#3A4B4A" transform="translate(212,158)"/>
<path d="M0 0 C3.87961301 1.41891822 7.19424241 3.2448862 10.68359375 5.44921875 C11.76922607 6.12984375 12.8548584 6.81046875 13.97338867 7.51171875 C14.53947845 7.8679834 15.10556824 8.22424805 15.68881226 8.59130859 C20.76433 11.77297379 25.88459384 14.88305376 31 18 C31.77279297 18.4738916 32.54558594 18.9477832 33.34179688 19.43603516 C42.02614113 24.6652944 49.8650805 26.71368452 60 25 C67.42047102 22.69474769 73.80454824 18.9166875 80.3125 14.75 C81.67628784 13.89317627 81.67628784 13.89317627 83.06762695 13.01904297 C86.45143615 10.89242018 89.82467953 8.74954794 93.19433594 6.60058594 C94.46322559 5.79231634 95.73381754 4.98670895 97.0065918 4.18457031 C98.57551496 3.19559042 100.13764377 2.1958547 101.69921875 1.1953125 C102.45847656 0.80085937 103.21773438 0.40640625 104 0 C104.99 0.495 104.99 0.495 106 1 C95.1991124 17.15353985 81.65500165 33.68653356 62 39 C48.20875962 41.0269136 37.23174917 37.92992546 25.9375 29.875 C15.43398365 21.56542962 7.03239177 12.35601042 0 1 C0 0.67 0 0.34 0 0 Z " fill="#F2B734" transform="translate(203,250)"/>
<path d="M0 0 C6.65571621 4.79211567 10.61559758 10.08277649 13 18 C14.37000457 27.21147807 14.42901613 36.99431938 9.43359375 45.1171875 C6.63885071 48.78766746 3.82781957 51.44812029 0 54 C-9.335794 42.90718859 -12.19700162 34.42313059 -11 20 C-9.80965771 13.07437215 -6.35584636 8.36290833 -2 3 C-1.34 2.01 -0.68 1.02 0 0 Z " fill="#526666" transform="translate(211,158)"/>
<path d="M0 0 C5.98470435 2.57225954 9.47873375 8.08315299 11.875 14 C14.46752993 23.09742322 14.444896 33.02088506 10.4375 41.625 C7.63973735 46.52609256 4.56093108 49.71612962 0 53 C-8.98651841 42.77543393 -11.98232396 34.87424978 -11.484375 21.24609375 C-10.88490742 13.74096168 -7.33127638 7.12037105 -2.125 1.75 C-1.42375 1.1725 -0.7225 0.595 0 0 Z " fill="#516666" transform="translate(324,159)"/>
</svg>
