<?xml version="1.0" encoding="UTF-8"?>
<svg version="1.1" xmlns="http://www.w3.org/2000/svg" width="512" height="512">
<path d="M0 0 C1.01790619 0.00215515 2.03581238 0.0043103 3.08456421 0.00653076 C17.69363523 0.05620146 32.02575853 0.30709809 46.375 3.3125 C47.34985352 3.51117676 48.32470703 3.70985352 49.32910156 3.91455078 C97.7109774 14.03517194 141.69928269 35.9516877 177.375 70.3125 C178.3640332 71.26068604 178.3640332 71.26068604 179.37304688 72.22802734 C188.86130305 81.37247479 197.6012044 90.66984009 205.375 101.3125 C206.23306152 102.46355017 207.09113451 103.61459177 207.94921875 104.765625 C213.98736829 112.95680614 219.34595521 121.47054105 224.375 130.3125 C224.73948242 130.94430176 225.10396484 131.57610352 225.47949219 132.22705078 C247.00981855 169.84336237 256.83759735 212.56515288 256.75 255.625 C256.74918427 257.13927582 256.74918427 257.13927582 256.74835205 258.68414307 C256.70758601 275.19373539 255.80029309 291.11032001 252.375 307.3125 C252.15537598 308.35438477 251.93575195 309.39626953 251.70947266 310.46972656 C241.61185215 356.76299311 219.25271242 399.17663721 186.375 433.3125 C185.74287598 433.97185547 185.11075195 434.63121094 184.45947266 435.31054688 C175.31502521 444.79880305 166.01765991 453.5387044 155.375 461.3125 C154.22394983 462.17056152 153.07290823 463.02863451 151.921875 463.88671875 C143.73224019 469.92427396 135.22961724 475.30707302 126.375 480.3125 C125.66778809 480.7146875 124.96057617 481.116875 124.23193359 481.53125 C98.02919713 496.28361537 69.08869203 505.81885806 39.375 510.3125 C38.25254883 510.48910156 37.13009766 510.66570312 35.97363281 510.84765625 C24.36052257 512.5045586 12.84320055 512.71123513 1.125 512.6875 C-0.39302216 512.68668427 -0.39302216 512.68668427 -1.94171143 512.68585205 C-18.47030572 512.64511956 -34.40413999 511.74174222 -50.625 508.3125 C-51.66688477 508.09287598 -52.70876953 507.87325195 -53.78222656 507.64697266 C-100.07549311 497.54935215 -142.48913721 475.19021242 -176.625 442.3125 C-177.28435547 441.68037598 -177.94371094 441.04825195 -178.62304688 440.39697266 C-188.11130305 431.25252521 -196.8512044 421.95515991 -204.625 411.3125 C-205.48306152 410.16144983 -206.34113451 409.01040823 -207.19921875 407.859375 C-213.23736829 399.66819386 -218.59595521 391.15445895 -223.625 382.3125 C-223.98948242 381.68069824 -224.35396484 381.04889648 -224.72949219 380.39794922 C-239.66085402 354.31089649 -249.13420268 324.97749753 -253.625 295.3125 C-253.80232666 294.19367432 -253.97965332 293.07484863 -254.16235352 291.92211914 C-255.84376341 280.20014053 -255.98234341 268.57751024 -255.9375 256.75 C-255.93426727 255.21939438 -255.93426727 255.21939438 -255.93096924 253.65786743 C-255.88133352 239.03039476 -255.63419712 224.67986162 -252.625 210.3125 C-252.42632324 209.33764648 -252.22764648 208.36279297 -252.02294922 207.35839844 C-241.90232806 158.9765226 -219.9858123 114.98821731 -185.625 79.3125 C-184.99287598 78.65314453 -184.36075195 77.99378906 -183.70947266 77.31445312 C-174.56502521 67.82619695 -165.26765991 59.0862956 -154.625 51.3125 C-153.47394983 50.45443848 -152.32290823 49.59636549 -151.171875 48.73828125 C-142.98224019 42.70072604 -134.47961724 37.31792698 -125.625 32.3125 C-124.91778809 31.9103125 -124.21057617 31.508125 -123.48193359 31.09375 C-100.34654164 18.0683259 -75.17537591 9.31948539 -49.1875 4 C-48.46860596 3.85264404 -47.74971191 3.70528809 -47.0090332 3.5534668 C-31.36274391 0.57960912 -15.88931954 -0.06050362 0 0 Z " fill="#FEE4BF" transform="translate(255.625,-0.3125)"/>
<path d="M0 0 C1.01790619 0.00215515 2.03581238 0.0043103 3.08456421 0.00653076 C17.69363523 0.05620146 32.02575853 0.30709809 46.375 3.3125 C47.34985352 3.51117676 48.32470703 3.70985352 49.32910156 3.91455078 C97.7109774 14.03517194 141.69928269 35.9516877 177.375 70.3125 C178.3640332 71.26068604 178.3640332 71.26068604 179.37304688 72.22802734 C188.86130305 81.37247479 197.6012044 90.66984009 205.375 101.3125 C206.23306152 102.46355017 207.09113451 103.61459177 207.94921875 104.765625 C213.98736829 112.95680614 219.34595521 121.47054105 224.375 130.3125 C224.73948242 130.94430176 225.10396484 131.57610352 225.47949219 132.22705078 C247.00981855 169.84336237 256.83759735 212.56515288 256.75 255.625 C256.74918427 257.13927582 256.74918427 257.13927582 256.74835205 258.68414307 C256.70758601 275.19373539 255.80029309 291.11032001 252.375 307.3125 C252.15537598 308.35438477 251.93575195 309.39626953 251.70947266 310.46972656 C244.07298246 345.47976444 229.49017395 378.3492083 208.375 407.3125 C207.71177734 408.22708984 207.71177734 408.22708984 207.03515625 409.16015625 C201.92224284 416.18472275 201.92224284 416.18472275 199.375 419.3125 C199.045 419.3125 198.715 419.3125 198.375 419.3125 C198.36041748 418.16813477 198.34583496 417.02376953 198.33081055 415.84472656 C197.27144982 338.3917639 193.41223912 252.42066935 138.375 192.3125 C137.51519531 191.36890625 136.65539062 190.4253125 135.76953125 189.453125 C124.0998963 177.23620006 110.1684937 167.38623724 95.375 159.3125 C94.74803223 158.96880371 94.12106445 158.62510742 93.47509766 158.27099609 C46.95339898 133.11551782 -7.21033899 129.16856889 -57.69677734 143.43701172 C-103.27913218 157.06535293 -141.79037952 187.686001 -164.74316406 229.34179688 C-195.06672196 286.14004767 -196.05991788 354.50510346 -198.625 417.3125 C-208.96954482 407.07981689 -216.36219388 394.82380784 -223.625 382.3125 C-224.02219238 381.6309082 -224.41938477 380.94931641 -224.82861328 380.24707031 C-239.76544836 354.27495503 -249.15061228 324.86910012 -253.625 295.3125 C-253.80232666 294.19367432 -253.97965332 293.07484863 -254.16235352 291.92211914 C-255.84376341 280.20014053 -255.98234341 268.57751024 -255.9375 256.75 C-255.93426727 255.21939438 -255.93426727 255.21939438 -255.93096924 253.65786743 C-255.88133352 239.03039476 -255.63419712 224.67986162 -252.625 210.3125 C-252.42632324 209.33764648 -252.22764648 208.36279297 -252.02294922 207.35839844 C-241.90232806 158.9765226 -219.9858123 114.98821731 -185.625 79.3125 C-184.99287598 78.65314453 -184.36075195 77.99378906 -183.70947266 77.31445312 C-174.56502521 67.82619695 -165.26765991 59.0862956 -154.625 51.3125 C-153.47394983 50.45443848 -152.32290823 49.59636549 -151.171875 48.73828125 C-142.98224019 42.70072604 -134.47961724 37.31792698 -125.625 32.3125 C-124.91778809 31.9103125 -124.21057617 31.508125 -123.48193359 31.09375 C-100.34654164 18.0683259 -75.17537591 9.31948539 -49.1875 4 C-48.46860596 3.85264404 -47.74971191 3.70528809 -47.0090332 3.5534668 C-31.36274391 0.57960912 -15.88931954 -0.06050362 0 0 Z " fill="#8FD0E2" transform="translate(255.625,-0.3125)"/>
<path d="M0 0 C1.07765625 -0.02835937 2.1553125 -0.05671875 3.265625 -0.0859375 C11.76548522 1.03848347 18.2149524 6.69779279 24.8125 11.8125 C25.73498535 12.5226123 26.6574707 13.23272461 27.60791016 13.96435547 C49.3677503 30.84666411 69.62753461 49.62451405 86.83203125 71.15234375 C88.55583327 73.43833148 88.55583327 73.43833148 90.75 74.375 C90.935625 73.7975 91.12125 73.22 91.3125 72.625 C93.42461791 69.31907632 96.15677669 67.71903009 99.75 66.375 C106.58894748 65.10852824 112.80053373 66.99876914 118.75 70.375 C129.15857814 77.88538123 136.89211257 88.7696751 139.75 101.375 C140.59689169 109.50708497 140.60459252 117.59530528 135.28515625 124.19140625 C133.6875 125.875 133.6875 125.875 130.75 128.375 C130.09 128.375 129.43 128.375 128.75 128.375 C129.10046387 129.0131665 129.45092773 129.65133301 129.81201172 130.30883789 C148.78994892 164.9713542 164.96830103 200.39137963 176.4375 238.3125 C176.7890918 239.46242432 177.14068359 240.61234863 177.50292969 241.79711914 C177.81520508 242.86309326 178.12748047 243.92906738 178.44921875 245.02734375 C178.72596436 245.96570068 179.00270996 246.90405762 179.2878418 247.87084961 C179.76376476 250.44958277 179.60512184 251.92456055 178.75 254.375 C178.27691406 253.20066406 177.80382812 252.02632812 177.31640625 250.81640625 C167.78171741 227.4624068 155.82890688 207.02749499 138.75 188.375 C137.89019531 187.43140625 137.03039062 186.4878125 136.14453125 185.515625 C124.4748963 173.29870006 110.5434937 163.44873724 95.75 155.375 C95.12303223 155.03130371 94.49606445 154.68760742 93.85009766 154.33349609 C47.32839898 129.17801782 -6.83533899 125.23106889 -57.32177734 139.49951172 C-102.90413218 153.12785293 -141.41537952 183.748501 -164.36816406 225.40429688 C-168.86296851 233.82339569 -172.63139178 242.44731749 -176.0234375 251.36328125 C-177.25 254.375 -177.25 254.375 -179.25 257.375 C-178.6914988 252.05348032 -177.78000798 247.2334292 -176.203125 242.09765625 C-175.9960643 241.42207169 -175.7890036 240.74648712 -175.57566833 240.0504303 C-174.89371596 237.84287264 -174.19877897 235.63978627 -173.5 233.4375 C-173.25835114 232.6723407 -173.01670227 231.9071814 -172.76773071 231.11883545 C-162.35837186 198.32348042 -148.79776087 167.06003497 -131.89233398 137.0715332 C-131.42641846 136.24226318 -130.96050293 135.41299316 -130.48046875 134.55859375 C-130.07207764 133.84243896 -129.66368652 133.12628418 -129.24291992 132.38842773 C-128.24474649 130.36434701 -127.61173316 128.6015249 -127.25 126.375 C-128.17274752 124.52776948 -128.17274752 124.52776948 -129.625 122.875 C-134.83786507 116.46812672 -133.67553064 108.22724468 -133.25 100.375 C-131.52943441 88.97822608 -124.12359465 78.49320115 -115.25 71.375 C-108.33953383 66.58093718 -101.60036745 65.01926506 -93.25 66.375 C-90.75295434 67.46046948 -89.30837101 68.54533688 -87.25 70.375 C-84.0876284 69.00303835 -82.2563782 67.5184878 -80.0625 64.875 C-79.45019531 64.15441406 -78.83789062 63.43382812 -78.20703125 62.69140625 C-77.56121094 61.92699219 -76.91539062 61.16257813 -76.25 60.375 C-70.9494984 54.25738253 -65.39762321 48.42096737 -59.6875 42.6875 C-58.76807617 41.76118774 -58.76807617 41.76118774 -57.83007812 40.81616211 C-53.46767264 36.46827475 -48.93379668 32.37319663 -44.25 28.375 C-43.28429077 27.54923462 -43.28429077 27.54923462 -42.29907227 26.70678711 C-10.98146008 0.13011209 -10.98146008 0.13011209 0 0 Z " fill="#809CA0" transform="translate(255.25,3.625)"/>
<path d="M0 0 C-2.20626448 6.71958724 -4.45315739 13.40136233 -7 20 C-7.185625 20.80050781 -7.37125 21.60101563 -7.5625 22.42578125 C-9.79990157 26.43243242 -13.36828076 27.73202325 -17.375 29.75 C-25.21731155 33.90974052 -32.12206695 38.34928802 -39 44 C-39.56702637 44.46164551 -40.13405273 44.92329102 -40.71826172 45.39892578 C-61.44619748 62.35611155 -80.37375513 85.81738961 -85 113 C-86.10920464 124.92455671 -86.34594303 136.24722985 -78.625 146 C-73.23727113 150.10493628 -67.62536639 150.78000767 -61 150 C-54.12883507 148.48550871 -47.40927237 146.52416328 -40.75 144.25 C-37 143 -37 143 -34 143 C-33.62562731 152.58532748 -34.66656974 162.01744077 -35.5958252 171.54086304 C-40.24492708 219.77859847 -41.18129636 268.13432492 -39.22265625 316.55078125 C-38.84331327 326.36460732 -38.91319139 336.18098207 -39 346 C-45.21996159 345.53272409 -50.1488452 342.67280847 -55.5625 339.8125 C-56.57175537 339.28148682 -57.58101074 338.75047363 -58.62084961 338.20336914 C-83.2600671 324.97543315 -104.19361354 307.8239568 -123.9375 288.1875 C-125.02091675 287.11121338 -125.02091675 287.11121338 -126.1262207 286.01318359 C-127.49131436 284.64378164 -128.84601744 283.26392136 -130.1887207 281.87255859 C-131.29911736 280.72459494 -132.43146768 279.59680476 -133.59838867 278.50634766 C-136.41661068 275.65767188 -137.32372435 273.37909519 -137.55859375 269.5 C-137.54700182 267.666259 -137.50413313 265.83256663 -137.4375 264 C-137.41719727 262.97237549 -137.39689453 261.94475098 -137.37597656 260.88598633 C-137.28645418 257.25532717 -137.14656762 253.62879641 -137 250 C-136.94832315 248.57472174 -136.89706811 247.14942814 -136.84619141 245.72412109 C-134.52485974 182.74656068 -128.67266682 112.64932095 -89 61 C-88.35804687 60.15179688 -87.71609375 59.30359375 -87.0546875 58.4296875 C-66.90101539 32.75866029 -39.44838407 12.89294203 -8.9375 1.3125 C-8.26477051 1.05637939 -7.59204102 0.80025879 -6.89892578 0.53637695 C-2.2622872 -1.1311436 -2.2622872 -1.1311436 0 0 Z " fill="#FEDFA7" transform="translate(194,145)"/>
<path d="M0 0 C0.51949219 0.40992188 1.03898437 0.81984375 1.57421875 1.2421875 C8.65177837 6.71061619 13.90190598 9.13726175 23 8 C27.99867022 6.3164201 32.04333109 3.46208529 36 0 C36.63615234 0.81404297 36.63615234 0.81404297 37.28515625 1.64453125 C40.91223528 6.0687705 44.14956852 9.91894201 50 11 C56.92842865 11.60023516 62.08202489 11.92455192 68 8 C68.66 8 69.32 8 70 8 C70.29132813 8.59167969 70.58265625 9.18335938 70.8828125 9.79296875 C74.13504297 16.06220546 77.09623942 19.78435211 83.3125 23.3125 C89.15418761 24.8068852 95.14178783 24.20168455 101 23 C101.17015625 23.65226562 101.3403125 24.30453125 101.515625 24.9765625 C103.71344169 32.9027312 106.26991222 38.72199358 113.5625 43.03125 C118.18861771 44.86983524 123.07049533 44.90962575 128 45 C127.95359375 45.61746094 127.9071875 46.23492187 127.859375 46.87109375 C127.54658657 54.2104509 128.64013194 60.10425425 133.54296875 65.7890625 C137.60195779 69.5601141 141.75199064 71.34273389 147 73 C146.51853516 74.06154297 146.51853516 74.06154297 146.02734375 75.14453125 C143.94584153 80.9299994 144.00119982 87.17811103 146.05078125 92.96875 C148.15475274 97.78071285 148.15475274 97.78071285 152 101 C152 101.66 152 102.32 152 103 C150.46875 104.5078125 150.46875 104.5078125 148.5 106.125 C147.8503125 106.66382813 147.200625 107.20265625 146.53125 107.7578125 C146.0259375 108.16773438 145.520625 108.57765625 145 109 C142.97745069 107.99099787 140.95923679 106.97864413 138.95703125 105.9296875 C133.57140214 103.28101745 128.99429293 101.93434792 123 103 C119.86807826 104.10594497 116.93359309 105.44651335 114 107 C113.69707031 106.32453125 113.39414062 105.6490625 113.08203125 104.953125 C109.72055718 97.79577098 106.62477388 93.53700342 99.015625 90.54296875 C93.22524327 88.98315662 87.89752713 89.24422312 82.5625 92 C81.94503906 92.37125 81.32757813 92.7425 80.69140625 93.125 C79 94 79 94 76 94 C74.640625 92.171875 74.640625 92.171875 73.25 89.75 C70.49506337 85.50392048 68.04486722 82.33359968 63 81 C55.40690072 80.0587815 48.87538139 79.89280444 42.6484375 84.7109375 C42.10445312 85.13632813 41.56046875 85.56171875 41 86 C39.68094292 86.69448588 38.35055657 87.36895391 37 88 C36.38125 87.18595703 36.38125 87.18595703 35.75 86.35546875 C31.0236336 80.50026037 27.24176698 77.72649051 19.7734375 76.69140625 C14.07897818 76.36852454 9.62124831 77.6382114 5 81 C2.795785 83.19481536 0.8518211 85.5028473 -1 88 C-3.52829612 86.78226774 -5.71773465 85.51662769 -8.0625 83.9375 C-13.93895279 80.06154177 -20.16040141 80.18273938 -27 81 C-33.8524691 83.70702497 -37.74793675 88.5612416 -41 95 C-41.59425781 94.6390625 -42.18851562 94.278125 -42.80078125 93.90625 C-49.26703788 90.2859508 -54.60512855 88.69184292 -62 90 C-69.5760798 92.48962371 -73.1610855 97.27875297 -77 104 C-77.66 104.99 -78.32 105.98 -79 107 C-80.11375 106.34 -81.2275 105.68 -82.375 105 C-87.27329415 102.57681561 -91.61660914 102.12840339 -97 103 C-99.86611529 104.0538637 -102.38615993 105.43626162 -105 107 C-106.32863884 107.67597415 -107.6608194 108.34515838 -109 109 C-110.98 107.02 -112.96 105.04 -115 103 C-114.05021922 101.04482065 -113.09660599 99.15196051 -111.9296875 97.31640625 C-108.25666645 91.20830829 -108.23228489 84.9719244 -109 78 C-109.93708392 75.20496289 -109.93708392 75.20496289 -111 73 C-110.00419922 72.65388672 -110.00419922 72.65388672 -108.98828125 72.30078125 C-101.45333993 69.51780292 -96.75515979 66.32256159 -93 59 C-92.01225113 55.86204951 -91.89434372 53.02987738 -91.9375 49.75 C-91.94652344 48.85796875 -91.95554688 47.9659375 -91.96484375 47.046875 C-91.97644531 46.37140625 -91.98804688 45.6959375 -92 45 C-90.83984375 44.97873047 -90.83984375 44.97873047 -89.65625 44.95703125 C-80.96252626 44.55892756 -76.038679 42.71121854 -69.6875 36.875 C-67.1425274 32.53912075 -66.12610362 27.87125125 -65 23 C-64.43667969 23.15855469 -63.87335938 23.31710938 -63.29296875 23.48046875 C-56.46090504 25.02844911 -50.23017194 24.39990094 -43.97265625 21.265625 C-38.97493903 18.0591688 -36.4146181 13.33757685 -34 8 C-29.25 9.875 -29.25 9.875 -27 11 C-19.36470189 11.65970706 -12.24042869 11.91026929 -6 7 C-3.80602055 4.79658408 -1.85135537 2.49652466 0 0 Z " fill="#FC5859" transform="translate(240,167)"/>
<path d="M0 0 C1.62890625 0.82421875 1.62890625 0.82421875 3.81640625 2.32421875 C3.81640625 6.39593655 1.72059452 8.01425324 -0.87109375 10.88671875 C-13.06688815 24.90039569 -22.88347204 40.28832144 -32.18359375 56.32421875 C-32.95104189 57.63457233 -33.71920477 58.94450772 -34.48828125 60.25390625 C-36.06164357 62.93936402 -37.62762231 65.62866259 -39.18359375 68.32421875 C-37.39144265 68.32421875 -35.59951693 68.26554924 -33.80859375 68.19921875 C-28.78600339 68.37241152 -28.78600339 68.37241152 -26.18359375 70.32421875 C-23.68823829 73.33585465 -23.18359375 74.88158355 -23.18359375 78.82421875 C-24.41540825 83.1355695 -25.48139867 84.77895963 -29.18359375 87.32421875 C-32.31080361 87.95969455 -35.05615121 87.95673522 -38.18359375 87.32421875 C-41.70387586 84.88710037 -42.68814421 82.2279247 -44.18359375 78.32421875 C-51.41259563 92.87768577 -58.1134056 107.52163665 -64.02734375 122.66015625 C-64.39754639 123.59520996 -64.76774902 124.53026367 -65.14916992 125.49365234 C-66.23106909 128.32662084 -66.23106909 128.32662084 -66.9934082 131.33056641 C-69.02456999 138.46309884 -69.02456999 138.46309884 -72.28466797 140.88525391 C-74.94173323 142.12183312 -77.57895273 143.05988417 -80.37109375 143.94921875 C-82.36968053 144.67678165 -84.36576584 145.41125036 -86.359375 146.15234375 C-87.34760254 146.51134766 -88.33583008 146.87035156 -89.35400391 147.24023438 C-130.15152581 162.86931093 -162.66502118 199.1784833 -180.18359375 238.32421875 C-181.85809483 242.28946664 -183.42653042 246.28959139 -184.95703125 250.3125 C-186.18359375 253.32421875 -186.18359375 253.32421875 -188.18359375 256.32421875 C-187.62509255 251.00269907 -186.71360173 246.18264795 -185.13671875 241.046875 C-184.92965805 240.37129044 -184.72259735 239.69570587 -184.50926208 238.99964905 C-183.82730971 236.79209139 -183.13237272 234.58900502 -182.43359375 232.38671875 C-182.19194489 231.62155945 -181.95029602 230.85640015 -181.70132446 230.0680542 C-171.29196561 197.27269917 -157.73135462 166.00925372 -140.82592773 136.02075195 C-140.36001221 135.19148193 -139.89409668 134.36221191 -139.4140625 133.5078125 C-139.00567139 132.79165771 -138.59728027 132.07550293 -138.17651367 131.33764648 C-137.17834024 129.31356576 -136.54532691 127.55074365 -136.18359375 125.32421875 C-137.10634127 123.47698823 -137.10634127 123.47698823 -138.55859375 121.82421875 C-143.77145882 115.41734547 -142.60912439 107.17646343 -142.18359375 99.32421875 C-140.46302816 87.92744483 -133.0571884 77.4424199 -124.18359375 70.32421875 C-117.27312758 65.53015593 -110.5339612 63.96848381 -102.18359375 65.32421875 C-99.68654809 66.40968823 -98.24196476 67.49455563 -96.18359375 69.32421875 C-93.02122215 67.9522571 -91.18997195 66.46770655 -88.99609375 63.82421875 C-88.38378906 63.10363281 -87.77148438 62.38304687 -87.140625 61.640625 C-86.49480469 60.87621094 -85.84898437 60.11179688 -85.18359375 59.32421875 C-79.88309215 53.20660128 -74.33121696 47.37018612 -68.62109375 41.63671875 C-67.70166992 40.71040649 -67.70166992 40.71040649 -66.76367188 39.76538086 C-62.40126639 35.4174935 -57.86739043 31.32241538 -53.18359375 27.32421875 C-52.21788452 26.49845337 -52.21788452 26.49845337 -51.23266602 25.65600586 C-15.38809454 -4.76232622 -15.38809454 -4.76232622 0 0 Z " fill="#6E8C8E" transform="translate(264.18359375,4.67578125)"/>
<path d="M0 0 C1.21373795 0.00273422 1.21373795 0.00273422 2.45199585 0.00552368 C45.02395559 0.16670752 83.88396942 15.7632796 114.75 45.3125 C115.56726563 46.06660156 116.38453125 46.82070312 117.2265625 47.59765625 C134.4803433 64.02346924 149.1762837 88.11238646 150.15698242 112.3203125 C150.28159316 120.71010428 149.69835731 129.73099854 143.99609375 136.34765625 C139.36356043 140.43859904 136.29551716 141.50125149 130.0625 141.625 C128.86238281 141.66238281 127.66226563 141.69976562 126.42578125 141.73828125 C114.52896903 141.15502402 102.75051748 136.01553234 91.74859619 131.79711914 C87.89548538 130.32410775 84.02928148 128.88618539 80.1640625 127.4453125 C79.4161142 127.16621033 78.66816589 126.88710815 77.89755249 126.59954834 C35.6195364 110.83702941 -11.52360874 106.79172717 -55.25 119.3125 C-56.94382812 119.72242188 -56.94382812 119.72242188 -58.671875 120.140625 C-68.35396198 122.50735737 -77.60655519 125.85807435 -86.94702148 129.31518555 C-88.51432007 129.89393433 -88.51432007 129.89393433 -90.11328125 130.484375 C-91.52540894 131.0117627 -91.52540894 131.0117627 -92.96606445 131.54980469 C-95.25 132.3125 -95.25 132.3125 -97.25 132.3125 C-95.90418808 113.04613985 -95.90418808 113.04613985 -88.25 106.3125 C-83.15057525 102.52977573 -78.22110037 101.69180805 -71.94140625 101.91015625 C-67.86059996 102.52020421 -64.71539911 104.14988251 -61.25 106.3125 C-60.26 106.8075 -60.26 106.8075 -59.25 107.3125 C-58.99347656 106.80460937 -58.73695313 106.29671875 -58.47265625 105.7734375 C-55.23098696 99.94498161 -51.52918347 95.83892624 -45.25 93.3125 C-37.4843191 92.07683474 -30.7467068 92.77706317 -24.25 97.3125 C-22.5425002 98.59312485 -20.85628069 99.90700439 -19.25 101.3125 C-18.98832031 100.71695313 -18.72664063 100.12140625 -18.45703125 99.5078125 C-16.10674206 95.23317649 -12.04355031 92.35087123 -7.875 89.9375 C-0.26934831 88.12663055 6.08495195 89.21861281 12.75 93.3125 C15.07354 95.18663103 16.80157791 97.01436112 18.75 99.3125 C18.75 99.9725 18.75 100.6325 18.75 101.3125 C19.28109375 100.90257812 19.8121875 100.49265625 20.359375 100.0703125 C21.06578125 99.53148437 21.7721875 98.99265625 22.5 98.4375 C23.19609375 97.90382813 23.8921875 97.37015625 24.609375 96.8203125 C30.95155704 92.35300909 37.13226909 92.37493312 44.75 93.3125 C51.624685 95.97619561 55.49850757 100.87487177 58.75 107.3125 C59.35585938 106.9515625 59.96171875 106.590625 60.5859375 106.21875 C66.73812976 102.81138198 71.71758964 100.98027319 78.75 102.3125 C87.15707349 105.02365684 91.92449422 109.82376412 95.90625 117.55859375 C96.32390625 118.42677734 96.32390625 118.42677734 96.75 119.3125 C98.4515625 118.3225 98.4515625 118.3225 100.1875 117.3125 C104.80903008 115.04640704 108.66751235 114.29935172 113.75 115.3125 C116.44721783 116.46050582 118.95286681 117.74894453 121.48828125 119.21875 C123.93145472 120.60273847 123.93145472 120.60273847 127.75 120.3125 C129.12310707 119.02016393 130.46034824 117.68812854 131.75 116.3125 C132.41 116.3125 133.07 116.3125 133.75 116.3125 C133.75 115.6525 133.75 114.9925 133.75 114.3125 C132.76 113.9825 131.77 113.6525 130.75 113.3125 C125.77672745 106.63010279 124.61611012 99.45263574 125.75 91.3125 C126.77734375 88.9609375 126.77734375 88.9609375 127.75 87.3125 C127.10933594 87.044375 126.46867188 86.77625 125.80859375 86.5 C118.21503688 83.05970002 112.96227899 78.92943007 109.3125 71.3125 C108.51505472 67.05945851 107.7603013 62.29189741 109.75 58.3125 C108.98816406 58.38210937 108.22632813 58.45171875 107.44140625 58.5234375 C100.61403016 58.88142726 96.13869005 58.38410973 90.66015625 54.1484375 C85.16472935 48.86653435 83.15367063 43.84768504 82.75 36.3125 C81.945625 36.6425 81.14125 36.9725 80.3125 37.3125 C74.45725944 38.9560763 69.20964705 39.2658418 63.5625 36.75 C58.17494233 33.7067289 54.66179703 29.59199257 52.375 23.875 C52.16875 23.029375 51.9625 22.18375 51.75 21.3125 C50.4196875 22.3025 50.4196875 22.3025 49.0625 23.3125 C43.17367418 26.68268341 36.09541324 26.12627739 29.6015625 24.91015625 C24.31471287 23.08009292 21.07387211 18.56584395 17.75 14.3125 C17.23050781 14.72242188 16.71101563 15.13234375 16.17578125 15.5546875 C9.09822163 21.02311619 3.84809402 23.44976175 -5.25 22.3125 C-10.24867022 20.6289201 -14.29333109 17.77458529 -18.25 14.3125 C-18.88615234 15.12654297 -18.88615234 15.12654297 -19.53515625 15.95703125 C-24.2278542 21.68109139 -27.87167912 24.87466791 -35.3359375 25.62109375 C-42.21052753 25.88066065 -46.69308386 25.44787945 -52.25 21.3125 C-52.5284375 22.55 -52.5284375 22.55 -52.8125 23.8125 C-55.21951871 29.67306728 -59.10890028 34.76440763 -65.0625 37.3125 C-69.71850372 38.74863474 -74.42842331 38.57926756 -79.25 38.3125 C-78.84957076 35.97841901 -78.39781653 33.67691596 -77.87109375 31.3671875 C-77.17644879 28.30020364 -77.17644879 28.30020364 -77.03515625 25.0703125 C-76.44597666 20.9314476 -75.73879569 18.71598128 -73.25 15.3125 C-66.29436907 10.8758512 -58.09821432 8.6407548 -50.25 6.3125 C-49.46318848 6.07176758 -48.67637695 5.83103516 -47.86572266 5.58300781 C-32.21526165 0.89182074 -16.23391728 -0.076245 0 0 Z " fill="#FEF7EF" transform="translate(258.25,153.6875)"/>
<path d="M0 0 C1.12792969 0.38414062 2.25585938 0.76828125 3.41796875 1.1640625 C15.21767166 5.65191846 25.06292461 13.21015814 34 22 C35.15822266 23.13888672 35.15822266 23.13888672 36.33984375 24.30078125 C44.16091583 32.46945654 56 48.24209927 56 60 C53.23723823 59.47731534 50.6739124 58.89130413 48 58 C41.73157906 57.32082828 37.12201806 57.85983048 31.69140625 61.125 C30 62 30 62 27 62 C25.640625 60.171875 25.640625 60.171875 24.25 57.75 C21.49506337 53.50392048 19.04486722 50.33359968 14 49 C6.40690072 48.0587815 -0.12461861 47.89280444 -6.3515625 52.7109375 C-6.89554687 53.13632813 -7.43953125 53.56171875 -8 54 C-9.31905708 54.69448588 -10.64944343 55.36895391 -12 56 C-12.4125 55.45730469 -12.825 54.91460937 -13.25 54.35546875 C-17.9763664 48.50026037 -21.75823302 45.72649051 -29.2265625 44.69140625 C-34.92102182 44.36852454 -39.37875169 45.6382114 -44 49 C-46.204215 51.19481536 -48.1481789 53.5028473 -50 56 C-52.52829612 54.78226774 -54.71773465 53.51662769 -57.0625 51.9375 C-62.93895279 48.06154177 -69.16040141 48.18273938 -76 49 C-82.8524691 51.70702497 -86.74793675 56.5612416 -90 63 C-90.59425781 62.6390625 -91.18851563 62.278125 -91.80078125 61.90625 C-98.23354757 58.3047012 -103.63122408 56.88173528 -111 58 C-112.34302714 58.646916 -113.67791376 59.31129817 -115 60 C-115.99 60 -116.98 60 -118 60 C-115.36824263 41.32183311 -100.00881299 23.24290381 -85.5625 12.3359375 C-60.29137352 -5.81570148 -29.38326974 -10.20462319 0 0 Z " fill="#E9424A" transform="translate(289,199)"/>
<path d="M0 0 C0.99 0.495 0.99 0.495 2 1 C1.19086128 3.95926326 0.37711805 6.91724081 -0.4375 9.875 C-0.66759766 10.71675781 -0.89769531 11.55851563 -1.13476562 12.42578125 C-1.35712891 13.23144531 -1.57949219 14.03710938 -1.80859375 14.8671875 C-2.01282959 15.61081543 -2.21706543 16.35444336 -2.42749023 17.12060547 C-3 19 -3 19 -4 21 C-4.99 21 -5.98 21 -7 21 C-7.13535156 21.6290625 -7.27070313 22.258125 -7.41015625 22.90625 C-9.43094685 30.94101022 -12.96060545 36.15406293 -19.75 40.9375 C-24.43262895 42.46835946 -29.09947445 42.74712591 -34 43 C-33.94779297 43.8353125 -33.94779297 43.8353125 -33.89453125 44.6875 C-33.60389219 52.88075341 -35.36685425 58.89421017 -41 65 C-44.015625 66.80078125 -44.015625 66.80078125 -47.25 68.3125 C-48.32765625 68.82425781 -49.4053125 69.33601563 -50.515625 69.86328125 C-51.33546875 70.23839844 -52.1553125 70.61351562 -53 71 C-52.67773438 71.53109375 -52.35546875 72.0621875 -52.0234375 72.609375 C-49.74343249 77.93518824 -50.01484737 85.03989516 -51.828125 90.48828125 C-52.79549435 92.40497202 -53.84900627 94.18949527 -55 96 C-55.67881066 97.32719189 -56.3486342 98.65912535 -57 100 C-55.35 101.65 -53.7 103.3 -52 105 C-50.0269158 104.0351879 -48.09641611 103.05768126 -46.2109375 101.9296875 C-40.85867065 98.85498101 -36.11907698 97.99623974 -30 99 C-27.08629574 100.09381778 -24.69466367 101.40316227 -22 103 C-21.34 102.34 -20.68 101.68 -20 101 C-20.33 106.28 -20.66 111.56 -21 117 C-24.89461998 118.31619567 -28.79059969 119.62808778 -32.6875 120.9375 C-33.79029297 121.31068359 -34.89308594 121.68386719 -36.02929688 122.06835938 C-37.6293457 122.60493164 -37.6293457 122.60493164 -39.26171875 123.15234375 C-40.24100342 123.48226318 -41.22028809 123.81218262 -42.22924805 124.15209961 C-50.32950492 126.63092524 -58.1249201 127.33322629 -65.91796875 123.5390625 C-70.85630332 119.88858629 -73.74043671 113.91748043 -75 108 C-77.4784939 82.03856073 -67.07475044 59.86487338 -51 40 C-44.09638416 31.72646993 -36.63120542 24.48211659 -28 18 C-27.19973389 17.39526855 -27.19973389 17.39526855 -26.38330078 16.77832031 C-19.8989906 11.90900571 -13.26106119 7.39204359 -6.25 3.3125 C-5.65340576 2.9611499 -5.05681152 2.6097998 -4.44213867 2.24780273 C-2.99723533 1.43161225 -1.50168326 0.70630018 0 0 Z " fill="#F7E9DB" transform="translate(183,170)"/>
<path d="M0 0 C11.28139502 6.40201865 18.85533551 17.39273232 22.890625 29.55078125 C24.66928587 37.39594617 24.84526722 46.38252676 20.546875 53.4453125 C18.67827771 55.92630722 17.02582466 57.47227093 14.546875 59.4453125 C12.54492188 59.36938477 12.54492188 59.36938477 10.546875 58.4453125 C8.99804688 56.56616211 8.99804688 56.56616211 7.515625 54.09765625 C6.9585083 53.19015625 6.4013916 52.28265625 5.82739258 51.34765625 C5.23982178 50.36925781 4.65225098 49.39085937 4.046875 48.3828125 C-1.97354251 38.64063943 -8.39153787 29.45193739 -15.453125 20.4453125 C-15.97664551 19.77371094 -16.50016602 19.10210937 -17.03955078 18.41015625 C-20.15992504 14.40787518 -23.29801259 10.42025726 -26.453125 6.4453125 C-20.47740636 -4.34318552 -10.44101889 -4.63685 0 0 Z " fill="#516667" transform="translate(371.453125,72.5546875)"/>
<path d="M0 0 C1.65625 1.08984375 1.65625 1.08984375 3.90625 3.08984375 C3.38154416 7.00132557 2.48817337 8.99422146 -0.23046875 11.8359375 C-4.11299582 16.06287432 -7.52393364 20.51983297 -10.90625 25.15234375 C-11.51082031 25.97653809 -12.11539063 26.80073242 -12.73828125 27.64990234 C-18.08442983 34.98528258 -23.13557587 42.48912626 -28.09375 50.08984375 C-29.29984683 51.90383276 -30.50781841 53.71657861 -31.71875 55.52734375 C-32.18539062 56.22730469 -32.65203125 56.92726562 -33.1328125 57.6484375 C-33.44992188 58.12410156 -33.76703125 58.59976563 -34.09375 59.08984375 C-37.87931979 57.38828867 -39.21817627 55.84099122 -41.09375 52.08984375 C-44.00108938 43.26757252 -42.92875488 31.4398189 -39.09375 23.08984375 C-31.93249013 9.63880007 -17.32545385 -7.53140065 0 0 Z " fill="#384A49" transform="translate(164.09375,70.91015625)"/>
<path d="M0 0 C-0.06960938 1.52367188 -0.06960938 1.52367188 -0.140625 3.078125 C-0.61735113 17.93639151 2.89792799 30.03953003 13.1015625 41.32421875 C18.1747608 46.17333585 23.33554008 48.88518182 30 51 C29.48195645 54.65751228 28.81472881 56.7544224 26.1875 59.375 C25.68605469 59.89835937 25.18460937 60.42171875 24.66796875 60.9609375 C23 62 23 62 21.08520508 61.83666992 C18.24610105 60.69750478 17.53458238 59.25974348 15.96875 56.65234375 C15.4116333 55.74484375 14.8545166 54.83734375 14.28051758 53.90234375 C13.69294678 52.92394531 13.10537598 51.94554687 12.5 50.9375 C6.47958249 41.19532693 0.06158713 32.00662489 -7 23 C-7.52352051 22.32839844 -8.04704102 21.65679687 -8.58642578 20.96484375 C-11.70680004 16.96256268 -14.84488759 12.97494476 -18 9 C-13.51018441 0.86979339 -8.66007244 -0.24280577 0 0 Z " fill="#394B4A" transform="translate(363,70)"/>
<path d="M0 0 C2.82689795 1.25639909 4.47004961 2.32551768 6.375 4.75 C7.33008949 8.18832218 6.90421661 10.56397688 6 14 C3.93031357 17.03985194 2.48712557 18.69780336 -1.19140625 19.4453125 C-4.86502104 19.62687501 -7.28557573 19.41079395 -10.5 17.5625 C-12.68611575 13.82788559 -13.34623594 10.3164081 -13 6 C-9.4935259 0.19618081 -6.59747889 -0.4472867 0 0 Z " fill="#617F7F" transform="translate(285,73)"/>
<path d="M0 0 C2.48889186 1.8666689 3.53588734 3.43697001 4.75 6.3125 C4.75 10.56023336 4.14441358 12.73320506 1.75 16.25 C-1.81384801 18.70014551 -3.91971811 18.99782611 -8.16015625 18.72265625 C-10.25 18.3125 -10.25 18.3125 -12.75 16.8125 C-14.82041793 13.36180346 -15.59796849 10.34120182 -15.25 6.3125 C-11.64935782 -0.51630413 -7.64338389 -2.33547841 0 0 Z " fill="#617F7F" transform="translate(236.25,73.6875)"/>
<path d="M0 0 C2.2227858 3.96926035 4.47813386 8.63843451 3.55078125 13.21875 C3.36902344 13.8065625 3.18726563 14.394375 3 15 C2.29634398 13.4447088 1.61270622 11.88035173 0.9375 10.3125 C0.55464844 9.44238281 0.17179687 8.57226562 -0.22265625 7.67578125 C-1.0935848 4.67786136 -0.85006226 2.96719847 0 0 Z " fill="#88A7AB" transform="translate(431,243)"/>
</svg>
