<?xml version="1.0" encoding="UTF-8"?>
<svg version="1.1" xmlns="http://www.w3.org/2000/svg" width="480" height="480">
<path d="M0 0 C158.4 0 316.8 0 480 0 C480 158.4 480 316.8 480 480 C321.6 480 163.2 480 0 480 C0 321.6 0 163.2 0 0 Z " fill="#FEFEFE" transform="translate(0,0)"/>
<path d="M0 0 C2.1980588 0.01611552 4.3942803 0.00001064 6.59228516 -0.01904297 C20.12263704 -0.03962838 33.19416346 2.04692548 46.19775391 5.82861328 C47.33132324 6.15273193 47.33132324 6.15273193 48.48779297 6.48339844 C53.79828375 8.04023855 58.76031416 9.87938435 63.69775391 12.39111328 C64.72642578 12.87064453 65.75509766 13.35017578 66.81494141 13.84423828 C80.35717025 20.29866361 92.33737795 28.61315975 103.69775391 38.39111328 C102.23906637 41.75110347 100.38906442 43.94314434 97.79882812 46.51708984 C96.99814911 47.3176178 96.19747009 48.11814575 95.37252808 48.94293213 C94.50789948 49.79723816 93.64327087 50.65154419 92.75244141 51.53173828 C91.8674295 52.41392029 90.9824176 53.29610229 90.07058716 54.20501709 C87.72325259 56.54305871 85.37168605 58.87667202 83.01794434 61.20825195 C80.61461464 63.59107854 78.21697624 65.97961676 75.81884766 68.36767578 C71.11703924 73.0474319 66.40956727 77.72143195 61.69775391 82.39111328 C58.10125957 80.67332032 55.21351081 78.54398315 52.07275391 76.07861328 C33.13971489 61.74751318 10.34912809 59.08160193 -12.85644531 61.67675781 C-34.57713237 64.89480692 -55.42459808 78.66200397 -68.55810547 96.05419922 C-71.0713595 99.68998237 -73.2138918 103.50048063 -75.30224609 107.39111328 C-76.14916016 108.90705078 -76.14916016 108.90705078 -77.01318359 110.45361328 C-80.6430548 117.25298179 -82.84162669 123.83651891 -84.30224609 131.39111328 C-84.50720703 132.40818359 -84.71216797 133.42525391 -84.92333984 134.47314453 C-88.30659636 153.39604822 -86.86188055 174.36965304 -77.30224609 191.39111328 C-76.77630859 192.37208984 -76.25037109 193.35306641 -75.70849609 194.36376953 C-71.86476589 201.27374816 -67.52162151 207.45610138 -62.30224609 213.39111328 C-61.58681641 214.21353516 -60.87138672 215.03595703 -60.13427734 215.88330078 C-45.74845952 231.35347673 -24.57545845 241.0239293 -3.47021484 241.82470703 C-1.14350373 241.84755338 1.18351508 241.84843795 3.51025391 241.82861328 C5.34185059 241.82051636 5.34185059 241.82051636 7.21044922 241.81225586 C16.60845257 241.65445822 24.8186544 240.48294257 33.69775391 237.39111328 C34.46087891 237.15263672 35.22400391 236.91416016 36.01025391 236.66845703 C37.96928471 236.008864 39.81384541 235.24166999 41.69775391 234.39111328 C43.0609375 233.79556641 43.0609375 233.79556641 44.45166016 233.18798828 C62.67575076 224.71599725 74.61028489 210.47406589 81.87353516 191.93798828 C82.99412585 188.47530993 83.81504868 184.9219342 84.69775391 181.39111328 C57.63775391 181.39111328 30.57775391 181.39111328 2.69775391 181.39111328 C2.69775391 162.25111328 2.69775391 143.11111328 2.69775391 123.39111328 C49.55775391 123.39111328 96.41775391 123.39111328 144.69775391 123.39111328 C146.68036636 133.30417557 148.2017766 141.49026207 148.07275391 151.32861328 C148.06260254 152.48393555 148.05245117 153.63925781 148.04199219 154.82958984 C147.59602916 180.1284846 143.32286281 205.7052807 131.69775391 228.39111328 C131.39111816 228.99213867 131.08448242 229.59316406 130.76855469 230.21240234 C118.36824273 254.06162856 99.29498485 273.17239184 75.69775391 285.95361328 C75.08730225 286.28804443 74.47685059 286.62247559 73.84790039 286.96704102 C70.14846225 288.90096542 66.84270809 289.92986076 62.69775391 290.39111328 C62.69775391 291.05111328 62.69775391 291.71111328 62.69775391 292.39111328 C56.06255016 294.5087315 49.39724305 296.48721139 42.69775391 298.39111328 C41.94478027 298.61444336 41.19180664 298.83777344 40.41601562 299.06787109 C15.84471169 306.13656005 -15.08691447 305.06243496 -39.30224609 297.39111328 C-40.65793701 296.98094971 -40.65793701 296.98094971 -42.04101562 296.5625 C-60.39047621 290.90098492 -77.84725059 282.15560931 -92.30224609 269.39111328 C-93.31029297 268.58544922 -94.31833984 267.77978516 -95.35693359 266.94970703 C-107.94439536 256.86066287 -117.65906149 244.83283336 -126.17480469 231.18212891 C-127.21503149 229.52965948 -128.29786794 227.90421836 -129.38427734 226.28173828 C-138.89311149 211.20264035 -144.64504363 191.97135461 -147.30224609 174.39111328 C-147.48142578 173.25287109 -147.66060547 172.11462891 -147.84521484 170.94189453 C-150.95491719 144.98170677 -147.44434387 119.67691763 -138.0703125 95.3984375 C-137.45267279 93.78425006 -136.87648924 92.15423071 -136.31396484 90.52001953 C-131.89690154 78.10618759 -123.96994075 66.20550685 -115.30224609 56.39111328 C-114.15369141 55.08013672 -114.15369141 55.08013672 -112.98193359 53.74267578 C-99.10049721 38.12033318 -84.4336319 25.75394119 -66.11474609 15.76611328 C-65.49108154 15.42298096 -64.86741699 15.07984863 -64.22485352 14.72631836 C-60.89507039 12.97204432 -59.16575688 12.39111328 -55.30224609 12.39111328 C-55.30224609 11.73111328 -55.30224609 11.07111328 -55.30224609 10.39111328 C-51.82866559 9.26886541 -48.34749016 8.17205851 -44.86474609 7.07861328 C-43.91019531 6.76988281 -42.95564453 6.46115234 -41.97216797 6.14306641 C-28.11185185 1.82591876 -14.49124332 -0.12561869 0 0 Z " fill="#34A853" transform="translate(237.30224609375,88.60888671875)"/>
<path d="M0 0 C2.1980588 0.01611552 4.3942803 0.00001064 6.59228516 -0.01904297 C20.12263704 -0.03962838 33.19416346 2.04692548 46.19775391 5.82861328 C47.33132324 6.15273193 47.33132324 6.15273193 48.48779297 6.48339844 C53.79828375 8.04023855 58.76031416 9.87938435 63.69775391 12.39111328 C64.72642578 12.87064453 65.75509766 13.35017578 66.81494141 13.84423828 C80.35717025 20.29866361 92.33737795 28.61315975 103.69775391 38.39111328 C102.23906637 41.75110347 100.38906442 43.94314434 97.79882812 46.51708984 C96.99814911 47.3176178 96.19747009 48.11814575 95.37252808 48.94293213 C94.50789948 49.79723816 93.64327087 50.65154419 92.75244141 51.53173828 C91.8674295 52.41392029 90.9824176 53.29610229 90.07058716 54.20501709 C87.72325259 56.54305871 85.37168605 58.87667202 83.01794434 61.20825195 C80.61461464 63.59107854 78.21697624 65.97961676 75.81884766 68.36767578 C71.11703924 73.0474319 66.40956727 77.72143195 61.69775391 82.39111328 C58.10125957 80.67332032 55.21351081 78.54398315 52.07275391 76.07861328 C33.13971489 61.74751318 10.34912809 59.08160193 -12.85644531 61.67675781 C-34.57713237 64.89480692 -55.42459808 78.66200397 -68.55810547 96.05419922 C-71.0713595 99.68998237 -73.2138918 103.50048063 -75.30224609 107.39111328 C-76.14916016 108.90705078 -76.14916016 108.90705078 -77.01318359 110.45361328 C-80.6430548 117.25298179 -82.84162669 123.83651891 -84.30224609 131.39111328 C-84.50720703 132.40818359 -84.71216797 133.42525391 -84.92333984 134.47314453 C-87.17250531 147.05295968 -87.1665347 158.83577805 -83.95849609 171.20751953 C-83.22186008 174.78108113 -82.91859802 177.75498211 -83.30224609 181.39111328 C-84.99755859 183.43798828 -84.99755859 183.43798828 -87.42724609 185.14111328 C-88.34763672 185.81400391 -89.26802734 186.48689453 -90.21630859 187.18017578 C-91.23466797 187.90978516 -92.25302734 188.63939453 -93.30224609 189.39111328 C-95.47663363 191.09069659 -97.64208108 192.79876505 -99.80224609 194.51611328 C-102.29932432 196.4781781 -104.80103423 198.43432166 -107.30224609 200.39111328 C-108.05231934 200.97828125 -108.80239258 201.56544922 -109.57519531 202.17041016 C-111.9619432 204.03749059 -114.35056873 205.90214301 -116.73974609 207.76611328 C-117.85736328 208.64033936 -117.85736328 208.64033936 -118.99755859 209.53222656 C-123.35985773 212.9302383 -127.77969794 216.20924146 -132.30224609 219.39111328 C-134.88374368 216.2953474 -136.18103485 213.39775908 -137.45849609 209.58642578 C-137.84005859 208.45180908 -138.22162109 207.31719238 -138.61474609 206.14819336 C-139.00662109 204.94960693 -139.39849609 203.75102051 -139.80224609 202.51611328 C-140.40552734 200.68632935 -140.40552734 200.68632935 -141.02099609 198.81958008 C-143.63870487 190.75387253 -146.03242634 182.7923315 -147.30224609 174.39111328 C-147.48142578 173.25287109 -147.66060547 172.11462891 -147.84521484 170.94189453 C-150.95491719 144.98170677 -147.44434387 119.67691763 -138.0703125 95.3984375 C-137.45267279 93.78425006 -136.87648924 92.15423071 -136.31396484 90.52001953 C-131.89690154 78.10618759 -123.96994075 66.20550685 -115.30224609 56.39111328 C-114.15369141 55.08013672 -114.15369141 55.08013672 -112.98193359 53.74267578 C-99.10049721 38.12033318 -84.4336319 25.75394119 -66.11474609 15.76611328 C-65.49108154 15.42298096 -64.86741699 15.07984863 -64.22485352 14.72631836 C-60.89507039 12.97204432 -59.16575688 12.39111328 -55.30224609 12.39111328 C-55.30224609 11.73111328 -55.30224609 11.07111328 -55.30224609 10.39111328 C-51.82866559 9.26886541 -48.34749016 8.17205851 -44.86474609 7.07861328 C-43.91019531 6.76988281 -42.95564453 6.46115234 -41.97216797 6.14306641 C-28.11185185 1.82591876 -14.49124332 -0.12561869 0 0 Z " fill="#EA4335" transform="translate(237.30224609375,88.60888671875)"/>
<path d="M0 0 C46.86 0 93.72 0 142 0 C143.98261246 9.91306229 145.50402269 18.09914879 145.375 27.9375 C145.36484863 29.09282227 145.35469727 30.24814453 145.34423828 31.43847656 C144.89827526 56.73737132 140.62510891 82.31416742 129 105 C128.69336426 105.60102539 128.38672852 106.20205078 128.07080078 106.82128906 C123.31132614 115.97507388 117.52500539 124.0434354 111 132 C110.26136719 132.91652344 109.52273438 133.83304688 108.76171875 134.77734375 C103.83968288 140.64485544 103.83968288 140.64485544 100.6171875 142.0078125 C96.72371876 141.99619021 95.28357668 140.20389397 92.4375 137.625 C91.37463661 136.68755746 90.30947149 135.75271906 89.2421875 134.8203125 C88.43346191 134.1072998 88.43346191 134.1072998 87.60839844 133.37988281 C85.18187156 131.29810839 82.63168932 129.40133639 80.0625 127.5 C74.68388988 123.51532287 69.36431693 119.46306665 64.0703125 115.3671875 C62.11596231 113.86039842 60.15324877 112.36435019 58.1796875 110.8828125 C57.35726562 110.26148438 56.53484375 109.64015625 55.6875 109 C54.96949219 108.46375 54.25148438 107.9275 53.51171875 107.375 C53.01285156 106.92125 52.51398438 106.4675 52 106 C52 105.34 52 104.68 52 104 C53.47479678 102.73588848 55.0071727 101.53859807 56.5625 100.375 C70.44986286 89.46070637 77.77097112 74.91611553 82 58 C54.94 58 27.88 58 0 58 C0 38.86 0 19.72 0 0 Z " fill="#4185F3" transform="translate(240,212)"/>
<path d="M0 0 C4.94317333 2.65788717 9.06116125 5.53490284 13.25 9.25 C18.12176556 13.47454183 23.12023019 17.36172031 28.37890625 21.1015625 C31.88089615 23.63802613 35.24024088 26.32140756 38.5546875 29.09765625 C40.95405107 31.06487855 40.95405107 31.06487855 43.6953125 32.49609375 C46.50217759 34.14845317 48.20062899 35.26864709 50 38 C50.19345647 42.88732136 49.45365709 47.30704366 48.4140625 52.06469727 C45.83782238 64.1058856 46.27047754 75.96438791 49.34375 87.81640625 C50.08038601 91.38996785 50.38364807 94.36386883 50 98 C48.3046875 100.046875 48.3046875 100.046875 45.875 101.75 C44.95460937 102.42289062 44.03421875 103.09578125 43.0859375 103.7890625 C42.06757813 104.51867187 41.04921875 105.24828125 40 106 C37.82561247 107.69958331 35.66016502 109.40765177 33.5 111.125 C31.00292177 113.08706482 28.50121186 115.04320838 26 117 C25.24992676 117.58716797 24.49985352 118.17433594 23.72705078 118.77929688 C21.3403029 120.6463773 18.95167737 122.51102973 16.5625 124.375 C15.81742188 124.95781738 15.07234375 125.54063477 14.3046875 126.14111328 C9.94238837 129.53912502 5.52254815 132.81812818 1 136 C-1.58149758 132.90423412 -2.87878875 130.0066458 -4.15625 126.1953125 C-4.5378125 125.0606958 -4.919375 123.9260791 -5.3125 122.75708008 C-5.704375 121.55849365 -6.09625 120.35990723 -6.5 119.125 C-6.9021875 117.90514404 -7.304375 116.68528809 -7.71875 115.4284668 C-10.33645878 107.36275925 -12.73018024 99.40121822 -14 91 C-14.17917969 89.86175781 -14.35835938 88.72351563 -14.54296875 87.55078125 C-17.75603169 60.72772622 -13.75569767 35.01400775 -4 10 C-3.55785156 8.8553125 -3.11570312 7.710625 -2.66015625 6.53125 C-1.79659511 4.34315203 -0.91762882 2.16583199 0 0 Z " fill="#FABB05" transform="translate(104,172)"/>
</svg>
