<?xml version="1.0" encoding="UTF-8"?>
<svg version="1.1" xmlns="http://www.w3.org/2000/svg" width="414" height="414">
<path d="M0 0 C136.62 0 273.24 0 414 0 C414 136.62 414 273.24 414 414 C277.38 414 140.76 414 0 414 C0 277.38 0 140.76 0 0 Z " fill="#B1C147" transform="translate(0,0)"/>
<path d="M0 0 C0.67691895 0.14985352 1.35383789 0.29970703 2.05126953 0.45410156 C9.67375316 2.19395608 16.83840128 4.55700302 23.9921875 7.6953125 C29.25566847 9.97843282 34.63606088 11.96689405 40 14 C40 14.66 40 15.32 40 16 C40.680625 15.896875 41.36125 15.79375 42.0625 15.6875 C46.1783541 16.12535682 49.02149733 18.16741821 52 21 C52 21.66 52 22.32 52 23 C52.639375 23.185625 53.27875 23.37125 53.9375 23.5625 C56 25 56 25 57.125 28.3125 C57 32 57 32 54.375 34.8125 C49.10657755 38.48589547 44.44034918 39.70581929 38 39 C34.40244105 37.99129514 30.96950101 36.62983223 27.5 35.25 C-6.07625698 22.44764362 -43.45231767 21.79564152 -76.6875 36.375 C-78.46624752 37.23379738 -80.23690025 38.10951981 -82 39 C-83.02480469 39.50144531 -84.04960937 40.00289062 -85.10546875 40.51953125 C-93.52038178 44.81244387 -100.79304902 49.95362042 -108 56 C-108.5357666 56.44923828 -109.0715332 56.89847656 -109.62353516 57.36132812 C-116.53577016 63.23892257 -122.07450525 69.33811928 -127 77 C-128.20572888 78.64774229 -129.41408761 80.29356326 -130.625 81.9375 C-134.16773075 87.00535251 -136.70780422 92.26951056 -139 98 C-139.309375 98.7734375 -139.61875 99.546875 -139.9375 100.34375 C-141.70770431 105.17776947 -142.37175072 109.59047975 -142.49609375 114.73828125 C-143 117 -143 117 -144.99829102 118.76098633 C-147.59265796 121.66291818 -147.51504949 123.23658137 -147.53125 127.0859375 C-147.53640625 128.26414063 -147.5415625 129.44234375 -147.546875 130.65625 C-147.53140625 131.8834375 -147.5159375 133.110625 -147.5 134.375 C-147.51546875 135.59445313 -147.5309375 136.81390625 -147.546875 138.0703125 C-147.5172315 144.85867446 -147.22513517 148.70393948 -143 154 C-142.71484375 156.60546875 -142.71484375 156.60546875 -142.9375 159.1875 C-143.15548494 165.09731383 -142.36945396 170.54495115 -140 176 C-139.3090625 176.68707031 -138.618125 177.37414062 -137.90625 178.08203125 C-136 180 -136 180 -135.75 183.75 C-135.8325 184.8225 -135.915 185.895 -136 187 C-134.85724609 187.35578125 -134.85724609 187.35578125 -133.69140625 187.71875 C-130.52382617 189.22668362 -129.68205524 190.50655702 -127.9375 193.5 C-126.09963666 196.86136889 -126.09963666 196.86136889 -123.00390625 198.84375 C-120.3160124 200.39465951 -119.91889045 202.36531258 -118.84033203 205.16796875 C-112.19555268 219.65443716 -91.67481109 228.60480724 -77.8125 233.8125 C-54.7142085 242.27913354 -21.78957292 238.40721178 0.22363281 228.82373047 C19.77660007 219.7567003 37.7348643 201.19218697 45.4375 181.1875 C51.85762341 163.07872141 47.99739759 144.26567228 40.359375 127.37109375 C34.34998285 115.47867517 26.94703578 106.17787508 15 100 C14.02716064 99.48675171 14.02716064 99.48675171 13.03466797 98.96313477 C7.09657551 96.04551772 1.68380137 95.22474105 -4.875 94.8125 C-6.72677569 94.67603995 -8.57835204 94.53683936 -10.4296875 94.39453125 C-11.23647949 94.34143799 -12.04327148 94.28834473 -12.87451172 94.23364258 C-15 94 -15 94 -18 93 C-33.77165971 91.00400157 -51.62066793 97.89335224 -64.046875 107.30859375 C-66.48660422 109.44877042 -68.76641492 111.64723152 -71 114 C-71.50789063 114.51175781 -72.01578125 115.02351563 -72.5390625 115.55078125 C-79.50052063 123.1315102 -82.2784961 132.08247138 -82.23828125 142.109375 C-81.94078603 145.71833338 -80.95572839 148.70526805 -79.55859375 152.02734375 C-78.87407149 154.44471257 -79.13496936 155.66016302 -80 158 C-80.66 158.99 -81.32 159.98 -82 161 C-81.11828125 161.14501953 -81.11828125 161.14501953 -80.21875 161.29296875 C-77.54238867 162.14582333 -76.41582947 163.27910826 -74.5 165.3125 C-73.89800781 165.94027344 -73.29601562 166.56804687 -72.67578125 167.21484375 C-72.12277344 167.80394531 -71.56976563 168.39304688 -71 169 C-67.60155974 172.77787707 -67.60155974 172.77787707 -62.94140625 174.1328125 C-62.15636719 174.13023437 -61.37132812 174.12765625 -60.5625 174.125 C-59.38880859 174.12886719 -59.38880859 174.12886719 -58.19140625 174.1328125 C-55.82104653 174.08382548 -55.82104653 174.08382548 -53 173 C-53 171.68 -53 170.36 -53 169 C-53.66 169 -54.32 169 -55 169 C-54.67 163.39 -54.34 157.78 -54 152 C-53.01 151.67 -52.02 151.34 -51 151 C-50.9175 149.96875 -50.835 148.9375 -50.75 147.875 C-49.9279118 143.6275443 -48.79892036 141.27873528 -46 138 C-44.68 138 -43.36 138 -42 138 C-42 137.01 -42 136.02 -42 135 C-38.94315824 133.25222242 -36.49951852 132.6882277 -33 132.4375 C-29.47330719 132.18057455 -29.47330719 132.18057455 -26.03125 131.4375 C-18.14171414 129.73821535 -9.4256753 133.64556857 -2.63671875 137.29296875 C2.89028411 140.87119135 6.72536775 145.80794555 9 152 C9.35295163 155.48376335 9.6016214 158.7967572 8 162 C7.89503928 164.33246053 7.81587597 166.66610856 7.75 169 C7.02414464 181.88202245 0.56199523 190.0100385 -8.49511719 198.65722656 C-19.32169457 208.31754058 -36.89622039 207.90694761 -50.70507812 207.20410156 C-70.9676142 205.4020292 -86.02002113 194.93834021 -99.87890625 180.6015625 C-110.72209869 167.30217729 -114.15444454 148.7033695 -113 132 C-109.94362098 109.88900801 -97.27737355 92.64404353 -80 79 C-56.56917511 63.00395609 -23.93048282 58.40658504 3.8125 63.125 C27.95242533 67.69801191 49.83204955 81.1791592 63.97387695 101.40942383 C72.48757667 114.10586334 78.34566919 127.1637189 82 142 C82.2475 142.99257812 82.495 143.98515625 82.75 145.0078125 C87.7895471 169.57560459 82.63441016 195.09625454 69.32421875 216.15942383 C64.80344547 222.97819854 59.71739434 229.14118601 54 235 C53.27039063 235.76828125 52.54078125 236.5365625 51.7890625 237.328125 C42.82207573 246.57827977 33.49332798 253.19629716 22 259 C21.16726563 259.45246094 20.33453125 259.90492188 19.4765625 260.37109375 C-1.33044163 271.46585841 -25.4046927 275.37322705 -48.68603516 275.31567383 C-51.39134867 275.3124807 -54.09559949 275.33617614 -56.80078125 275.36132812 C-58.54166531 275.36359873 -60.28255226 275.36430573 -62.0234375 275.36328125 C-63.2204982 275.37709587 -63.2204982 275.37709587 -64.44174194 275.39118958 C-69.71933561 275.34784099 -73.2566538 274.30936801 -78 272 C-80.77888613 271.30859478 -80.77888613 271.30859478 -83 271 C-83 270.34 -83 269.68 -83 269 C-84.27875 268.938125 -85.5575 268.87625 -86.875 268.8125 C-90.58965294 268.40056168 -93.31818203 267.52791932 -96.61328125 265.77734375 C-100.22515453 263.90413631 -103.85166895 262.11687124 -107.55078125 260.421875 C-123.57046038 253.02395064 -138.16807332 245.9782408 -148.125 230.75 C-149.80601617 228.28450962 -150.8667474 227.25780154 -153.1875 225.5625 C-156.68048393 222.38000353 -156.48450458 220.55354291 -157 216 C-158.81601365 214.79996657 -158.81601365 214.79996657 -161 214 C-165.17918853 209.65364393 -167.20999043 204.48018625 -169.5 199 C-169.89654785 198.05954834 -170.2930957 197.11909668 -170.70166016 196.15014648 C-185.86892897 159.66154753 -187.11821304 116.76923094 -172 80 C-170.79350917 77.53957208 -169.51739869 75.20910232 -168.0859375 72.875 C-166.65048173 70.39651522 -165.74733634 67.83656106 -164.87109375 65.1171875 C-162.49260433 59.33628495 -159.05023171 54.4694068 -155 49.75 C-154.51998535 49.19062744 -154.0399707 48.63125488 -153.54541016 48.05493164 C-116.50305547 5.68736325 -54.51445836 -12.25247746 0 0 Z " fill="#1F1F1E" transform="translate(257,72)"/>
</svg>
