<?xml version="1.0" encoding="UTF-8"?>
<svg version="1.1" xmlns="http://www.w3.org/2000/svg" width="980" height="980">
<path d="M0 0 C1.18356148 -0.00175304 2.36712296 -0.00350607 3.58654994 -0.00531223 C6.85013668 -0.00914263 10.11368685 -0.00855361 13.37727371 -0.00603446 C16.93617336 -0.00439179 20.49506721 -0.00855016 24.05396497 -0.01194364 C30.28448515 -0.01708364 36.51499755 -0.01851727 42.74551964 -0.01748753 C52.01096658 -0.01595994 61.27640496 -0.02013025 70.54185023 -0.02536215 C88.05489397 -0.03502515 105.56793477 -0.037846 123.08098085 -0.03841921 C136.60742974 -0.03887904 150.13387749 -0.04093887 163.660326 -0.04411983 C167.55620015 -0.0450174 171.45207429 -0.04590722 175.34794843 -0.04679471 C176.80080568 -0.04712628 176.80080568 -0.04712628 178.28301358 -0.04746456 C205.52146471 -0.05361742 232.75991545 -0.05756525 259.99836731 -0.05712128 C261.02499193 -0.0571057 262.05161654 -0.05709012 263.109351 -0.05707407 C268.31251605 -0.05699096 273.5156811 -0.05689192 278.71884616 -0.05678936 C280.26885072 -0.05675944 280.26885072 -0.05675944 281.85016851 -0.05672892 C283.93982599 -0.05668848 286.02948346 -0.05664669 288.11914094 -0.05660353 C320.62676643 -0.05599085 353.1343815 -0.06349652 385.64200401 -0.07717609 C422.17851383 -0.0925448 458.7150168 -0.10114184 495.25153005 -0.10021287 C499.14929032 -0.10013824 503.04705059 -0.10008954 506.94481087 -0.10005856 C507.90451198 -0.1000469 508.8642131 -0.10003525 509.85299607 -0.10002324 C525.28029623 -0.0999925 540.70758732 -0.10637153 556.1348848 -0.11499082 C571.6463686 -0.12347775 587.15783915 -0.1244491 602.669324 -0.1178815 C611.87713593 -0.11419283 621.08490756 -0.11599778 630.2927152 -0.12582384 C636.45293365 -0.13184065 642.61312303 -0.13050954 648.77334017 -0.12335334 C652.27682312 -0.11948616 655.78022832 -0.11865442 659.28370567 -0.12681069 C695.28794535 -0.19430949 695.28794535 -0.19430949 711.32901573 4.31613445 C712.10914024 4.529716 712.88926476 4.74329754 713.6930294 4.96335125 C748.62178783 14.96376001 776.76928076 39.12205128 794.82413292 70.31711102 C806.55923321 91.47222379 810.87810813 115.35432956 810.83265018 139.3043642 C810.83440322 140.48707144 810.83615626 141.66977867 810.83796242 142.88832551 C810.84179706 146.15417165 810.84120166 149.41998133 810.83868465 152.6858276 C810.83704367 156.24542337 810.84119895 159.80501333 810.84459382 163.36460721 C810.84973652 169.59787047 810.85116699 175.83112597 810.85013771 182.06439114 C810.84861082 191.33387952 810.85277888 200.60335934 810.85801234 209.87284606 C810.86767791 227.39317458 810.87049628 244.91350018 810.87106939 262.43383105 C810.87152914 275.96555654 810.87358852 289.49728089 810.87677002 303.029006 C810.87766758 306.92572033 810.87855739 310.82243466 810.8794449 314.71914899 C810.87966595 315.6879169 810.87988699 316.65668481 810.88011474 317.65480932 C810.88626806 344.90076171 810.89021539 372.1467137 810.88977146 399.39266682 C810.88975588 400.41968267 810.8897403 401.44669852 810.88972425 402.50483606 C810.88964115 407.71003991 810.88954211 412.91524375 810.88943955 418.12044759 C810.88940963 419.67107246 810.88940963 419.67107246 810.88937911 421.25302309 C810.88933867 423.34351717 810.88929687 425.43401124 810.88925371 427.52450532 C810.88864103 460.04538486 810.8961466 492.56625398 810.90982628 525.08713055 C810.92519343 561.63461048 810.93379212 598.18208356 810.93286306 634.72956693 C810.93278843 638.62816739 810.93273972 642.52676785 810.93270874 646.42536831 C810.93269126 647.86524087 810.93269126 647.86524087 810.93267342 649.33420176 C810.93264268 664.76826321 810.93902307 680.20231559 810.947641 695.63637435 C810.95612603 711.15356393 810.95710078 726.67074027 810.95053168 742.1879309 C810.94684171 751.40039154 810.94865186 760.6128119 810.95847402 769.82526826 C810.96448749 775.98734448 810.9631634 782.14939163 810.95600353 788.31146654 C810.95213354 791.8168484 810.95131283 795.32215251 810.95946088 798.82752879 C811.02444576 833.53675609 811.02444576 833.53675609 806.45401573 849.75363445 C806.23713097 850.542299 806.0202462 851.33096355 805.79678917 852.14352703 C796.02527768 886.56968787 773.60763319 915.04339909 742.70401573 933.12863445 C720.18500139 945.4911536 696.99049584 950.30595623 671.40803146 950.25726891 C669.63268924 950.25989846 669.63268924 950.25989846 667.82148153 950.26258114 C664.55789478 950.26641154 661.29434462 950.26582252 658.03075775 950.26330337 C654.47185811 950.2616607 650.91296425 950.26581906 647.35406649 950.26921254 C641.12354632 950.27435254 634.89303391 950.27578618 628.66251183 950.27475643 C619.39706488 950.27322884 610.13162651 950.27739915 600.86618123 950.28263106 C583.3531375 950.29229405 565.8400967 950.29511491 548.32705061 950.29568812 C534.80060172 950.29614794 521.27415398 950.29820778 507.74770546 950.30138874 C503.85183132 950.30228631 499.95595718 950.30317612 496.06008303 950.30406362 C494.60722578 950.30439519 494.60722578 950.30439519 493.12501789 950.30473346 C465.88656675 950.31088633 438.64811601 950.31483416 411.40966415 950.31439018 C410.38303954 950.3143746 409.35641492 950.31435903 408.29868047 950.31434297 C403.09551541 950.31425987 397.89235036 950.31416083 392.68918531 950.31405827 C391.65584893 950.31403832 390.62251255 950.31401838 389.55786295 950.31399783 C387.46820548 950.31395739 385.378548 950.31391559 383.28889053 950.31387244 C350.78126503 950.31325976 318.27364996 950.32076542 285.76602745 950.334445 C249.22951763 950.34981371 212.69301467 950.35841075 176.15650141 950.35748178 C172.25874114 950.35740715 168.36098087 950.35735844 164.4632206 950.35732746 C163.50351948 950.35731581 162.54381836 950.35730415 161.5550354 950.35729215 C146.12773523 950.3572614 130.70044414 950.36364044 115.27314667 950.37225973 C99.76166287 950.38074666 84.25019231 950.38171801 68.73870747 950.3751504 C59.53089554 950.37146173 50.3231239 950.37326668 41.11531626 950.38309274 C34.95509781 950.38910955 28.79490843 950.38777844 22.63469129 950.38062225 C19.13120834 950.37675507 15.62780315 950.37592333 12.1243258 950.3840796 C-23.87991389 950.4515784 -23.87991389 950.4515784 -39.92098427 945.94113445 C-41.09117104 945.62076214 -41.09117104 945.62076214 -42.28499794 945.29391766 C-77.21375637 935.29350889 -105.3612493 911.13521763 -123.41610146 879.94015789 C-135.15120175 858.78504512 -139.47007667 834.90293935 -139.42461872 810.9529047 C-139.42637176 809.77019747 -139.4281248 808.58749024 -139.42993096 807.36894339 C-139.4337656 804.10309725 -139.4331702 800.83728758 -139.43065318 797.57144131 C-139.4290122 794.01184553 -139.43316749 790.45225558 -139.43656236 786.89266169 C-139.44170506 780.65939843 -139.44313552 774.42614294 -139.44210625 768.19287777 C-139.44057936 758.92338938 -139.44474742 749.65390956 -139.44998087 740.38442284 C-139.45964644 722.86409432 -139.46246482 705.34376873 -139.46303793 687.82343785 C-139.46349767 674.29171236 -139.46555706 660.75998802 -139.46873856 647.2282629 C-139.46963612 643.33154857 -139.47052593 639.43483424 -139.47141343 635.53811991 C-139.47163448 634.56935201 -139.47185553 633.6005841 -139.47208328 632.60245959 C-139.4782366 605.3565072 -139.48218393 578.1105552 -139.48174 550.86460209 C-139.48172442 549.83758624 -139.48170884 548.81057039 -139.48169279 547.75243284 C-139.48160968 542.547229 -139.48151064 537.34202516 -139.48140808 532.13682131 C-139.48138814 531.1030714 -139.48136819 530.06932149 -139.48134764 529.00424582 C-139.4813072 526.91375174 -139.48126541 524.82325767 -139.48122225 522.73276359 C-139.48060957 490.21188404 -139.48811513 457.69101492 -139.50179482 425.17013836 C-139.51716197 388.62265843 -139.52576066 352.07518534 -139.52483159 315.52770197 C-139.52475696 311.62910151 -139.52470826 307.73050106 -139.52467728 303.8319006 C-139.52466562 302.87198556 -139.52465397 301.91207052 -139.52464196 300.92306714 C-139.52461121 285.4890057 -139.53099161 270.05495331 -139.53960954 254.62089456 C-139.54809456 239.10370498 -139.54906932 223.58652863 -139.54250022 208.06933801 C-139.53881025 198.85687737 -139.54062039 189.644457 -139.55044256 180.43200065 C-139.55645603 174.26992442 -139.55513194 168.10787727 -139.54797206 161.94580237 C-139.54410208 158.44042051 -139.54328136 154.9351164 -139.55142941 151.42974012 C-139.6164143 116.72051281 -139.6164143 116.72051281 -135.04598427 100.50363445 C-134.8290995 99.7149699 -134.61221474 98.92630535 -134.38875771 98.11374187 C-124.61724622 63.68758104 -102.19960172 35.21386982 -71.29598427 17.12863445 C-48.77696993 4.76611531 -25.58246437 -0.04868732 0 0 Z " fill="#FEFEFE" transform="translate(154.29598426818848,14.871365547180176)"/>
<path d="M0 0 C0.83595703 0.48645996 1.67191406 0.97291992 2.53320312 1.47412109 C7.04306782 4.11114395 11.5341091 6.778694 16.01953125 9.45703125 C22.51001372 13.32054269 29.06232069 17.07335556 35.625 20.8125 C36.21231903 21.14727356 36.79963806 21.48204712 37.40475464 21.82696533 C40.4037345 23.53614998 43.40335251 25.24421025 46.40332031 26.95166016 C51.6913621 29.96212585 56.97351751 32.98288951 62.25604248 36.00302124 C65.17044626 37.6691161 68.08524327 39.33452271 71 41 C72.16666854 41.66666338 73.33333521 42.33333005 74.5 43 C75.36625 43.495 75.36625 43.495 76.25 44 C109.5 63 109.5 63 111.24975586 63.99987793 C112.4172163 64.66698655 113.58469679 65.33406008 114.75219727 66.00109863 C117.65688462 67.66071756 120.56115025 69.32106398 123.46484375 70.98242188 C128.85697016 74.06705211 134.25208111 77.14601632 139.65917969 80.2043457 C142.17089455 81.62548145 144.68072287 83.04993115 147.19042969 84.47460938 C148.92982794 85.46023709 150.67189165 86.4411564 152.4140625 87.421875 C170.89052444 97.91685816 187.97707013 108.44267532 196.125 128.8125 C198.43252241 137.21847449 199.29526407 145.3776751 199.26742554 154.07228088 C199.27195665 155.13070299 199.27648776 156.18912509 199.28115618 157.27962059 C199.29373145 160.7965666 199.29218425 164.31335638 199.29052734 167.83032227 C199.29651696 170.36428525 199.3033235 172.89824641 199.31088257 175.4322052 C199.32667962 181.58429802 199.33298915 187.73633443 199.33410732 193.88844562 C199.33506113 198.89566193 199.33918792 203.90286571 199.34550858 208.91007805 C199.36310455 223.14167023 199.37235025 237.37323238 199.37084763 251.60483552 C199.37072776 252.75334111 199.37072776 252.75334111 199.37060547 253.92504883 C199.37052371 254.69166656 199.37044195 255.4582843 199.37035771 256.24813288 C199.36954571 268.65752296 199.38866578 281.06679141 199.4168822 293.47614635 C199.44570118 306.25251033 199.4594175 319.02881517 199.45769465 331.80521244 C199.45703375 338.96423958 199.46239288 346.12313927 199.48405075 353.28213692 C199.50431112 360.02182343 199.5034974 366.76119792 199.48901749 373.50091362 C199.48693908 375.96219146 199.49157187 378.42348646 199.5037384 380.88473511 C199.6161212 405.21226838 197.03936101 426.42236383 179.5534668 444.56835938 C178.05446679 446.06665793 176.5351739 447.53886652 175 449 C174.20980469 449.76054688 173.41960938 450.52109375 172.60546875 451.3046875 C167.75309611 455.55361345 162.45515377 458.5112886 156.6875 461.3125 C156.02468018 461.63839111 155.36186035 461.96428223 154.67895508 462.30004883 C143.49389717 467.43862355 132.07043994 468.4436789 119.90859985 468.38095093 C118.4272637 468.38441554 116.94593014 468.38918545 115.46460187 468.39513266 C111.42969612 468.40756244 107.39500546 468.4015092 103.36009932 468.39217401 C98.99461437 468.38535055 94.62916489 468.39588107 90.26368713 468.40411377 C81.72523165 468.41741897 73.18685551 468.41458753 64.64839698 468.40587585 C57.70470247 468.39908614 50.76103011 468.39818814 43.81733322 468.4014473 C42.33193951 468.40213684 42.33193951 468.40213684 40.81653785 468.40284032 C38.80448075 468.40379955 36.79242367 468.4047722 34.78036658 468.4057581 C15.93445678 468.41430281 -2.91140917 468.40449275 -21.75731178 468.388357 C-37.90528711 468.37495882 -54.05319772 468.37727958 -70.20117188 468.39111328 C-88.97897742 468.40719251 -107.75674456 468.41347456 -126.53455603 468.40427649 C-128.53960458 468.4033209 -130.54465313 468.40237779 -132.54970169 468.4014473 C-133.53607175 468.40098447 -134.52244182 468.40052164 -135.53870188 468.40004479 C-142.4678311 468.39746162 -149.39693583 468.40181144 -156.32606125 468.40888596 C-164.77944048 468.41732741 -173.23273621 468.41496561 -181.68610595 468.39904372 C-185.99381809 468.39119583 -190.30139135 468.38800943 -194.60910225 468.39799118 C-198.56196839 468.40701166 -202.51456856 468.40188596 -206.467411 468.38605852 C-207.88786945 468.38274147 -209.30835096 468.38433429 -210.72879426 468.39168589 C-233.56604687 468.50069924 -252.27951853 462.18383646 -269.125 446.375 C-282.19778293 432.80341455 -290.45218919 415.01153381 -290.1953125 396.02734375 C-290.1924826 395.21882462 -290.18965271 394.41030548 -290.18673706 393.57728577 C-290.17566777 391.03053082 -290.15058958 388.4841461 -290.125 385.9375 C-290.11495302 384.19596867 -290.1058302 382.45443175 -290.09765625 380.71289062 C-290.07577213 376.47512083 -290.04133646 372.23762287 -290 368 C-291.00287552 368.00666183 -292.00575104 368.01332367 -293.03901672 368.02018738 C-302.5274682 368.0812157 -312.01587942 368.12607642 -321.50448322 368.15543652 C-326.38173467 368.17103867 -331.25882664 368.1921765 -336.13598633 368.22631836 C-340.84981524 368.25910731 -345.56349154 368.27689392 -350.27742577 368.28463173 C-352.06860949 368.29014037 -353.85978562 368.30089668 -355.6509037 368.31719017 C-380.25596502 368.53195254 -380.25596502 368.53195254 -387.75 361.5625 C-400.0825002 348.73002545 -400.01210873 337.78518852 -399.88989258 320.6953125 C-399.89774925 318.23027465 -399.90859657 315.7652448 -399.92219543 313.30023193 C-399.94689523 307.32177836 -399.93910463 301.34419222 -399.91528193 295.36580229 C-399.89667427 290.5034439 -399.89225102 285.64125895 -399.89777184 280.77886963 C-399.89855574 280.08456915 -399.89933965 279.39026867 -399.90014732 278.67492878 C-399.90181324 277.26409192 -399.90351703 275.85325511 -399.90525826 274.44241834 C-399.9200165 261.23955437 -399.89277402 248.03703851 -399.85043981 234.83425069 C-399.81508308 223.52674031 -399.81348743 212.21964536 -399.8371582 200.91210938 C-399.86467566 187.75377412 -399.87282797 174.59567354 -399.84922332 161.43732262 C-399.84674205 160.03192523 -399.84427858 158.62652782 -399.84183311 157.22113037 C-399.84061247 156.52980298 -399.83939183 155.83847559 -399.8381342 155.12619889 C-399.83082771 150.27453685 -399.83699206 145.42300073 -399.84833717 140.5713501 C-399.86313797 134.03098689 -399.84554288 127.49123512 -399.80669975 120.95093536 C-399.79720184 118.55649907 -399.79779429 116.1619973 -399.80944061 113.7675705 C-399.87387376 98.93678363 -399.60832532 88.09277153 -389.3125 76.5625 C-380.06227432 68.1872593 -370.21265983 67.3053042 -358.26098633 67.56274414 C-356.70228569 67.57724271 -355.14356073 67.58929861 -353.58482361 67.59912109 C-350.24584701 67.62407745 -346.90748333 67.66362797 -343.56879616 67.71406746 C-338.2643739 67.79156072 -332.96035318 67.82023865 -327.65544128 67.83995056 C-312.57628829 67.90216213 -297.49814735 68.00793302 -282.42016602 68.20874023 C-274.07799077 68.319427 -265.73701318 68.37841568 -257.39408892 68.38292021 C-252.99552651 68.38757812 -248.60065498 68.41749739 -244.20304298 68.51259041 C-222.82903061 68.95995791 -207.98863393 67.83475079 -190.21153831 54.60861015 C-187.27455507 52.47233197 -184.23206465 50.7732466 -181.03125 49.0625 C-180.10441406 48.54816406 -179.17757812 48.03382813 -178.22265625 47.50390625 C-177.32417969 47.00761719 -176.42570313 46.51132812 -175.5 46 C-166.27055348 40.86735698 -157.13004029 35.60007863 -148.02392578 30.25219727 C-139.82430508 25.44952396 -131.54115214 20.8075399 -123.23461914 16.19287109 C-116.22909183 12.28717838 -109.31880688 8.2448996 -102.4375 4.125 C-67.86000823 -16.46733772 -35.50233395 -20.68667124 0 0 Z " fill="#1073D1" transform="translate(590,263)"/>
<path d="M0 0 C0.33 0 0.66 0 1 0 C1.09173958 32.81604957 1.16213185 65.63206561 1.20426132 98.44821434 C1.20926359 102.33054805 1.21444094 106.21288151 1.21972656 110.09521484 C1.2207758 110.8680531 1.22182505 111.64089135 1.22290608 112.43714894 C1.24026775 124.91835734 1.27178182 137.39949135 1.30861118 149.88065575 C1.34613904 162.70637877 1.36826076 175.53206308 1.37635398 188.35783875 C1.38181732 196.25942362 1.39901425 204.16079816 1.43166587 212.06231822 C1.4554932 218.14148278 1.45779022 224.22046993 1.45243073 230.29968643 C1.45352371 232.77870216 1.46137969 235.25772647 1.4768219 237.73669434 C1.62118732 262.12526286 -0.91297264 283.37289805 -18.4465332 301.56835938 C-19.94553321 303.06665793 -21.4648261 304.53886652 -23 306 C-23.79019531 306.76054688 -24.58039063 307.52109375 -25.39453125 308.3046875 C-30.24690389 312.55361345 -35.54484623 315.5112886 -41.3125 318.3125 C-41.97531982 318.63839111 -42.63813965 318.96428223 -43.32104492 319.30004883 C-54.50610283 324.43862355 -65.92956006 325.4436789 -78.09140015 325.38095093 C-79.5727363 325.38441554 -81.05406986 325.38918545 -82.53539813 325.39513266 C-86.57030388 325.40756244 -90.60499454 325.4015092 -94.63990068 325.39217401 C-99.00538563 325.38535055 -103.37083511 325.39588107 -107.73631287 325.40411377 C-116.27476835 325.41741897 -124.81314449 325.41458753 -133.35160302 325.40587585 C-140.29529753 325.39908614 -147.23896989 325.39818814 -154.18266678 325.4014473 C-155.66806049 325.40213684 -155.66806049 325.40213684 -157.18346215 325.40284032 C-159.19551925 325.40379955 -161.20757633 325.4047722 -163.21963342 325.4057581 C-182.06554322 325.41430281 -200.91140917 325.40449275 -219.75731178 325.388357 C-235.90528711 325.37495882 -252.05319772 325.37727958 -268.20117188 325.39111328 C-286.97897742 325.40719251 -305.75674456 325.41347456 -324.53455603 325.40427649 C-326.53960458 325.4033209 -328.54465313 325.40237779 -330.54970169 325.4014473 C-331.53607175 325.40098447 -332.52244182 325.40052164 -333.53870188 325.40004479 C-340.4678311 325.39746162 -347.39693583 325.40181144 -354.32606125 325.40888596 C-362.77944048 325.41732741 -371.23273621 325.41496561 -379.68610595 325.39904372 C-383.99381809 325.39119583 -388.30139135 325.38800943 -392.60910225 325.39799118 C-396.56196839 325.40701166 -400.51456856 325.40188596 -404.467411 325.38605852 C-405.88786945 325.38274147 -407.30835096 325.38433429 -408.72879426 325.39168589 C-431.56604687 325.50069924 -450.27951853 319.18383646 -467.125 303.375 C-481.85057386 288.08756005 -488.42812082 269.50439713 -488.125 248.4375 C-488.11597656 247.23802734 -488.10695313 246.03855469 -488.09765625 244.80273438 C-488.07427412 241.86827691 -488.0415028 238.93424766 -488 236 C-486.76040118 236.01300974 -486.76040118 236.01300974 -485.49575996 236.02628231 C-465.26624286 236.23333067 -445.03771181 236.35537304 -424.80713081 236.38603115 C-415.02302219 236.40284909 -405.24055425 236.44707412 -395.45703125 236.55883789 C-386.91657449 236.65632843 -378.37775767 236.69932424 -369.83673847 236.68036038 C-365.32517559 236.67215471 -360.81720372 236.68885983 -356.30630875 236.77114677 C-333.74825999 237.16142027 -318.12201713 235.4023566 -299.47132587 221.78309536 C-297.16036798 220.11570768 -294.8104545 218.62215004 -292.36842346 217.15628052 C-288.93141805 215.3921741 -288.93141805 215.3921741 -288.01977539 212.79223633 C-288.00998657 211.41007935 -288.00998657 211.41007935 -288 210 C-287.9520076 208.98140396 -287.9520076 208.98140396 -287.90304565 207.94223022 C-287.78669061 205.40257091 -287.73117026 202.86607175 -287.68359375 200.32421875 C-287.6524221 198.93648003 -287.6524221 198.93648003 -287.62062073 197.52070618 C-287.5554344 194.57637693 -287.49638442 191.63196135 -287.4375 188.6875 C-287.39428536 186.68684017 -287.35067014 184.68618894 -287.30664062 182.68554688 C-287.1997848 177.79045221 -287.09843081 172.89527103 -287 168 C-283.01915685 169.30459116 -279.20629077 170.74349953 -275.375 172.4375 C-265.25983411 176.60184357 -256.42746808 178.27239878 -245.5 178.375 C-244.55084717 178.38893799 -243.60169434 178.40287598 -242.6237793 178.41723633 C-231.363321 178.34276624 -221.63643682 175.2907346 -211.625 170.3125 C-210.65949219 169.84118652 -209.69398438 169.36987305 -208.69921875 168.88427734 C-190.3843497 159.84520814 -172.42583221 150.05201722 -154.68920898 139.93188477 C-147.64197733 135.91167677 -140.54489312 131.9878249 -133.43106079 128.08734131 C-122.79907465 122.25606269 -112.26093338 116.29660827 -101.81005859 110.14428711 C-94.82264211 106.03832148 -87.77308003 102.05877985 -80.6875 98.125 C-71.58933118 93.06431425 -62.58055524 87.87006061 -53.625 82.5625 C-52.52631592 81.9123291 -51.42763184 81.2621582 -50.2956543 80.59228516 C-28.66276335 67.71804462 -9.83844224 54.0809429 -2.25 28.75 C-0.07149805 19.39598034 -0.23102483 9.56264112 0 0 Z " fill="#38C4F0" transform="translate(788,406)"/>
<path d="M0 0 C3.48990227 1.42768729 5.06518177 3.0546351 7.125 6.1875 C7.62257813 6.92355469 8.12015625 7.65960938 8.6328125 8.41796875 C12.50748541 15.7355653 12.27531261 22.79637554 12.22705078 30.91186523 C12.22734283 32.20035873 12.22763489 33.48885223 12.22793579 34.81639099 C12.22850735 38.33244977 12.21678506 41.84837085 12.20278788 45.36439776 C12.19024761 49.04525722 12.18910743 52.72612016 12.18673706 56.40699768 C12.18053195 63.36957403 12.16413431 70.33208723 12.14403808 77.29463583 C12.12164885 85.22450538 12.11067806 93.15437801 12.10064721 101.08427131 C12.07976718 117.38955111 12.04461013 133.69476749 12 150 C14.8615864 148.41034445 17.72315324 146.8206537 20.5847168 145.23095703 C21.78897938 144.56197136 21.78897938 144.56197136 23.0175705 143.87947083 C27.560524 141.35568009 32.10295901 138.83096297 36.64453125 136.3046875 C51.85966793 127.84307226 67.09572589 119.42005977 82.34277344 111.01611328 C87.79260606 108.0120725 93.24100684 105.00543653 98.68951416 101.99899292 C101.70961729 100.33255534 104.72981335 98.66628621 107.75 97 C108.95833378 96.33333414 110.16666711 95.66666747 111.375 95 C129.5 85 129.5 85 147.625 75 C148.22311493 74.67000504 148.82122986 74.34001007 149.43746948 74.00001526 C150.64590276 73.3332945 151.85433782 72.66657697 153.06277466 71.99986267 C156.08209344 70.33405002 159.10138134 68.66818146 162.12060547 67.00219727 C167.57614804 63.9919431 173.03191643 60.982102 178.48883057 57.97433472 C191.93635554 50.56221957 205.3739197 43.1329419 218.79248047 35.66845703 C228.66373351 30.17990665 238.55261261 24.72357703 248.44726562 19.27734375 C250.16719727 18.32988281 250.16719727 18.32988281 251.921875 17.36328125 C252.99115234 16.77885254 254.06042969 16.19442383 255.16210938 15.59228516 C257.48399921 14.28951799 259.71165946 12.91292446 261.953125 11.48046875 C265 10 265 10 268.00390625 9.9375 C271.9264669 11.3285515 274.7332879 13.38470089 277.9375 16 C278.55286621 16.4947583 279.16823242 16.9895166 279.80224609 17.49926758 C290.18618579 26.06815076 297.18713514 37.04952528 298.78393555 50.57373047 C300.8422074 73.68684418 298.22394811 93.30744365 283.16796875 111.515625 C272.40496066 123.93708963 259.42561805 131.66514279 245.1953125 139.546875 C239.11555463 142.91665587 233.11629205 146.41347138 227.125 149.9375 C217.86114007 155.37043473 208.52570161 160.66210029 199.14501953 165.89038086 C192.57342725 169.55398452 186.0258319 173.25553729 179.5 177 C161.73757372 187.17833546 143.86079942 197.13771383 125.8359375 206.84375 C122.0150003 208.90322627 118.20850684 210.98587398 114.4140625 213.09375 C104.96931185 218.33217007 95.45677101 223.38665712 85.75 228.125 C84.82179443 228.58664551 83.89358887 229.04829102 82.93725586 229.52392578 C67.31002205 237.0192389 47.24379944 237.72516883 30.76489258 232.39013672 C26.74026639 230.96605983 22.91228106 229.18494443 19.0625 227.34765625 C18.37865234 227.02478638 17.69480469 226.7019165 16.99023438 226.3692627 C15.32533271 225.58265487 13.66244982 224.7917765 12 224 C12.01047363 225.24088379 12.02094727 226.48176758 12.03173828 227.76025391 C12.06802755 232.37838845 12.09093298 236.99651046 12.10986328 241.61474609 C12.11990052 243.61086143 12.1335332 245.60696214 12.15087891 247.60302734 C12.17522735 250.47757587 12.18650605 253.35192941 12.1953125 256.2265625 C12.20563507 257.11429352 12.21595764 258.00202454 12.22659302 258.91665649 C12.22743889 263.62260358 12.12169876 267.6911631 10 272 C7.94384766 273.76342773 7.94384766 273.76342773 5.4140625 275.18359375 C4.48207031 275.71919922 3.55007813 276.25480469 2.58984375 276.80664062 C1.61144531 277.34482422 0.63304687 277.88300781 -0.375 278.4375 C-1.31472656 278.97181641 -2.25445312 279.50613281 -3.22265625 280.05664062 C-5.10252838 281.12480808 -6.99094077 282.17811051 -8.88830948 283.21488094 C-11.97148591 284.92323535 -11.97148591 284.92323535 -14.62215805 286.82717991 C-23.09544754 292.53838141 -30.637376 292.96448674 -40.50878906 292.79467773 C-42.1361533 292.79269899 -43.76352377 292.79381978 -45.3908844 292.79777527 C-49.77282487 292.79976934 -54.15340171 292.75885233 -58.5350275 292.70975757 C-63.12734473 292.66575528 -67.7196993 292.66186742 -72.31219482 292.65357971 C-80.99254762 292.63189377 -89.67227727 292.57454756 -98.35235667 292.50413328 C-108.24111298 292.42566939 -118.12990034 292.3873481 -128.01889086 292.35226524 C-148.34627395 292.27925799 -168.67309759 292.15627273 -189 292 C-189 288.37 -189 284.74 -189 281 C-188.15277658 280.99761165 -187.30555315 280.99522329 -186.43265629 280.99276257 C-165.80008056 280.93357853 -145.16762131 280.85800658 -124.53517246 280.76428509 C-114.55739461 280.71935524 -104.57965223 280.67993407 -94.60180664 280.65356445 C-85.90322617 280.63056164 -77.20475821 280.59713805 -68.50626701 280.55129844 C-63.90219237 280.52739705 -59.29822894 280.50864807 -54.6940937 280.50238609 C-50.35613541 280.49632128 -46.01846157 280.47627113 -41.68060875 280.44572449 C-40.09281518 280.4369666 -38.5049844 280.433217 -36.91716766 280.43499184 C-25.68023687 280.4435827 -15.62237077 279.95413704 -7 272 C-0.21798296 264.4623778 1.45112714 256.40350124 1.36749268 246.54940796 C1.37076152 245.52183431 1.37403036 244.49426067 1.37739825 243.43554842 C1.3846588 240.00554566 1.37054083 236.57597254 1.35644531 233.14599609 C1.35723646 230.68167549 1.35933456 228.21735501 1.36264038 225.7530365 C1.36723775 219.76292397 1.35798383 213.77297835 1.34235242 207.7828965 C1.32477945 200.80387101 1.32339246 193.82487015 1.32273683 186.84582599 C1.32105043 174.39295786 1.30525498 161.94014812 1.28125 149.48730469 C1.25798369 137.40884924 1.24382362 125.3304308 1.24023438 113.25195312 C1.23990022 112.1355906 1.23990022 112.1355906 1.23955932 110.9966753 C1.23911671 109.49733506 1.23867469 107.99799482 1.23823325 106.49865458 C1.2379039 105.38918378 1.2379039 105.38918378 1.2375679 104.25729942 C1.23735192 103.51949606 1.23713593 102.7816927 1.2369134 102.02153166 C1.23321086 90.50193347 1.22185225 78.98234124 1.2094375 67.46274959 C1.20500644 63.29067322 1.20156644 59.1185974 1.19881538 54.9465196 C1.19396398 47.71068507 1.1838398 40.47488215 1.16798782 33.23906136 C1.16346637 30.83564194 1.16062652 28.43221869 1.15958023 26.02879524 C1.15783328 22.75137648 1.14994703 19.47402889 1.14044189 16.19662476 C1.14130838 15.24293074 1.14217486 14.28923672 1.1430676 13.30664289 C1.12323758 8.75667501 0.93082733 4.47714925 0 0 Z " fill="#01459B" transform="translate(489,350)"/>
<path d="M0 0 C2.37402344 1.06298828 2.37402344 1.06298828 4.859375 2.5703125 C5.79716797 3.12976563 6.73496094 3.68921875 7.70117188 4.265625 C8.70728516 4.87921875 9.71339844 5.4928125 10.75 6.125 C12.92065834 7.42131029 15.09257264 8.71551941 17.265625 10.0078125 C18.38130859 10.67329102 19.49699219 11.33876953 20.64648438 12.02441406 C25.88036087 15.10773734 31.18776247 18.05442703 36.5 21 C45.71983823 26.1289831 54.85248303 31.38944045 63.94970703 36.73242188 C72.38635558 41.67406613 80.90272996 46.46525126 89.453125 51.20703125 C95.7114052 54.68477582 101.88600465 58.27420542 108 62 C105.18469485 63.8768701 102.3465104 65.50294338 99.3828125 67.1328125 C98.23361328 67.76574219 97.08441406 68.39867187 95.90039062 69.05078125 C94.64193285 69.742198 93.38346915 70.43360395 92.125 71.125 C90.81697998 71.84491163 89.50903854 72.56496606 88.20117188 73.28515625 C85.48240117 74.78213021 82.76329231 76.27848725 80.04394531 77.77441406 C74.45532614 80.84933842 68.87081885 83.93170758 63.28631592 87.01409912 C60.27440931 88.67642623 57.26218751 90.33818199 54.25 92 C53.04166518 92.66666398 51.83333185 93.33333064 50.625 94 C3.5 120 3.5 120 -43.625 146 C-44.22309479 146.32998489 -44.82118958 146.65996979 -45.43740845 146.99995422 C-46.64604162 147.66678316 -47.85468013 148.33360241 -49.06332397 149.00041199 C-52.07961367 150.66451667 -55.09581107 152.3287882 -58.11181641 153.9934082 C-63.60341874 157.02416456 -69.09574287 160.05357895 -74.59141541 163.07695007 C-77.68639175 164.77965313 -80.78085162 166.48329288 -83.875 168.1875 C-84.78419693 168.68825546 -84.78419693 168.68825546 -85.71176147 169.1991272 C-93.77542536 173.64275601 -101.80768411 178.13852295 -109.8125 182.6875 C-117.91508188 187.28892192 -126.06194534 191.80235715 -134.25 196.25 C-135.2810083 196.81162842 -136.3120166 197.37325684 -137.37426758 197.9519043 C-138.8054895 198.72594604 -138.8054895 198.72594604 -140.265625 199.515625 C-141.10899414 199.97227539 -141.95236328 200.42892578 -142.82128906 200.89941406 C-145 202 -145 202 -148 203 C-148.30409656 187.36219936 -148.53312034 171.72520042 -148.67355824 156.08517456 C-148.74050997 148.82254024 -148.83172337 141.56174585 -148.98071289 134.30029297 C-149.11056041 127.96874786 -149.19421661 121.63853509 -149.22315043 115.30569553 C-149.24006401 111.95282118 -149.2864289 108.60676359 -149.37449074 105.25454712 C-149.88929894 84.8440605 -149.88929894 84.8440605 -146.7546978 80.12538147 C-143.33892802 76.85226426 -139.46433203 75.47759848 -135 74 C-133.0603155 72.94524068 -131.13795243 71.85706626 -129.24609375 70.71875 C-127.3112257 69.64343694 -125.37498034 68.57059912 -123.4375 67.5 C-114.32295269 62.42876888 -105.23936492 57.30728824 -96.1875 52.125 C-95.60703918 51.79284485 -95.02657837 51.4606897 -94.42852783 51.11846924 C-90.28479244 48.74720366 -86.14223475 46.37388575 -82 44 C-77.27165982 41.29022133 -72.54270072 38.5815298 -67.8125 35.875 C-67.23176727 35.54262329 -66.65103455 35.21024658 -66.05270386 34.86779785 C-56.80178728 29.57530597 -47.51301144 24.35317149 -38.19555664 19.17871094 C-32.84566438 16.19628245 -27.54188677 13.15317569 -22.28125 10.015625 C-21.18651367 9.36480957 -20.09177734 8.71399414 -18.96386719 8.04345703 C-16.87018291 6.79367193 -14.78196759 5.53466451 -12.70019531 4.26513672 C-11.76272461 3.70584473 -10.82525391 3.14655273 -9.859375 2.5703125 C-8.62912598 1.82418701 -8.62912598 1.82418701 -7.37402344 1.06298828 C-4.61302511 -0.17327115 -2.99525508 -0.38493708 0 0 Z " fill="#0078D2" transform="translate(649,297)"/>
<path d="M0 0 C14.85625551 11.01680905 26.28085601 27.15353269 29.79321289 45.52636719 C30.63789791 51.30175566 30.49847589 57.09760655 30.52197266 62.92480469 C30.55291016 64.808125 30.55291016 64.808125 30.58447266 66.72949219 C30.61828365 74.87794157 29.67927998 82.01776666 27.27197266 89.79980469 C26.91876953 90.97414063 26.56556641 92.14847656 26.20166016 93.35839844 C19.64473836 111.25636646 7.16769755 125.06192703 -9.72802734 133.79980469 C-20.41839403 138.66239134 -29.29014365 141.00114193 -41.10302734 141.04980469 C-42.92253906 141.08074219 -42.92253906 141.08074219 -44.77880859 141.11230469 C-56.12643801 141.16074708 -66.73897969 139.50184758 -76.85302734 134.17480469 C-77.52406494 133.82780518 -78.19510254 133.48080566 -78.88647461 133.12329102 C-96.77450888 123.54263192 -107.86307728 107.75806561 -114.60302734 88.98730469 C-115.00315732 87.59846643 -115.37871967 86.20228814 -115.72802734 84.79980469 C-115.93041016 84.07019531 -116.13279297 83.34058594 -116.34130859 82.58886719 C-121.42285416 60.67254143 -117.10234654 38.85165283 -105.72802734 19.79980469 C-103.60161229 16.57080404 -101.32079119 13.66397143 -98.72802734 10.79980469 C-98.15955078 10.13980469 -97.59107422 9.47980469 -97.00537109 8.79980469 C-72.81635446 -17.4948376 -28.82483595 -20.0201884 0 0 Z " fill="#FBFCFE" transform="translate(384.72802734375,417.2001953125)"/>
<path d="M0 0 C0.83595703 0.48645996 1.67191406 0.97291992 2.53320312 1.47412109 C7.01590475 4.09526107 11.47974264 6.7468681 15.9375 9.41015625 C22.88783426 13.54798092 29.90991736 17.55786076 36.9375 21.5625 C37.54004608 21.90597473 38.14259216 22.24944946 38.76339722 22.60333252 C41.55888203 24.19652875 44.35510838 25.78841522 47.15185547 27.37939453 C50.43702067 29.24866649 53.71914377 31.12317831 57 33 C54.20483131 34.86344579 51.37652075 36.53613616 48.4609375 38.203125 C47.3359082 38.84652832 46.21087891 39.48993164 45.05175781 40.15283203 C43.82621261 40.85195943 42.60062559 41.55101354 41.375 42.25 C40.75185913 42.60592224 40.12871826 42.96184448 39.48669434 43.32855225 C30.76744208 48.30839951 22.02118262 53.23706041 13.25 58.125 C4.10552377 63.22211055 -4.95359122 68.44998764 -13.98144531 73.75048828 C-21.10585883 77.92289326 -28.2857812 81.98512553 -35.5 86 C-44.92249492 91.24388087 -54.2594547 96.61858412 -63.56274414 102.07080078 C-69.49803299 105.5469356 -75.44686445 108.99501603 -81.4375 112.375 C-82.10015869 112.75052002 -82.76281738 113.12604004 -83.44555664 113.51293945 C-87.87707912 116 -87.87707912 116 -89 116 C-89.09796875 115.01 -89.1959375 114.02 -89.296875 113 C-90.79474541 99.24745956 -95.11845599 91.56278453 -105 82 C-105.7425 81.21625 -106.485 80.4325 -107.25 79.625 C-109.39250065 77.57988574 -111.50870154 75.66545727 -113.8125 73.8125 C-114.41707031 73.32394531 -115.02164063 72.83539063 -115.64453125 72.33203125 C-121.59423219 68.96744083 -128.13512684 68.6997276 -134.80273438 68.68115234 C-135.64270966 68.67110672 -136.48268494 68.6610611 -137.34811401 68.65071106 C-140.09665302 68.62006913 -142.84509549 68.60289721 -145.59375 68.5859375 C-147.51046569 68.56721054 -149.42717328 68.54763601 -151.34387207 68.5272522 C-156.36774904 68.47608637 -161.39165269 68.43637771 -166.41564941 68.39910889 C-171.5506034 68.35897142 -176.68544788 68.30792366 -181.8203125 68.2578125 C-191.88013123 68.16123747 -201.94001202 68.0767741 -212 68 C-209.54706005 65.45105641 -207.195976 63.84340824 -204.08203125 62.13671875 C-203.08751953 61.58693359 -202.09300781 61.03714844 -201.06835938 60.47070312 C-199.99392578 59.88224609 -198.91949219 59.29378906 -197.8125 58.6875 C-195.52633591 57.42239246 -193.24120408 56.15541801 -190.95703125 54.88671875 C-190.08342453 54.40173416 -190.08342453 54.40173416 -189.19216919 53.9069519 C-183.41141749 50.68916417 -177.70246767 47.35391829 -172 44 C-163.8862038 39.23505051 -155.72191953 34.57582132 -147.5 30 C-139.1977253 25.37828838 -130.94915395 20.6773616 -122.75 15.875 C-81.06254065 -8.52949094 -45.54055923 -26.53579278 0 0 Z " fill="#26AEE8" transform="translate(590,263)"/>
<path d="M0 0 C54.12 0 108.24 0 164 0 C159 5 159 5 156.625 6.6875 C149.44738946 13.0106331 145.78066345 21.01516809 143 30 C142.67 30.99 142.34 31.98 142 33 C141.05969608 46.58015853 143.09203116 57.81976819 151 69 C151.44085938 69.63679687 151.88171875 70.27359375 152.3359375 70.9296875 C158.41668411 78.83817298 167.90978529 83.38635909 177 87 C177 87.33 177 87.66 177 88 C161.83930059 88.09376741 146.67861462 88.16413705 131.5176897 88.20724869 C124.47694471 88.22780528 117.43638071 88.25579222 110.39575195 88.30175781 C103.59411099 88.34614168 96.79265771 88.36917517 89.99088097 88.37950897 C87.40309386 88.38686815 84.81531637 88.40123848 82.22760963 88.42292023 C56.34181413 88.63107607 56.34181413 88.63107607 46 84 C44.81921875 83.51917969 43.6384375 83.03835938 42.421875 82.54296875 C36.02101897 79.29575085 30.38858033 75.75058812 25 71 C24.26136719 70.35546875 23.52273438 69.7109375 22.76171875 69.046875 C10.11792406 57.25473488 3.71008065 42.69536292 0 26 C0 17.42 0 8.84 0 0 Z " fill="#158ED9" transform="translate(300,642)"/>
<path d="M0 0 C1.03060547 0.80630859 1.03060547 0.80630859 2.08203125 1.62890625 C2.75878906 2.15613281 3.43554688 2.68335938 4.1328125 3.2265625 C12.1540739 10.31330801 18.51940285 22.26023506 19.24316406 33.02563477 C19.56692494 52.16329064 18.22734931 67.88185522 4.46484375 82.37109375 C0.93249823 85.71813589 -2.62965679 88.33415738 -6.91796875 90.62890625 C-7.66820312 91.04140625 -8.4184375 91.45390625 -9.19140625 91.87890625 C-19.14416346 96.40003255 -32.06885426 96.21003162 -42.58984375 93.78125 C-55.47300689 88.85827963 -64.49519904 79.29429486 -70.23046875 66.94140625 C-70.83920161 65.52286587 -71.39738132 64.08211003 -71.91796875 62.62890625 C-72.27632813 61.64921875 -72.6346875 60.66953125 -73.00390625 59.66015625 C-74.52744914 54.16643551 -74.24650816 48.47190096 -74.23046875 42.81640625 C-74.24658203 41.69169922 -74.26269531 40.56699219 -74.27929688 39.40820312 C-74.28754715 25.20948363 -69.5524028 14.00911228 -59.96875 3.51171875 C-42.35430473 -12.66001958 -19.19756682 -13.80149399 0 0 Z " fill="#1174D2" transform="translate(368.91796875,438.37109375)"/>
<path d="M0 0 C3.48990227 1.42768729 5.06518177 3.0546351 7.125 6.1875 C7.62257813 6.92355469 8.12015625 7.65960938 8.6328125 8.41796875 C12.07743496 14.92338431 12.28817657 21.00512745 12.25396729 28.21644592 C12.25864726 29.73814877 12.25864726 29.73814877 12.26342177 31.29059309 C12.27138455 34.68215086 12.26508477 38.07352886 12.25878906 41.46508789 C12.26149967 43.89970504 12.26506099 46.33432138 12.26940918 48.76893616 C12.2775802 54.69028758 12.27638699 60.61159248 12.2705839 66.5329426 C12.26606279 71.34584838 12.26545645 76.15873996 12.26763153 80.97164726 C12.267938 81.65725608 12.26824446 82.3428649 12.26856022 83.04924975 C12.26919968 84.44214063 12.26984811 85.8350315 12.2705054 87.22792237 C12.27620483 100.28070753 12.26965666 113.33346457 12.25890467 126.38624512 C12.2499675 137.58246199 12.2515233 148.77863739 12.26074219 159.97485352 C12.27144821 172.98323879 12.27565764 185.99159944 12.26951766 198.9999885 C12.26888057 200.38738183 12.26825183 201.77477516 12.26763153 203.1621685 C12.2671687 204.18605374 12.2671687 204.18605374 12.26669653 205.23062353 C12.26497074 210.03741758 12.26788215 214.844196 12.27259064 219.65098763 C12.27878944 226.12129724 12.27436833 232.59154694 12.26280212 239.06184959 C12.2601553 241.43785598 12.260921 243.81386896 12.26532745 246.18987274 C12.27078327 249.43018381 12.26394811 252.67024276 12.25396729 255.91053772 C12.26065945 257.32459266 12.26065945 257.32459266 12.26748681 258.76721436 C12.23886701 263.54959552 11.99441064 267.55525467 10 272 C7.94384766 273.76342773 7.94384766 273.76342773 5.4140625 275.18359375 C4.48207031 275.71919922 3.55007813 276.25480469 2.58984375 276.80664062 C1.61144531 277.34482422 0.63304687 277.88300781 -0.375 278.4375 C-1.31472656 278.97181641 -2.25445312 279.50613281 -3.22265625 280.05664062 C-5.10252838 281.12480808 -6.99094077 282.17811051 -8.88830948 283.21488094 C-11.97148591 284.92323535 -11.97148591 284.92323535 -14.62215805 286.82717991 C-23.09544754 292.53838141 -30.637376 292.96448674 -40.50878906 292.79467773 C-42.1361533 292.79269899 -43.76352377 292.79381978 -45.3908844 292.79777527 C-49.77282487 292.79976934 -54.15340171 292.75885233 -58.5350275 292.70975757 C-63.12734473 292.66575528 -67.7196993 292.66186742 -72.31219482 292.65357971 C-80.99254762 292.63189377 -89.67227727 292.57454756 -98.35235667 292.50413328 C-108.24111298 292.42566939 -118.12990034 292.3873481 -128.01889086 292.35226524 C-148.34627395 292.27925799 -168.67309759 292.15627273 -189 292 C-189 288.37 -189 284.74 -189 281 C-188.15277658 280.99761165 -187.30555315 280.99522329 -186.43265629 280.99276257 C-165.80008056 280.93357853 -145.16762131 280.85800658 -124.53517246 280.76428509 C-114.55739461 280.71935524 -104.57965223 280.67993407 -94.60180664 280.65356445 C-85.90322617 280.63056164 -77.20475821 280.59713805 -68.50626701 280.55129844 C-63.90219237 280.52739705 -59.29822894 280.50864807 -54.6940937 280.50238609 C-50.35613541 280.49632128 -46.01846157 280.47627113 -41.68060875 280.44572449 C-40.09281518 280.4369666 -38.5049844 280.433217 -36.91716766 280.43499184 C-25.68023687 280.4435827 -15.62237077 279.95413704 -7 272 C-0.21798296 264.4623778 1.45112714 256.40350124 1.36749268 246.54940796 C1.37076152 245.52183431 1.37403036 244.49426067 1.37739825 243.43554842 C1.3846588 240.00554566 1.37054083 236.57597254 1.35644531 233.14599609 C1.35723646 230.68167549 1.35933456 228.21735501 1.36264038 225.7530365 C1.36723775 219.76292397 1.35798383 213.77297835 1.34235242 207.7828965 C1.32477945 200.80387101 1.32339246 193.82487015 1.32273683 186.84582599 C1.32105043 174.39295786 1.30525498 161.94014812 1.28125 149.48730469 C1.25798369 137.40884924 1.24382362 125.3304308 1.24023438 113.25195312 C1.23990022 112.1355906 1.23990022 112.1355906 1.23955932 110.9966753 C1.23911671 109.49733506 1.23867469 107.99799482 1.23823325 106.49865458 C1.2379039 105.38918378 1.2379039 105.38918378 1.2375679 104.25729942 C1.23735192 103.51949606 1.23713593 102.7816927 1.2369134 102.02153166 C1.23321086 90.50193347 1.22185225 78.98234124 1.2094375 67.46274959 C1.20500644 63.29067322 1.20156644 59.1185974 1.19881538 54.9465196 C1.19396398 47.71068507 1.1838398 40.47488215 1.16798782 33.23906136 C1.16346637 30.83564194 1.16062652 28.43221869 1.15958023 26.02879524 C1.15783328 22.75137648 1.14994703 19.47402889 1.14044189 16.19662476 C1.14130838 15.24293074 1.14217486 14.28923672 1.1430676 13.30664289 C1.12323758 8.75667501 0.93082733 4.47714925 0 0 Z " fill="#173762" transform="translate(489,350)"/>
<path d="M0 0 C0.1727936 18.47911229 0.33905334 36.95828095 0.5 55.4375 C0.50594854 56.11962051 0.51189708 56.80174103 0.51802588 57.50453186 C0.82722475 93.00286338 1.10225922 128.49998345 1.0625 164 C1.06164398 164.77019848 1.06078796 165.54039696 1.05990601 166.33393478 C1.04923157 175.22264964 1.03045674 184.11132886 1 193 C-2.46550774 191.74856665 -5.39580537 190.64164865 -8 188 C-8.39300948 185.41070716 -8.52368703 183.24373756 -8.48101807 180.65388489 C-8.48443577 179.89994798 -8.48785347 179.14601107 -8.49137473 178.36922759 C-8.49797908 175.83536816 -8.47593647 173.30256112 -8.45410156 170.76879883 C-8.45297363 168.95557175 -8.45360588 167.14234284 -8.45587158 165.32911682 C-8.45702178 160.39954042 -8.43346299 155.47035136 -8.40557575 150.54086518 C-8.38061304 145.39190258 -8.37822415 140.24293163 -8.37347412 135.09391785 C-8.36102924 125.34037448 -8.32818716 115.58700992 -8.28807616 105.83354539 C-8.24340549 94.73093115 -8.22138325 83.62830848 -8.20129442 72.52562678 C-8.15945587 49.68365196 -8.08907443 26.84183599 -8 4 C-1.125 0 -1.125 0 0 0 Z " fill="#102D5C" transform="translate(500,380)"/>
<path d="M0 0 C4.05802221 1.35267407 7.74753964 2.72308571 11.625 4.4375 C28.02714276 11.1901483 44.54737709 11.22875926 62 9 C58.88873973 12.45525711 55.49207287 14.58449543 51.4375 16.75 C43.67501855 21.006157 36.0465529 25.47707693 28.4375 30 C27.56002609 30.52092224 27.56002609 30.52092224 26.66482544 31.05236816 C21.08873374 34.36297043 15.51796511 37.68222027 9.96484375 41.03125 C8.90342163 41.67126953 8.90342163 41.67126953 7.82055664 42.32421875 C6.56182826 43.08492096 5.30441121 43.84779907 4.04858398 44.61328125 C0.10776426 47 0.10776426 47 -1 47 C-0.67 31.49 -0.34 15.98 0 0 Z " fill="#158ED8" transform="translate(501,574)"/>
<path d="M0 0 C3.48990227 1.42768729 5.06518177 3.0546351 7.125 6.1875 C7.62257813 6.92355469 8.12015625 7.65960938 8.6328125 8.41796875 C12.50748541 15.7355653 12.27531261 22.79637554 12.22705078 30.91186523 C12.22734283 32.20035873 12.22763489 33.48885223 12.22793579 34.81639099 C12.22850735 38.33244977 12.21678506 41.84837085 12.20278788 45.36439776 C12.19024761 49.04525722 12.18910743 52.72612016 12.18673706 56.40699768 C12.18053195 63.36957403 12.16413431 70.33208723 12.14403808 77.29463583 C12.12164885 85.22450538 12.11067806 93.15437801 12.10064721 101.08427131 C12.07976718 117.38955111 12.04461013 133.69476749 12 150 C11.67 150 11.34 150 11 150 C10.67 110.73 10.34 71.46 10 31 C7.03 32.485 7.03 32.485 4 34 C3.67 106.27 3.34 178.54 3 253 C2.67 253 2.34 253 2 253 C1.99576806 251.73255888 1.99153612 250.46511776 1.98717594 249.15926933 C1.88650848 219.07528254 1.78080071 188.99131806 1.66888306 158.90737122 C1.65511342 155.20484918 1.64138633 151.50232698 1.62768555 147.79980469 C1.62495724 147.0626967 1.62222894 146.32558872 1.61941796 145.56614412 C1.57533856 133.629765 1.53470641 121.69337651 1.49534739 109.756981 C1.45488709 97.50986328 1.41072417 85.26276296 1.36312145 73.0156709 C1.333863 65.45809604 1.30749534 57.90052243 1.28482103 50.34292491 C1.26712738 44.5485323 1.24428314 38.75416886 1.21950912 32.95980263 C1.21015199 30.58219442 1.20247192 28.20457893 1.19658089 25.82695961 C1.18829703 22.58413746 1.17401381 19.34139529 1.15821838 16.09860229 C1.15724028 15.15501511 1.15626217 14.21142793 1.15525442 13.2392472 C1.12685359 8.71361347 0.92144376 4.45358057 0 0 Z " fill="#154377" transform="translate(489,350)"/>
<path d="M0 0 C0 23.43 0 46.86 0 71 C-5 69 -5 69 -8 67 C-8.36076355 64.36776733 -8.36076355 64.36776733 -8.34057617 60.98974609 C-8.34034958 59.72858978 -8.34012299 58.46743347 -8.33988953 57.1680603 C-8.32456844 55.78651579 -8.30892044 54.40497487 -8.29296875 53.0234375 C-8.28737433 51.61382497 -8.2831035 50.20420662 -8.28010559 48.79458618 C-8.26864454 45.08231536 -8.23916704 41.370396 -8.20599365 37.65826416 C-8.1753196 33.87118281 -8.16160599 30.08404474 -8.14648438 26.296875 C-8.11429811 18.864423 -8.0630871 11.43226072 -8 4 C-1.125 0 -1.125 0 0 0 Z " fill="#101B49" transform="translate(500,501)"/>
</svg>
